<svg width="99" height="137" viewBox="0 0 99 137" fill="none" xmlns="http://www.w3.org/2000/svg">
<g clip-path="url(#clip0_1134_26773)">
<path d="M34.6087 20.7204C34.9189 20.0963 34.7734 18.89 34.742 18.134C34.6272 15.3408 33.9533 8.80983 35.1371 6.64082C35.6135 5.76824 36.5356 5.15115 37.2209 4.72357C39.028 3.59552 41.017 2.97572 42.9511 2.55155C47.8568 1.47587 59.0097 1.6362 62.8893 6.13855C63.6088 6.97311 63.8713 7.84205 63.9611 9.18157C64.0845 11.0254 63.5539 19.1321 63.7907 19.8789C64.8069 21.1704 66.8337 18.4863 65.2248 26.1319C64.5181 29.4913 64.8775 32.0124 62.0228 32.5919C61.6256 34.2974 61.3218 35.8869 60.486 37.2519C60.282 37.6983 59.9982 38.2795 59.8377 38.7466C59.899 41.5274 59.8748 44.7268 60.1422 47.4595C60.3212 49.2895 63.7629 50.9304 64.762 51.5337C69.2348 54.2353 74.0101 55.5037 78.7083 56.829C83.3423 58.1364 87.9108 60.0478 90.0759 66.9594C91.8958 72.3914 91.1691 75.4647 91.5949 80.9844C91.9108 85.0891 92.6225 89.1888 92.8907 93.4867C93.0518 96.1228 93.1766 98.7639 93.2651 101.408C93.4462 107.502 93.3022 106.717 94.8618 112.378C95.5258 114.805 95.9793 117.35 96.2111 119.951C97.1054 130.123 96.0656 141.429 96.7987 151.769C97.1189 156.283 97.4555 161.108 97.4677 165.6C97.4684 166.007 96.6112 167.737 96.4122 167.968C95.632 168.876 94.0517 173.586 93.4819 174.266C92.0684 175.952 86.6784 180.216 85.0653 179.208C84.7743 178.619 85.6059 175.127 86.0173 174.706C86.493 174.221 87.3788 173.776 87.935 173.463C89.2665 170.172 90.5145 168.077 89.8741 164.15C89.7578 163.404 89.6073 162.673 89.4248 161.958L89.3699 162.136C89.086 163.088 88.6553 165.038 88.6175 166.028C88.5112 168.8 88.5547 172.923 85.8405 171.96C84.5989 171.52 85.1994 167.252 85.1623 165.833C85.0931 163.145 84.6652 160.555 84.9298 157.881C85.322 154.675 87.4907 152.76 88.1703 149.729C87.9635 147.865 87.1805 145.218 86.7148 143.396C84.2915 133.926 81.1822 124.88 79.9556 114.808C79.7267 112.929 79.6661 110.975 79.3922 109.107C78.6106 104.175 77.5409 99.9643 76.9632 94.9346C75.9948 99.4222 74.1042 108.179 74.0757 112.692C74.0436 117.988 76.1403 126.837 77.1957 131.997C77.543 133.692 78.1043 135.595 78.4273 137.373C80.0433 146.291 80.9462 155.465 81.1173 164.703C81.2271 173.01 80.4819 181.474 78.7368 189.368C77.5965 194.529 75.8907 199.563 75.5341 205.015C75.1768 210.758 76.1017 216.42 77.1273 221.908C77.7427 225.202 78.3368 228.814 78.299 232.252C78.1499 245.667 74.2526 258.424 73.4952 271.716C73.4374 272.716 74.0757 274.541 74.3331 275.534C74.04 276.998 73.7469 277.882 74.2982 279.321C75.3451 282.057 77.8283 284.813 79.4742 286.77H78.98H60.9524H60.538C59.9276 283.821 61.1114 282.085 61.2326 279.345C61.2925 278.008 60.466 276.568 60.6179 275.27C60.8532 273.26 61.7882 271.879 61.7974 269.708C61.8096 266.957 61.4687 263.797 61.1913 261.066C60.7955 257.16 60.1115 253.112 59.4376 249.294C58.6532 244.844 57.7589 240.279 57.3595 235.703C57.1163 232.922 57.2832 230.036 57.4458 227.276C57.5699 225.163 57.9486 221.781 57.6654 219.786C57.204 216.294 55.5774 213.031 55.1823 209.526C54.5989 204.341 55.0011 198.986 54.3158 193.768C53.9692 191.133 53.587 188.736 53.0528 186.169C52.5493 183.755 52.1507 181.262 51.7599 178.802C50.9141 173.604 50.723 168.35 50.278 163.062L48.2548 163.07C47.9559 168.742 47.3961 175.94 46.459 181.401C45.6824 185.922 44.7732 189.522 44.2169 194.285C43.5537 199.973 43.9894 205.229 43.2313 210.756C42.8099 213.834 41.3572 217.293 40.9407 220.363C40.7203 221.986 41.0869 225.793 41.1889 227.581C41.3608 230.491 41.5348 233.657 41.2452 236.562C40.3488 245.569 38.0339 254.186 37.3015 263.247C37.0904 265.869 36.6226 269.143 37.1197 271.718C37.3521 272.919 38.0681 274.174 38.0653 275.524C38.0903 276.815 37.2901 278.428 37.437 279.621C37.8242 282.776 38.6779 283.321 38.1865 286.77H37.8371H19.613H19.1879C20.9465 284.102 24.4356 281.529 24.5989 277.254C24.6146 276.843 24.4057 275.745 24.3265 275.297C24.616 273.488 25.2065 272.705 25.0432 270.596C24.0912 258.315 20.9392 246.809 20.4246 234.418C19.9951 224.077 23.6968 215.171 23.0704 204.892C22.7326 199.35 20.9813 194.347 19.7589 189.186C16.01 172.368 17.1188 153.727 20.1346 136.856C20.4705 134.977 21.0849 133.155 21.4546 131.281C22.6379 125.279 24.2794 119.021 24.5034 112.746C24.5462 108.659 22.7467 100.165 21.8714 95.9538L21.576 94.5409C20.9413 99.7411 20.1494 104.373 19.2081 109.462C18.8691 111.294 18.712 113.898 18.4616 115.84C18.0323 119.028 17.4594 122.169 16.747 125.241C14.8472 133.297 12.2383 141.102 10.442 149.202C10.2818 151.418 12.0763 153.345 12.7913 155.1C14.3141 158.838 13.5858 161.793 13.4345 165.819C13.3487 168.107 14.6696 172.714 11.5391 172.094C10.0764 171.806 10.0395 167.506 9.90381 165.958C9.78956 164.76 9.57619 163.61 9.12569 162.466L9.05915 162.3C7.99785 166.535 8.62392 168.471 10.0444 172.211C10.8059 174.217 10.8573 173.873 12.3157 174.542C12.9024 174.81 12.6993 176.039 12.9281 176.439C13.3645 177.2 14.0972 177.947 13.5232 179.073C13.0372 179.428 12.3421 179.358 11.8273 179.113C9.91308 178.2 7.72008 176.762 6.00453 175.243C4.8058 174.183 4.01691 171.663 3.19915 170.029C2.46746 168.567 1.63664 166.998 1.00622 165.463C0.987105 164.836 1.01485 164.014 1.0515 163.376C1.38804 157.201 1.77685 151.049 1.94829 144.852C2.24118 134.264 1.09964 123.002 3.56186 112.846C4.04822 110.84 4.86841 108.778 5.11787 106.667C5.28746 105.233 5.26449 103.376 5.31071 101.895C5.38937 99.1027 5.50511 96.3125 5.65794 93.5274C5.90512 89.2144 6.44247 85.3665 6.94396 81.1235C7.19499 78.9995 6.99252 76.501 7.098 74.3171C7.23 71.604 7.74247 68.9636 8.60174 66.5678C11.9567 57.168 18.8274 57.6032 24.8279 55.5321C27.8345 54.4945 36.1676 51.0761 38.2671 48.2095C38.5923 46.2435 38.6087 41.1058 38.6708 38.8689C37.4413 36.5118 37.196 35.1529 36.5092 32.3449C36.2354 32.3281 35.9622 32.2939 35.6905 32.2427C35.3125 32.1737 34.4618 31.9315 34.3213 31.3267C33.8805 29.4342 30.6643 17.7161 34.6087 20.7204Z" fill="#5E5E5E"/>
<path d="M34.6087 20.7204C34.9189 20.0963 34.7734 18.89 34.742 18.134C34.6272 15.3408 33.9533 8.80983 35.1371 6.64082C35.6135 5.76824 36.5356 5.15115 37.2209 4.72357C39.0281 3.59552 41.017 2.97572 42.9511 2.55155C47.8568 1.47587 59.0097 1.6362 62.8893 6.13855C63.6088 6.97311 63.8713 7.84205 63.9611 9.18157C64.0845 11.0254 63.5539 19.1321 63.7907 19.8789C64.8069 21.1704 66.8337 18.4863 65.2248 26.1319C64.5181 29.4913 64.8775 32.0124 62.0228 32.5919C61.6256 34.2974 61.3218 35.8869 60.486 37.2519L60.3048 37.1485C60.1679 37.4213 60.0245 37.6873 59.8755 37.9461C54.3686 47.6506 45.1226 47.5939 39.4224 39.2063C37.0441 35.707 36.3787 30.8371 36.117 26.1153L36.035 25.924C36.0414 25.5057 36.0528 25.4022 36.0015 24.9839L35.7747 24.8655C35.8617 22.6323 35.7055 22.0078 34.4111 20.8251L34.6087 20.7204Z" fill="white"/>
<path d="M34.6087 20.7204C34.9189 20.0963 34.7734 18.89 34.742 18.134C34.6272 15.3408 33.9533 8.80983 35.1371 6.64082C35.6135 5.76824 36.5356 5.15115 37.2209 4.72357C39.0281 3.59552 41.017 2.97572 42.9511 2.55155C47.8568 1.47587 59.0097 1.6362 62.8893 6.13855C63.6088 6.97311 63.8713 7.84205 63.9611 9.18157C64.0845 11.0254 63.5539 19.1321 63.7907 19.8789C64.8069 21.1704 66.8337 18.4863 65.2248 26.1319C64.5181 29.4913 64.8775 32.0124 62.0228 32.5919C61.6256 34.2974 61.3218 35.8869 60.486 37.2519L60.3048 37.1485C61.694 34.3378 62.0285 30.3883 62.271 27.0087C62.5427 23.2231 61.5899 19.6131 60.2848 16.4442C60.7391 15.1053 61.4587 13.0621 60.5558 11.831C59.3763 11.7003 57.567 11.8449 56.324 11.8735C53.9642 11.9189 51.6044 11.9444 49.2446 11.95C46.9739 11.9625 44.7033 11.9373 42.4333 11.8744C41.0848 11.8346 39.2456 11.6933 37.9341 11.8095C36.9093 12.6604 37.775 15.361 38.1159 16.5011C36.7888 19.485 36.1662 22.5633 36.117 26.1153L36.035 25.924C36.0414 25.5057 36.0528 25.4022 36.0015 24.9839L35.7747 24.8655C35.8617 22.6323 35.7055 22.0078 34.4111 20.8251L34.6087 20.7204Z" fill="#151011"/>
<path d="M64.4938 20.4489C64.9267 20.4105 64.9894 20.3991 65.3082 20.7188C65.97 22.4334 64.5708 29.1123 63.8006 30.9413C63.4519 31.7702 62.9071 32.2328 62.2417 32.0345C62.1861 31.8577 62.6246 26.8309 62.6574 26.0509C63.4155 27.9034 63.2786 27.4801 62.6632 29.1388C63.0625 28.9996 63.2815 28.8024 63.489 28.2678C63.5853 27.2332 63.1231 26.9263 62.763 25.8999C62.8721 25.2008 63.9269 22.8739 64.359 22.304C64.5166 22.8601 64.5744 23.1761 64.8368 23.62L64.9117 23.4668C64.8154 22.6016 64.6856 22.1685 64.0417 22.2716C63.3877 22.8863 63.1174 24.2519 62.6952 25.3847L62.6674 22.8839C63.208 21.3237 63.449 21.2064 64.4938 20.4489Z" fill="white"/>
<path d="M56.2162 19.3615C57.4236 19.2176 59.4247 18.813 60.063 20.9483C60.1571 21.2653 60.1407 21.2394 60.0466 21.5235C59.4489 21.7104 59.1259 20.9346 58.3621 20.7852C57.4963 20.616 56.8595 20.6956 55.993 20.7886C54.9383 20.8853 52.3531 21.7185 51.7091 21.1312L51.6699 20.8551C52.1713 19.7826 55.2649 19.4964 56.2162 19.3615Z" fill="#5E5E5E"/>
<path d="M40.0193 19.3285C41.032 19.2212 46.6024 19.3494 46.7272 21.1109C46.2729 21.5634 45.3444 21.2666 44.7931 21.1561C43.3419 20.8116 41.5875 20.6028 40.1327 20.7724C39.5643 20.8386 38.782 22.0362 38.2065 21.3739C38.188 20.4436 39.5037 19.5313 40.0193 19.3285Z" fill="#5E5E5E"/>
<path d="M43.8005 23.1965C44.3011 25.4114 41.4927 25.6777 41.7879 23.0853C41.2673 23.0391 40.6961 23.5402 40.1206 23.5943H40.1213C40.2247 23.1622 40.2632 23.1901 40.5 22.8513C41.0641 22.5784 43.1494 22.6414 43.7391 22.8754L43.8005 23.1965Z" fill="#5E5E5E"/>
<path d="M55.9018 22.6126L56.1842 22.5859C56.2441 22.9327 56.1763 22.8235 56.3425 22.9818C56.6306 23.4858 56.5878 23.2805 56.6684 23.8771C56.396 25.2691 54.5775 25.4996 54.4441 23.4338C55.0446 22.7995 55.1708 22.7954 55.9018 22.6126Z" fill="#5E5E5E"/>
<path d="M47.2949 36.4515C47.8604 36.3511 48.3996 36.7082 48.8652 36.6374C50.6346 36.3688 52.2356 36.795 53.9871 36.9188L53.8879 37.0913C53.1719 37.5819 52.1329 37.0981 51.3042 36.8657C50.7836 36.7137 49.8501 37.0658 49.6041 36.9788C48.811 36.6985 44.99 37.4537 44.6292 37.0676C45.3266 36.7971 46.3272 36.7811 47.2949 36.4515Z" fill="#5E5E5E"/>
<path d="M51.2956 22C51.3312 22.4525 51.1173 23.3308 51.0723 23.9934C50.9839 25.2295 50.9661 26.4747 51.0203 27.7152C51.0452 28.3845 51.1223 28.43 50.9126 28.7811C50.4883 27.1371 50.4277 23.3761 51.2956 22Z" fill="#5E5E5E"/>
<path d="M46.2644 38.3086C47.7249 38.9628 48.9929 38.8477 50.4969 38.6748C50.9213 38.6259 51.4048 38.4259 51.7856 38.4941C50.9355 39.4118 46.949 39.5065 46.2644 38.3086Z" fill="#5E5E5E"/>
<path d="M54.4442 23.4348C54.1889 23.2855 53.1997 24.2376 52.8032 24.0695C52.9145 23.7977 53.281 23.5756 53.5035 23.3972L53.2832 23.2502C54.1832 22.7088 54.9305 22.5675 55.9018 22.6136C55.1709 22.7964 55.0446 22.8005 54.4442 23.4348Z" fill="#3D3B3A"/>
<path d="M43.739 22.8774C43.9815 22.9064 44.1548 22.9665 44.3816 22.8842L44.3502 22.8359C44.8123 22.9157 44.8437 22.972 45.2609 23.3251L45.119 23.2909L45.7522 23.8712L45.6838 23.9589C44.9278 23.7842 44.4293 23.3761 43.8003 23.1985L43.739 22.8774Z" fill="#5E5E5E"/>
<path d="M56.1843 22.5859C56.7128 22.6861 57.8124 22.8488 58.2396 23.3128C57.6063 23.3513 56.9952 23.0884 56.3427 22.9818C56.1765 22.8235 56.2442 22.9327 56.1843 22.5859Z" fill="#5E5E5E"/>
<path d="M46.6401 31.0664C46.7692 31.1391 46.6979 31.0817 46.8362 31.2779C46.598 31.589 46.3791 31.8352 46.4033 32.3174C46.6529 32.6491 46.8269 32.6176 47.1621 32.67C46.9125 32.9558 46.593 32.9856 46.3056 32.8212C45.8578 32.0119 46.1965 31.5701 46.6401 31.0664Z" fill="#5E5E5E"/>
<path d="M47.22 32.6201C47.5281 32.5571 49.3323 32.9466 49.6119 33.1025C48.8609 33.3986 47.891 33.1923 47.22 32.6201Z" fill="#5E5E5E"/>
<path d="M50.7045 32.5878C51.069 32.5501 51.1624 32.5102 51.5182 32.6785C51.2565 32.9513 50.9748 32.9347 50.6368 32.9999C50.3437 33.0879 50.1547 33.1937 49.8716 33.0626C50.1148 32.7489 50.3765 32.7159 50.7045 32.5878Z" fill="#5E5E5E"/>
<path d="M36.4642 32.1033C34.4196 31.647 34.3918 31.0021 33.8234 27.9446C33.4982 26.1967 31.7417 19.1688 34.411 20.8248C35.7054 22.0076 35.8616 22.6321 35.7746 24.8653C35.2611 24.3489 35.1235 22.6839 34.2392 22.1271C33.7171 22.2238 33.7221 23.0055 33.8177 23.6783C34.0972 23.3771 33.8655 23.235 34.1828 22.6516C34.6385 22.9205 35.3745 24.8933 35.8965 25.7848C35.6469 26.0562 35.2732 26.4334 35.137 26.849C34.8746 27.6534 34.814 28.7298 35.4537 29.1195C35.699 29.0404 35.6084 29.1399 35.7589 28.8914C35.3809 28.5927 35.4373 28.7355 35.2276 28.2597C35.1648 27.5802 35.259 26.7841 35.7211 26.4936C35.838 26.8886 35.9079 28.243 35.9671 28.776C36.0862 29.8998 36.2517 31.011 36.4642 32.1033Z" fill="white"/>
<path d="M66.5733 52.8203C68.4731 53.7864 70.2503 54.5359 72.1779 55.3265C72.3812 57.5707 72.5823 60.2019 72.8675 62.4157C73.5115 67.4167 75.4491 77.7607 77.5158 81.6C75.7158 87.276 77.2848 89.288 76.6864 94.1851C76.0025 99.7783 74.3416 105.027 73.8217 110.701C73.1699 117.815 76.6265 130.114 78.0764 137.192C78.5948 139.725 78.8815 142.439 79.288 145.025C73.3147 145.952 66.0491 150.954 60.8988 155.341C58.7857 157.142 56.4166 159.86 54.1424 161.177C46.8091 165.423 42.5973 159.714 36.6403 154.531C34.3119 152.505 31.3067 150.501 28.8663 148.959C25.7712 147.095 22.5516 145.736 19.2627 144.906C19.623 142.409 20.0114 139.335 20.5026 136.923C22.0127 129.508 25.3904 117.857 24.6958 110.157C24.3442 104.74 22.2968 98.4474 21.7669 93.2522C21.2518 88.2018 22.7716 87.4757 20.9545 81.5958C22.9513 78.3078 24.9019 67.7191 25.4803 63.2121C25.7655 60.9949 26.0251 57.8349 26.2134 55.5278L26.1292 55.5583C28.2323 54.7025 29.9039 53.9834 31.9435 52.8853C31.9079 53.5635 31.8922 54.2439 31.8986 54.9242C31.9243 58.5631 33.1816 61.8704 34.8731 64.3846C38.6043 69.7839 44.6369 70.9536 49.6175 70.9358C55.7769 70.9137 63.5788 68.5443 66.1233 58.9919C66.6731 56.928 66.6018 54.9901 66.5733 52.8203Z" fill="#91364A"/>
<path d="M72.5588 55.4453C80.9833 58.0625 90.0901 58.0785 91.1107 74.3603C91.2376 76.3902 91.0122 79.0983 91.2576 80.9855C92.0634 87.1964 92.7373 93.2639 92.8607 99.6145C92.9142 105.7 92.8928 106.666 94.4846 112.22C97.1161 121.405 95.9016 133.165 96.1626 142.938C96.2667 146.843 96.445 150.806 96.6547 154.712C96.7937 158.284 97.4612 162.527 97.0326 166.035C97.0975 165.675 93.2622 173.937 93.3828 173.733C92.4043 175.399 88.8913 177.698 87.4415 178.51C90.1579 175.65 92.2153 174.584 93.5946 169.775C93.877 168.791 95.264 165.89 95.2804 165.012C94.5972 165.669 92.5284 172.444 91.4729 173.791C90.8817 174.544 90.7512 174.685 90.0481 175.371C89.3192 176.077 88.6346 176.847 87.9165 177.568C87.3139 178.173 85.8205 179.966 85.2728 178.649C85.2229 177.353 86.5971 176.288 87.2033 175.46C88.4271 173.789 89.2879 171.611 89.9768 169.386C90.8867 166.45 90.2342 163.717 89.4925 160.943C88.6517 163.637 88.0912 165.589 88.1925 168.609C88.3251 172.558 84.7515 173.272 85.3734 168.685C85.8041 165.51 84.9776 162.072 85.1794 158.851C85.4397 154.709 87.8102 153.288 88.5298 149.459C88.2574 147.966 87.5378 145.422 87.1484 143.861C85.7399 138.223 84.0077 132.712 82.5964 127.075C81.6258 123.138 80.8627 119.092 80.3157 114.975C80.064 113.02 79.9371 111.083 79.6518 109.123C79.1569 105.714 78.428 102.393 77.8732 99.0232C77.4853 96.6681 77.3091 93.9365 77.1273 91.525C76.9775 89.5365 76.872 87.864 76.9846 85.8569C77.1893 82.1902 79.0542 79.7723 79.4157 76.3039L79.4357 76.1006C78.8773 77.8409 78.289 79.5591 77.6707 81.253C74.898 75.0421 73.0031 62.9062 72.5588 55.4453Z" fill="white"/>
<path d="M88.2667 111.355L88.3244 111.441L88.2403 111.641C87.4508 112.131 86.2349 112.303 85.3634 112.461L85.2971 112.294C85.5275 112.129 87.8031 111.517 88.2667 111.355Z" fill="#5E5E5E"/>
<path d="M25.6536 55.7227C25.7342 55.7403 25.6764 55.7191 25.797 55.8841C25.429 63.3367 23.5506 74.9844 20.8245 81.2752C20.3333 79.761 19.618 77.5999 18.9891 76.2226C19.0398 76.4651 19.0923 76.704 19.1459 76.9444C19.6748 79.6297 21.3513 82.6788 21.4794 85.5218C21.6881 90.1549 21.1012 95.7766 20.4953 100.327C20.109 103.229 19.3677 106.02 18.9617 108.904C18.5822 111.6 18.3792 114.189 17.9758 116.865C16.6615 126.424 13.717 135.151 11.3057 144.143C10.9023 145.647 10.3957 147.498 10.1396 149.109C9.81411 151.156 11.7549 153.39 12.371 155.048C14.0216 158.966 13.248 161.327 13.171 165.582C13.1725 167.279 13.3555 169.091 13.2074 170.768C13.1329 171.613 12.0348 172.096 11.5858 171.797C10.0602 170.783 10.5687 167.262 10.2724 165.312C10.0345 163.746 9.52358 162.309 8.989 160.971C8.22957 164.137 7.692 166.727 8.80657 169.93C9.50204 171.929 10.0832 173.523 11.1633 175.118C11.7708 176.016 13.4124 177.313 13.3975 178.569C12.6419 180.264 10.2851 177.196 9.4763 176.357C6.55667 173.48 6.57535 173.047 4.69777 168.447C4.38256 167.674 3.95211 166.496 3.58426 165.786L3.54048 165.953C3.76783 167.089 6.39714 173.591 7.10829 174.421C7.90245 175.349 9.93228 177.264 10.8693 178.331C9.44784 177.539 7.71211 176.302 6.36932 175.197C5.08644 174.141 4.01037 170.624 3.03022 168.931C1.88562 166.954 1.15742 165.935 1.35504 163.176C1.73557 157.863 1.96828 152.483 2.25382 147.154C2.72428 135.798 1.28515 123.88 3.89548 112.924C4.39383 110.832 5.1815 108.81 5.44187 106.595C5.61966 104.907 5.62023 102.888 5.67236 101.169C5.75395 98.1039 5.88303 95.042 6.05946 91.9865C6.29109 88.2591 7.07463 84.3349 7.2619 80.9214C7.61098 74.5572 6.97593 70.531 9.70407 64.7837C12.2651 59.3886 16.2993 58.2232 20.4015 57.1073L25.6536 55.7227Z" fill="white"/>
<path d="M10.0181 111.489C10.3866 111.394 13.1291 112.092 13.5327 112.396C12.7504 112.533 10.7221 112.081 10.0181 111.489Z" fill="#5E5E5E"/>
<path d="M39.0195 39.3198C39.2498 39.5209 40.6476 41.2111 40.9849 41.5714C43.5472 44.311 45.3059 45.495 48.428 45.6073C51.8761 45.7313 53.7838 45.2615 56.7355 42.3825C57.8138 41.331 58.5918 40.5781 59.5453 39.2109C59.9119 50.4825 59.126 48.6403 66.3359 52.726C66.3152 55.6739 66.2967 57.7722 65.3104 60.434C61.8702 69.7215 53.9635 70.6458 47.7399 70.5289C44.679 70.4433 40.3816 69.2793 37.7437 67.0554C34.8126 64.5843 33.2202 61.5464 32.3023 56.7741C33.6766 56.8806 35.3446 56.7523 36.7424 56.7228C38.4033 56.7028 40.0642 56.7276 41.7245 56.797C43.9944 56.8732 44.4608 56.6809 46.6038 58.0189C46.0169 56.3307 42.9097 56.5049 41.7858 56.4351C38.6558 56.2407 35.5308 56.4878 32.4065 56.5957C32.0927 55.946 32.1633 53.7258 32.159 52.8093C33.9283 51.8318 37.6645 50.0408 38.6893 47.8436C38.8619 46.0345 39.0223 41.1982 39.0195 39.3198Z" fill="white"/>
<path d="M57.1106 56.3293C59.8063 56.1583 62.8849 56.1327 65.5706 56.4756C65.9857 56.5286 65.0194 56.6487 65.7903 56.5139C64.7163 56.7003 60.7433 56.5943 59.4447 56.6267C57.6126 56.6608 55.4011 56.6327 53.5634 56.9146C53.4065 56.9387 52.1121 57.8874 51.8661 58.066L51.7798 58.0044C53.0791 56.0466 55.332 56.3826 57.1106 56.3293Z" fill="#5E5E5E"/>
<path d="M79 81L87 81" stroke="#75041D"/>
<path d="M80.5521 79C87.1574 70.3636 87.0013 68.0909 80.5521 59" stroke="#75041D" stroke-dasharray="3 3"/>
<path d="M79 57L87 57" stroke="#75041D"/>
</g>
<defs>
<clipPath id="clip0_1134_26773">
<rect width="99" height="137" fill="white"/>
</clipPath>
</defs>
</svg>
