<svg width="99" height="137" viewBox="0 0 99 137" fill="none" xmlns="http://www.w3.org/2000/svg">
<g clip-path="url(#clip0_1134_28626)">
<path d="M33.6087 -27.2796C33.9189 -27.9037 33.7734 -29.11 33.742 -29.866C33.6272 -32.6592 32.9533 -39.1902 34.1371 -41.3592C34.6135 -42.2318 35.5356 -42.8488 36.2209 -43.2764C38.028 -44.4045 40.017 -45.0243 41.9511 -45.4484C46.8568 -46.5241 58.0097 -46.3638 61.8893 -41.8614C62.6088 -41.0269 62.8713 -40.158 62.9611 -38.8184C63.0845 -36.9746 62.5539 -28.8679 62.7907 -28.1211C63.8069 -26.8296 65.8337 -29.5137 64.2248 -21.8681C63.5181 -18.5087 63.8775 -15.9876 61.0228 -15.4081C60.6256 -13.7026 60.3218 -12.1131 59.486 -10.7481C59.282 -10.3017 58.9982 -9.72052 58.8377 -9.25342C58.899 -6.47259 58.8748 -3.27323 59.1422 -0.540543C59.3212 1.28955 62.7629 2.93042 63.762 3.53374C68.2348 6.23533 73.0101 7.50368 77.7083 8.82901C82.3423 10.1364 86.9108 12.0478 89.0759 18.9594C90.8958 24.3914 90.1691 27.4647 90.5949 32.9844C90.9108 37.0891 91.6225 41.1888 91.8907 45.4867C92.0518 48.1228 92.1766 50.7639 92.2651 53.4079C92.4462 59.5025 92.3022 58.7172 93.8618 64.3782C94.5258 66.8053 94.9793 69.3501 95.2111 71.9506C96.1054 82.1227 95.0656 93.4289 95.7987 103.769C96.1189 108.283 96.4555 113.108 96.4677 117.6C96.4684 118.007 95.6112 119.737 95.4122 119.968C94.632 120.876 93.0517 125.586 92.4819 126.266C91.0684 127.952 85.6784 132.216 84.0653 131.208C83.7743 130.619 84.6059 127.127 85.0173 126.706C85.493 126.221 86.3788 125.776 86.935 125.463C88.2665 122.172 89.5145 120.077 88.8741 116.15C88.7578 115.404 88.6073 114.673 88.4248 113.958L88.3699 114.136C88.086 115.088 87.6553 117.038 87.6175 118.028C87.5112 120.8 87.5547 124.923 84.8405 123.96C83.5989 123.52 84.1994 119.252 84.1623 117.833C84.0931 115.145 83.6652 112.555 83.9298 109.881C84.322 106.675 86.4907 104.76 87.1703 101.729C86.9635 99.8652 86.1805 97.2184 85.7148 95.396C83.2915 85.9257 80.1822 76.8797 78.9556 66.8082C78.7267 64.9295 78.6661 62.9752 78.3922 61.1073C77.6106 56.1745 76.5409 51.9643 75.9632 46.9346C74.9948 51.4222 73.1042 60.1793 73.0757 64.692C73.0436 69.9885 75.1403 78.8369 76.1957 83.9971C76.543 85.6918 77.1043 87.5954 77.4273 89.3735C79.0433 98.2911 79.9462 107.465 80.1173 116.703C80.2271 125.01 79.4819 133.474 77.7368 141.368C76.5965 146.529 74.8907 151.563 74.5341 157.015C74.1768 162.758 75.1017 168.42 76.1273 173.908C76.7427 177.202 77.3368 180.814 77.299 184.252C77.1499 197.667 73.2526 210.424 72.4952 223.716C72.4374 224.716 73.0757 226.541 73.3331 227.534C73.04 228.998 72.7469 229.882 73.2982 231.321C74.3451 234.057 76.8283 236.813 78.4742 238.77H77.98H59.9524H59.538C58.9276 235.821 60.1114 234.085 60.2326 231.345C60.2925 230.008 59.466 228.568 59.6179 227.27C59.8532 225.26 60.7882 223.879 60.7974 221.708C60.8096 218.957 60.4687 215.797 60.1913 213.066C59.7955 209.16 59.1115 205.112 58.4376 201.294C57.6532 196.844 56.7589 192.279 56.3595 187.703C56.1163 184.922 56.2832 182.036 56.4458 179.276C56.5699 177.163 56.9486 173.781 56.6654 171.786C56.204 168.294 54.5774 165.031 54.1823 161.526C53.5989 156.341 54.0011 150.986 53.3158 145.768C52.9692 143.133 52.587 140.736 52.0528 138.169C51.5493 135.755 51.1507 133.262 50.7599 130.802C49.9141 125.604 49.723 120.35 49.278 115.062L47.2548 115.07C46.9559 120.742 46.3961 127.94 45.459 133.401C44.6824 137.922 43.7732 141.522 43.2169 146.285C42.5537 151.973 42.9894 157.229 42.2313 162.756C41.8099 165.834 40.3572 169.293 39.9407 172.363C39.7203 173.986 40.0869 177.793 40.1889 179.581C40.3608 182.491 40.5348 185.657 40.2452 188.562C39.3488 197.569 37.0339 206.186 36.3015 215.247C36.0904 217.869 35.6226 221.143 36.1197 223.718C36.3521 224.919 37.0681 226.174 37.0653 227.524C37.0903 228.815 36.2901 230.428 36.437 231.621C36.8242 234.776 37.6779 235.321 37.1865 238.77H36.8371H18.613H18.1879C19.9465 236.102 23.4356 233.529 23.5989 229.254C23.6146 228.843 23.4057 227.745 23.3265 227.297C23.616 225.488 24.2065 224.705 24.0432 222.596C23.0912 210.315 19.9392 198.809 19.4246 186.418C18.9951 176.077 22.6968 167.171 22.0704 156.892C21.7326 151.35 19.9813 146.347 18.7589 141.186C15.01 124.368 16.1188 105.727 19.1346 88.8564C19.4705 86.977 20.0849 85.1554 20.4546 83.281C21.6379 77.2792 23.2794 71.0212 23.5034 64.7462C23.5462 60.6594 21.7467 52.1647 20.8714 47.9538L20.576 46.5409C19.9413 51.7411 19.1494 56.3728 18.2081 61.4617C17.8691 63.2941 17.712 65.8981 17.4616 67.8402C17.0323 71.0284 16.4594 74.1695 15.747 77.2414C13.8472 85.2973 11.2383 93.1023 9.44202 101.202C9.28185 103.418 11.0763 105.345 11.7913 107.1C13.3141 110.838 12.5858 113.793 12.4345 117.819C12.3487 120.107 13.6696 124.714 10.5391 124.094C9.07639 123.806 9.03952 119.506 8.90381 117.958C8.78956 116.76 8.57619 115.61 8.12569 114.466L8.05915 114.3C6.99785 118.535 7.62392 120.471 9.04437 124.211C9.80594 126.217 9.85728 125.873 11.3157 126.542C11.9024 126.81 11.6993 128.039 11.9281 128.439C12.3645 129.2 13.0972 129.947 12.5232 131.073C12.0372 131.428 11.3421 131.358 10.8273 131.113C8.91308 130.2 6.72008 128.762 5.00453 127.243C3.8058 126.183 3.01691 123.663 2.19915 122.029C1.46746 120.567 0.63664 118.998 0.00621704 117.463C-0.0128953 116.836 0.0148468 116.014 0.0515026 115.376C0.388037 109.201 0.776846 103.049 0.948287 96.8517C1.24118 86.2638 0.0996436 75.0018 2.56186 64.846C3.04822 62.8397 3.86841 60.7785 4.11787 58.6673C4.28746 57.233 4.26449 55.3757 4.31071 53.895C4.38937 51.1027 4.50511 48.3125 4.65794 45.5274C4.90512 41.2144 5.44247 37.3665 5.94396 33.1235C6.19499 30.9995 5.99252 28.501 6.098 26.3171C6.23 23.604 6.74247 20.9636 7.60174 18.5678C10.9567 9.16801 17.8274 9.60323 23.8279 7.53214C26.8345 6.49452 35.1676 3.07606 37.2671 0.209496C37.5923 -1.75654 37.6087 -6.89418 37.6708 -9.1311C36.4413 -11.4882 36.196 -12.8471 35.5092 -15.6551C35.2354 -15.6719 34.9622 -15.7061 34.6905 -15.7573C34.3125 -15.8263 33.4618 -16.0685 33.3213 -16.6733C32.8805 -18.5658 29.6643 -30.2839 33.6087 -27.2796Z" fill="#5E5E5E"/>
<path d="M18.2238 97.1992C23.5627 98.8732 26.2798 100.1 31.306 103.608C33.1388 104.899 34.9267 106.329 36.6625 107.891C39.8388 110.711 43.2834 114.52 47.0245 114.86C46.5111 120.344 46.3863 125.328 45.5775 130.788C44.746 136.404 43.4944 141.26 42.8583 146.949C42.2757 152.16 42.6601 156.881 42.0739 161.981C41.6467 165.578 40.0564 168.89 39.667 172.46C39.5215 173.8 39.6392 176.517 39.7747 177.847C40.5834 185.787 39.6556 192.517 38.2122 200.131C37.2416 205.248 36.3195 210.945 35.9037 216.272C35.7689 218.167 35.5029 220.564 35.6356 222.462C35.7753 224.468 36.5676 225.728 36.7666 227.934C36.6083 228.561 36.2902 229.747 36.241 230.38C35.9807 233.739 37.4812 235.1 36.8372 238.77H18.6131C20.3746 236.582 23.634 233.121 23.8529 229.661C23.9064 228.822 23.7274 228.101 23.5677 227.298C23.8465 226.285 24.4227 224.348 24.3607 223.343C23.5641 210.384 19.8898 198.037 19.7307 184.951C19.6141 175.368 22.9872 166.797 22.3981 157.177C22.0462 151.042 20.324 146.598 19.0494 141.116C15.9813 127.921 16.1862 110.706 18.2238 97.1992Z" fill="white"/>
<path d="M49.6089 114.872C54.7856 113.927 57.9384 109.042 62.5846 105.557C68.5822 101.057 71.8584 99.1466 78.3331 97.3086C80.3555 112.112 80.6429 126.542 77.5236 141.051C76.317 146.412 74.7245 151.273 74.2553 156.957C73.4309 166.961 77.2041 175.795 76.9602 185.624C76.7064 195.843 74.1932 205.8 73.0108 215.813C72.7099 218.365 72.1486 220.945 72.1886 223.551C72.2121 224.994 72.7926 226.316 73.0443 227.631C72.9409 228.086 72.7127 229.012 72.7334 229.461C72.9288 233.617 76.2321 236.215 77.98 238.77H59.9524C59.1822 235.409 60.5978 233.991 60.4494 230.845C60.401 229.817 60.0651 228.721 59.8333 227.725L59.8668 227.531C60.1827 225.749 60.9223 223.964 61.0713 222.27C61.2289 220.474 60.9544 217.825 60.7896 215.994C60.4466 212.176 60.0123 208.512 59.3562 204.787C58.4476 199.626 57.3829 194.537 56.8103 189.257C56.408 185.549 56.6006 182.254 56.816 178.574C56.9272 176.675 57.2032 173.783 56.9878 172.019C56.5578 168.487 54.9903 165.34 54.5153 161.729C54.0996 158.57 54.1488 155.461 54.0532 152.255C53.9805 150.019 53.8215 147.791 53.5768 145.583C53.0883 141.151 51.9822 136.578 51.2242 132.148C50.1837 126.07 50.0532 120.952 49.6089 114.872Z" fill="white"/>
<path d="M65.5733 4.82031C67.4731 5.78639 69.2503 6.53593 71.1779 7.32655C71.3812 9.57067 71.5823 12.2019 71.8675 14.4157C72.5115 19.4167 74.4491 29.7607 76.5158 33.6C74.7158 39.276 76.2848 41.288 75.6864 46.1851C75.0025 51.7783 73.3416 57.027 72.8217 62.7007C72.1699 69.8153 75.6265 82.1143 77.0764 89.1924C77.5948 91.7251 77.8815 94.439 78.288 97.0252C72.3147 97.9516 65.0491 102.954 59.8988 107.341C57.7857 109.142 55.4166 111.86 53.1424 113.177C45.8091 117.423 41.5973 111.714 35.6403 106.531C33.3119 104.505 30.3067 102.501 27.8663 100.959C24.7712 99.095 21.5516 97.7363 18.2627 96.9061C18.623 94.409 19.0114 91.335 19.5026 88.9228C21.0127 81.508 24.3904 69.8566 23.6958 62.1573C23.3442 56.7402 21.2968 50.4474 20.7669 45.2522C20.2518 40.2018 21.7716 39.4757 19.9545 33.5958C21.9513 30.3078 23.9019 19.7191 24.4803 15.2121C24.7655 12.9949 25.0251 9.83493 25.2134 7.52775L25.1292 7.55828C27.2323 6.70247 28.9039 5.98339 30.9435 4.88529C30.9079 5.5635 30.8922 6.24386 30.8986 6.92421C30.9243 10.5631 32.1816 13.8704 33.8731 16.3846C37.6043 21.7839 43.6369 22.9536 48.6175 22.9358C54.7769 22.9137 62.5788 20.5443 65.1233 10.9919C65.6731 8.92804 65.6018 6.99012 65.5733 4.82031Z" fill="#91364A"/>
<path d="M71.5586 7.44531C79.983 10.0625 89.0899 10.0785 90.1104 26.3603C90.2374 28.3902 90.012 31.0983 90.2573 32.9855C91.0632 39.1964 91.7371 45.2639 91.8605 51.6145C91.914 57.6998 91.8926 58.6663 93.4843 64.2195C96.1158 73.4045 94.9013 85.1651 95.1624 94.9378C95.2665 98.8435 95.4448 102.806 95.6544 106.712C95.7935 110.284 96.461 114.527 96.0324 118.035C96.0973 117.675 92.262 125.937 92.3825 125.733C91.4041 127.399 87.8911 129.698 86.4413 130.51C89.1576 127.65 91.2151 126.584 92.5943 121.775C92.8767 120.791 94.2638 117.89 94.2802 117.012C93.597 117.669 91.5282 124.444 90.4727 125.791C89.8815 126.544 89.751 126.685 89.0478 127.371C88.319 128.077 87.6344 128.847 86.9162 129.568C86.3136 130.173 84.8203 131.966 84.2726 130.649C84.2227 129.353 85.5969 128.288 86.2031 127.46C87.4268 125.789 88.2876 123.611 88.9765 121.386C89.8865 118.45 89.234 115.717 88.4923 112.943C87.6515 115.637 87.091 117.589 87.1922 120.609C87.3249 124.558 83.7513 125.272 84.3731 120.685C84.8039 117.51 83.9773 114.072 84.1792 110.851C84.4395 106.709 86.81 105.288 87.5295 101.459C87.2571 99.9661 86.5375 97.422 86.1482 95.8615C84.7397 90.2233 83.0075 84.7122 81.5961 79.0755C80.6256 75.1384 79.8625 71.0922 79.3155 66.9755C79.0638 65.0205 78.9368 63.0833 78.6516 61.1226C78.1566 57.7141 77.4278 54.3933 76.873 51.0232C76.485 48.6681 76.3089 45.9365 76.127 43.525C75.9773 41.5365 75.8717 39.864 75.9844 37.8569C76.1891 34.1902 78.0539 31.7723 78.4155 28.3039L78.4355 28.1006C77.8771 29.8409 77.2887 31.5591 76.6704 33.253C73.8977 27.0421 72.0029 14.9062 71.5586 7.44531Z" fill="white"/>
<path d="M87.2664 63.3555L87.3242 63.4411L87.24 63.6408C86.4506 64.1308 85.2347 64.3034 84.3632 64.461L84.2969 64.2941C84.5272 64.1293 86.8029 63.5167 87.2664 63.3555Z" fill="#5E5E5E"/>
<path d="M24.6536 7.72266C24.7342 7.74027 24.6764 7.71909 24.797 7.88414C24.429 15.3367 22.5506 26.9844 19.8245 33.2752C19.3333 31.761 18.618 29.5999 17.9891 28.2226C18.0398 28.4651 18.0923 28.704 18.1459 28.9444C18.6748 31.6297 20.3513 34.6788 20.4794 37.5218C20.6881 42.1549 20.1012 47.7766 19.4953 52.3271C19.109 55.2285 18.3677 58.0201 17.9617 60.9044C17.5822 63.6005 17.3792 66.1888 16.9758 68.8648C15.6615 78.4243 12.717 87.1515 10.3057 96.1432C9.9023 97.6475 9.39568 99.4983 9.13959 101.109C8.81411 103.156 10.7549 105.39 11.371 107.048C13.0216 110.966 12.248 113.327 12.171 117.582C12.1725 119.279 12.3555 121.091 12.2074 122.768C12.1329 123.613 11.0348 124.096 10.5858 123.797C9.06022 122.783 9.56869 119.262 9.27238 117.312C9.03447 115.746 8.52358 114.309 7.989 112.971C7.22957 116.137 6.692 118.727 7.80657 121.93C8.50204 123.929 9.08318 125.523 10.1633 127.118C10.7708 128.016 12.4124 129.313 12.3975 130.569C11.6419 132.264 9.28508 129.196 8.4763 128.357C5.55667 125.48 5.57535 125.047 3.69777 120.447C3.38256 119.674 2.95211 118.496 2.58426 117.786L2.54048 117.953C2.76783 119.089 5.39714 125.591 6.10829 126.421C6.90245 127.349 8.93228 129.264 9.86928 130.331C8.44784 129.539 6.71211 128.302 5.36932 127.197C4.08644 126.141 3.01037 122.624 2.03022 120.931C0.885619 118.954 0.157424 117.935 0.355037 115.176C0.735573 109.863 0.968275 104.483 1.25382 99.1538C1.72428 87.7984 0.285148 75.8802 2.89548 64.9235C3.39383 62.8323 4.1815 60.8096 4.44187 58.595C4.61966 56.9068 4.62023 54.8876 4.67236 53.1694C4.75395 50.1039 4.88303 47.042 5.05946 43.9865C5.29109 40.2591 6.07463 36.3349 6.2619 32.9214C6.61098 26.5572 5.97593 22.531 8.70407 16.7837C11.2651 11.3886 15.2993 10.2232 19.4015 9.10733L24.6536 7.72266Z" fill="white"/>
<path d="M9.01807 63.4893C9.38662 63.3944 12.1291 64.0919 12.5327 64.3958C11.7504 64.5334 9.72209 64.0812 9.01807 63.4893Z" fill="#5E5E5E"/>
<path d="M38.0192 -8.68022C38.2496 -8.47909 39.6473 -6.78894 39.9847 -6.42861C42.547 -3.689 44.3056 -2.50503 47.4278 -2.3927C50.8759 -2.26867 52.7835 -2.73855 55.7353 -5.61752C56.8135 -6.66897 57.5916 -7.42193 58.545 -8.78906C58.9116 2.48247 58.1257 0.64026 65.3356 4.72595C65.315 7.6739 65.2964 9.77223 64.3101 12.434C60.8699 21.7215 52.9632 22.6458 46.7396 22.5289C43.6788 22.4433 39.3813 21.2793 36.7434 19.0554C33.8124 16.5843 32.2199 13.5464 31.3021 8.77406C32.6763 8.88062 34.3444 8.75231 35.7422 8.72278C37.4031 8.70281 39.064 8.72756 40.7242 8.79696C42.9942 8.8732 43.4606 8.68091 45.6036 10.0189C45.0166 8.33072 41.9095 8.50489 40.7855 8.43513C37.6555 8.2407 34.5305 8.48777 31.4062 8.59568C31.0924 7.94599 31.163 5.72577 31.1588 4.80926C32.9281 3.83185 36.6643 2.04084 37.689 -0.156423C37.8616 -1.96554 38.0221 -6.80178 38.0192 -8.68022Z" fill="white"/>
<path d="M56.1106 8.32929C58.8063 8.15833 61.8849 8.13265 64.5706 8.47565C64.9857 8.52864 64.0194 8.64875 64.7903 8.51388C63.7163 8.70032 59.7433 8.59433 58.4447 8.62671C56.6126 8.6608 54.4011 8.6327 52.5634 8.91464C52.4065 8.93868 51.1121 9.88742 50.8661 10.066L50.7798 10.0044C52.0791 8.04663 54.332 8.38264 56.1106 8.32929Z" fill="#5E5E5E"/>
<path d="M86.3432 126.383L86.396 126.512C86.1307 127.021 85.4732 127.781 85.1116 128.228C84.9612 127.992 85.0261 128.096 84.9604 127.714C85.1822 126.966 85.8177 126.714 86.3432 126.383Z" fill="#EDEDED"/>
<path d="M10.1523 126.465C10.946 126.702 11.5474 126.869 11.5732 128.206C11.2365 128.013 10.4611 126.883 10.1523 126.465Z" fill="#EDEDED"/>
<path d="M25.5 34L25.5 42" stroke="#75041D"/>
<path d="M69.5 38H27.5" stroke="#75041D" stroke-dasharray="3 3"/>
<path d="M71.5 34L71.5 42" stroke="#75041D"/>
</g>
<defs>
<clipPath id="clip0_1134_28626">
<rect width="99" height="137" fill="white"/>
</clipPath>
</defs>
</svg>
