<svg width="99" height="137" viewBox="0 0 99 137" fill="none" xmlns="http://www.w3.org/2000/svg">
<g clip-path="url(#clip0_1134_27566)">
<path d="M36.6087 -27.2796C36.9189 -27.9037 36.7734 -29.11 36.742 -29.866C36.6272 -32.6592 35.9533 -39.1902 37.1371 -41.3592C37.6135 -42.2318 38.5356 -42.8488 39.2209 -43.2764C41.028 -44.4045 43.017 -45.0243 44.9511 -45.4484C49.8568 -46.5241 61.0097 -46.3638 64.8893 -41.8614C65.6088 -41.0269 65.8713 -40.158 65.9611 -38.8184C66.0845 -36.9746 65.5539 -28.8679 65.7907 -28.1211C66.8069 -26.8296 68.8337 -29.5137 67.2248 -21.8681C66.5181 -18.5087 66.8775 -15.9876 64.0228 -15.4081C63.6256 -13.7026 63.3218 -12.1131 62.486 -10.7481C62.282 -10.3017 61.9982 -9.72052 61.8377 -9.25342C61.899 -6.47259 61.8748 -3.27323 62.1422 -0.540543C62.3212 1.28955 65.7629 2.93042 66.762 3.53374C71.2348 6.23533 76.0101 7.50368 80.7083 8.82901C85.3423 10.1364 89.9108 12.0478 92.0759 18.9594C93.8958 24.3914 93.1691 27.4647 93.5949 32.9844C93.9108 37.0891 94.6225 41.1888 94.8907 45.4867C95.0518 48.1228 95.1766 50.7639 95.2651 53.4079C95.4462 59.5025 95.3022 58.7172 96.8618 64.3782C97.5258 66.8053 97.9793 69.3501 98.2111 71.9506C99.1054 82.1227 98.0656 93.4289 98.7987 103.769C99.1189 108.283 99.4555 113.108 99.4677 117.6C99.4684 118.007 98.6112 119.737 98.4122 119.968C97.632 120.876 96.0517 125.586 95.4819 126.266C94.0684 127.952 88.6784 132.216 87.0653 131.208C86.7743 130.619 87.6059 127.127 88.0173 126.706C88.493 126.221 89.3788 125.776 89.935 125.463C91.2665 122.172 92.5145 120.077 91.8741 116.15C91.7578 115.404 91.6073 114.673 91.4248 113.958L91.3699 114.136C91.086 115.088 90.6553 117.038 90.6175 118.028C90.5112 120.8 90.5547 124.923 87.8405 123.96C86.5989 123.52 87.1994 119.252 87.1623 117.833C87.0931 115.145 86.6652 112.555 86.9298 109.881C87.322 106.675 89.4907 104.76 90.1703 101.729C89.9635 99.8652 89.1805 97.2184 88.7148 95.396C86.2915 85.9257 83.1822 76.8797 81.9556 66.8082C81.7267 64.9295 81.6661 62.9752 81.3922 61.1073C80.6106 56.1745 79.5409 51.9643 78.9632 46.9346C77.9948 51.4222 76.1042 60.1793 76.0757 64.692C76.0436 69.9885 78.1403 78.8369 79.1957 83.9971C79.543 85.6918 80.1043 87.5954 80.4273 89.3735C82.0433 98.2911 82.9462 107.465 83.1173 116.703C83.2271 125.01 82.4819 133.474 80.7368 141.368C79.5965 146.529 77.8907 151.563 77.5341 157.015C77.1768 162.758 78.1017 168.42 79.1273 173.908C79.7427 177.202 80.3368 180.814 80.299 184.252C80.1499 197.667 76.2526 210.424 75.4952 223.716C75.4374 224.716 76.0757 226.541 76.3331 227.534C76.04 228.998 75.7469 229.882 76.2982 231.321C77.3451 234.057 79.8283 236.813 81.4742 238.77H80.98H62.9524H62.538C61.9276 235.821 63.1114 234.085 63.2326 231.345C63.2925 230.008 62.466 228.568 62.6179 227.27C62.8532 225.26 63.7882 223.879 63.7974 221.708C63.8096 218.957 63.4687 215.797 63.1913 213.066C62.7955 209.16 62.1115 205.112 61.4376 201.294C60.6532 196.844 59.7589 192.279 59.3595 187.703C59.1163 184.922 59.2832 182.036 59.4458 179.276C59.5699 177.163 59.9486 173.781 59.6654 171.786C59.204 168.294 57.5774 165.031 57.1823 161.526C56.5989 156.341 57.0011 150.986 56.3158 145.768C55.9692 143.133 55.587 140.736 55.0528 138.169C54.5493 135.755 54.1507 133.262 53.7599 130.802C52.9141 125.604 52.723 120.35 52.278 115.062L50.2548 115.07C49.9559 120.742 49.3961 127.94 48.459 133.401C47.6824 137.922 46.7732 141.522 46.2169 146.285C45.5537 151.973 45.9894 157.229 45.2313 162.756C44.8099 165.834 43.3572 169.293 42.9407 172.363C42.7203 173.986 43.0869 177.793 43.1889 179.581C43.3608 182.491 43.5348 185.657 43.2452 188.562C42.3488 197.569 40.0339 206.186 39.3015 215.247C39.0904 217.869 38.6226 221.143 39.1197 223.718C39.3521 224.919 40.0681 226.174 40.0653 227.524C40.0903 228.815 39.2901 230.428 39.437 231.621C39.8242 234.776 40.6779 235.321 40.1865 238.77H39.8371H21.613H21.1879C22.9465 236.102 26.4356 233.529 26.5989 229.254C26.6146 228.843 26.4057 227.745 26.3265 227.297C26.616 225.488 27.2065 224.705 27.0432 222.596C26.0912 210.315 22.9392 198.809 22.4246 186.418C21.9951 176.077 25.6968 167.171 25.0704 156.892C24.7326 151.35 22.9813 146.347 21.7589 141.186C18.01 124.368 19.1188 105.727 22.1346 88.8564C22.4705 86.977 23.0849 85.1554 23.4546 83.281C24.6379 77.2792 26.2794 71.0212 26.5034 64.7462C26.5462 60.6594 24.7467 52.1647 23.8714 47.9538L23.576 46.5409C22.9413 51.7411 22.1494 56.3728 21.2081 61.4617C20.8691 63.2941 20.712 65.8981 20.4616 67.8402C20.0323 71.0284 19.4594 74.1695 18.747 77.2414C16.8472 85.2973 14.2383 93.1023 12.442 101.202C12.2818 103.418 14.0763 105.345 14.7913 107.1C16.3141 110.838 15.5858 113.793 15.4345 117.819C15.3487 120.107 16.6696 124.714 13.5391 124.094C12.0764 123.806 12.0395 119.506 11.9038 117.958C11.7896 116.76 11.5762 115.61 11.1257 114.466L11.0592 114.3C9.99785 118.535 10.6239 120.471 12.0444 124.211C12.8059 126.217 12.8573 125.873 14.3157 126.542C14.9024 126.81 14.6993 128.039 14.9281 128.439C15.3645 129.2 16.0972 129.947 15.5232 131.073C15.0372 131.428 14.3421 131.358 13.8273 131.113C11.9131 130.2 9.72008 128.762 8.00453 127.243C6.8058 126.183 6.01691 123.663 5.19915 122.029C4.46746 120.567 3.63664 118.998 3.00622 117.463C2.9871 116.836 3.01485 116.014 3.0515 115.376C3.38804 109.201 3.77685 103.049 3.94829 96.8517C4.24118 86.2638 3.09964 75.0018 5.56186 64.846C6.04822 62.8397 6.86841 60.7785 7.11787 58.6673C7.28746 57.233 7.26449 55.3757 7.31071 53.895C7.38937 51.1027 7.50511 48.3125 7.65794 45.5274C7.90512 41.2144 8.44247 37.3665 8.94396 33.1235C9.19499 30.9995 8.99252 28.501 9.098 26.3171C9.23 23.604 9.74247 20.9636 10.6017 18.5678C13.9567 9.16801 20.8274 9.60323 26.8279 7.53214C29.8345 6.49452 38.1676 3.07606 40.2671 0.209496C40.5923 -1.75654 40.6087 -6.89418 40.6708 -9.1311C39.4413 -11.4882 39.196 -12.8471 38.5092 -15.6551C38.2354 -15.6719 37.9622 -15.7061 37.6905 -15.7573C37.3125 -15.8263 36.4618 -16.0685 36.3213 -16.6733C35.8805 -18.5658 32.6643 -30.2839 36.6087 -27.2796Z" fill="#5E5E5E"/>
<path d="M21.2238 97.1992C26.5627 98.8732 29.2798 100.1 34.306 103.608C36.1388 104.899 37.9267 106.329 39.6625 107.891C42.8388 110.711 46.2834 114.52 50.0245 114.86C49.5111 120.344 49.3863 125.328 48.5775 130.788C47.746 136.404 46.4944 141.26 45.8583 146.949C45.2757 152.16 45.6601 156.881 45.0739 161.981C44.6467 165.578 43.0564 168.89 42.667 172.46C42.5215 173.8 42.6392 176.517 42.7747 177.847C43.5834 185.787 42.6556 192.517 41.2122 200.131C40.2416 205.248 39.3195 210.945 38.9037 216.272C38.7689 218.167 38.5029 220.564 38.6356 222.462C38.7753 224.468 39.5676 225.728 39.7666 227.934C39.6083 228.561 39.2902 229.747 39.241 230.38C38.9807 233.739 40.4812 235.1 39.8372 238.77H21.6131C23.3746 236.582 26.634 233.121 26.8529 229.661C26.9064 228.822 26.7274 228.101 26.5677 227.298C26.8465 226.285 27.4227 224.348 27.3607 223.343C26.5641 210.384 22.8898 198.037 22.7307 184.951C22.6141 175.368 25.9872 166.797 25.3981 157.177C25.0462 151.042 23.324 146.598 22.0494 141.116C18.9813 127.921 19.1862 110.706 21.2238 97.1992Z" fill="white"/>
<path d="M52.6089 114.872C57.7856 113.927 60.9384 109.042 65.5846 105.557C71.5822 101.057 74.8584 99.1466 81.3331 97.3086C83.3555 112.112 83.6429 126.542 80.5236 141.051C79.317 146.412 77.7245 151.273 77.2553 156.957C76.4309 166.961 80.2041 175.795 79.9602 185.624C79.7064 195.843 77.1932 205.8 76.0108 215.813C75.7099 218.365 75.1486 220.945 75.1886 223.551C75.2121 224.994 75.7926 226.316 76.0443 227.631C75.9409 228.086 75.7127 229.012 75.7334 229.461C75.9288 233.617 79.2321 236.215 80.98 238.77H62.9524C62.1822 235.409 63.5978 233.991 63.4494 230.845C63.401 229.817 63.0651 228.721 62.8333 227.725L62.8668 227.531C63.1827 225.749 63.9223 223.964 64.0713 222.27C64.2289 220.474 63.9544 217.825 63.7896 215.994C63.4466 212.176 63.0123 208.512 62.3562 204.787C61.4476 199.626 60.3829 194.537 59.8103 189.257C59.408 185.549 59.6006 182.254 59.816 178.574C59.9272 176.675 60.2032 173.783 59.9878 172.019C59.5578 168.487 57.9903 165.34 57.5153 161.729C57.0996 158.57 57.1488 155.461 57.0532 152.255C56.9805 150.019 56.8215 147.791 56.5768 145.583C56.0883 141.151 54.9822 136.578 54.2242 132.148C53.1837 126.07 53.0532 120.952 52.6089 114.872Z" fill="white"/>
<path d="M68.5733 4.82031C70.4731 5.78639 72.2503 6.53593 74.1779 7.32655C74.3812 9.57067 74.5823 12.2019 74.8675 14.4157C75.5115 19.4167 77.4491 29.7607 79.5158 33.6C77.7158 39.276 79.2848 41.288 78.6864 46.1851C78.0025 51.7783 76.3416 57.027 75.8217 62.7007C75.1699 69.8153 78.6265 82.1143 80.0764 89.1924C80.5948 91.7251 80.8815 94.439 81.288 97.0252C75.3147 97.9516 68.0491 102.954 62.8988 107.341C60.7857 109.142 58.4166 111.86 56.1424 113.177C48.8091 117.423 44.5973 111.714 38.6403 106.531C36.3119 104.505 33.3067 102.501 30.8663 100.959C27.7712 99.095 24.5516 97.7363 21.2627 96.9061C21.623 94.409 22.0114 91.335 22.5026 88.9228C24.0127 81.508 27.3904 69.8566 26.6958 62.1573C26.3442 56.7402 24.2968 50.4474 23.7669 45.2522C23.2518 40.2018 24.7716 39.4757 22.9545 33.5958C24.9513 30.3078 26.9019 19.7191 27.4803 15.2121C27.7655 12.9949 28.0251 9.83493 28.2134 7.52775L28.1292 7.55828C30.2323 6.70247 31.9039 5.98339 33.9435 4.88529C33.9079 5.5635 33.8922 6.24386 33.8986 6.92421C33.9243 10.5631 35.1816 13.8704 36.8731 16.3846C40.6043 21.7839 46.6369 22.9536 51.6175 22.9358C57.7769 22.9137 65.5788 20.5443 68.1233 10.9919C68.6731 8.92804 68.6018 6.99012 68.5733 4.82031Z" fill="#91364A"/>
<path d="M74.5588 7.44531C82.9833 10.0625 92.0901 10.0785 93.1107 26.3603C93.2376 28.3902 93.0122 31.0983 93.2576 32.9855C94.0634 39.1964 94.7373 45.2639 94.8607 51.6145C94.9142 57.6998 94.8928 58.6663 96.4846 64.2195C99.1161 73.4045 97.9016 85.1651 98.1626 94.9378C98.2667 98.8435 98.445 102.806 98.6547 106.712C98.7937 110.284 99.4612 114.527 99.0326 118.035C99.0975 117.675 95.2622 125.937 95.3828 125.733C94.4043 127.399 90.8913 129.698 89.4415 130.51C92.1579 127.65 94.2153 126.584 95.5946 121.775C95.877 120.791 97.264 117.89 97.2804 117.012C96.5972 117.669 94.5284 124.444 93.4729 125.791C92.8817 126.544 92.7512 126.685 92.0481 127.371C91.3192 128.077 90.6346 128.847 89.9165 129.568C89.3139 130.173 87.8205 131.966 87.2728 130.649C87.2229 129.353 88.5971 128.288 89.2033 127.46C90.4271 125.789 91.2879 123.611 91.9768 121.386C92.8867 118.45 92.2342 115.717 91.4925 112.943C90.6517 115.637 90.0912 117.589 90.1925 120.609C90.3251 124.558 86.7515 125.272 87.3734 120.685C87.8041 117.51 86.9776 114.072 87.1794 110.851C87.4397 106.709 89.8102 105.288 90.5298 101.459C90.2574 99.9661 89.5378 97.422 89.1484 95.8615C87.7399 90.2233 86.0077 84.7122 84.5964 79.0755C83.6258 75.1384 82.8627 71.0922 82.3157 66.9755C82.064 65.0205 81.9371 63.0833 81.6518 61.1226C81.1569 57.7141 80.428 54.3933 79.8732 51.0232C79.4853 48.6681 79.3091 45.9365 79.1273 43.525C78.9775 41.5365 78.872 39.864 78.9846 37.8569C79.1893 34.1902 81.0542 31.7723 81.4157 28.3039L81.4357 28.1006C80.8773 29.8409 80.289 31.5591 79.6707 33.253C76.898 27.0421 75.0031 14.9062 74.5588 7.44531Z" fill="white"/>
<path d="M90.2667 63.3555L90.3244 63.4411L90.2403 63.6408C89.4508 64.1308 88.2349 64.3034 87.3634 64.461L87.2971 64.2941C87.5275 64.1293 89.8031 63.5167 90.2667 63.3555Z" fill="#5E5E5E"/>
<path d="M27.6536 7.72266C27.7342 7.74027 27.6764 7.71909 27.797 7.88414C27.429 15.3367 25.5506 26.9844 22.8245 33.2752C22.3333 31.761 21.618 29.5999 20.9891 28.2226C21.0398 28.4651 21.0923 28.704 21.1459 28.9444C21.6748 31.6297 23.3513 34.6788 23.4794 37.5218C23.6881 42.1549 23.1012 47.7766 22.4953 52.3271C22.109 55.2285 21.3677 58.0201 20.9617 60.9044C20.5822 63.6005 20.3792 66.1888 19.9758 68.8648C18.6615 78.4243 15.717 87.1515 13.3057 96.1432C12.9023 97.6475 12.3957 99.4983 12.1396 101.109C11.8141 103.156 13.7549 105.39 14.371 107.048C16.0216 110.966 15.248 113.327 15.171 117.582C15.1725 119.279 15.3555 121.091 15.2074 122.768C15.1329 123.613 14.0348 124.096 13.5858 123.797C12.0602 122.783 12.5687 119.262 12.2724 117.312C12.0345 115.746 11.5236 114.309 10.989 112.971C10.2296 116.137 9.692 118.727 10.8066 121.93C11.502 123.929 12.0832 125.523 13.1633 127.118C13.7708 128.016 15.4124 129.313 15.3975 130.569C14.6419 132.264 12.2851 129.196 11.4763 128.357C8.55667 125.48 8.57535 125.047 6.69777 120.447C6.38256 119.674 5.95211 118.496 5.58426 117.786L5.54048 117.953C5.76783 119.089 8.39714 125.591 9.10829 126.421C9.90245 127.349 11.9323 129.264 12.8693 130.331C11.4478 129.539 9.71211 128.302 8.36932 127.197C7.08644 126.141 6.01037 122.624 5.03022 120.931C3.88562 118.954 3.15742 117.935 3.35504 115.176C3.73557 109.863 3.96828 104.483 4.25382 99.1538C4.72428 87.7984 3.28515 75.8802 5.89548 64.9235C6.39383 62.8323 7.1815 60.8096 7.44187 58.595C7.61966 56.9068 7.62023 54.8876 7.67236 53.1694C7.75395 50.1039 7.88303 47.042 8.05946 43.9865C8.29109 40.2591 9.07463 36.3349 9.2619 32.9214C9.61098 26.5572 8.97593 22.531 11.7041 16.7837C14.2651 11.3886 18.2993 10.2232 22.4015 9.10733L27.6536 7.72266Z" fill="white"/>
<path d="M12.0181 63.4893C12.3866 63.3944 15.1291 64.0919 15.5327 64.3958C14.7504 64.5334 12.7221 64.0812 12.0181 63.4893Z" fill="#5E5E5E"/>
<path d="M41.0195 -8.68022C41.2498 -8.47909 42.6476 -6.78894 42.9849 -6.42861C45.5472 -3.689 47.3059 -2.50503 50.428 -2.3927C53.8761 -2.26867 55.7838 -2.73855 58.7355 -5.61752C59.8138 -6.66897 60.5918 -7.42193 61.5453 -8.78906C61.9119 2.48247 61.126 0.64026 68.3359 4.72595C68.3152 7.6739 68.2967 9.77223 67.3104 12.434C63.8702 21.7215 55.9635 22.6458 49.7399 22.5289C46.679 22.4433 42.3816 21.2793 39.7437 19.0554C36.8126 16.5843 35.2202 13.5464 34.3023 8.77406C35.6766 8.88062 37.3446 8.75231 38.7424 8.72278C40.4033 8.70281 42.0642 8.72756 43.7245 8.79696C45.9944 8.8732 46.4608 8.68091 48.6038 10.0189C48.0169 8.33072 44.9097 8.50489 43.7858 8.43513C40.6558 8.2407 37.5308 8.48777 34.4065 8.59568C34.0927 7.94599 34.1633 5.72577 34.159 4.80926C35.9283 3.83185 39.6645 2.04084 40.6893 -0.156423C40.8619 -1.96554 41.0223 -6.80178 41.0195 -8.68022Z" fill="white"/>
<path d="M59.1106 8.32929C61.8063 8.15833 64.8849 8.13265 67.5706 8.47565C67.9857 8.52864 67.0194 8.64875 67.7903 8.51388C66.7163 8.70032 62.7433 8.59433 61.4447 8.62671C59.6126 8.6608 57.4011 8.6327 55.5634 8.91464C55.4065 8.93868 54.1121 9.88742 53.8661 10.066L53.7798 10.0044C55.0791 8.04663 57.332 8.38264 59.1106 8.32929Z" fill="#5E5E5E"/>
<path d="M89.343 126.383L89.3958 126.512C89.1305 127.021 88.473 127.781 88.1114 128.228C87.9609 127.992 88.0258 128.096 87.9602 127.714C88.182 126.966 88.8174 126.714 89.343 126.383Z" fill="#EDEDED"/>
<path d="M13.1523 126.465C13.946 126.702 14.5474 126.869 14.5732 128.206C14.2365 128.013 13.4611 126.883 13.1523 126.465Z" fill="#EDEDED"/>
<path d="M80 51V59" stroke="#75041D"/>
<path d="M82 52.5536C88.0455 59.1589 89.6364 59.0028 96 52.5536" stroke="#75041D" stroke-dasharray="3 3"/>
<path d="M98 51V59" stroke="#75041D"/>
</g>
<defs>
<clipPath id="clip0_1134_27566">
<rect width="99" height="137" fill="white"/>
</clipPath>
</defs>
</svg>
