<svg width="99" height="137" viewBox="0 0 99 137" fill="none" xmlns="http://www.w3.org/2000/svg">
<g clip-path="url(#clip0_1134_26243)">
<path d="M34.6087 -35.2796C34.9189 -35.9037 34.7734 -37.11 34.742 -37.866C34.6272 -40.6592 33.9533 -47.1902 35.1371 -49.3592C35.6135 -50.2318 36.5356 -50.8488 37.2209 -51.2764C39.028 -52.4045 41.017 -53.0243 42.9511 -53.4484C47.8568 -54.5241 59.0097 -54.3638 62.8893 -49.8614C63.6088 -49.0269 63.8713 -48.158 63.9611 -46.8184C64.0845 -44.9746 63.5539 -36.8679 63.7907 -36.1211C64.8069 -34.8296 66.8337 -37.5137 65.2248 -29.8681C64.5181 -26.5087 64.8775 -23.9876 62.0228 -23.4081C61.6256 -21.7026 61.3218 -20.1131 60.486 -18.7481C60.282 -18.3017 59.9982 -17.7205 59.8377 -17.2534C59.899 -14.4726 59.8748 -11.2732 60.1422 -8.54054C60.3212 -6.71045 63.7629 -5.06958 64.762 -4.46626C69.2348 -1.76467 74.0101 -0.496323 78.7083 0.82901C83.3423 2.13637 87.9108 4.04784 90.0759 10.9594C91.8958 16.3914 91.1691 19.4647 91.5949 24.9844C91.9108 29.0891 92.6225 33.1888 92.8907 37.4867C93.0518 40.1228 93.1766 42.7639 93.2651 45.4079C93.4462 51.5025 93.3022 50.7172 94.8618 56.3782C95.5258 58.8053 95.9793 61.3501 96.2111 63.9506C97.1054 74.1227 96.0656 85.4289 96.7987 95.7687C97.1189 100.283 97.4555 105.108 97.4677 109.6C97.4684 110.007 96.6112 111.737 96.4122 111.968C95.632 112.876 94.0517 117.586 93.4819 118.266C92.0684 119.952 86.6784 124.216 85.0653 123.208C84.7743 122.619 85.6059 119.127 86.0173 118.706C86.493 118.221 87.3788 117.776 87.935 117.463C89.2665 114.172 90.5145 112.077 89.8741 108.15C89.7578 107.404 89.6073 106.673 89.4248 105.958L89.3699 106.136C89.086 107.088 88.6553 109.038 88.6175 110.028C88.5112 112.8 88.5547 116.923 85.8405 115.96C84.5989 115.52 85.1994 111.252 85.1623 109.833C85.0931 107.145 84.6652 104.555 84.9298 101.881C85.322 98.6751 87.4907 96.7601 88.1703 93.7289C87.9635 91.8652 87.1805 89.2184 86.7148 87.396C84.2915 77.9257 81.1822 68.8797 79.9556 58.8082C79.7267 56.9295 79.6661 54.9752 79.3922 53.1073C78.6106 48.1745 77.5409 43.9643 76.9632 38.9346C75.9948 43.4222 74.1042 52.1793 74.0757 56.692C74.0436 61.9885 76.1403 70.8369 77.1957 75.9971C77.543 77.6918 78.1043 79.5954 78.4273 81.3735C80.0433 90.2911 80.9462 99.4654 81.1173 108.703C81.2271 117.01 80.4819 125.474 78.7368 133.368C77.5965 138.529 75.8907 143.563 75.5341 149.015C75.1768 154.758 76.1017 160.42 77.1273 165.908C77.7427 169.202 78.3368 172.814 78.299 176.252C78.1499 189.667 74.2526 202.424 73.4952 215.716C73.4374 216.716 74.0757 218.541 74.3331 219.534C74.04 220.998 73.7469 221.882 74.2982 223.321C75.3451 226.057 77.8283 228.813 79.4742 230.77H78.98H60.9524H60.538C59.9276 227.821 61.1114 226.085 61.2326 223.345C61.2925 222.008 60.466 220.568 60.6179 219.27C60.8532 217.26 61.7882 215.879 61.7974 213.708C61.8096 210.957 61.4687 207.797 61.1913 205.066C60.7955 201.16 60.1115 197.112 59.4376 193.294C58.6532 188.844 57.7589 184.279 57.3595 179.703C57.1163 176.922 57.2832 174.036 57.4458 171.276C57.5699 169.163 57.9486 165.781 57.6654 163.786C57.204 160.294 55.5774 157.031 55.1823 153.526C54.5989 148.341 55.0011 142.986 54.3158 137.768C53.9692 135.133 53.587 132.736 53.0528 130.169C52.5493 127.755 52.1507 125.262 51.7599 122.802C50.9141 117.604 50.723 112.35 50.278 107.062L48.2548 107.07C47.9559 112.742 47.3961 119.94 46.459 125.401C45.6824 129.922 44.7732 133.522 44.2169 138.285C43.5537 143.973 43.9894 149.229 43.2313 154.756C42.8099 157.834 41.3572 161.293 40.9407 164.363C40.7203 165.986 41.0869 169.793 41.1889 171.581C41.3608 174.491 41.5348 177.657 41.2452 180.562C40.3488 189.569 38.0339 198.186 37.3015 207.247C37.0904 209.869 36.6226 213.143 37.1197 215.718C37.3521 216.919 38.0681 218.174 38.0653 219.524C38.0903 220.815 37.2901 222.428 37.437 223.621C37.8242 226.776 38.6779 227.321 38.1865 230.77H37.8371H19.613H19.1879C20.9465 228.102 24.4356 225.529 24.5989 221.254C24.6146 220.843 24.4057 219.745 24.3265 219.297C24.616 217.488 25.2065 216.705 25.0432 214.596C24.0912 202.315 20.9392 190.809 20.4246 178.418C19.9951 168.077 23.6968 159.171 23.0704 148.892C22.7326 143.35 20.9813 138.347 19.7589 133.186C16.01 116.368 17.1188 97.7265 20.1346 80.8564C20.4705 78.977 21.0849 77.1554 21.4546 75.281C22.6379 69.2792 24.2794 63.0212 24.5034 56.7462C24.5462 52.6594 22.7467 44.1647 21.8714 39.9538L21.576 38.5409C20.9413 43.7411 20.1494 48.3728 19.2081 53.4617C18.8691 55.2941 18.712 57.8981 18.4616 59.8402C18.0323 63.0284 17.4594 66.1695 16.747 69.2414C14.8472 77.2973 12.2383 85.1023 10.442 93.2018C10.2818 95.4178 12.0763 97.3449 12.7913 99.0995C14.3141 102.838 13.5858 105.793 13.4345 109.819C13.3487 112.107 14.6696 116.714 11.5391 116.094C10.0764 115.806 10.0395 111.506 9.90381 109.958C9.78956 108.76 9.57619 107.61 9.12569 106.466L9.05915 106.3C7.99785 110.535 8.62392 112.471 10.0444 116.211C10.8059 118.217 10.8573 117.873 12.3157 118.542C12.9024 118.81 12.6993 120.039 12.9281 120.439C13.3645 121.2 14.0972 121.947 13.5232 123.073C13.0372 123.428 12.3421 123.358 11.8273 123.113C9.91308 122.2 7.72008 120.762 6.00453 119.243C4.8058 118.183 4.01691 115.663 3.19915 114.029C2.46746 112.567 1.63664 110.998 1.00622 109.463C0.987105 108.836 1.01485 108.014 1.0515 107.376C1.38804 101.201 1.77685 95.049 1.94829 88.8517C2.24118 78.2638 1.09964 67.0018 3.56186 56.846C4.04822 54.8397 4.86841 52.7785 5.11787 50.6673C5.28746 49.233 5.26449 47.3757 5.31071 45.895C5.38937 43.1027 5.50511 40.3125 5.65794 37.5274C5.90512 33.2144 6.44247 29.3665 6.94396 25.1235C7.19499 22.9995 6.99252 20.501 7.098 18.3171C7.23 15.604 7.74247 12.9636 8.60174 10.5678C11.9567 1.16801 18.8274 1.60323 24.8279 -0.467865C27.8345 -1.50548 36.1676 -4.92394 38.2671 -7.7905C38.5923 -9.75654 38.6087 -14.8942 38.6708 -17.1311C37.4413 -19.4882 37.196 -20.8471 36.5092 -23.6551C36.2354 -23.6719 35.9622 -23.7061 35.6905 -23.7573C35.3125 -23.8263 34.4618 -24.0685 34.3213 -24.6733C33.8805 -26.5658 30.6643 -38.2839 34.6087 -35.2796Z" fill="#5E5E5E"/>
<path d="M19.2236 89.1992C24.5626 90.8732 27.2796 92.0999 32.3059 95.6076C34.1387 96.8986 35.9266 98.3286 37.6624 99.8913C40.8387 102.711 44.2832 106.52 48.0244 106.86C47.5109 112.344 47.3861 117.328 46.5774 122.788C45.7459 128.404 44.4943 133.26 43.8582 138.949C43.2756 144.16 43.6599 148.881 43.0737 153.981C42.6466 157.578 41.0562 160.89 40.6669 164.46C40.5214 165.8 40.639 168.517 40.7745 169.847C41.5833 177.787 40.6554 184.517 39.212 192.131C38.2414 197.248 37.3193 202.945 36.9036 208.272C36.7688 210.167 36.5028 212.564 36.6354 214.462C36.7752 216.468 37.5675 217.728 37.7665 219.934C37.6082 220.561 37.2901 221.747 37.2409 222.38C36.9806 225.739 38.4811 227.1 37.8371 230.77H19.613C21.3744 228.582 24.6339 225.121 24.8528 221.661C24.9063 220.822 24.7273 220.101 24.5675 219.298C24.8464 218.285 25.4226 216.348 25.3606 215.343C24.564 202.384 20.8896 190.037 20.7305 176.951C20.614 167.368 23.987 158.797 23.398 149.177C23.0461 143.042 21.3239 138.598 20.0493 133.116C16.9812 119.921 17.186 102.706 19.2236 89.1992Z" fill="white"/>
<path d="M50.6089 106.872C55.7856 105.927 58.9384 101.042 63.5846 97.5571C69.5822 93.0573 72.8584 91.1466 79.3331 89.3086C81.3555 104.112 81.6429 118.542 78.5236 133.051C77.317 138.412 75.7245 143.273 75.2553 148.957C74.4309 158.961 78.2041 167.795 77.9602 177.624C77.7064 187.843 75.1932 197.8 74.0108 207.813C73.7099 210.365 73.1486 212.945 73.1886 215.551C73.2121 216.994 73.7926 218.316 74.0443 219.631C73.9409 220.086 73.7127 221.012 73.7334 221.461C73.9288 225.617 77.2321 228.215 78.98 230.77H60.9524C60.1822 227.409 61.5978 225.991 61.4494 222.845C61.401 221.817 61.0651 220.721 60.8333 219.725L60.8668 219.531C61.1827 217.749 61.9223 215.964 62.0713 214.27C62.2289 212.474 61.9544 209.825 61.7896 207.994C61.4466 204.176 61.0123 200.512 60.3562 196.787C59.4476 191.626 58.3829 186.537 57.8103 181.257C57.408 177.549 57.6006 174.254 57.816 170.574C57.9272 168.675 58.2032 165.783 57.9878 164.019C57.5578 160.487 55.9903 157.34 55.5153 153.729C55.0996 150.57 55.1488 147.461 55.0532 144.255C54.9805 142.019 54.8215 139.791 54.5768 137.583C54.0883 133.151 52.9822 128.578 52.2242 124.148C51.1837 118.07 51.0532 112.952 50.6089 106.872Z" fill="white"/>
<path d="M66.5734 -3.17969C68.4732 -2.21361 70.2504 -1.46407 72.178 -0.673454C72.3813 1.57067 72.5824 4.20186 72.8676 6.41574C73.5116 11.4167 75.4492 21.7607 77.5159 25.6C75.716 31.276 77.2849 33.288 76.6866 38.1851C76.0026 43.7783 74.3417 49.027 73.8218 54.7007C73.17 61.8153 76.6267 74.1143 78.0765 81.1924C78.5949 83.7251 78.8816 86.439 79.2881 89.0252C73.3148 89.9516 66.0492 94.9536 60.8989 99.3414C58.7858 101.142 56.4167 103.86 54.1425 105.177C46.8092 109.423 42.5974 103.714 36.6404 98.5312C34.312 96.5049 31.3068 94.5014 28.8664 92.9594C25.7714 91.095 22.5517 89.7363 19.2628 88.9061C19.6232 86.409 20.0116 83.335 20.5028 80.9228C22.0129 73.508 25.3905 61.8566 24.6959 54.1573C24.3444 48.7402 22.2969 42.4474 21.767 37.2522C21.2519 32.2018 22.7717 31.4757 20.9546 25.5958C22.9514 22.3078 24.902 11.7191 25.4804 7.21207C25.7657 4.99491 26.0252 1.83493 26.2135 -0.472247L26.1294 -0.441722C28.2324 -1.29753 29.9041 -2.01661 31.9437 -3.11471C31.908 -2.4365 31.8923 -1.75614 31.8987 -1.07579C31.9244 2.56314 33.1817 5.87041 34.8733 8.38456C38.6045 13.7839 44.637 14.9536 49.6176 14.9358C55.7771 14.9137 63.5789 12.5443 66.1234 2.99186C66.6732 0.928045 66.6019 -1.00988 66.5734 -3.17969Z" fill="#91364A"/>
<path d="M72.5588 -0.554688C80.9833 2.06253 90.0901 2.07851 91.1107 18.3603C91.2376 20.3902 91.0122 23.0983 91.2576 24.9855C92.0634 31.1964 92.7373 37.2639 92.8607 43.6145C92.9142 49.6998 92.8928 50.6663 94.4846 56.2195C97.1161 65.4045 95.9016 77.1651 96.1626 86.9378C96.2667 90.8435 96.445 94.8062 96.6547 98.7119C96.7937 102.284 97.4612 106.527 97.0326 110.035C97.0975 109.675 93.2622 117.937 93.3828 117.733C92.4043 119.399 88.8913 121.698 87.4415 122.51C90.1579 119.65 92.2153 118.584 93.5946 113.775C93.877 112.791 95.264 109.89 95.2804 109.012C94.5972 109.669 92.5284 116.444 91.4729 117.791C90.8817 118.544 90.7512 118.685 90.0481 119.371C89.3192 120.077 88.6346 120.847 87.9165 121.568C87.3139 122.173 85.8205 123.966 85.2728 122.649C85.2229 121.353 86.5971 120.288 87.2033 119.46C88.4271 117.789 89.2879 115.611 89.9768 113.386C90.8867 110.45 90.2342 107.717 89.4925 104.943C88.6517 107.637 88.0912 109.589 88.1925 112.609C88.3251 116.558 84.7515 117.272 85.3734 112.685C85.8041 109.51 84.9776 106.072 85.1794 102.851C85.4397 98.7091 87.8102 97.2876 88.5298 93.4589C88.2574 91.9661 87.5378 89.422 87.1484 87.8615C85.7399 82.2233 84.0077 76.7122 82.5964 71.0755C81.6258 67.1384 80.8627 63.0922 80.3157 58.9755C80.064 57.0205 79.9371 55.0833 79.6518 53.1226C79.1569 49.7141 78.428 46.3933 77.8732 43.0232C77.4853 40.6681 77.3091 37.9365 77.1273 35.525C76.9775 33.5365 76.872 31.864 76.9846 29.8569C77.1893 26.1902 79.0542 23.7723 79.4157 20.3039L79.4357 20.1006C78.8773 21.8409 78.289 23.5591 77.6707 25.253C74.898 19.0421 73.0031 6.90618 72.5588 -0.554688Z" fill="white"/>
<path d="M88.2667 55.3555L88.3244 55.4411L88.2403 55.6408C87.4508 56.1308 86.2349 56.3034 85.3634 56.461L85.2971 56.2941C85.5275 56.1293 87.8031 55.5167 88.2667 55.3555Z" fill="#5E5E5E"/>
<path d="M25.6536 -0.277344C25.7342 -0.259727 25.6764 -0.280907 25.797 -0.115865C25.429 7.33665 23.5506 18.9844 20.8245 25.2752C20.3333 23.761 19.618 21.5999 18.9891 20.2226C19.0398 20.4651 19.0923 20.704 19.1459 20.9444C19.6748 23.6297 21.3513 26.6788 21.4794 29.5218C21.6881 34.1549 21.1012 39.7766 20.4953 44.3271C20.109 47.2285 19.3677 50.0201 18.9617 52.9044C18.5822 55.6005 18.3792 58.1888 17.9758 60.8648C16.6615 70.4243 13.717 79.1515 11.3057 88.1432C10.9023 89.6475 10.3957 91.4983 10.1396 93.1095C9.81411 95.1565 11.7549 97.3903 12.371 99.0479C14.0216 102.966 13.248 105.327 13.171 109.582C13.1725 111.279 13.3555 113.091 13.2074 114.768C13.1329 115.613 12.0348 116.096 11.5858 115.797C10.0602 114.783 10.5687 111.262 10.2724 109.312C10.0345 107.746 9.52358 106.309 8.989 104.971C8.22957 108.137 7.692 110.727 8.80657 113.93C9.50204 115.929 10.0832 117.523 11.1633 119.118C11.7708 120.016 13.4124 121.313 13.3975 122.569C12.6419 124.264 10.2851 121.196 9.4763 120.357C6.55667 117.48 6.57535 117.047 4.69777 112.447C4.38256 111.674 3.95211 110.496 3.58426 109.786L3.54048 109.953C3.76783 111.089 6.39714 117.591 7.10829 118.421C7.90245 119.349 9.93228 121.264 10.8693 122.331C9.44784 121.539 7.71211 120.302 6.36932 119.197C5.08644 118.141 4.01037 114.624 3.03022 112.931C1.88562 110.954 1.15742 109.935 1.35504 107.176C1.73557 101.863 1.96828 96.4831 2.25382 91.1538C2.72428 79.7984 1.28515 67.8802 3.89548 56.9235C4.39383 54.8323 5.1815 52.8096 5.44187 50.595C5.61966 48.9068 5.62023 46.8876 5.67236 45.1694C5.75395 42.1039 5.88303 39.042 6.05946 35.9865C6.29109 32.2591 7.07463 28.3349 7.2619 24.9214C7.61098 18.5572 6.97593 14.531 9.70407 8.78373C12.2651 3.38861 16.2993 2.22319 20.4015 1.10733L25.6536 -0.277344Z" fill="white"/>
<path d="M10.0181 55.4893C10.3866 55.3944 13.1291 56.0919 13.5327 56.3958C12.7504 56.5334 10.7221 56.0812 10.0181 55.4893Z" fill="#5E5E5E"/>
<path d="M39.0195 -16.6802C39.2498 -16.4791 40.6476 -14.7889 40.9849 -14.4286C43.5472 -11.689 45.3059 -10.505 48.428 -10.3927C51.8761 -10.2687 53.7838 -10.7385 56.7355 -13.6175C57.8138 -14.669 58.5918 -15.4219 59.5453 -16.7891C59.9119 -5.51753 59.126 -7.35974 66.3359 -3.27405C66.3152 -0.326103 66.2967 1.77223 65.3104 4.43395C61.8702 13.7215 53.9635 14.6458 47.7399 14.5289C44.679 14.4433 40.3816 13.2793 37.7437 11.0554C34.8126 8.58434 33.2202 5.54639 32.3023 0.774063C33.6766 0.880619 35.3446 0.75231 36.7424 0.722782C38.4033 0.70281 40.0642 0.727558 41.7245 0.796957C43.9944 0.873201 44.4608 0.680914 46.6038 2.01887C46.0169 0.330715 42.9097 0.504887 41.7858 0.435133C38.6558 0.240704 35.5308 0.487768 32.4065 0.59568C32.0927 -0.0540066 32.1633 -2.27423 32.159 -3.19074C33.9283 -4.16815 37.6645 -5.95916 38.6893 -8.15642C38.8619 -9.96554 39.0223 -14.8018 39.0195 -16.6802Z" fill="white"/>
<path d="M57.1107 0.329291C59.8064 0.158328 62.885 0.132652 65.5708 0.475647C65.9858 0.52864 65.0195 0.64875 65.7904 0.513877C64.7164 0.700316 60.7435 0.594328 59.4448 0.626708C57.6127 0.660801 55.4013 0.632699 53.5635 0.91464C53.4066 0.938676 52.1122 1.88742 51.8662 2.06602L51.7799 2.00439C53.0793 0.046633 55.3321 0.382641 57.1107 0.329291Z" fill="#5E5E5E"/>
<path d="M87.3431 118.383L87.3959 118.512C87.1306 119.021 86.4731 119.781 86.1115 120.228C85.961 119.992 86.0259 120.096 85.9603 119.714C86.1821 118.966 86.8175 118.714 87.3431 118.383Z" fill="#EDEDED"/>
<path d="M11.1523 118.465C11.946 118.702 12.5474 118.869 12.5732 120.206C12.2365 120.013 11.4611 118.883 11.1523 118.465Z" fill="#EDEDED"/>
<path d="M23 36L23 44" stroke="#75041D"/>
<path d="M74 40H25" stroke="#75041D" stroke-dasharray="3 3"/>
<path d="M76 36L76 44" stroke="#75041D"/>
</g>
<defs>
<clipPath id="clip0_1134_26243">
<rect width="99" height="137" fill="white"/>
</clipPath>
</defs>
</svg>
