<svg width="99" height="137" viewBox="0 0 99 137" fill="none" xmlns="http://www.w3.org/2000/svg">
<g clip-path="url(#clip0_1134_31833)">
<path d="M34.6087 -33.2796C34.9189 -33.9037 34.7734 -35.11 34.742 -35.866C34.6272 -38.6592 33.9533 -45.1902 35.1371 -47.3592C35.6135 -48.2318 36.5356 -48.8488 37.2209 -49.2764C39.028 -50.4045 41.017 -51.0243 42.9511 -51.4484C47.8568 -52.5241 59.0097 -52.3638 62.8893 -47.8614C63.6088 -47.0269 63.8713 -46.158 63.9611 -44.8184C64.0845 -42.9746 63.5539 -34.8679 63.7907 -34.1211C64.8069 -32.8296 66.8337 -35.5137 65.2248 -27.8681C64.5181 -24.5087 64.8775 -21.9876 62.0228 -21.4081C61.6256 -19.7026 61.3218 -18.1131 60.486 -16.7481C60.282 -16.3017 59.9982 -15.7205 59.8377 -15.2534C59.899 -12.4726 59.8748 -9.27323 60.1422 -6.54054C60.3212 -4.71045 63.7629 -3.06958 64.762 -2.46626C69.2348 0.235332 74.0101 1.50368 78.7083 2.82901C83.3423 4.13637 87.9108 6.04784 90.0759 12.9594C91.8958 18.3914 91.1691 21.4647 91.5949 26.9844C91.9108 31.0891 92.6225 35.1888 92.8907 39.4867C93.0518 42.1228 93.1766 44.7639 93.2651 47.4079C93.4462 53.5025 93.3022 52.7172 94.8618 58.3782C95.5258 60.8053 95.9793 63.3501 96.2111 65.9506C97.1054 76.1227 96.0656 87.4289 96.7987 97.7687C97.1189 102.283 97.4555 107.108 97.4677 111.6C97.4684 112.007 96.6112 113.737 96.4122 113.968C95.632 114.876 94.0517 119.586 93.4819 120.266C92.0684 121.952 86.6784 126.216 85.0653 125.208C84.7743 124.619 85.6059 121.127 86.0173 120.706C86.493 120.221 87.3788 119.776 87.935 119.463C89.2665 116.172 90.5145 114.077 89.8741 110.15C89.7578 109.404 89.6073 108.673 89.4248 107.958L89.3699 108.136C89.086 109.088 88.6553 111.038 88.6175 112.028C88.5112 114.8 88.5547 118.923 85.8405 117.96C84.5989 117.52 85.1994 113.252 85.1623 111.833C85.0931 109.145 84.6652 106.555 84.9298 103.881C85.322 100.675 87.4907 98.7601 88.1703 95.7289C87.9635 93.8652 87.1805 91.2184 86.7148 89.396C84.2915 79.9257 81.1822 70.8797 79.9556 60.8082C79.7267 58.9295 79.6661 56.9752 79.3922 55.1073C78.6106 50.1745 77.5409 45.9643 76.9632 40.9346C75.9948 45.4222 74.1042 54.1793 74.0757 58.692C74.0436 63.9885 76.1403 72.8369 77.1957 77.9971C77.543 79.6918 78.1043 81.5954 78.4273 83.3735C80.0433 92.2911 80.9462 101.465 81.1173 110.703C81.2271 119.01 80.4819 127.474 78.7368 135.368C77.5965 140.529 75.8907 145.563 75.5341 151.015C75.1768 156.758 76.1017 162.42 77.1273 167.908C77.7427 171.202 78.3368 174.814 78.299 178.252C78.1499 191.667 74.2526 204.424 73.4952 217.716C73.4374 218.716 74.0757 220.541 74.3331 221.534C74.04 222.998 73.7469 223.882 74.2982 225.321C75.3451 228.057 77.8283 230.813 79.4742 232.77H78.98H60.9524H60.538C59.9276 229.821 61.1114 228.085 61.2326 225.345C61.2925 224.008 60.466 222.568 60.6179 221.27C60.8532 219.26 61.7882 217.879 61.7974 215.708C61.8096 212.957 61.4687 209.797 61.1913 207.066C60.7955 203.16 60.1115 199.112 59.4376 195.294C58.6532 190.844 57.7589 186.279 57.3595 181.703C57.1163 178.922 57.2832 176.036 57.4458 173.276C57.5699 171.163 57.9486 167.781 57.6654 165.786C57.204 162.294 55.5774 159.031 55.1823 155.526C54.5989 150.341 55.0011 144.986 54.3158 139.768C53.9692 137.133 53.587 134.736 53.0528 132.169C52.5493 129.755 52.1507 127.262 51.7599 124.802C50.9141 119.604 50.723 114.35 50.278 109.062L48.2548 109.07C47.9559 114.742 47.3961 121.94 46.459 127.401C45.6824 131.922 44.7732 135.522 44.2169 140.285C43.5537 145.973 43.9894 151.229 43.2313 156.756C42.8099 159.834 41.3572 163.293 40.9407 166.363C40.7203 167.986 41.0869 171.793 41.1889 173.581C41.3608 176.491 41.5348 179.657 41.2452 182.562C40.3488 191.569 38.0339 200.186 37.3015 209.247C37.0904 211.869 36.6226 215.143 37.1197 217.718C37.3521 218.919 38.0681 220.174 38.0653 221.524C38.0903 222.815 37.2901 224.428 37.437 225.621C37.8242 228.776 38.6779 229.321 38.1865 232.77H37.8371H19.613H19.1879C20.9465 230.102 24.4356 227.529 24.5989 223.254C24.6146 222.843 24.4057 221.745 24.3265 221.297C24.616 219.488 25.2065 218.705 25.0432 216.596C24.0912 204.315 20.9392 192.809 20.4246 180.418C19.9951 170.077 23.6968 161.171 23.0704 150.892C22.7326 145.35 20.9813 140.347 19.7589 135.186C16.01 118.368 17.1188 99.7265 20.1346 82.8564C20.4705 80.977 21.0849 79.1554 21.4546 77.281C22.6379 71.2792 24.2794 65.0212 24.5034 58.7462C24.5462 54.6594 22.7467 46.1647 21.8714 41.9538L21.576 40.5409C20.9413 45.7411 20.1494 50.3728 19.2081 55.4617C18.8691 57.2941 18.712 59.8981 18.4616 61.8402C18.0323 65.0284 17.4594 68.1695 16.747 71.2414C14.8472 79.2973 12.2383 87.1023 10.442 95.2018C10.2818 97.4178 12.0763 99.3449 12.7913 101.1C14.3141 104.838 13.5858 107.793 13.4345 111.819C13.3487 114.107 14.6696 118.714 11.5391 118.094C10.0764 117.806 10.0395 113.506 9.90381 111.958C9.78956 110.76 9.57619 109.61 9.12569 108.466L9.05915 108.3C7.99785 112.535 8.62392 114.471 10.0444 118.211C10.8059 120.217 10.8573 119.873 12.3157 120.542C12.9024 120.81 12.6993 122.039 12.9281 122.439C13.3645 123.2 14.0972 123.947 13.5232 125.073C13.0372 125.428 12.3421 125.358 11.8273 125.113C9.91308 124.2 7.72008 122.762 6.00453 121.243C4.8058 120.183 4.01691 117.663 3.19915 116.029C2.46746 114.567 1.63664 112.998 1.00622 111.463C0.987105 110.836 1.01485 110.014 1.0515 109.376C1.38804 103.201 1.77685 97.049 1.94829 90.8517C2.24118 80.2638 1.09964 69.0018 3.56186 58.846C4.04822 56.8397 4.86841 54.7785 5.11787 52.6673C5.28746 51.233 5.26449 49.3757 5.31071 47.895C5.38937 45.1027 5.50511 42.3125 5.65794 39.5274C5.90512 35.2144 6.44247 31.3665 6.94396 27.1235C7.19499 24.9995 6.99252 22.501 7.098 20.3171C7.23 17.604 7.74247 14.9636 8.60174 12.5678C11.9567 3.16801 18.8274 3.60323 24.8279 1.53214C27.8345 0.494522 36.1676 -2.92394 38.2671 -5.7905C38.5923 -7.75654 38.6087 -12.8942 38.6708 -15.1311C37.4413 -17.4882 37.196 -18.8471 36.5092 -21.6551C36.2354 -21.6719 35.9622 -21.7061 35.6905 -21.7573C35.3125 -21.8263 34.4618 -22.0685 34.3213 -22.6733C33.8805 -24.5658 30.6643 -36.2839 34.6087 -33.2796Z" fill="#5E5E5E"/>
<path d="M19.2237 91.1992C24.5626 92.8732 27.2797 94.0999 32.306 97.6076C34.1388 98.8986 35.9266 100.329 37.6624 101.891C40.8388 104.711 44.2833 108.52 48.0245 108.86C47.511 114.344 47.3862 119.328 46.5775 124.788C45.746 130.404 44.4944 135.26 43.8583 140.949C43.2756 146.16 43.66 150.881 43.0738 155.981C42.6466 159.578 41.0563 162.89 40.6669 166.46C40.5214 167.8 40.6391 170.517 40.7746 171.847C41.5833 179.787 40.6555 186.517 39.2121 194.131C38.2415 199.248 37.3194 204.945 36.9036 210.272C36.7689 212.167 36.5028 214.564 36.6355 216.462C36.7753 218.468 37.5676 219.728 37.7666 221.934C37.6082 222.561 37.2902 223.747 37.241 224.38C36.9807 227.739 38.4811 229.1 37.8372 232.77H19.613C21.3745 230.582 24.6339 227.121 24.8529 223.661C24.9064 222.822 24.7274 222.101 24.5676 221.298C24.8464 220.285 25.4227 218.348 25.3606 217.343C24.564 204.384 20.8897 192.037 20.7306 178.951C20.6141 169.368 23.9871 160.797 23.398 151.177C23.0462 145.042 21.3239 140.598 20.0493 135.116C16.9813 121.921 17.1861 104.706 19.2237 91.1992Z" fill="white"/>
<path d="M50.6089 108.872C55.7856 107.927 58.9384 103.042 63.5846 99.5571C69.5822 95.0573 72.8584 93.1466 79.3331 91.3086C81.3555 106.112 81.6429 120.542 78.5236 135.051C77.317 140.412 75.7245 145.273 75.2553 150.957C74.4309 160.961 78.2041 169.795 77.9602 179.624C77.7064 189.843 75.1932 199.8 74.0108 209.813C73.7099 212.365 73.1486 214.945 73.1886 217.551C73.2121 218.994 73.7926 220.316 74.0443 221.631C73.9409 222.086 73.7127 223.012 73.7334 223.461C73.9288 227.617 77.2321 230.215 78.98 232.77H60.9524C60.1822 229.409 61.5978 227.991 61.4494 224.845C61.401 223.817 61.0651 222.721 60.8333 221.725L60.8668 221.531C61.1827 219.749 61.9223 217.964 62.0713 216.27C62.2289 214.474 61.9544 211.825 61.7896 209.994C61.4466 206.176 61.0123 202.512 60.3562 198.787C59.4476 193.626 58.3829 188.537 57.8103 183.257C57.408 179.549 57.6006 176.254 57.816 172.574C57.9272 170.675 58.2032 167.783 57.9878 166.019C57.5578 162.487 55.9903 159.34 55.5153 155.729C55.0996 152.57 55.1488 149.461 55.0532 146.255C54.9805 144.019 54.8215 141.791 54.5768 139.583C54.0883 135.151 52.9822 130.578 52.2242 126.148C51.1837 120.07 51.0532 114.952 50.6089 108.872Z" fill="white"/>
<path d="M66.5734 -1.17969C68.4732 -0.213611 70.2504 0.535926 72.178 1.32655C72.3813 3.57067 72.5824 6.20186 72.8676 8.41574C73.5116 13.4167 75.4492 23.7607 77.5159 27.6C75.716 33.276 77.2849 35.288 76.6866 40.1851C76.0026 45.7783 74.3417 51.027 73.8218 56.7007C73.17 63.8153 76.6267 76.1143 78.0765 83.1924C78.5949 85.7251 78.8816 88.439 79.2881 91.0252C73.3148 91.9516 66.0492 96.9536 60.8989 101.341C58.7858 103.142 56.4167 105.86 54.1425 107.177C46.8092 111.423 42.5974 105.714 36.6404 100.531C34.312 98.5049 31.3068 96.5014 28.8664 94.9594C25.7714 93.095 22.5517 91.7363 19.2628 90.9061C19.6232 88.409 20.0116 85.335 20.5028 82.9228C22.0129 75.508 25.3905 63.8566 24.6959 56.1573C24.3444 50.7402 22.2969 44.4474 21.767 39.2522C21.2519 34.2018 22.7717 33.4757 20.9546 27.5958C22.9514 24.3078 24.902 13.7191 25.4804 9.21207C25.7657 6.99491 26.0252 3.83493 26.2135 1.52775L26.1294 1.55828C28.2324 0.702468 29.9041 -0.0166148 31.9437 -1.11471C31.908 -0.436496 31.8923 0.243857 31.8987 0.924212C31.9244 4.56314 33.1817 7.87041 34.8733 10.3846C38.6045 15.7839 44.637 16.9536 49.6176 16.9358C55.7771 16.9137 63.5789 14.5443 66.1234 4.99186C66.6732 2.92804 66.6019 0.990115 66.5734 -1.17969Z" fill="#91364A"/>
<path d="M72.5588 1.44531C80.9832 4.06253 90.0901 4.07851 91.1106 20.3603C91.2375 22.3902 91.0122 25.0983 91.2575 26.9855C92.0634 33.1964 92.7373 39.2639 92.8607 45.6145C92.9141 51.6998 92.8928 52.6663 94.4845 58.2195C97.116 67.4045 95.9015 79.1651 96.1625 88.9378C96.2667 92.8435 96.4449 96.8062 96.6546 100.712C96.7937 104.284 97.4612 108.527 97.0326 112.035C97.0975 111.675 93.2622 119.937 93.3827 119.733C92.4043 121.399 88.8913 123.698 87.4415 124.51C90.1578 121.65 92.2153 120.584 93.5945 115.775C93.8769 114.791 95.264 111.89 95.2804 111.012C94.5972 111.669 92.5283 118.444 91.4729 119.791C90.8817 120.544 90.7512 120.685 90.048 121.371C89.3192 122.077 88.6346 122.847 87.9164 123.568C87.3138 124.173 85.8205 125.966 85.2728 124.649C85.2228 123.353 86.5971 122.288 87.2033 121.46C88.427 119.789 89.2878 117.611 89.9767 115.386C90.8867 112.45 90.2341 109.717 89.4925 106.943C88.6517 109.637 88.0911 111.589 88.1924 114.609C88.325 118.558 84.7515 119.272 85.3733 114.685C85.8041 111.51 84.9775 108.072 85.1794 104.851C85.4396 100.709 87.8102 99.2876 88.5297 95.4589C88.2573 93.9661 87.5377 91.422 87.1484 89.8615C85.7399 84.2233 84.0077 78.7122 82.5963 73.0755C81.6257 69.1384 80.8627 65.0922 80.3157 60.9755C80.0639 59.0205 79.937 57.0833 79.6517 55.1226C79.1568 51.7141 78.428 48.3933 77.8731 45.0232C77.4852 42.6681 77.309 39.9365 77.1272 37.525C76.9774 35.5365 76.8719 33.864 76.9846 31.8569C77.1892 28.1902 79.0541 25.7723 79.4157 22.3039L79.4357 22.1006C78.8773 23.8409 78.2889 25.5591 77.6706 27.253C74.8979 21.0421 73.0031 8.90618 72.5588 1.44531Z" fill="white"/>
<path d="M88.2666 57.3555L88.3244 57.4411L88.2402 57.6408C87.4508 58.1308 86.2348 58.3034 85.3634 58.461L85.2971 58.2941C85.5274 58.1293 87.8031 57.5167 88.2666 57.3555Z" fill="#5E5E5E"/>
<path d="M25.6537 1.72266C25.7343 1.74027 25.6765 1.71909 25.797 1.88414C25.429 9.33665 23.5506 20.9844 20.8246 27.2752C20.3334 25.761 19.6181 23.5999 18.9892 22.2226C19.0399 22.4651 19.0924 22.704 19.1459 22.9444C19.6749 25.6297 21.3513 28.6788 21.4794 31.5218C21.6882 36.1549 21.1013 41.7766 20.4953 46.3271C20.109 49.2285 19.3678 52.0201 18.9617 54.9044C18.5823 57.6005 18.3793 60.1888 17.9759 62.8648C16.6615 72.4243 13.7171 81.1515 11.3057 90.1432C10.9024 91.6475 10.3957 93.4983 10.1397 95.1095C9.81417 97.1565 11.755 99.3903 12.3711 101.048C14.0217 104.966 13.2481 107.327 13.1711 111.582C13.1726 113.279 13.3556 115.091 13.2075 116.768C13.1329 117.613 12.0348 118.096 11.5858 117.797C10.0603 116.783 10.5688 113.262 10.2724 111.312C10.0345 109.746 9.52364 108.309 8.98906 106.971C8.22963 110.137 7.69206 112.727 8.80664 115.93C9.5021 117.929 10.0832 119.523 11.1634 121.118C11.7709 122.016 13.4125 123.313 13.3975 124.569C12.6419 126.264 10.2851 123.196 9.47636 122.357C6.55673 119.48 6.57541 119.047 4.69784 114.447C4.38262 113.674 3.95217 112.496 3.58433 111.786L3.54054 111.953C3.76789 113.089 6.3972 119.591 7.10835 120.421C7.90251 121.349 9.93234 123.264 10.8693 124.331C9.4479 123.539 7.71217 122.302 6.36938 121.197C5.0865 120.141 4.01043 116.624 3.03028 114.931C1.88568 112.954 1.15749 111.935 1.3551 109.176C1.73563 103.863 1.96834 98.4831 2.25388 93.1538C2.72434 81.7984 1.28521 69.8802 3.89554 58.9235C4.39389 56.8323 5.18156 54.8096 5.44194 52.595C5.61972 50.9068 5.62029 48.8876 5.67242 47.1694C5.75401 44.1039 5.88309 41.042 6.05952 37.9865C6.29115 34.2591 7.07469 30.3349 7.26196 26.9214C7.61105 20.5572 6.97599 16.531 9.70413 10.7837C12.2652 5.38861 16.2993 4.22319 20.4016 3.10733L25.6537 1.72266Z" fill="white"/>
<path d="M10.0181 57.4893C10.3867 57.3944 13.1292 58.0919 13.5327 58.3958C12.7505 58.5334 10.7221 58.0812 10.0181 57.4893Z" fill="#5E5E5E"/>
<path d="M39.0194 -14.6802C39.2498 -14.4791 40.6475 -12.7889 40.9848 -12.4286C43.5472 -9.689 45.3058 -8.50503 48.428 -8.3927C51.8761 -8.26867 53.7837 -8.73855 56.7354 -11.6175C57.8137 -12.669 58.5918 -13.4219 59.5452 -14.7891C59.9118 -3.51753 59.1259 -5.35974 66.3358 -1.27405C66.3152 1.6739 66.2966 3.77223 65.3103 6.43395C61.8701 15.7215 53.9634 16.6458 47.7398 16.5289C44.679 16.4433 40.3815 15.2793 37.7436 13.0554C34.8126 10.5843 33.2201 7.54639 32.3023 2.77406C33.6765 2.88062 35.3446 2.75231 36.7423 2.72278C38.4033 2.70281 40.0642 2.72756 41.7244 2.79696C43.9943 2.8732 44.4607 2.68091 46.6037 4.01887C46.0168 2.33072 42.9096 2.50489 41.7857 2.43513C38.6557 2.2407 35.5307 2.48777 32.4064 2.59568C32.0926 1.94599 32.1632 -0.274231 32.1589 -1.19074C33.9283 -2.16815 37.6644 -3.95916 38.6892 -6.15642C38.8618 -7.96554 39.0223 -12.8018 39.0194 -14.6802Z" fill="white"/>
<path d="M57.1107 2.32929C59.8064 2.15833 62.885 2.13265 65.5708 2.47565C65.9858 2.52864 65.0195 2.64875 65.7904 2.51388C64.7164 2.70032 60.7435 2.59433 59.4448 2.62671C57.6127 2.6608 55.4013 2.6327 53.5635 2.91464C53.4066 2.93868 52.1122 3.88742 51.8662 4.06602L51.7799 4.00439C53.0793 2.04663 55.3321 2.38264 57.1107 2.32929Z" fill="#5E5E5E"/>
<path d="M87.3431 120.383L87.3959 120.512C87.1306 121.021 86.4731 121.781 86.1115 122.228C85.961 121.992 86.0259 122.096 85.9603 121.714C86.1821 120.966 86.8175 120.714 87.3431 120.383Z" fill="#EDEDED"/>
<path d="M11.1523 120.465C11.946 120.702 12.5474 120.869 12.5732 122.206C12.2365 122.013 11.4611 120.883 11.1523 120.465Z" fill="#EDEDED"/>
<path d="M10 0L10 8" stroke="#75041D"/>
<path d="M86 4H12" stroke="#75041D" stroke-dasharray="3 3"/>
<path d="M88 0L88 8" stroke="#75041D"/>
</g>
<defs>
<clipPath id="clip0_1134_31833">
<rect width="99" height="137" fill="white"/>
</clipPath>
</defs>
</svg>
