<svg width="99" height="137" viewBox="0 0 99 137" fill="none" xmlns="http://www.w3.org/2000/svg">
<g clip-path="url(#clip0_1134_28361)">
<path d="M34.6087 -27.2796C34.9189 -27.9037 34.7734 -29.11 34.742 -29.866C34.6272 -32.6592 33.9533 -39.1902 35.1371 -41.3592C35.6135 -42.2318 36.5356 -42.8488 37.2209 -43.2764C39.028 -44.4045 41.017 -45.0243 42.9511 -45.4484C47.8568 -46.5241 59.0097 -46.3638 62.8893 -41.8614C63.6088 -41.0269 63.8713 -40.158 63.9611 -38.8184C64.0845 -36.9746 63.5539 -28.8679 63.7907 -28.1211C64.8069 -26.8296 66.8337 -29.5137 65.2248 -21.8681C64.5181 -18.5087 64.8775 -15.9876 62.0228 -15.4081C61.6256 -13.7026 61.3218 -12.1131 60.486 -10.7481C60.282 -10.3017 59.9982 -9.72052 59.8377 -9.25342C59.899 -6.47259 59.8748 -3.27323 60.1422 -0.540543C60.3212 1.28955 63.7629 2.93042 64.762 3.53374C69.2348 6.23533 74.0101 7.50368 78.7083 8.82901C83.3423 10.1364 87.9108 12.0478 90.0759 18.9594C91.8958 24.3914 91.1691 27.4647 91.5949 32.9844C91.9108 37.0891 92.6225 41.1888 92.8907 45.4867C93.0518 48.1228 93.1766 50.7639 93.2651 53.4079C93.4462 59.5025 93.3022 58.7172 94.8618 64.3782C95.5258 66.8053 95.9793 69.3501 96.2111 71.9506C97.1054 82.1227 96.0656 93.4289 96.7987 103.769C97.1189 108.283 97.4555 113.108 97.4677 117.6C97.4684 118.007 96.6112 119.737 96.4122 119.968C95.632 120.876 94.0517 125.586 93.4819 126.266C92.0684 127.952 86.6784 132.216 85.0653 131.208C84.7743 130.619 85.6059 127.127 86.0173 126.706C86.493 126.221 87.3788 125.776 87.935 125.463C89.2665 122.172 90.5145 120.077 89.8741 116.15C89.7578 115.404 89.6073 114.673 89.4248 113.958L89.3699 114.136C89.086 115.088 88.6553 117.038 88.6175 118.028C88.5112 120.8 88.5547 124.923 85.8405 123.96C84.5989 123.52 85.1994 119.252 85.1623 117.833C85.0931 115.145 84.6652 112.555 84.9298 109.881C85.322 106.675 87.4907 104.76 88.1703 101.729C87.9635 99.8652 87.1805 97.2184 86.7148 95.396C84.2915 85.9257 81.1822 76.8797 79.9556 66.8082C79.7267 64.9295 79.6661 62.9752 79.3922 61.1073C78.6106 56.1745 77.5409 51.9643 76.9632 46.9346C75.9948 51.4222 74.1042 60.1793 74.0757 64.692C74.0436 69.9885 76.1403 78.8369 77.1957 83.9971C77.543 85.6918 78.1043 87.5954 78.4273 89.3735C80.0433 98.2911 80.9462 107.465 81.1173 116.703C81.2271 125.01 80.4819 133.474 78.7368 141.368C77.5965 146.529 75.8907 151.563 75.5341 157.015C75.1768 162.758 76.1017 168.42 77.1273 173.908C77.7427 177.202 78.3368 180.814 78.299 184.252C78.1499 197.667 74.2526 210.424 73.4952 223.716C73.4374 224.716 74.0757 226.541 74.3331 227.534C74.04 228.998 73.7469 229.882 74.2982 231.321C75.3451 234.057 77.8283 236.813 79.4742 238.77H78.98H60.9524H60.538C59.9276 235.821 61.1114 234.085 61.2326 231.345C61.2925 230.008 60.466 228.568 60.6179 227.27C60.8532 225.26 61.7882 223.879 61.7974 221.708C61.8096 218.957 61.4687 215.797 61.1913 213.066C60.7955 209.16 60.1115 205.112 59.4376 201.294C58.6532 196.844 57.7589 192.279 57.3595 187.703C57.1163 184.922 57.2832 182.036 57.4458 179.276C57.5699 177.163 57.9486 173.781 57.6654 171.786C57.204 168.294 55.5774 165.031 55.1823 161.526C54.5989 156.341 55.0011 150.986 54.3158 145.768C53.9692 143.133 53.587 140.736 53.0528 138.169C52.5493 135.755 52.1507 133.262 51.7599 130.802C50.9141 125.604 50.723 120.35 50.278 115.062L48.2548 115.07C47.9559 120.742 47.3961 127.94 46.459 133.401C45.6824 137.922 44.7732 141.522 44.2169 146.285C43.5537 151.973 43.9894 157.229 43.2313 162.756C42.8099 165.834 41.3572 169.293 40.9407 172.363C40.7203 173.986 41.0869 177.793 41.1889 179.581C41.3608 182.491 41.5348 185.657 41.2452 188.562C40.3488 197.569 38.0339 206.186 37.3015 215.247C37.0904 217.869 36.6226 221.143 37.1197 223.718C37.3521 224.919 38.0681 226.174 38.0653 227.524C38.0903 228.815 37.2901 230.428 37.437 231.621C37.8242 234.776 38.6779 235.321 38.1865 238.77H37.8371H19.613H19.1879C20.9465 236.102 24.4356 233.529 24.5989 229.254C24.6146 228.843 24.4057 227.745 24.3265 227.297C24.616 225.488 25.2065 224.705 25.0432 222.596C24.0912 210.315 20.9392 198.809 20.4246 186.418C19.9951 176.077 23.6968 167.171 23.0704 156.892C22.7326 151.35 20.9813 146.347 19.7589 141.186C16.01 124.368 17.1188 105.727 20.1346 88.8564C20.4705 86.977 21.0849 85.1554 21.4546 83.281C22.6379 77.2792 24.2794 71.0212 24.5034 64.7462C24.5462 60.6594 22.7467 52.1647 21.8714 47.9538L21.576 46.5409C20.9413 51.7411 20.1494 56.3728 19.2081 61.4617C18.8691 63.2941 18.712 65.8981 18.4616 67.8402C18.0323 71.0284 17.4594 74.1695 16.747 77.2414C14.8472 85.2973 12.2383 93.1023 10.442 101.202C10.2818 103.418 12.0763 105.345 12.7913 107.1C14.3141 110.838 13.5858 113.793 13.4345 117.819C13.3487 120.107 14.6696 124.714 11.5391 124.094C10.0764 123.806 10.0395 119.506 9.90381 117.958C9.78956 116.76 9.57619 115.61 9.12569 114.466L9.05915 114.3C7.99785 118.535 8.62392 120.471 10.0444 124.211C10.8059 126.217 10.8573 125.873 12.3157 126.542C12.9024 126.81 12.6993 128.039 12.9281 128.439C13.3645 129.2 14.0972 129.947 13.5232 131.073C13.0372 131.428 12.3421 131.358 11.8273 131.113C9.91308 130.2 7.72008 128.762 6.00453 127.243C4.8058 126.183 4.01691 123.663 3.19915 122.029C2.46746 120.567 1.63664 118.998 1.00622 117.463C0.987105 116.836 1.01485 116.014 1.0515 115.376C1.38804 109.201 1.77685 103.049 1.94829 96.8517C2.24118 86.2638 1.09964 75.0018 3.56186 64.846C4.04822 62.8397 4.86841 60.7785 5.11787 58.6673C5.28746 57.233 5.26449 55.3757 5.31071 53.895C5.38937 51.1027 5.50511 48.3125 5.65794 45.5274C5.90512 41.2144 6.44247 37.3665 6.94396 33.1235C7.19499 30.9995 6.99252 28.501 7.098 26.3171C7.23 23.604 7.74247 20.9636 8.60174 18.5678C11.9567 9.16801 18.8274 9.60323 24.8279 7.53214C27.8345 6.49452 36.1676 3.07606 38.2671 0.209496C38.5923 -1.75654 38.6087 -6.89418 38.6708 -9.1311C37.4413 -11.4882 37.196 -12.8471 36.5092 -15.6551C36.2354 -15.6719 35.9622 -15.7061 35.6905 -15.7573C35.3125 -15.8263 34.4618 -16.0685 34.3213 -16.6733C33.8805 -18.5658 30.6643 -30.2839 34.6087 -27.2796Z" fill="#5E5E5E"/>
<path d="M19.2238 97.1992C24.5627 98.8732 27.2798 100.1 32.306 103.608C34.1388 104.899 35.9267 106.329 37.6625 107.891C40.8388 110.711 44.2834 114.52 48.0245 114.86C47.5111 120.344 47.3863 125.328 46.5775 130.788C45.746 136.404 44.4944 141.26 43.8583 146.949C43.2757 152.16 43.6601 156.881 43.0739 161.981C42.6467 165.578 41.0564 168.89 40.667 172.46C40.5215 173.8 40.6392 176.517 40.7747 177.847C41.5834 185.787 40.6556 192.517 39.2122 200.131C38.2416 205.248 37.3195 210.945 36.9037 216.272C36.7689 218.167 36.5029 220.564 36.6356 222.462C36.7753 224.468 37.5676 225.728 37.7666 227.934C37.6083 228.561 37.2902 229.747 37.241 230.38C36.9807 233.739 38.4812 235.1 37.8372 238.77H19.6131C21.3746 236.582 24.634 233.121 24.8529 229.661C24.9064 228.822 24.7274 228.101 24.5677 227.298C24.8465 226.285 25.4227 224.348 25.3607 223.343C24.5641 210.384 20.8898 198.037 20.7307 184.951C20.6141 175.368 23.9872 166.797 23.3981 157.177C23.0462 151.042 21.324 146.598 20.0494 141.116C16.9813 127.921 17.1862 110.706 19.2238 97.1992Z" fill="white"/>
<path d="M50.6089 114.872C55.7856 113.927 58.9384 109.042 63.5846 105.557C69.5822 101.057 72.8584 99.1466 79.3331 97.3086C81.3555 112.112 81.6429 126.542 78.5236 141.051C77.317 146.412 75.7245 151.273 75.2553 156.957C74.4309 166.961 78.2041 175.795 77.9602 185.624C77.7064 195.843 75.1932 205.8 74.0108 215.813C73.7099 218.365 73.1486 220.945 73.1886 223.551C73.2121 224.994 73.7926 226.316 74.0443 227.631C73.9409 228.086 73.7127 229.012 73.7334 229.461C73.9288 233.617 77.2321 236.215 78.98 238.77H60.9524C60.1822 235.409 61.5978 233.991 61.4494 230.845C61.401 229.817 61.0651 228.721 60.8333 227.725L60.8668 227.531C61.1827 225.749 61.9223 223.964 62.0713 222.27C62.2289 220.474 61.9544 217.825 61.7896 215.994C61.4466 212.176 61.0123 208.512 60.3562 204.787C59.4476 199.626 58.3829 194.537 57.8103 189.257C57.408 185.549 57.6006 182.254 57.816 178.574C57.9272 176.675 58.2032 173.783 57.9878 172.019C57.5578 168.487 55.9903 165.34 55.5153 161.729C55.0996 158.57 55.1488 155.461 55.0532 152.255C54.9805 150.019 54.8215 147.791 54.5768 145.583C54.0883 141.151 52.9822 136.578 52.2242 132.148C51.1837 126.07 51.0532 120.952 50.6089 114.872Z" fill="white"/>
<path d="M66.5733 4.82031C68.4731 5.78639 70.2503 6.53593 72.1779 7.32655C72.3812 9.57067 72.5823 12.2019 72.8675 14.4157C73.5115 19.4167 75.4491 29.7607 77.5158 33.6C75.7158 39.276 77.2848 41.288 76.6864 46.1851C76.0025 51.7783 74.3416 57.027 73.8217 62.7007C73.1699 69.8153 76.6265 82.1143 78.0764 89.1924C78.5948 91.7251 78.8815 94.439 79.288 97.0252C73.3147 97.9516 66.0491 102.954 60.8988 107.341C58.7857 109.142 56.4166 111.86 54.1424 113.177C46.8091 117.423 42.5973 111.714 36.6403 106.531C34.3119 104.505 31.3067 102.501 28.8663 100.959C25.7712 99.095 22.5516 97.7363 19.2627 96.9061C19.623 94.409 20.0114 91.335 20.5026 88.9228C22.0127 81.508 25.3904 69.8566 24.6958 62.1573C24.3442 56.7402 22.2968 50.4474 21.7669 45.2522C21.2518 40.2018 22.7716 39.4757 20.9545 33.5958C22.9513 30.3078 24.9019 19.7191 25.4803 15.2121C25.7655 12.9949 26.0251 9.83493 26.2134 7.52775L26.1292 7.55828C28.2323 6.70247 29.9039 5.98339 31.9435 4.88529C31.9079 5.5635 31.8922 6.24386 31.8986 6.92421C31.9243 10.5631 33.1816 13.8704 34.8731 16.3846C38.6043 21.7839 44.6369 22.9536 49.6175 22.9358C55.7769 22.9137 63.5788 20.5443 66.1233 10.9919C66.6731 8.92804 66.6018 6.99012 66.5733 4.82031Z" fill="#91364A"/>
<path d="M72.5586 7.44531C80.983 10.0625 90.0899 10.0785 91.1104 26.3603C91.2374 28.3902 91.012 31.0983 91.2573 32.9855C92.0632 39.1964 92.7371 45.2639 92.8605 51.6145C92.914 57.6998 92.8926 58.6663 94.4843 64.2195C97.1158 73.4045 95.9013 85.1651 96.1624 94.9378C96.2665 98.8435 96.4448 102.806 96.6544 106.712C96.7935 110.284 97.461 114.527 97.0324 118.035C97.0973 117.675 93.262 125.937 93.3825 125.733C92.4041 127.399 88.8911 129.698 87.4413 130.51C90.1576 127.65 92.2151 126.584 93.5943 121.775C93.8767 120.791 95.2638 117.89 95.2802 117.012C94.597 117.669 92.5282 124.444 91.4727 125.791C90.8815 126.544 90.751 126.685 90.0478 127.371C89.319 128.077 88.6344 128.847 87.9162 129.568C87.3136 130.173 85.8203 131.966 85.2726 130.649C85.2227 129.353 86.5969 128.288 87.2031 127.46C88.4268 125.789 89.2876 123.611 89.9765 121.386C90.8865 118.45 90.234 115.717 89.4923 112.943C88.6515 115.637 88.091 117.589 88.1922 120.609C88.3249 124.558 84.7513 125.272 85.3731 120.685C85.8039 117.51 84.9773 114.072 85.1792 110.851C85.4395 106.709 87.81 105.288 88.5295 101.459C88.2571 99.9661 87.5375 97.422 87.1482 95.8615C85.7397 90.2233 84.0075 84.7122 82.5961 79.0755C81.6256 75.1384 80.8625 71.0922 80.3155 66.9755C80.0638 65.0205 79.9368 63.0833 79.6516 61.1226C79.1566 57.7141 78.4278 54.3933 77.873 51.0232C77.485 48.6681 77.3089 45.9365 77.127 43.525C76.9773 41.5365 76.8717 39.864 76.9844 37.8569C77.1891 34.1902 79.0539 31.7723 79.4155 28.3039L79.4355 28.1006C78.8771 29.8409 78.2887 31.5591 77.6704 33.253C74.8977 27.0421 73.0029 14.9062 72.5586 7.44531Z" fill="white"/>
<path d="M88.2664 63.3555L88.3242 63.4411L88.24 63.6408C87.4506 64.1308 86.2347 64.3034 85.3632 64.461L85.2969 64.2941C85.5272 64.1293 87.8029 63.5167 88.2664 63.3555Z" fill="#5E5E5E"/>
<path d="M25.6536 7.72266C25.7342 7.74027 25.6764 7.71909 25.797 7.88414C25.429 15.3367 23.5506 26.9844 20.8245 33.2752C20.3333 31.761 19.618 29.5999 18.9891 28.2226C19.0398 28.4651 19.0923 28.704 19.1459 28.9444C19.6748 31.6297 21.3513 34.6788 21.4794 37.5218C21.6881 42.1549 21.1012 47.7766 20.4953 52.3271C20.109 55.2285 19.3677 58.0201 18.9617 60.9044C18.5822 63.6005 18.3792 66.1888 17.9758 68.8648C16.6615 78.4243 13.717 87.1515 11.3057 96.1432C10.9023 97.6475 10.3957 99.4983 10.1396 101.109C9.81411 103.156 11.7549 105.39 12.371 107.048C14.0216 110.966 13.248 113.327 13.171 117.582C13.1725 119.279 13.3555 121.091 13.2074 122.768C13.1329 123.613 12.0348 124.096 11.5858 123.797C10.0602 122.783 10.5687 119.262 10.2724 117.312C10.0345 115.746 9.52358 114.309 8.989 112.971C8.22957 116.137 7.692 118.727 8.80657 121.93C9.50204 123.929 10.0832 125.523 11.1633 127.118C11.7708 128.016 13.4124 129.313 13.3975 130.569C12.6419 132.264 10.2851 129.196 9.4763 128.357C6.55667 125.48 6.57535 125.047 4.69777 120.447C4.38256 119.674 3.95211 118.496 3.58426 117.786L3.54048 117.953C3.76783 119.089 6.39714 125.591 7.10829 126.421C7.90245 127.349 9.93228 129.264 10.8693 130.331C9.44784 129.539 7.71211 128.302 6.36932 127.197C5.08644 126.141 4.01037 122.624 3.03022 120.931C1.88562 118.954 1.15742 117.935 1.35504 115.176C1.73557 109.863 1.96828 104.483 2.25382 99.1538C2.72428 87.7984 1.28515 75.8802 3.89548 64.9235C4.39383 62.8323 5.1815 60.8096 5.44187 58.595C5.61966 56.9068 5.62023 54.8876 5.67236 53.1694C5.75395 50.1039 5.88303 47.042 6.05946 43.9865C6.29109 40.2591 7.07463 36.3349 7.2619 32.9214C7.61098 26.5572 6.97593 22.531 9.70407 16.7837C12.2651 11.3886 16.2993 10.2232 20.4015 9.10733L25.6536 7.72266Z" fill="white"/>
<path d="M10.0181 63.4893C10.3866 63.3944 13.1291 64.0919 13.5327 64.3958C12.7504 64.5334 10.7221 64.0812 10.0181 63.4893Z" fill="#5E5E5E"/>
<path d="M39.0192 -8.68022C39.2496 -8.47909 40.6473 -6.78894 40.9847 -6.42861C43.547 -3.689 45.3056 -2.50503 48.4278 -2.3927C51.8759 -2.26867 53.7835 -2.73855 56.7353 -5.61752C57.8135 -6.66897 58.5916 -7.42193 59.545 -8.78906C59.9116 2.48247 59.1257 0.64026 66.3356 4.72595C66.315 7.6739 66.2964 9.77223 65.3101 12.434C61.8699 21.7215 53.9632 22.6458 47.7396 22.5289C44.6788 22.4433 40.3813 21.2793 37.7434 19.0554C34.8124 16.5843 33.2199 13.5464 32.3021 8.77406C33.6763 8.88062 35.3444 8.75231 36.7422 8.72278C38.4031 8.70281 40.064 8.72756 41.7242 8.79696C43.9942 8.8732 44.4606 8.68091 46.6036 10.0189C46.0166 8.33072 42.9095 8.50489 41.7855 8.43513C38.6555 8.2407 35.5305 8.48777 32.4062 8.59568C32.0924 7.94599 32.163 5.72577 32.1588 4.80926C33.9281 3.83185 37.6643 2.04084 38.689 -0.156423C38.8616 -1.96554 39.0221 -6.80178 39.0192 -8.68022Z" fill="white"/>
<path d="M57.1106 8.32929C59.8063 8.15833 62.8849 8.13265 65.5706 8.47565C65.9857 8.52864 65.0194 8.64875 65.7903 8.51388C64.7163 8.70032 60.7433 8.59433 59.4447 8.62671C57.6126 8.6608 55.4011 8.6327 53.5634 8.91464C53.4065 8.93868 52.1121 9.88742 51.8661 10.066L51.7798 10.0044C53.0791 8.04663 55.332 8.38264 57.1106 8.32929Z" fill="#5E5E5E"/>
<path d="M87.3432 126.383L87.396 126.512C87.1307 127.021 86.4732 127.781 86.1116 128.228C85.9612 127.992 86.0261 128.096 85.9604 127.714C86.1822 126.966 86.8177 126.714 87.3432 126.383Z" fill="#EDEDED"/>
<path d="M11.1523 126.465C11.946 126.702 12.5474 126.869 12.5732 128.206C12.2365 128.013 11.4611 126.883 11.1523 126.465Z" fill="#EDEDED"/>
<path d="M80.5 7L72.5 7" stroke="#75041D"/>
<path d="M76.5 107L76.5 9" stroke="#75041D" stroke-dasharray="3 3"/>
<path d="M80.5 109L72.5 109" stroke="#75041D"/>
</g>
<defs>
<clipPath id="clip0_1134_28361">
<rect width="99" height="137" fill="white"/>
</clipPath>
</defs>
</svg>
