<svg width="36" height="36" viewBox="0 0 36 36" fill="none" xmlns="http://www.w3.org/2000/svg">
<path d="M25.7045 12.1817C25.7045 11.6568 25.496 11.1534 25.125 10.7822C24.754 10.411 24.2508 10.2025 23.7261 10.2025C23.2014 10.2025 22.6982 10.411 22.3272 10.7822C21.9562 11.1534 21.7477 11.6568 21.7477 12.1817V14.1608H23.7243C24.2484 14.1584 24.7504 13.9492 25.1212 13.5786C25.492 13.208 25.7016 12.706 25.7045 12.1817ZM35.6163 14.3652C34.9304 11.0374 33.3169 7.97182 30.9625 5.52282C28.6081 3.07382 25.6089 1.34146 22.3117 0.526035C19.0144 -0.289387 15.5538 -0.154566 12.33 0.914908C9.10609 1.98438 6.25064 3.94483 4.09376 6.56958C1.93687 9.19434 0.566654 12.3762 0.14152 15.7473C-0.283615 19.1183 0.253701 22.5409 1.69134 25.6194C3.12898 28.6978 5.40823 31.3063 8.26556 33.1432C11.1229 34.9802 14.4416 35.9706 17.838 36V18.072H11.9643C11.1435 18.0998 10.3656 18.4455 9.79476 19.0362C9.22392 19.6269 8.90483 20.4163 8.90483 21.2379C8.90483 22.0595 9.22392 22.849 9.79476 23.4396C10.3656 24.0303 11.1435 24.376 11.9643 24.4038V28.315C10.0876 28.315 8.28772 27.5692 6.96067 26.2417C5.63361 24.9141 4.88808 23.1136 4.88808 21.2361C4.88808 19.3587 5.63361 17.5581 6.96067 16.2305C8.28772 14.903 10.0876 14.1572 11.9643 14.1572H17.838V12.1817C17.838 11.0167 18.1833 9.87782 18.8303 8.90916C19.4773 7.94049 20.3969 7.18551 21.4728 6.73968C22.5487 6.29385 23.7326 6.17721 24.8748 6.40449C26.017 6.63177 27.0662 7.19277 27.8896 8.01655C28.7131 8.84033 29.2739 9.8899 29.5011 11.0325C29.7283 12.1751 29.6117 13.3595 29.166 14.4358C28.7204 15.5121 27.9657 16.4321 26.9974 17.0793C26.0291 17.7266 24.8907 18.072 23.7261 18.072H21.7477V35.6201C24.0535 35.1357 26.2414 34.2016 28.1863 32.8712C30.1312 31.5408 31.7951 29.8402 33.083 27.8664C34.3708 25.8927 35.2574 23.6845 35.6921 21.3679C36.1267 19.0513 36.101 16.6718 35.6163 14.3652Z" fill="#75041D"/>
</svg>
