<svg width="24" height="24" viewBox="0 0 24 24" fill="none" xmlns="http://www.w3.org/2000/svg">
<circle cx="12" cy="12" r="12" fill="#75041D"/>
<path fill-rule="evenodd" clip-rule="evenodd" d="M9.05411 7.8915C10.2516 5.47513 13.0655 2.53784 16.3955 3.98324C18.0105 4.73506 18.3416 6.91935 17.6778 8.22906C17.1187 9.50889 16.2045 10.4421 15.2103 11.2446C15.2034 11.3123 15.196 11.3798 15.1896 11.4475C15.0955 12.431 15.0484 13.4147 15.0484 14.3983C15.0484 16.2418 15.2632 18.0853 15.6929 19.9288C15.7295 20.0858 15.7677 20.2429 15.8074 20.4C15.0484 20.4 14.2894 20.4 13.5303 20.4C13.5701 20.2429 13.6083 20.0858 13.6449 19.9288C14.0745 18.0853 14.2893 16.2418 14.2894 14.3983C14.2894 13.5938 14.2571 12.7894 14.1941 11.9849C12.8295 12.8988 11.3746 13.6298 9.87094 14.2411C9.93684 15.5223 10.0485 16.8292 10.0822 18.0974C10.0849 18.1559 10.0881 18.2146 10.0918 18.2734C10.1367 18.9786 10.2468 19.6866 10.3046 20.4C9.54554 20.4 8.78653 20.4 8.02752 20.4C8.08533 19.7118 8.17216 19.0177 8.18095 18.322C8.18168 18.264 8.18172 18.206 8.18132 18.1482C8.2107 17.071 8.15833 15.9884 8.12462 14.8945C6.85158 15.3335 5.55635 15.7079 4.26286 16.0529C3.60105 16.2241 2.91044 16.3906 2.1904 16.5525C2.16019 16.4305 2.13019 16.3085 2.09998 16.1866C2.80933 15.9989 3.48793 15.8062 4.13685 15.6097C5.47234 15.1987 6.80845 14.7509 8.10794 14.2348C8.06663 12.1788 8.16129 10.078 9.05411 7.8915ZM15.8444 5.06365C13.7321 4.15058 11.3901 6.31515 10.4165 8.55778C9.8561 10.0109 9.77797 11.7147 9.83832 13.4931C11.4477 12.7462 12.9701 11.8642 14.3275 10.7797C15.3398 9.94416 16.2426 8.97746 16.6842 7.83628C17.1411 6.73016 16.8294 5.49395 15.8444 5.06365Z" fill="white"/>
</svg>
