<svg width="93" height="137" viewBox="0 0 93 137" fill="none" xmlns="http://www.w3.org/2000/svg">
<g clip-path="url(#clip0_1160_34314)">
<path d="M39.2563 -144.3C39.8286 -145.592 40.9515 -146.978 42.3262 -147.333C46.4894 -148.406 51.6437 -148.72 53.3703 -144.055C53.41 -143.948 53.4481 -143.84 53.4844 -143.732L52.582 -141.69C59.9969 -138.374 62.7069 -133.491 62.3465 -125.423C62.3003 -124.386 61.9436 -122.826 62.042 -121.856C62.4283 -121.85 62.9998 -121.918 63.2362 -121.62C63.761 -120.959 63.8339 -119.534 63.6967 -118.745C63.0988 -115.309 62.3049 -111.517 58.9404 -109.877C57.8215 -106.752 57.167 -105.114 54.7835 -102.622C54.6626 -98.7397 54.4544 -94.4401 57.2834 -91.3167C63.0892 -84.9075 75.0407 -88.4393 79.9045 -81.3444C83.7637 -75.715 83.127 -64.6991 83.3396 -58.0153C83.5584 -51.8352 84.0362 -45.6667 84.7721 -39.5267C85.0634 -37.1743 85.5477 -33.98 86.2918 -31.7368C89.3452 -22.5325 89.1328 -12.9104 90.2924 -3.41261C91.0741 2.98964 92.2594 8.92841 92.1513 15.4338C92.1093 17.9554 93.1743 21.2643 92.9752 23.8947C92.9619 25.7503 89.8586 33.2945 88.3343 34.5607C87.7357 35.0579 83.7683 38.5598 82.7251 38.4575C82.3269 38.4197 82.4175 38.4083 82.1382 38.166C81.887 37.4995 82.0257 36.5737 82.3367 35.9773C82.808 35.0715 82.6408 34.7657 82.4815 33.7341C83.4206 32.766 83.6581 32.6682 85.0475 32.4203C86.3558 29.2833 87.5968 24.9872 86.2487 21.7159C85.4544 24.365 85.6521 30.179 83.8578 31.514C81.7914 31.9192 82.1189 28.2675 82.2317 27.0071C82.5462 23.4926 81.7362 19.9981 82.2735 16.5021C82.4584 15.2981 83.3242 13.9627 83.8332 12.8756C84.7957 11.0616 84.9227 10.2967 84.6441 8.31421C83.7789 2.15544 81.4941 -3.60536 79.4626 -9.44814C77.7835 -14.2712 76.2475 -19.1429 74.8566 -24.057C73.9288 -27.425 73.6262 -30.2282 73.3961 -33.7051C72.9742 -40.0773 71.4325 -46.2756 70.7237 -52.6349C69.8599 -47.8272 69.2547 -43.2429 68.7236 -38.404C67.8523 -30.4636 70.8028 -24.6598 73.2844 -17.4211C76.4475 -8.19476 78.3726 1.93639 78.5191 11.6964C78.5507 22.1739 75.9882 32.7193 73.736 42.886C72.6748 47.678 71.6539 52.3223 71.0301 57.2052C70.3125 62.8208 70.6925 68.6181 71.417 74.2185C72.0718 79.2831 72.9962 84.0979 72.8052 89.2704C72.4867 97.9001 71.3012 106.5 70.363 115.071C69.633 121.739 67.8714 130.179 68.9704 136.772H68.6453H58.2237H57.9016C59.2533 128.055 58.0534 123.019 56.8752 114.434C56.0922 108.796 55.3496 103.154 54.6472 97.5044C54.1016 93.1006 53.9294 88.657 54.1319 84.2228C54.2509 81.6403 54.7511 78.3819 54.5206 75.8866C54.1622 72.0109 52.3106 67.9365 51.8172 64.0344C51.2059 59.1988 52.1634 54.4352 51.7431 49.56C51.2226 43.524 50.3923 37.5374 49.6404 31.5308C48.9876 26.3157 48.2296 21.1388 48.7202 15.878L44.1704 15.843C44.9914 25.8783 41.9532 37.4976 41.2265 47.5739C40.7088 53.3295 41.6553 59.1098 40.9553 64.8542C40.4999 68.5878 38.6997 72.1226 38.4137 75.8771C38.1775 78.9764 38.6294 82.2064 38.7861 85.3134C38.9603 89.1833 38.8106 93.0589 38.3382 96.9024C37.4753 104.341 36.2482 111.761 35.3674 119.209C34.5908 125.774 33.7325 130.223 35.0256 136.772H34.6588H24.2811H23.8431C24.994 129.621 23.2996 120.83 22.3703 113.62C21.3491 105.699 20.2818 97.7487 20.0631 89.7551C19.7733 79.1752 23.2661 68.798 21.9772 58.1954C20.0195 42.0908 14.3081 26.7773 14.4231 10.3705C14.4799 2.28325 16.0286 -5.98621 18.4017 -13.6983C22.1852 -25.9948 25.3718 -28.915 23.7517 -42.4729C23.3793 -45.5901 22.9718 -48.9598 22.0367 -51.9556C21.0957 -47.8503 20.357 -42.9105 19.8982 -38.7336C19.3685 -33.9089 19.1603 -29.0849 18.0088 -24.3391C17.3154 -21.4807 16.367 -18.7154 15.4527 -15.9229C14.2867 -12.2476 13.0665 -8.5899 11.7924 -4.95076C10.2973 -0.623947 8.6242 4.01051 8.06589 8.57985C7.66598 11.853 9.66627 13.2503 10.4858 15.9401L10.5181 16.0444C11.214 18.3372 10.5499 22.6207 10.6148 25.0769C10.6516 26.4637 10.993 30.9051 9.59416 31.549C7.30052 31.3513 7.32589 23.9788 6.61768 21.8316C5.54533 24.6312 6.42539 29.2286 7.62473 31.9034C7.73355 32.1445 7.85014 32.3821 7.9741 32.6157C8.54566 32.6399 9.0561 32.599 9.54287 32.8677C10.1619 33.6106 11.2822 37.5374 10.6693 38.3534C10.0393 38.5333 9.76582 38.3269 9.2077 38.0429C8.16734 37.5147 4.59316 34.531 4.011 33.8458C3.01606 32.6742 0.402386 26.9066 0.126066 25.5044C-0.283492 23.4257 0.416202 17.9253 0.645774 15.4876C0.85888 13.224 0.681164 9.86029 0.929473 7.89958C1.61857 2.46027 2.39453 -2.94649 2.94471 -8.41306C3.44322 -13.3639 3.641 -18.3342 4.4427 -23.2432C4.9151 -26.1358 5.80897 -28.8541 6.53119 -31.6774C7.25113 -34.5227 7.79733 -37.4088 8.16695 -40.3204C8.82709 -45.5429 9.08638 -50.5852 9.40926 -55.9914C9.93843 -64.2444 8.76861 -73.7986 12.748 -81.3378C14.2723 -84.2255 18.682 -85.5139 21.6852 -86.0877C32.5343 -88.1607 38.9989 -89.2763 38.1438 -102.474C35.6257 -105.224 35.1049 -106.624 33.7501 -110.027C31.2625 -111.282 30.887 -113.104 29.9191 -115.684C29.4939 -116.817 28.3769 -120.844 30.0416 -121.797C30.0936 -121.827 30.5884 -121.91 30.6889 -121.927C30.8329 -122.878 30.4682 -124.72 30.4578 -125.795C30.4071 -130.992 31.3199 -136.025 35.7837 -139.341C36.9418 -140.202 38.7061 -141.118 40.0637 -141.609C39.7063 -142.616 39.4826 -143.241 39.2563 -144.3ZM84.3905 36.4203C83.8088 36.6532 83.2425 36.4544 82.6526 36.3011C82.2886 36.9637 82.099 37.6794 82.7413 38.2417C83.6553 37.9975 83.9469 37.0262 84.4757 36.7214L84.3905 36.4203ZM84.8279 36.852C85.4161 36.5017 86.8842 35.309 87.4793 34.846C87.4509 34.5978 87.4531 34.5995 87.3583 34.3691L86.8346 34.4734C86.3836 35.7103 84.9731 35.8277 84.8279 36.852Z" fill="#5E5E5E"/>
<path d="M16.2874 -3.61719C25.779 -1.75776 32.4468 3.85877 39.0771 10.6641C40.525 12.1502 42.7168 14.4172 43.8808 16.0358C44.0963 27.4027 41.9333 37.7649 40.8376 48.996C40.3516 53.9793 41.3916 59.237 40.7103 64.2373C40.2296 68.0655 38.4581 71.7291 38.1019 75.6256C37.7872 79.0695 38.3385 82.3998 38.4798 85.8173C38.6193 89.1855 38.4189 92.8396 38.0714 96.1964C37.4637 101.634 36.765 107.062 35.975 112.477C34.8417 120.384 33.0765 128.875 34.6589 136.77H24.2812C24.7002 131.208 24.4184 127.499 23.7558 121.944C22.3388 110.067 20.3806 98.0936 20.3982 86.1202C20.4167 82.8751 21.1486 79.4501 21.5082 76.2276C22.3846 70.4189 22.9551 64.5194 22.4026 58.6501C20.4195 42.0381 14.1607 25.9629 14.765 9.05101C14.917 4.78972 15.5399 0.580109 16.2874 -3.61719Z" fill="white"/>
<path d="M37.165 65.3086C37.3265 66.3613 36.2064 68.8661 35.7573 69.9188C35.6231 69.4493 36.9135 66.0205 37.165 65.3086Z" fill="#515053"/>
<path d="M26.5542 64.1484C27.0805 64.8925 27.4352 67.386 27.565 68.363C26.9672 67.4106 26.6785 65.2655 26.5542 64.1484Z" fill="#515053"/>
<path d="M49.0283 16.0242C56.6844 7.64945 64.6119 -1.61 76.509 -3.66406C79.7771 12.7654 77.4106 25.9972 73.583 41.9651C71.1416 52.1511 69.3275 62.2387 70.8677 72.6728C71.6923 78.2562 72.6481 84.01 72.4937 89.6635C72.0709 98.3083 70.9563 107.031 69.9727 115.627C69.1733 122.615 67.7096 129.728 68.6453 136.773H58.2237C59.7101 128.842 58.173 121.149 57.077 113.249C56.3031 107.703 55.5854 102.152 54.9243 96.5911C54.4669 92.6795 54.306 88.7376 54.4428 84.8014C54.566 81.8819 55.0685 78.3414 54.7958 75.4787C54.4402 71.7489 52.6704 67.9244 52.1935 64.1548C51.5935 59.4139 52.4919 54.4705 52.0886 49.7372C51.5996 43.9966 50.8675 38.1444 50.1118 32.4317C49.3222 26.4613 48.681 22.0551 49.0283 16.0242Z" fill="white"/>
<path d="M66.2842 64.0586L66.3574 64.1438C66.4816 65.0905 65.9172 67.0709 65.6745 68.0497L65.5911 67.9456C65.5197 67.0008 66.0442 65.0507 66.2842 64.0586Z" fill="#5E5E5E"/>
<path d="M29.157 -87.2689L29.4907 -87.3083C29.7696 -86.9753 29.7066 -86.1606 29.7486 -85.6812C29.8433 -84.5952 30.0478 -83.5217 30.3594 -82.4771C30.8492 -80.7769 31.6569 -79.1852 32.7399 -77.7864C38.0954 -70.9313 51.1221 -70.3199 57.8955 -75.4792C61.8077 -78.4591 62.7998 -82.7937 63.3613 -87.4102C65.3098 -86.7623 67.4751 -86.3393 69.5085 -86.0792C69.3622 -81.1113 69.383 -75.5845 70.0564 -70.6903C70.5331 -67.2244 71.6825 -63.8649 71.7234 -60.2744C71.758 -57.2074 70.8117 -54.7733 70.2761 -51.8518C69.4899 -47.855 69.0721 -43.4899 68.4999 -39.5132C67.2202 -30.6148 70.6512 -23.8486 73.5507 -15.7106C74.7817 -12.256 75.625 -7.74957 76.5172 -4.00912C71.6676 -3.25804 68.5103 -1.66993 64.424 0.950424C60.6829 3.54162 57.2197 6.5128 54.0895 9.81645C52.3614 11.6677 50.8045 13.675 48.9886 15.4389C47.2869 15.5218 45.7994 15.5102 44.1028 15.4845C42.0284 13.4281 40.0093 10.9746 37.8804 8.88702C31.2606 2.39597 25.4329 -2.11411 16.3252 -4.02428C17.1789 -7.95064 17.9646 -11.7539 19.2911 -15.5919C21.1017 -20.8301 23.5689 -25.9911 24.3231 -31.5427C25.1971 -37.9773 23.7589 -45.1596 22.6894 -51.5738C22.0622 -54.3454 21.1805 -57.0866 21.15 -59.9561C21.139 -60.9978 21.1797 -62.2396 21.3796 -63.2724C21.8482 -65.6934 22.422 -68.0296 22.7453 -70.4858C23.4243 -75.6428 23.3566 -80.762 23.3125 -85.9504C25.2815 -86.4008 27.1732 -86.7901 29.157 -87.2689Z" fill="#91364A"/>
<path d="M22.3957 -85.8472L22.75 -85.8633L22.8848 -85.6796C23.1583 -78.22 22.9052 -71.3872 21.0419 -64.1159C20.8989 -64.7236 20.797 -65.1129 20.593 -65.7038C20.6343 -65.1493 20.8232 -63.3561 20.8033 -62.861C20.7397 -61.2852 20.7282 -60.4457 20.8621 -58.8665C21.034 -56.8389 21.7356 -54.5476 21.7309 -52.6032C21.7291 -51.8477 21.2687 -49.5246 21.1152 -48.6513C20.7172 -46.3956 20.343 -44.1357 19.9929 -41.8718C19.3127 -37.3733 19.1253 -33.0138 18.5312 -28.5736C17.9254 -24.0448 16.0249 -19.0297 14.7173 -14.6319C12.4494 -7.00319 9.00787 0.342316 7.79282 8.26775C7.19817 12.0129 9.848 13.8795 10.4054 17.2112C10.672 19.4302 10.3796 21.7717 10.299 24.0039C10.2417 25.5891 10.7386 30.2571 9.62732 31.1835C6.8416 31.03 8.75729 21.4996 6.3217 21.7762C4.63029 23.1926 6.57399 29.9086 7.23602 31.8C8.1791 34.1693 10.0825 35.0207 10.6291 37.382C10.704 37.7058 10.5632 37.808 10.3861 38.022C9.1008 38.0864 8.80101 36.5244 7.74986 35.945L8.2092 36.7383C8.01918 36.7042 7.9959 36.7061 7.82992 36.6001C4.09412 34.191 3.39991 32.6107 1.77966 28.6385C1.46341 27.8628 0.484558 25.8037 0.400148 25.0284C-0.109339 22.0513 1.04742 18.5524 1.00408 15.7064C0.887872 8.08485 2.32322 0.881912 3.15634 -6.65539C3.69176 -11.4998 3.70292 -16.5887 4.56651 -21.396C5.7492 -27.9785 7.83522 -34.26 8.58204 -40.9508C9.23726 -46.8367 9.65987 -52.7465 9.84875 -58.6658C10.0232 -63.6524 9.92237 -68.6381 10.6629 -73.5864C11.9312 -82.06 14.348 -84.203 22.3957 -85.8472Z" fill="white"/>
<path d="M69.9025 -85.9883C73.9259 -85.2338 78.5662 -84.0281 80.3801 -79.9596C83.2652 -73.4882 82.7659 -65.4265 82.9998 -58.4415C83.2116 -51.9495 83.7008 -45.4694 84.4662 -39.0192C85.1167 -33.5915 87.12 -28.8601 87.8833 -23.636C89.4498 -12.9164 89.7405 -1.96662 91.6123 8.76376C91.9353 10.616 91.5437 13.2513 91.783 15.2431C91.885 17.7724 92.9043 21.7604 92.59 24.1945C92.2423 26.8847 89.4464 33.0511 87.4794 34.8474C87.451 34.5992 87.4533 34.6009 87.3585 34.3705L86.8348 34.4748C86.3838 35.7117 84.9732 35.8291 84.8281 36.8534C84.691 36.8667 84.6431 36.8042 84.4758 36.7227L84.3907 36.4217C83.8089 36.6546 83.2426 36.4558 82.6527 36.3024C82.9207 35.6152 83.9561 34.3658 84.5063 33.8305C86.3643 32.0235 88.4126 23.826 86.5094 21.6234L86.2439 21.6616C85.0993 22.9366 85.1825 26.2887 84.8795 28.0014C84.7041 28.9937 84.5771 29.5685 84.283 30.5568C83.9325 30.9421 83.6872 31.2632 83.1751 31.0496C82.8272 30.4905 82.6635 29.6616 82.6145 29.0281C82.4901 27.4154 82.6379 25.5919 82.6219 23.9713C82.6067 22.4363 82.1864 18.3695 82.5528 16.952C83.455 13.4601 85.6025 12.1484 84.9986 8.03009C84.3112 3.34357 82.7778 -1.05347 81.2266 -5.50429C80.0525 -8.86796 78.9025 -12.2403 77.7774 -15.6209C76.349 -19.9645 74.7057 -25.3002 74.0454 -29.8088C73.6125 -32.7637 73.7231 -35.9886 73.2172 -39.0929C72.4762 -43.6382 71.4989 -48.3595 71.1398 -52.9363C71.0106 -54.5836 71.9459 -57.1086 72.0536 -58.9205C72.2063 -61.4895 71.8552 -62.9243 72.3767 -65.5671L72.4064 -65.7137L72.3568 -65.7114C72.1516 -65.1745 72.0084 -64.5345 71.8634 -63.9718C69.7823 -70.0615 69.8551 -79.5803 69.9025 -85.9883Z" fill="white"/>
<path d="M84.3906 36.4233C88.6658 33.6644 89.5171 29.0991 90.9875 24.9141C91.4822 26.2464 88.3234 33.4809 86.8347 34.4764C86.3837 35.7134 84.9732 35.8307 84.828 36.855C84.691 36.8683 84.6431 36.8058 84.4758 36.7244L84.3906 36.4233Z" fill="#515053"/>
<path d="M84.2431 32.7812L84.4206 32.8735L84.4732 33.1645C84.2107 33.7669 83.6524 34.2997 83.1974 34.7918L83.014 34.7441C82.6132 33.9002 83.6123 33.1862 84.2431 32.7812Z" fill="white"/>
<path d="M8.14648 32.7734C9.54076 32.9385 9.92344 33.5525 10.0362 34.8542C9.27504 34.3901 8.65086 33.4863 8.14648 32.7734Z" fill="white"/>
<path d="M86.8346 34.4754L87.3583 34.3711C87.4531 34.6015 87.4508 34.5998 87.4792 34.848C86.8842 35.3109 85.4161 36.5037 84.8279 36.854C84.973 35.8297 86.3836 35.7123 86.8346 34.4754Z" fill="white" fill-opacity="0.956863"/>
<path d="M50.5 124L50.5 132" stroke="#75041D"/>
<path d="M52.5 125.554C62 132.159 64.5 132.003 74.5 125.554" stroke="#75041D" stroke-dasharray="3 3"/>
<path d="M76.5 124L76.5 132" stroke="#75041D"/>
</g>
<defs>
<clipPath id="clip0_1160_34314">
<rect width="93" height="137" fill="white"/>
</clipPath>
</defs>
</svg>
