<svg width="93" height="137" viewBox="0 0 93 137" fill="none" xmlns="http://www.w3.org/2000/svg">
<g clip-path="url(#clip0_1160_34049)">
<path d="M39.2563 -138.3C39.8286 -139.592 40.9515 -140.978 42.3262 -141.333C46.4894 -142.406 51.6437 -142.72 53.3703 -138.055C53.41 -137.948 53.4481 -137.84 53.4844 -137.732L52.582 -135.69C59.9969 -132.374 62.7069 -127.491 62.3465 -119.423C62.3003 -118.386 61.9436 -116.826 62.042 -115.856C62.4283 -115.85 62.9998 -115.918 63.2362 -115.62C63.761 -114.959 63.8339 -113.534 63.6967 -112.745C63.0988 -109.309 62.3049 -105.517 58.9404 -103.877C57.8215 -100.752 57.167 -99.1143 54.7835 -96.6219C54.6626 -92.7397 54.4544 -88.4401 57.2834 -85.3167C63.0892 -78.9075 75.0407 -82.4393 79.9045 -75.3444C83.7637 -69.715 83.127 -58.6991 83.3396 -52.0153C83.5584 -45.8352 84.0362 -39.6667 84.7721 -33.5267C85.0634 -31.1743 85.5477 -27.98 86.2918 -25.7368C89.3452 -16.5325 89.1328 -6.91045 90.2924 2.58739C91.0741 8.98964 92.2594 14.9284 92.1513 21.4338C92.1093 23.9554 93.1743 27.2643 92.9752 29.8947C92.9619 31.7503 89.8586 39.2945 88.3343 40.5607C87.7357 41.0579 83.7683 44.5598 82.7251 44.4575C82.3269 44.4197 82.4175 44.4083 82.1382 44.166C81.887 43.4995 82.0257 42.5737 82.3367 41.9773C82.808 41.0715 82.6408 40.7657 82.4815 39.7341C83.4206 38.766 83.6581 38.6682 85.0475 38.4203C86.3558 35.2833 87.5968 30.9872 86.2487 27.7159C85.4544 30.365 85.6521 36.179 83.8578 37.514C81.7914 37.9192 82.1189 34.2675 82.2317 33.0071C82.5462 29.4926 81.7362 25.9981 82.2735 22.5021C82.4584 21.2981 83.3242 19.9627 83.8332 18.8756C84.7957 17.0616 84.9227 16.2967 84.6441 14.3142C83.7789 8.15544 81.4941 2.39464 79.4626 -3.44814C77.7835 -8.27118 76.2475 -13.1429 74.8566 -18.057C73.9288 -21.425 73.6262 -24.2282 73.3961 -27.7051C72.9742 -34.0773 71.4325 -40.2756 70.7237 -46.6349C69.8599 -41.8272 69.2547 -37.2429 68.7236 -32.404C67.8523 -24.4636 70.8028 -18.6598 73.2844 -11.4211C76.4475 -2.19476 78.3726 7.93639 78.5191 17.6964C78.5507 28.1739 75.9882 38.7193 73.736 48.886C72.6748 53.678 71.6539 58.3223 71.0301 63.2052C70.3125 68.8208 70.6925 74.6181 71.417 80.2185C72.0718 85.2831 72.9962 90.0979 72.8052 95.2704C72.4867 103.9 71.3012 112.5 70.363 121.071C69.633 127.739 67.8714 136.179 68.9704 142.772H68.6453H58.2237H57.9016C59.2533 134.055 58.0534 129.019 56.8752 120.434C56.0922 114.796 55.3496 109.154 54.6472 103.504C54.1016 99.1006 53.9294 94.657 54.1319 90.2228C54.2509 87.6403 54.7511 84.3819 54.5206 81.8866C54.1622 78.0109 52.3106 73.9365 51.8172 70.0344C51.2059 65.1988 52.1634 60.4352 51.7431 55.56C51.2226 49.524 50.3923 43.5374 49.6404 37.5308C48.9876 32.3157 48.2296 27.1388 48.7202 21.878L44.1704 21.843C44.9914 31.8783 41.9532 43.4976 41.2265 53.5739C40.7088 59.3295 41.6553 65.1098 40.9553 70.8542C40.4999 74.5878 38.6997 78.1226 38.4137 81.8771C38.1775 84.9764 38.6294 88.2064 38.7861 91.3134C38.9603 95.1833 38.8106 99.0589 38.3382 102.902C37.4753 110.341 36.2482 117.761 35.3674 125.209C34.5908 131.774 33.7325 136.223 35.0256 142.772H34.6588H24.2811H23.8431C24.994 135.621 23.2996 126.83 22.3703 119.62C21.3491 111.699 20.2818 103.749 20.0631 95.7551C19.7733 85.1752 23.2661 74.798 21.9772 64.1954C20.0195 48.0908 14.3081 32.7773 14.4231 16.3705C14.4799 8.28325 16.0286 0.0137939 18.4017 -7.69826C22.1852 -19.9948 25.3718 -22.915 23.7517 -36.4729C23.3793 -39.5901 22.9718 -42.9598 22.0367 -45.9556C21.0957 -41.8503 20.357 -36.9105 19.8982 -32.7336C19.3685 -27.9089 19.1603 -23.0849 18.0088 -18.3391C17.3154 -15.4807 16.367 -12.7154 15.4527 -9.9229C14.2867 -6.24759 13.0665 -2.5899 11.7924 1.04924C10.2973 5.37605 8.6242 10.0105 8.06589 14.5798C7.66598 17.853 9.66627 19.2503 10.4858 21.9401L10.5181 22.0444C11.214 24.3372 10.5499 28.6207 10.6148 31.0769C10.6516 32.4637 10.993 36.9051 9.59416 37.549C7.30052 37.3513 7.32589 29.9788 6.61768 27.8316C5.54533 30.6312 6.42539 35.2286 7.62473 37.9034C7.73355 38.1445 7.85014 38.3821 7.9741 38.6157C8.54566 38.6399 9.0561 38.599 9.54287 38.8677C10.1619 39.6106 11.2822 43.5374 10.6693 44.3534C10.0393 44.5333 9.76582 44.3269 9.2077 44.0429C8.16734 43.5147 4.59316 40.531 4.011 39.8458C3.01606 38.6742 0.402386 32.9066 0.126066 31.5044C-0.283492 29.4257 0.416202 23.9253 0.645774 21.4876C0.85888 19.224 0.681164 15.8603 0.929473 13.8996C1.61857 8.46027 2.39453 3.05351 2.94471 -2.41306C3.44322 -7.36389 3.641 -12.3342 4.4427 -17.2432C4.9151 -20.1358 5.80897 -22.8541 6.53119 -25.6774C7.25113 -28.5227 7.79733 -31.4088 8.16695 -34.3204C8.82709 -39.5429 9.08638 -44.5852 9.40926 -49.9914C9.93843 -58.2444 8.76861 -67.7986 12.748 -75.3378C14.2723 -78.2255 18.682 -79.5139 21.6852 -80.0877C32.5343 -82.1607 38.9989 -83.2763 38.1438 -96.4737C35.6257 -99.2245 35.1049 -100.624 33.7501 -104.027C31.2625 -105.282 30.887 -107.104 29.9191 -109.684C29.4939 -110.817 28.3769 -114.844 30.0416 -115.797C30.0936 -115.827 30.5884 -115.91 30.6889 -115.927C30.8329 -116.878 30.4682 -118.72 30.4578 -119.795C30.4071 -124.992 31.3199 -130.025 35.7837 -133.341C36.9418 -134.202 38.7061 -135.118 40.0637 -135.609C39.7063 -136.616 39.4826 -137.241 39.2563 -138.3ZM84.3905 42.4203C83.8088 42.6532 83.2425 42.4544 82.6526 42.3011C82.2886 42.9637 82.099 43.6794 82.7413 44.2417C83.6553 43.9975 83.9469 43.0262 84.4757 42.7214L84.3905 42.4203ZM84.8279 42.852C85.4161 42.5017 86.8842 41.309 87.4793 40.846C87.4509 40.5978 87.4531 40.5995 87.3583 40.3691L86.8346 40.4734C86.3836 41.7103 84.9731 41.8277 84.8279 42.852Z" fill="#5E5E5E"/>
<path d="M16.2874 2.38281C25.779 4.24224 32.4468 9.85877 39.0771 16.6641C40.525 18.1502 42.7168 20.4172 43.8808 22.0358C44.0963 33.4027 41.9333 43.7649 40.8376 54.996C40.3516 59.9793 41.3916 65.237 40.7103 70.2373C40.2296 74.0655 38.4581 77.7291 38.1019 81.6256C37.7872 85.0695 38.3385 88.3998 38.4798 91.8173C38.6193 95.1855 38.4189 98.8396 38.0714 102.196C37.4637 107.634 36.765 113.062 35.975 118.477C34.8417 126.384 33.0765 134.875 34.6589 142.77H24.2812C24.7002 137.208 24.4184 133.499 23.7558 127.944C22.3388 116.067 20.3806 104.094 20.3982 92.1202C20.4167 88.8751 21.1486 85.4501 21.5082 82.2276C22.3846 76.4189 22.9551 70.5194 22.4026 64.6501C20.4195 48.0381 14.1607 31.9629 14.765 15.051C14.917 10.7897 15.5399 6.58011 16.2874 2.38281Z" fill="white"/>
<path d="M37.165 71.3086C37.3265 72.3613 36.2064 74.8661 35.7573 75.9188C35.6231 75.4493 36.9135 72.0205 37.165 71.3086Z" fill="#515053"/>
<path d="M26.5542 70.1484C27.0805 70.8925 27.4352 73.386 27.565 74.363C26.9672 73.4106 26.6785 71.2655 26.5542 70.1484Z" fill="#515053"/>
<path d="M49.0283 22.0242C56.6844 13.6495 64.6119 4.39 76.509 2.33594C79.7771 18.7654 77.4106 31.9972 73.583 47.9651C71.1416 58.1511 69.3275 68.2387 70.8677 78.6728C71.6923 84.2562 72.6481 90.01 72.4937 95.6635C72.0709 104.308 70.9563 113.031 69.9727 121.627C69.1733 128.615 67.7096 135.728 68.6453 142.773H58.2237C59.7101 134.842 58.173 127.149 57.077 119.249C56.3031 113.703 55.5854 108.152 54.9243 102.591C54.4669 98.6795 54.306 94.7376 54.4428 90.8014C54.566 87.8819 55.0685 84.3414 54.7958 81.4787C54.4402 77.7489 52.6704 73.9244 52.1935 70.1548C51.5935 65.4139 52.4919 60.4705 52.0886 55.7372C51.5996 49.9966 50.8675 44.1444 50.1118 38.4317C49.3222 32.4613 48.681 28.0551 49.0283 22.0242Z" fill="white"/>
<path d="M66.2842 70.0586L66.3574 70.1438C66.4816 71.0905 65.9172 73.0709 65.6745 74.0497L65.5911 73.9456C65.5197 73.0008 66.0442 71.0507 66.2842 70.0586Z" fill="#5E5E5E"/>
<path d="M29.157 -81.2689L29.4907 -81.3083C29.7696 -80.9753 29.7066 -80.1606 29.7486 -79.6812C29.8433 -78.5952 30.0478 -77.5217 30.3594 -76.4771C30.8492 -74.7769 31.6569 -73.1852 32.7399 -71.7864C38.0954 -64.9313 51.1221 -64.3199 57.8955 -69.4792C61.8077 -72.4591 62.7998 -76.7937 63.3613 -81.4102C65.3098 -80.7623 67.4751 -80.3393 69.5085 -80.0792C69.3622 -75.1113 69.383 -69.5845 70.0564 -64.6903C70.5331 -61.2244 71.6825 -57.8649 71.7234 -54.2744C71.758 -51.2074 70.8117 -48.7733 70.2761 -45.8518C69.4899 -41.855 69.0721 -37.4899 68.4999 -33.5132C67.2202 -24.6148 70.6512 -17.8486 73.5507 -9.71059C74.7817 -6.25604 75.625 -1.74957 76.5172 1.99088C71.6676 2.74196 68.5103 4.33007 64.424 6.95042C60.6829 9.54162 57.2197 12.5128 54.0895 15.8165C52.3614 17.6677 50.8045 19.675 48.9886 21.4389C47.2869 21.5218 45.7994 21.5102 44.1028 21.4845C42.0284 19.4281 40.0093 16.9746 37.8804 14.887C31.2606 8.39597 25.4329 3.88589 16.3252 1.97572C17.1789 -1.95064 17.9646 -5.75393 19.2911 -9.59187C21.1017 -14.8301 23.5689 -19.9911 24.3231 -25.5427C25.1971 -31.9773 23.7589 -39.1596 22.6894 -45.5738C22.0622 -48.3454 21.1805 -51.0866 21.15 -53.9561C21.139 -54.9978 21.1797 -56.2396 21.3796 -57.2724C21.8482 -59.6934 22.422 -62.0296 22.7453 -64.4858C23.4243 -69.6428 23.3566 -74.762 23.3125 -79.9504C25.2815 -80.4008 27.1732 -80.7901 29.157 -81.2689Z" fill="#91364A"/>
<path d="M22.3957 -79.8472L22.75 -79.8633L22.8848 -79.6796C23.1583 -72.22 22.9052 -65.3872 21.0419 -58.1159C20.8989 -58.7236 20.797 -59.1129 20.593 -59.7038C20.6343 -59.1493 20.8232 -57.3561 20.8033 -56.861C20.7397 -55.2852 20.7282 -54.4457 20.8621 -52.8665C21.034 -50.8389 21.7356 -48.5476 21.7309 -46.6032C21.7291 -45.8477 21.2687 -43.5246 21.1152 -42.6513C20.7172 -40.3956 20.343 -38.1357 19.9929 -35.8718C19.3127 -31.3733 19.1253 -27.0138 18.5312 -22.5736C17.9254 -18.0448 16.0249 -13.0297 14.7173 -8.63194C12.4494 -1.00319 9.00787 6.34232 7.79282 14.2677C7.19817 18.0129 9.848 19.8795 10.4054 23.2112C10.672 25.4302 10.3796 27.7717 10.299 30.0039C10.2417 31.5891 10.7386 36.2571 9.62732 37.1835C6.8416 37.03 8.75729 27.4996 6.3217 27.7762C4.63029 29.1926 6.57399 35.9086 7.23602 37.8C8.1791 40.1693 10.0825 41.0207 10.6291 43.382C10.704 43.7058 10.5632 43.808 10.3861 44.022C9.1008 44.0864 8.80101 42.5244 7.74986 41.945L8.2092 42.7383C8.01918 42.7042 7.9959 42.7061 7.82992 42.6001C4.09412 40.191 3.39991 38.6107 1.77966 34.6385C1.46341 33.8628 0.484558 31.8037 0.400148 31.0284C-0.109339 28.0513 1.04742 24.5524 1.00408 21.7064C0.887872 14.0849 2.32322 6.88191 3.15634 -0.655388C3.69176 -5.49982 3.70292 -10.5887 4.56651 -15.396C5.7492 -21.9785 7.83522 -28.26 8.58204 -34.9508C9.23726 -40.8367 9.65987 -46.7465 9.84875 -52.6658C10.0232 -57.6524 9.92237 -62.6381 10.6629 -67.5864C11.9312 -76.06 14.348 -78.203 22.3957 -79.8472Z" fill="white"/>
<path d="M69.9025 -79.9883C73.9259 -79.2338 78.5662 -78.0281 80.3801 -73.9596C83.2652 -67.4882 82.7659 -59.4265 82.9998 -52.4415C83.2116 -45.9495 83.7008 -39.4694 84.4662 -33.0192C85.1167 -27.5915 87.12 -22.8601 87.8833 -17.636C89.4498 -6.91644 89.7405 4.03338 91.6123 14.7638C91.9353 16.616 91.5437 19.2513 91.783 21.2431C91.885 23.7724 92.9043 27.7604 92.59 30.1945C92.2423 32.8847 89.4464 39.0511 87.4794 40.8474C87.451 40.5992 87.4533 40.6009 87.3585 40.3705L86.8348 40.4748C86.3838 41.7117 84.9732 41.8291 84.8281 42.8534C84.691 42.8667 84.6431 42.8042 84.4758 42.7227L84.3907 42.4217C83.8089 42.6546 83.2426 42.4558 82.6527 42.3024C82.9207 41.6152 83.9561 40.3658 84.5063 39.8305C86.3643 38.0235 88.4126 29.826 86.5094 27.6234L86.2439 27.6616C85.0993 28.9366 85.1825 32.2887 84.8795 34.0014C84.7041 34.9937 84.5771 35.5685 84.283 36.5568C83.9325 36.9421 83.6872 37.2632 83.1751 37.0496C82.8272 36.4905 82.6635 35.6616 82.6145 35.0281C82.4901 33.4154 82.6379 31.5919 82.6219 29.9713C82.6067 28.4363 82.1864 24.3695 82.5528 22.952C83.455 19.4601 85.6025 18.1484 84.9986 14.0301C84.3112 9.34357 82.7778 4.94653 81.2266 0.495712C80.0525 -2.86796 78.9025 -6.24034 77.7774 -9.62086C76.349 -13.9645 74.7057 -19.3002 74.0454 -23.8088C73.6125 -26.7637 73.7231 -29.9886 73.2172 -33.0929C72.4762 -37.6382 71.4989 -42.3595 71.1398 -46.9363C71.0106 -48.5836 71.9459 -51.1086 72.0536 -52.9205C72.2063 -55.4895 71.8552 -56.9243 72.3767 -59.5671L72.4064 -59.7137L72.3568 -59.7114C72.1516 -59.1745 72.0084 -58.5345 71.8634 -57.9718C69.7823 -64.0615 69.8551 -73.5803 69.9025 -79.9883Z" fill="white"/>
<path d="M84.3906 42.4233C88.6658 39.6644 89.5171 35.0991 90.9875 30.9141C91.4822 32.2464 88.3234 39.4809 86.8347 40.4764C86.3837 41.7134 84.9732 41.8307 84.828 42.855C84.691 42.8683 84.6431 42.8058 84.4758 42.7244L84.3906 42.4233Z" fill="#515053"/>
<path d="M84.2431 38.7812L84.4206 38.8735L84.4732 39.1645C84.2107 39.7669 83.6524 40.2997 83.1974 40.7918L83.014 40.7441C82.6132 39.9002 83.6123 39.1862 84.2431 38.7812Z" fill="white"/>
<path d="M8.14648 38.7734C9.54076 38.9385 9.92344 39.5525 10.0362 40.8542C9.27504 40.3901 8.65086 39.4863 8.14648 38.7734Z" fill="white"/>
<path d="M86.8346 40.4754L87.3583 40.3711C87.4531 40.6015 87.4508 40.5998 87.4792 40.848C86.8842 41.3109 85.4161 42.5037 84.8279 42.854C84.973 41.8297 86.3836 41.7123 86.8346 40.4754Z" fill="white" fill-opacity="0.956863"/>
<path d="M50 91L50 99" stroke="#75041D"/>
<path d="M52 92.5536C61.5 99.1589 64 99.0028 74 92.5536" stroke="#75041D" stroke-dasharray="3 3"/>
<path d="M76 91L76 99" stroke="#75041D"/>
</g>
<defs>
<clipPath id="clip0_1160_34049">
<rect width="93" height="137" fill="white"/>
</clipPath>
</defs>
</svg>
