<svg width="93" height="137" viewBox="0 0 93 137" fill="none" xmlns="http://www.w3.org/2000/svg">
<g clip-path="url(#clip0_1160_32989)">
<path d="M39.2563 -100.3C39.8286 -101.592 40.9515 -102.978 42.3262 -103.333C46.4894 -104.406 51.6437 -104.72 53.3703 -100.055C53.41 -99.9482 53.4481 -99.8405 53.4844 -99.7322L52.582 -97.6897C59.9969 -94.3741 62.7069 -89.4911 62.3465 -81.4231C62.3003 -80.3858 61.9436 -78.8261 62.042 -77.8557C62.4283 -77.8501 62.9998 -77.918 63.2362 -77.6202C63.761 -76.9591 63.8339 -75.5342 63.6967 -74.745C63.0988 -71.3088 62.3049 -67.5173 58.9404 -65.8769C57.8215 -62.7516 57.167 -61.1143 54.7835 -58.6219C54.6626 -54.7397 54.4544 -50.4401 57.2834 -47.3167C63.0892 -40.9075 75.0407 -44.4393 79.9045 -37.3444C83.7637 -31.715 83.127 -20.6991 83.3396 -14.0153C83.5584 -7.83517 84.0362 -1.66674 84.7721 4.47329C85.0634 6.82574 85.5477 10.02 86.2918 12.2632C89.3452 21.4675 89.1328 31.0896 90.2924 40.5874C91.0741 46.9896 92.2594 52.9284 92.1513 59.4338C92.1093 61.9554 93.1743 65.2643 92.9752 67.8947C92.9619 69.7503 89.8586 77.2945 88.3343 78.5607C87.7357 79.0579 83.7683 82.5598 82.7251 82.4575C82.3269 82.4197 82.4175 82.4083 82.1382 82.166C81.887 81.4995 82.0257 80.5737 82.3367 79.9773C82.808 79.0715 82.6408 78.7657 82.4815 77.7341C83.4206 76.766 83.6581 76.6682 85.0475 76.4203C86.3558 73.2833 87.5968 68.9872 86.2487 65.7159C85.4544 68.365 85.6521 74.179 83.8578 75.514C81.7914 75.9192 82.1189 72.2675 82.2317 71.0071C82.5462 67.4926 81.7362 63.9981 82.2735 60.5021C82.4584 59.2981 83.3242 57.9627 83.8332 56.8756C84.7957 55.0616 84.9227 54.2967 84.6441 52.3142C83.7789 46.1554 81.4941 40.3946 79.4626 34.5519C77.7835 29.7288 76.2475 24.8571 74.8566 19.943C73.9288 16.575 73.6262 13.7718 73.3961 10.2949C72.9742 3.92271 71.4325 -2.27563 70.7237 -8.6349C69.8599 -3.8272 69.2547 0.757088 68.7236 5.59603C67.8523 13.5364 70.8028 19.3402 73.2844 26.5789C76.4475 35.8052 78.3726 45.9364 78.5191 55.6964C78.5507 66.1739 75.9882 76.7193 73.736 86.886C72.6748 91.678 71.6539 96.3223 71.0301 101.205C70.3125 106.821 70.6925 112.618 71.417 118.219C72.0718 123.283 72.9962 128.098 72.8052 133.27C72.4867 141.9 71.3012 150.5 70.363 159.071C69.633 165.739 67.8714 174.179 68.9704 180.772H68.6453H58.2237H57.9016C59.2533 172.055 58.0534 167.019 56.8752 158.434C56.0922 152.796 55.3496 147.154 54.6472 141.504C54.1016 137.101 53.9294 132.657 54.1319 128.223C54.2509 125.64 54.7511 122.382 54.5206 119.887C54.1622 116.011 52.3106 111.936 51.8172 108.034C51.2059 103.199 52.1634 98.4352 51.7431 93.56C51.2226 87.524 50.3923 81.5374 49.6404 75.5308C48.9876 70.3157 48.2296 65.1388 48.7202 59.878L44.1704 59.843C44.9914 69.8783 41.9532 81.4976 41.2265 91.5739C40.7088 97.3295 41.6553 103.11 40.9553 108.854C40.4999 112.588 38.6997 116.123 38.4137 119.877C38.1775 122.976 38.6294 126.206 38.7861 129.313C38.9603 133.183 38.8106 137.059 38.3382 140.902C37.4753 148.341 36.2482 155.761 35.3674 163.209C34.5908 169.774 33.7325 174.223 35.0256 180.772H34.6588H24.2811H23.8431C24.994 173.621 23.2996 164.83 22.3703 157.62C21.3491 149.699 20.2818 141.749 20.0631 133.755C19.7733 123.175 23.2661 112.798 21.9772 102.195C20.0195 86.0908 14.3081 70.7773 14.4231 54.3705C14.4799 46.2832 16.0286 38.0138 18.4017 30.3017C22.1852 18.0052 25.3718 15.085 23.7517 1.52709C23.3793 -1.59007 22.9718 -4.95979 22.0367 -7.95558C21.0957 -3.8503 20.357 1.08955 19.8982 5.2664C19.3685 10.0911 19.1603 14.9151 18.0088 19.6609C17.3154 22.5193 16.367 25.2846 15.4527 28.0771C14.2867 31.7524 13.0665 35.4101 11.7924 39.0492C10.2973 43.3761 8.6242 48.0105 8.06589 52.5798C7.66598 55.853 9.66627 57.2503 10.4858 59.9401L10.5181 60.0444C11.214 62.3372 10.5499 66.6207 10.6148 69.0769C10.6516 70.4637 10.993 74.9051 9.59416 75.549C7.30052 75.3513 7.32589 67.9788 6.61768 65.8316C5.54533 68.6312 6.42539 73.2286 7.62473 75.9034C7.73355 76.1445 7.85014 76.3821 7.9741 76.6157C8.54566 76.6399 9.0561 76.599 9.54287 76.8677C10.1619 77.6106 11.2822 81.5374 10.6693 82.3534C10.0393 82.5333 9.76582 82.3269 9.2077 82.0429C8.16734 81.5147 4.59316 78.531 4.011 77.8458C3.01606 76.6742 0.402386 70.9066 0.126066 69.5044C-0.283492 67.4257 0.416202 61.9253 0.645774 59.4876C0.85888 57.224 0.681164 53.8603 0.929473 51.8996C1.61857 46.4603 2.39453 41.0535 2.94471 35.5869C3.44322 30.6361 3.641 25.6658 4.4427 20.7568C4.9151 17.8642 5.80897 15.1459 6.53119 12.3226C7.25113 9.47733 7.79733 6.59116 8.16695 3.67961C8.82709 -1.54292 9.08638 -6.58521 9.40926 -11.9914C9.93843 -20.2444 8.76861 -29.7986 12.748 -37.3378C14.2723 -40.2255 18.682 -41.5139 21.6852 -42.0877C32.5343 -44.1607 38.9989 -45.2763 38.1438 -58.4737C35.6257 -61.2245 35.1049 -62.6236 33.7501 -66.0269C31.2625 -67.2816 30.887 -69.1039 29.9191 -71.6835C29.4939 -72.8171 28.3769 -76.8436 30.0416 -77.7971C30.0936 -77.8268 30.5884 -77.9097 30.6889 -77.9271C30.8329 -78.8778 30.4682 -80.72 30.4578 -81.7946C30.4071 -86.9916 31.3199 -92.025 35.7837 -95.3414C36.9418 -96.2018 38.7061 -97.1177 40.0637 -97.609C39.7063 -98.6164 39.4826 -99.2411 39.2563 -100.3ZM84.3905 80.4203C83.8088 80.6532 83.2425 80.4544 82.6526 80.3011C82.2886 80.9637 82.099 81.6794 82.7413 82.2417C83.6553 81.9975 83.9469 81.0262 84.4757 80.7214L84.3905 80.4203ZM84.8279 80.852C85.4161 80.5017 86.8842 79.309 87.4793 78.846C87.4509 78.5978 87.4531 78.5995 87.3583 78.3691L86.8346 78.4734C86.3836 79.7103 84.9731 79.8277 84.8279 80.852Z" fill="#5E5E5E"/>
<path d="M16.2873 40.3828C25.7789 42.2422 32.4467 47.8588 39.077 54.6641C40.5249 56.1502 42.7167 58.4172 43.8806 60.0358C44.0962 71.4027 41.9331 81.7649 40.8375 92.996C40.3515 97.9793 41.3915 103.237 40.7101 108.237C40.2294 112.066 38.458 115.729 38.1018 119.626C37.787 123.07 38.3383 126.4 38.4797 129.817C38.6192 133.186 38.4188 136.84 38.0713 140.196C37.4636 145.634 36.7648 151.062 35.9749 156.477C34.8416 164.384 33.0764 172.875 34.6588 180.77H24.2811C24.7001 175.208 24.4183 171.499 23.7557 165.944C22.3387 154.067 20.3804 142.094 20.398 130.12C20.4166 126.875 21.1485 123.45 21.5081 120.228C22.3845 114.419 22.9549 108.519 22.4025 102.65C20.4194 86.0381 14.1606 69.9629 14.7649 53.051C14.9169 48.7897 15.5397 44.5801 16.2873 40.3828Z" fill="white"/>
<path d="M37.1649 109.309C37.3263 110.361 36.2063 112.866 35.7572 113.919C35.623 113.449 36.9134 110.02 37.1649 109.309Z" fill="#515053"/>
<path d="M26.5541 108.148C27.0804 108.893 27.4351 111.386 27.5649 112.363C26.967 111.411 26.6784 109.265 26.5541 108.148Z" fill="#515053"/>
<path d="M49.0283 60.0242C56.6844 51.6495 64.6119 42.39 76.509 40.3359C79.7771 56.7654 77.4106 69.9972 73.583 85.9651C71.1416 96.1511 69.3275 106.239 70.8677 116.673C71.6923 122.256 72.6481 128.01 72.4937 133.663C72.0709 142.308 70.9563 151.031 69.9727 159.627C69.1733 166.615 67.7096 173.728 68.6453 180.773H58.2237C59.7101 172.842 58.173 165.149 57.077 157.249C56.3031 151.703 55.5854 146.152 54.9243 140.591C54.4669 136.68 54.306 132.738 54.4428 128.801C54.566 125.882 55.0685 122.341 54.7958 119.479C54.4402 115.749 52.6704 111.924 52.1935 108.155C51.5935 103.414 52.4919 98.4705 52.0886 93.7372C51.5996 87.9966 50.8675 82.1444 50.1118 76.4317C49.3222 70.4613 48.681 66.0551 49.0283 60.0242Z" fill="white"/>
<path d="M66.284 108.059L66.3573 108.144C66.4814 109.09 65.9171 111.071 65.6744 112.05L65.591 111.946C65.5196 111.001 66.044 109.051 66.284 108.059Z" fill="#5E5E5E"/>
<path d="M29.157 -43.2689L29.4907 -43.3083C29.7696 -42.9753 29.7066 -42.1606 29.7486 -41.6812C29.8433 -40.5952 30.0478 -39.5217 30.3594 -38.4771C30.8492 -36.7769 31.6569 -35.1852 32.7399 -33.7864C38.0954 -26.9313 51.1221 -26.3199 57.8955 -31.4792C61.8077 -34.4591 62.7998 -38.7937 63.3613 -43.4102C65.3098 -42.7623 67.4751 -42.3393 69.5085 -42.0792C69.3622 -37.1113 69.383 -31.5845 70.0564 -26.6903C70.5331 -23.2244 71.6825 -19.8649 71.7234 -16.2744C71.758 -13.2074 70.8117 -10.7733 70.2761 -7.85175C69.4899 -3.85496 69.0721 0.510086 68.4999 4.48681C67.2202 13.3852 70.6512 20.1514 73.5507 28.2894C74.7817 31.744 75.625 36.2504 76.5172 39.9909C71.6676 40.742 68.5103 42.3301 64.424 44.9504C60.6829 47.5416 57.2197 50.5128 54.0895 53.8165C52.3614 55.6677 50.8045 57.675 48.9886 59.4389C47.2869 59.5218 45.7994 59.5102 44.1028 59.4845C42.0284 57.4281 40.0093 54.9746 37.8804 52.887C31.2606 46.396 25.4329 41.8859 16.3252 39.9757C17.1789 36.0494 17.9646 32.2461 19.2911 28.4081C21.1017 23.1699 23.5689 18.0089 24.3231 12.4573C25.1971 6.02267 23.7589 -1.15963 22.6894 -7.57381C22.0622 -10.3454 21.1805 -13.0866 21.15 -15.9561C21.139 -16.9978 21.1797 -18.2396 21.3796 -19.2724C21.8482 -21.6934 22.422 -24.0296 22.7453 -26.4858C23.4243 -31.6428 23.3566 -36.762 23.3125 -41.9504C25.2815 -42.4008 27.1732 -42.7901 29.157 -43.2689Z" fill="#91364A"/>
<path d="M22.3957 -41.8472L22.75 -41.8633L22.8848 -41.6796C23.1583 -34.22 22.9052 -27.3872 21.0419 -20.1159C20.8989 -20.7236 20.797 -21.1129 20.593 -21.7038C20.6343 -21.1493 20.8232 -19.3561 20.8033 -18.861C20.7397 -17.2852 20.7282 -16.4457 20.8621 -14.8665C21.034 -12.8389 21.7356 -10.5476 21.7309 -8.60317C21.7291 -7.84774 21.2687 -5.52464 21.1152 -4.65125C20.7172 -2.39555 20.343 -0.135689 19.9929 2.12815C19.3127 6.62667 19.1253 10.9862 18.5312 15.4264C17.9254 19.9552 16.0249 24.9703 14.7173 29.3681C12.4494 36.9968 9.00787 44.3423 7.79282 52.2677C7.19817 56.0129 9.848 57.8795 10.4054 61.2112C10.672 63.4302 10.3796 65.7717 10.299 68.0039C10.2417 69.5891 10.7386 74.2571 9.62732 75.1835C6.8416 75.03 8.75729 65.4996 6.3217 65.7762C4.63029 67.1926 6.57399 73.9086 7.23602 75.8C8.1791 78.1693 10.0825 79.0207 10.6291 81.382C10.704 81.7058 10.5632 81.808 10.3861 82.022C9.1008 82.0864 8.80101 80.5244 7.74986 79.945L8.2092 80.7383C8.01918 80.7042 7.9959 80.7061 7.82992 80.6001C4.09412 78.191 3.39991 76.6107 1.77966 72.6385C1.46341 71.8628 0.484558 69.8037 0.400148 69.0284C-0.109339 66.0513 1.04742 62.5524 1.00408 59.7064C0.887872 52.0849 2.32322 44.8819 3.15634 37.3446C3.69176 32.5002 3.70292 27.4113 4.56651 22.604C5.7492 16.0215 7.83522 9.74004 8.58204 3.04925C9.23726 -2.8367 9.65987 -8.7465 9.84875 -14.6658C10.0232 -19.6524 9.92237 -24.6381 10.6629 -29.5864C11.9312 -38.06 14.348 -40.203 22.3957 -41.8472Z" fill="white"/>
<path d="M69.9023 -41.9883C73.9258 -41.2338 78.5661 -40.0281 80.38 -35.9596C83.265 -29.4882 82.7658 -21.4265 82.9997 -14.4415C83.2115 -7.94946 83.7007 -1.46939 84.4661 4.98076C85.1165 10.4085 87.1199 15.1399 87.8832 20.364C89.4497 31.0836 89.7404 42.0334 91.6121 52.7638C91.9352 54.616 91.5436 57.2513 91.7829 59.2431C91.8849 61.7724 92.9042 65.7604 92.5898 68.1945C92.2422 70.8847 89.4462 77.0511 87.4793 78.8474C87.4509 78.5992 87.4532 78.6009 87.3583 78.3705L86.8347 78.4748C86.3836 79.7117 84.9731 79.8291 84.8279 80.8534C84.6909 80.8667 84.643 80.8042 84.4757 80.7227L84.3906 80.4217C83.8088 80.6546 83.2425 80.4558 82.6526 80.3024C82.9206 79.6152 83.956 78.3658 84.5062 77.8305C86.3642 76.0235 88.4125 67.826 86.5093 65.6234L86.2438 65.6616C85.0991 66.9366 85.1824 70.2887 84.8794 72.0014C84.704 72.9937 84.577 73.5685 84.2829 74.5568C83.9324 74.9421 83.6871 75.2632 83.1749 75.0496C82.8271 74.4905 82.6634 73.6616 82.6143 73.0281C82.49 71.4154 82.6378 69.5919 82.6217 67.9713C82.6066 66.4363 82.1862 62.3695 82.5527 60.952C83.4549 57.4601 85.6024 56.1484 84.9985 52.0301C84.3111 47.3436 82.7777 42.9465 81.2265 38.4957C80.0523 35.132 78.9024 31.7597 77.7773 28.3791C76.3489 24.0355 74.7056 18.6998 74.0452 14.1912C73.6124 11.2363 73.7229 8.0114 73.217 4.90712C72.4761 0.361832 71.4988 -4.35954 71.1397 -8.93626C71.0105 -10.5836 71.9458 -13.1086 72.0535 -14.9205C72.2062 -17.4895 71.8551 -18.9243 72.3765 -21.5671L72.4063 -21.7137L72.3567 -21.7114C72.1515 -21.1745 72.0082 -20.5345 71.8633 -19.9718C69.7822 -26.0615 69.855 -35.5803 69.9023 -41.9883Z" fill="white"/>
<path d="M84.3906 80.4233C88.6658 77.6644 89.5171 73.0991 90.9875 68.9141C91.4822 70.2464 88.3234 77.4809 86.8347 78.4764C86.3837 79.7134 84.9732 79.8307 84.828 80.855C84.691 80.8683 84.6431 80.8058 84.4758 80.7244L84.3906 80.4233Z" fill="#515053"/>
<path d="M84.2429 76.7812L84.4205 76.8735L84.4731 77.1645C84.2106 77.7669 83.6523 78.2997 83.1973 78.7918L83.0139 78.7441C82.613 77.9002 83.6121 77.1862 84.2429 76.7812Z" fill="white"/>
<path d="M8.14648 76.7734C9.54076 76.9385 9.92344 77.5525 10.0362 78.8542C9.27504 78.3901 8.65086 77.4863 8.14648 76.7734Z" fill="white"/>
<path d="M86.8346 78.4754L87.3583 78.3711C87.4531 78.6015 87.4508 78.5998 87.4792 78.848C86.8842 79.3109 85.4161 80.5037 84.8279 80.854C84.973 79.8297 86.3836 79.7123 86.8346 78.4754Z" fill="white" fill-opacity="0.956863"/>
<path d="M21 27L21 35" stroke="#75041D"/>
<path d="M71 31H23" stroke="#75041D" stroke-dasharray="3 3"/>
<path d="M73 27L73 35" stroke="#75041D"/>
</g>
<defs>
<clipPath id="clip0_1160_32989">
<rect width="93" height="137" fill="white"/>
</clipPath>
</defs>
</svg>
