<svg width="93" height="137" viewBox="0 0 93 137" fill="none" xmlns="http://www.w3.org/2000/svg">
<g clip-path="url(#clip0_1160_33254)">
<path d="M39.2563 -95.2999C39.8286 -96.5922 40.9515 -97.9779 42.3262 -98.3325C46.4894 -99.4065 51.6437 -99.7196 53.3703 -95.0553C53.41 -94.9482 53.4481 -94.8405 53.4844 -94.7322L52.582 -92.6897C59.9969 -89.3741 62.7069 -84.4911 62.3465 -76.4231C62.3003 -75.3858 61.9436 -73.8261 62.042 -72.8557C62.4283 -72.8501 62.9998 -72.918 63.2362 -72.6202C63.761 -71.9591 63.8339 -70.5342 63.6967 -69.745C63.0988 -66.3088 62.3049 -62.5173 58.9404 -60.8769C57.8215 -57.7516 57.167 -56.1143 54.7835 -53.6219C54.6626 -49.7397 54.4544 -45.4401 57.2834 -42.3167C63.0892 -35.9075 75.0407 -39.4393 79.9045 -32.3444C83.7637 -26.715 83.127 -15.6991 83.3396 -9.01534C83.5584 -2.83517 84.0362 3.33326 84.7721 9.47329C85.0634 11.8257 85.5477 15.02 86.2918 17.2632C89.3452 26.4675 89.1328 36.0896 90.2924 45.5874C91.0741 51.9896 92.2594 57.9284 92.1513 64.4338C92.1093 66.9554 93.1743 70.2643 92.9752 72.8947C92.9619 74.7503 89.8586 82.2945 88.3343 83.5607C87.7357 84.0579 83.7683 87.5598 82.7251 87.4575C82.3269 87.4197 82.4175 87.4083 82.1382 87.166C81.887 86.4995 82.0257 85.5737 82.3367 84.9773C82.808 84.0715 82.6408 83.7657 82.4815 82.7341C83.4206 81.766 83.6581 81.6682 85.0475 81.4203C86.3558 78.2833 87.5968 73.9872 86.2487 70.7159C85.4544 73.365 85.6521 79.179 83.8578 80.514C81.7914 80.9192 82.1189 77.2675 82.2317 76.0071C82.5462 72.4926 81.7362 68.9981 82.2735 65.5021C82.4584 64.2981 83.3242 62.9627 83.8332 61.8756C84.7957 60.0616 84.9227 59.2967 84.6441 57.3142C83.7789 51.1554 81.4941 45.3946 79.4626 39.5519C77.7835 34.7288 76.2475 29.8571 74.8566 24.943C73.9288 21.575 73.6262 18.7718 73.3961 15.2949C72.9742 8.92271 71.4325 2.72437 70.7237 -3.6349C69.8599 1.1728 69.2547 5.75709 68.7236 10.596C67.8523 18.5364 70.8028 24.3402 73.2844 31.5789C76.4475 40.8052 78.3726 50.9364 78.5191 60.6964C78.5507 71.1739 75.9882 81.7193 73.736 91.886C72.6748 96.678 71.6539 101.322 71.0301 106.205C70.3125 111.821 70.6925 117.618 71.417 123.219C72.0718 128.283 72.9962 133.098 72.8052 138.27C72.4867 146.9 71.3012 155.5 70.363 164.071C69.633 170.739 67.8714 179.179 68.9704 185.772H68.6453H58.2237H57.9016C59.2533 177.055 58.0534 172.019 56.8752 163.434C56.0922 157.796 55.3496 152.154 54.6472 146.504C54.1016 142.101 53.9294 137.657 54.1319 133.223C54.2509 130.64 54.7511 127.382 54.5206 124.887C54.1622 121.011 52.3106 116.936 51.8172 113.034C51.2059 108.199 52.1634 103.435 51.7431 98.56C51.2226 92.524 50.3923 86.5374 49.6404 80.5308C48.9876 75.3157 48.2296 70.1388 48.7202 64.878L44.1704 64.843C44.9914 74.8783 41.9532 86.4976 41.2265 96.5739C40.7088 102.33 41.6553 108.11 40.9553 113.854C40.4999 117.588 38.6997 121.123 38.4137 124.877C38.1775 127.976 38.6294 131.206 38.7861 134.313C38.9603 138.183 38.8106 142.059 38.3382 145.902C37.4753 153.341 36.2482 160.761 35.3674 168.209C34.5908 174.774 33.7325 179.223 35.0256 185.772H34.6588H24.2811H23.8431C24.994 178.621 23.2996 169.83 22.3703 162.62C21.3491 154.699 20.2818 146.749 20.0631 138.755C19.7733 128.175 23.2661 117.798 21.9772 107.195C20.0195 91.0908 14.3081 75.7773 14.4231 59.3705C14.4799 51.2832 16.0286 43.0138 18.4017 35.3017C22.1852 23.0052 25.3718 20.085 23.7517 6.52709C23.3793 3.40993 22.9718 0.0402145 22.0367 -2.95558C21.0957 1.1497 20.357 6.08955 19.8982 10.2664C19.3685 15.0911 19.1603 19.9151 18.0088 24.6609C17.3154 27.5193 16.367 30.2846 15.4527 33.0771C14.2867 36.7524 13.0665 40.4101 11.7924 44.0492C10.2973 48.3761 8.6242 53.0105 8.06589 57.5798C7.66598 60.853 9.66627 62.2503 10.4858 64.9401L10.5181 65.0444C11.214 67.3372 10.5499 71.6207 10.6148 74.0769C10.6516 75.4637 10.993 79.9051 9.59416 80.549C7.30052 80.3513 7.32589 72.9788 6.61768 70.8316C5.54533 73.6312 6.42539 78.2286 7.62473 80.9034C7.73355 81.1445 7.85014 81.3821 7.9741 81.6157C8.54566 81.6399 9.0561 81.599 9.54287 81.8677C10.1619 82.6106 11.2822 86.5374 10.6693 87.3534C10.0393 87.5333 9.76582 87.3269 9.2077 87.0429C8.16734 86.5147 4.59316 83.531 4.011 82.8458C3.01606 81.6742 0.402386 75.9066 0.126066 74.5044C-0.283492 72.4257 0.416202 66.9253 0.645774 64.4876C0.85888 62.224 0.681164 58.8603 0.929473 56.8996C1.61857 51.4603 2.39453 46.0535 2.94471 40.5869C3.44322 35.6361 3.641 30.6658 4.4427 25.7568C4.9151 22.8642 5.80897 20.1459 6.53119 17.3226C7.25113 14.4773 7.79733 11.5912 8.16695 8.67961C8.82709 3.45708 9.08638 -1.58521 9.40926 -6.99139C9.93843 -15.2444 8.76861 -24.7986 12.748 -32.3378C14.2723 -35.2255 18.682 -36.5139 21.6852 -37.0877C32.5343 -39.1607 38.9989 -40.2763 38.1438 -53.4737C35.6257 -56.2245 35.1049 -57.6236 33.7501 -61.0269C31.2625 -62.2816 30.887 -64.1039 29.9191 -66.6835C29.4939 -67.8171 28.3769 -71.8436 30.0416 -72.7971C30.0936 -72.8268 30.5884 -72.9097 30.6889 -72.9271C30.8329 -73.8778 30.4682 -75.72 30.4578 -76.7946C30.4071 -81.9916 31.3199 -87.025 35.7837 -90.3414C36.9418 -91.2018 38.7061 -92.1177 40.0637 -92.609C39.7063 -93.6164 39.4826 -94.2411 39.2563 -95.2999ZM84.3905 85.4203C83.8088 85.6532 83.2425 85.4544 82.6526 85.3011C82.2886 85.9637 82.099 86.6794 82.7413 87.2417C83.6553 86.9975 83.9469 86.0262 84.4757 85.7214L84.3905 85.4203ZM84.8279 85.852C85.4161 85.5017 86.8842 84.309 87.4793 83.846C87.4509 83.5978 87.4531 83.5995 87.3583 83.3691L86.8346 83.4734C86.3836 84.7103 84.9731 84.8277 84.8279 85.852Z" fill="#5E5E5E"/>
<path d="M16.2873 45.3828C25.7789 47.2422 32.4467 52.8588 39.077 59.6641C40.5249 61.1502 42.7167 63.4172 43.8806 65.0358C44.0962 76.4027 41.9331 86.7649 40.8375 97.996C40.3515 102.979 41.3915 108.237 40.7101 113.237C40.2294 117.066 38.458 120.729 38.1018 124.626C37.787 128.07 38.3383 131.4 38.4797 134.817C38.6192 138.186 38.4188 141.84 38.0713 145.196C37.4636 150.634 36.7648 156.062 35.9749 161.477C34.8416 169.384 33.0764 177.875 34.6588 185.77H24.2811C24.7001 180.208 24.4183 176.499 23.7557 170.944C22.3387 159.067 20.3804 147.094 20.398 135.12C20.4166 131.875 21.1485 128.45 21.5081 125.228C22.3845 119.419 22.9549 113.519 22.4025 107.65C20.4194 91.0381 14.1606 74.9629 14.7649 58.051C14.9169 53.7897 15.5397 49.5801 16.2873 45.3828Z" fill="white"/>
<path d="M37.1649 114.309C37.3263 115.361 36.2063 117.866 35.7572 118.919C35.623 118.449 36.9134 115.02 37.1649 114.309Z" fill="#515053"/>
<path d="M26.5541 113.148C27.0804 113.893 27.4351 116.386 27.5649 117.363C26.967 116.411 26.6784 114.265 26.5541 113.148Z" fill="#515053"/>
<path d="M49.0283 65.0242C56.6844 56.6495 64.6119 47.39 76.509 45.3359C79.7771 61.7654 77.4106 74.9972 73.583 90.9651C71.1416 101.151 69.3275 111.239 70.8677 121.673C71.6923 127.256 72.6481 133.01 72.4937 138.663C72.0709 147.308 70.9563 156.031 69.9727 164.627C69.1733 171.615 67.7096 178.728 68.6453 185.773H58.2237C59.7101 177.842 58.173 170.149 57.077 162.249C56.3031 156.703 55.5854 151.152 54.9243 145.591C54.4669 141.68 54.306 137.738 54.4428 133.801C54.566 130.882 55.0685 127.341 54.7958 124.479C54.4402 120.749 52.6704 116.924 52.1935 113.155C51.5935 108.414 52.4919 103.47 52.0886 98.7372C51.5996 92.9966 50.8675 87.1444 50.1118 81.4317C49.3222 75.4613 48.681 71.0551 49.0283 65.0242Z" fill="white"/>
<path d="M66.284 113.059L66.3573 113.144C66.4814 114.09 65.9171 116.071 65.6744 117.05L65.591 116.946C65.5196 116.001 66.044 114.051 66.284 113.059Z" fill="#5E5E5E"/>
<path d="M29.157 -38.2689L29.4907 -38.3083C29.7696 -37.9753 29.7066 -37.1606 29.7486 -36.6812C29.8433 -35.5952 30.0478 -34.5217 30.3594 -33.4771C30.8492 -31.7769 31.6569 -30.1852 32.7399 -28.7864C38.0954 -21.9313 51.1221 -21.3199 57.8955 -26.4792C61.8077 -29.4591 62.7998 -33.7937 63.3613 -38.4102C65.3098 -37.7623 67.4751 -37.3393 69.5085 -37.0792C69.3622 -32.1113 69.383 -26.5845 70.0564 -21.6903C70.5331 -18.2244 71.6825 -14.8649 71.7234 -11.2744C71.758 -8.20738 70.8117 -5.77333 70.2761 -2.85175C69.4899 1.14504 69.0721 5.51009 68.4999 9.48681C67.2202 18.3852 70.6512 25.1514 73.5507 33.2894C74.7817 36.744 75.625 41.2504 76.5172 44.9909C71.6676 45.742 68.5103 47.3301 64.424 49.9504C60.6829 52.5416 57.2197 55.5128 54.0895 58.8165C52.3614 60.6677 50.8045 62.675 48.9886 64.4389C47.2869 64.5218 45.7994 64.5102 44.1028 64.4845C42.0284 62.4281 40.0093 59.9746 37.8804 57.887C31.2606 51.396 25.4329 46.8859 16.3252 44.9757C17.1789 41.0494 17.9646 37.2461 19.2911 33.4081C21.1017 28.1699 23.5689 23.0089 24.3231 17.4573C25.1971 11.0227 23.7589 3.84037 22.6894 -2.57381C22.0622 -5.34544 21.1805 -8.08659 21.15 -10.9561C21.139 -11.9978 21.1797 -13.2396 21.3796 -14.2724C21.8482 -16.6934 22.422 -19.0296 22.7453 -21.4858C23.4243 -26.6428 23.3566 -31.762 23.3125 -36.9504C25.2815 -37.4008 27.1732 -37.7901 29.157 -38.2689Z" fill="#91364A"/>
<path d="M22.3957 -36.8472L22.75 -36.8633L22.8848 -36.6796C23.1583 -29.22 22.9052 -22.3872 21.0419 -15.1159C20.8989 -15.7236 20.797 -16.1129 20.593 -16.7038C20.6343 -16.1493 20.8232 -14.3561 20.8033 -13.861C20.7397 -12.2852 20.7282 -11.4457 20.8621 -9.86646C21.034 -7.83891 21.7356 -5.54761 21.7309 -3.60317C21.7291 -2.84774 21.2687 -0.524643 21.1152 0.348747C20.7172 2.60445 20.343 4.86431 19.9929 7.12815C19.3127 11.6267 19.1253 15.9862 18.5312 20.4264C17.9254 24.9552 16.0249 29.9703 14.7173 34.3681C12.4494 41.9968 9.00787 49.3423 7.79282 57.2677C7.19817 61.0129 9.848 62.8795 10.4054 66.2112C10.672 68.4302 10.3796 70.7717 10.299 73.0039C10.2417 74.5891 10.7386 79.2571 9.62732 80.1835C6.8416 80.03 8.75729 70.4996 6.3217 70.7762C4.63029 72.1926 6.57399 78.9086 7.23602 80.8C8.1791 83.1693 10.0825 84.0207 10.6291 86.382C10.704 86.7058 10.5632 86.808 10.3861 87.022C9.1008 87.0864 8.80101 85.5244 7.74986 84.945L8.2092 85.7383C8.01918 85.7042 7.9959 85.7061 7.82992 85.6001C4.09412 83.191 3.39991 81.6107 1.77966 77.6385C1.46341 76.8628 0.484558 74.8037 0.400148 74.0284C-0.109339 71.0513 1.04742 67.5524 1.00408 64.7064C0.887872 57.0849 2.32322 49.8819 3.15634 42.3446C3.69176 37.5002 3.70292 32.4113 4.56651 27.604C5.7492 21.0215 7.83522 14.74 8.58204 8.04925C9.23726 2.1633 9.65987 -3.7465 9.84875 -9.66577C10.0232 -14.6524 9.92237 -19.6381 10.6629 -24.5864C11.9312 -33.06 14.348 -35.203 22.3957 -36.8472Z" fill="white"/>
<path d="M69.9023 -36.9883C73.9258 -36.2338 78.5661 -35.0281 80.38 -30.9596C83.265 -24.4882 82.7658 -16.4265 82.9997 -9.44145C83.2115 -2.94946 83.7007 3.53061 84.4661 9.98076C85.1165 15.4085 87.1199 20.1399 87.8832 25.364C89.4497 36.0836 89.7404 47.0334 91.6121 57.7638C91.9352 59.616 91.5436 62.2513 91.7829 64.2431C91.8849 66.7724 92.9042 70.7604 92.5898 73.1945C92.2422 75.8847 89.4462 82.0511 87.4793 83.8474C87.4509 83.5992 87.4532 83.6009 87.3583 83.3705L86.8347 83.4748C86.3836 84.7117 84.9731 84.8291 84.8279 85.8534C84.6909 85.8667 84.643 85.8042 84.4757 85.7227L84.3906 85.4217C83.8088 85.6546 83.2425 85.4558 82.6526 85.3024C82.9206 84.6152 83.956 83.3658 84.5062 82.8305C86.3642 81.0235 88.4125 72.826 86.5093 70.6234L86.2438 70.6616C85.0991 71.9366 85.1824 75.2887 84.8794 77.0014C84.704 77.9937 84.577 78.5685 84.2829 79.5568C83.9324 79.9421 83.6871 80.2632 83.1749 80.0496C82.8271 79.4905 82.6634 78.6616 82.6143 78.0281C82.49 76.4154 82.6378 74.5919 82.6217 72.9713C82.6066 71.4363 82.1862 67.3695 82.5527 65.952C83.4549 62.4601 85.6024 61.1484 84.9985 57.0301C84.3111 52.3436 82.7777 47.9465 81.2265 43.4957C80.0523 40.132 78.9024 36.7597 77.7773 33.3791C76.3489 29.0355 74.7056 23.6998 74.0452 19.1912C73.6124 16.2363 73.7229 13.0114 73.217 9.90712C72.4761 5.36183 71.4988 0.640461 71.1397 -3.93626C71.0105 -5.58363 71.9458 -8.10856 72.0535 -9.92046C72.2062 -12.4895 71.8551 -13.9243 72.3765 -16.5671L72.4063 -16.7137L72.3567 -16.7114C72.1515 -16.1745 72.0082 -15.5345 71.8633 -14.9718C69.7822 -21.0615 69.855 -30.5803 69.9023 -36.9883Z" fill="white"/>
<path d="M84.3906 85.4233C88.6658 82.6644 89.5171 78.0991 90.9875 73.9141C91.4822 75.2464 88.3234 82.4809 86.8347 83.4764C86.3837 84.7134 84.9732 84.8307 84.828 85.855C84.691 85.8683 84.6431 85.8058 84.4758 85.7244L84.3906 85.4233Z" fill="#515053"/>
<path d="M84.2429 81.7812L84.4205 81.8735L84.4731 82.1645C84.2106 82.7669 83.6523 83.2997 83.1973 83.7918L83.0139 83.7441C82.613 82.9002 83.6121 82.1862 84.2429 81.7812Z" fill="white"/>
<path d="M8.14648 81.7734C9.54076 81.9385 9.92344 82.5525 10.0362 83.8542C9.27504 83.3901 8.65086 82.4863 8.14648 81.7734Z" fill="white"/>
<path d="M86.8346 83.4754L87.3583 83.3711C87.4531 83.6015 87.4508 83.5998 87.4792 83.848C86.8842 84.3109 85.4161 85.5037 84.8279 85.854C84.973 84.8297 86.3836 84.7123 86.8346 83.4754Z" fill="white" fill-opacity="0.956863"/>
<path d="M12 43L12 51" stroke="#75041D"/>
<path d="M82 44.4883L48 49.5156L14 44.4883" stroke="#75041D" stroke-dasharray="3 3"/>
<path d="M84 43L84 51" stroke="#75041D"/>
</g>
<defs>
<clipPath id="clip0_1160_33254">
<rect width="93" height="137" fill="white"/>
</clipPath>
</defs>
</svg>
