<svg width="93" height="137" viewBox="0 0 93 137" fill="none" xmlns="http://www.w3.org/2000/svg">
<g clip-path="url(#clip0_1160_34577)">
<path d="M39.2563 -134.3C39.8286 -135.592 40.9515 -136.978 42.3262 -137.333C46.4894 -138.406 51.6437 -138.72 53.3703 -134.055C53.41 -133.948 53.4481 -133.84 53.4844 -133.732L52.582 -131.69C59.9969 -128.374 62.7069 -123.491 62.3465 -115.423C62.3003 -114.386 61.9436 -112.826 62.042 -111.856C62.4283 -111.85 62.9998 -111.918 63.2362 -111.62C63.761 -110.959 63.8339 -109.534 63.6967 -108.745C63.0988 -105.309 62.3049 -101.517 58.9404 -99.8769C57.8215 -96.7516 57.167 -95.1143 54.7835 -92.6219C54.6626 -88.7397 54.4544 -84.4401 57.2834 -81.3167C63.0892 -74.9075 75.0407 -78.4393 79.9045 -71.3444C83.7637 -65.715 83.127 -54.6991 83.3396 -48.0153C83.5584 -41.8352 84.0362 -35.6667 84.7721 -29.5267C85.0634 -27.1743 85.5477 -23.98 86.2918 -21.7368C89.3452 -12.5325 89.1328 -2.91045 90.2924 6.58739C91.0741 12.9896 92.2594 18.9284 92.1513 25.4338C92.1093 27.9554 93.1743 31.2643 92.9752 33.8947C92.9619 35.7503 89.8586 43.2945 88.3343 44.5607C87.7357 45.0579 83.7683 48.5598 82.7251 48.4575C82.3269 48.4197 82.4175 48.4083 82.1382 48.166C81.887 47.4995 82.0257 46.5737 82.3367 45.9773C82.808 45.0715 82.6408 44.7657 82.4815 43.7341C83.4206 42.766 83.6581 42.6682 85.0475 42.4203C86.3558 39.2833 87.5968 34.9872 86.2487 31.7159C85.4544 34.365 85.6521 40.179 83.8578 41.514C81.7914 41.9192 82.1189 38.2675 82.2317 37.0071C82.5462 33.4926 81.7362 29.9981 82.2735 26.5021C82.4584 25.2981 83.3242 23.9627 83.8332 22.8756C84.7957 21.0616 84.9227 20.2967 84.6441 18.3142C83.7789 12.1554 81.4941 6.39464 79.4626 0.551865C77.7835 -4.27118 76.2475 -9.14287 74.8566 -14.057C73.9288 -17.425 73.6262 -20.2282 73.3961 -23.7051C72.9742 -30.0773 71.4325 -36.2756 70.7237 -42.6349C69.8599 -37.8272 69.2547 -33.2429 68.7236 -28.404C67.8523 -20.4636 70.8028 -14.6598 73.2844 -7.4211C76.4475 1.80524 78.3726 11.9364 78.5191 21.6964C78.5507 32.1739 75.9882 42.7193 73.736 52.886C72.6748 57.678 71.6539 62.3223 71.0301 67.2052C70.3125 72.8208 70.6925 78.6181 71.417 84.2185C72.0718 89.2831 72.9962 94.0979 72.8052 99.2704C72.4867 107.9 71.3012 116.5 70.363 125.071C69.633 131.739 67.8714 140.179 68.9704 146.772H68.6453H58.2237H57.9016C59.2533 138.055 58.0534 133.019 56.8752 124.434C56.0922 118.796 55.3496 113.154 54.6472 107.504C54.1016 103.101 53.9294 98.657 54.1319 94.2228C54.2509 91.6403 54.7511 88.3819 54.5206 85.8866C54.1622 82.0109 52.3106 77.9365 51.8172 74.0344C51.2059 69.1988 52.1634 64.4352 51.7431 59.56C51.2226 53.524 50.3923 47.5374 49.6404 41.5308C48.9876 36.3157 48.2296 31.1388 48.7202 25.878L44.1704 25.843C44.9914 35.8783 41.9532 47.4976 41.2265 57.5739C40.7088 63.3295 41.6553 69.1098 40.9553 74.8542C40.4999 78.5878 38.6997 82.1226 38.4137 85.8771C38.1775 88.9764 38.6294 92.2064 38.7861 95.3134C38.9603 99.1833 38.8106 103.059 38.3382 106.902C37.4753 114.341 36.2482 121.761 35.3674 129.209C34.5908 135.774 33.7325 140.223 35.0256 146.772H34.6588H24.2811H23.8431C24.994 139.621 23.2996 130.83 22.3703 123.62C21.3491 115.699 20.2818 107.749 20.0631 99.7551C19.7733 89.1752 23.2661 78.798 21.9772 68.1954C20.0195 52.0908 14.3081 36.7773 14.4231 20.3705C14.4799 12.2832 16.0286 4.01379 18.4017 -3.69826C22.1852 -15.9948 25.3718 -18.915 23.7517 -32.4729C23.3793 -35.5901 22.9718 -38.9598 22.0367 -41.9556C21.0957 -37.8503 20.357 -32.9105 19.8982 -28.7336C19.3685 -23.9089 19.1603 -19.0849 18.0088 -14.3391C17.3154 -11.4807 16.367 -8.71536 15.4527 -5.9229C14.2867 -2.24759 13.0665 1.4101 11.7924 5.04924C10.2973 9.37605 8.6242 14.0105 8.06589 18.5798C7.66598 21.853 9.66627 23.2503 10.4858 25.9401L10.5181 26.0444C11.214 28.3372 10.5499 32.6207 10.6148 35.0769C10.6516 36.4637 10.993 40.9051 9.59416 41.549C7.30052 41.3513 7.32589 33.9788 6.61768 31.8316C5.54533 34.6312 6.42539 39.2286 7.62473 41.9034C7.73355 42.1445 7.85014 42.3821 7.9741 42.6157C8.54566 42.6399 9.0561 42.599 9.54287 42.8677C10.1619 43.6106 11.2822 47.5374 10.6693 48.3534C10.0393 48.5333 9.76582 48.3269 9.2077 48.0429C8.16734 47.5147 4.59316 44.531 4.011 43.8458C3.01606 42.6742 0.402386 36.9066 0.126066 35.5044C-0.283492 33.4257 0.416202 27.9253 0.645774 25.4876C0.85888 23.224 0.681164 19.8603 0.929473 17.8996C1.61857 12.4603 2.39453 7.05351 2.94471 1.58694C3.44322 -3.36389 3.641 -8.33423 4.4427 -13.2432C4.9151 -16.1358 5.80897 -18.8541 6.53119 -21.6774C7.25113 -24.5227 7.79733 -27.4088 8.16695 -30.3204C8.82709 -35.5429 9.08638 -40.5852 9.40926 -45.9914C9.93843 -54.2444 8.76861 -63.7986 12.748 -71.3378C14.2723 -74.2255 18.682 -75.5139 21.6852 -76.0877C32.5343 -78.1607 38.9989 -79.2763 38.1438 -92.4737C35.6257 -95.2245 35.1049 -96.6236 33.7501 -100.027C31.2625 -101.282 30.887 -103.104 29.9191 -105.684C29.4939 -106.817 28.3769 -110.844 30.0416 -111.797C30.0936 -111.827 30.5884 -111.91 30.6889 -111.927C30.8329 -112.878 30.4682 -114.72 30.4578 -115.795C30.4071 -120.992 31.3199 -126.025 35.7837 -129.341C36.9418 -130.202 38.7061 -131.118 40.0637 -131.609C39.7063 -132.616 39.4826 -133.241 39.2563 -134.3ZM84.3905 46.4203C83.8088 46.6532 83.2425 46.4544 82.6526 46.3011C82.2886 46.9637 82.099 47.6794 82.7413 48.2417C83.6553 47.9975 83.9469 47.0262 84.4757 46.7214L84.3905 46.4203ZM84.8279 46.852C85.4161 46.5017 86.8842 45.309 87.4793 44.846C87.4509 44.5978 87.4531 44.5995 87.3583 44.3691L86.8346 44.4734C86.3836 45.7103 84.9731 45.8277 84.8279 46.852Z" fill="#5E5E5E"/>
<path d="M16.2874 6.38281C25.779 8.24224 32.4468 13.8588 39.0771 20.6641C40.525 22.1502 42.7168 24.4172 43.8808 26.0358C44.0963 37.4027 41.9333 47.7649 40.8376 58.996C40.3516 63.9793 41.3916 69.237 40.7103 74.2373C40.2296 78.0655 38.4581 81.7291 38.1019 85.6256C37.7872 89.0695 38.3385 92.3998 38.4798 95.8173C38.6193 99.1855 38.4189 102.84 38.0714 106.196C37.4637 111.634 36.765 117.062 35.975 122.477C34.8417 130.384 33.0765 138.875 34.6589 146.77H24.2812C24.7002 141.208 24.4184 137.499 23.7558 131.944C22.3388 120.067 20.3806 108.094 20.3982 96.1202C20.4167 92.8751 21.1486 89.4501 21.5082 86.2276C22.3846 80.4189 22.9551 74.5194 22.4026 68.6501C20.4195 52.0381 14.1607 35.9629 14.765 19.051C14.917 14.7897 15.5399 10.5801 16.2874 6.38281Z" fill="white"/>
<path d="M37.165 75.3086C37.3265 76.3613 36.2064 78.8661 35.7573 79.9188C35.6231 79.4493 36.9135 76.0205 37.165 75.3086Z" fill="#515053"/>
<path d="M26.5542 74.1484C27.0805 74.8925 27.4352 77.386 27.565 78.363C26.9672 77.4106 26.6785 75.2655 26.5542 74.1484Z" fill="#515053"/>
<path d="M49.0283 26.0242C56.6844 17.6495 64.6119 8.39 76.509 6.33594C79.7771 22.7654 77.4106 35.9972 73.583 51.9651C71.1416 62.1511 69.3275 72.2387 70.8677 82.6728C71.6923 88.2562 72.6481 94.01 72.4937 99.6635C72.0709 108.308 70.9563 117.031 69.9727 125.627C69.1733 132.615 67.7096 139.728 68.6453 146.773H58.2237C59.7101 138.842 58.173 131.149 57.077 123.249C56.3031 117.703 55.5854 112.152 54.9243 106.591C54.4669 102.68 54.306 98.7376 54.4428 94.8014C54.566 91.8819 55.0685 88.3414 54.7958 85.4787C54.4402 81.7489 52.6704 77.9244 52.1935 74.1548C51.5935 69.4139 52.4919 64.4705 52.0886 59.7372C51.5996 53.9966 50.8675 48.1444 50.1118 42.4317C49.3222 36.4613 48.681 32.0551 49.0283 26.0242Z" fill="white"/>
<path d="M66.2842 74.0586L66.3574 74.1438C66.4816 75.0905 65.9172 77.0709 65.6745 78.0497L65.5911 77.9456C65.5197 77.0008 66.0442 75.0507 66.2842 74.0586Z" fill="#5E5E5E"/>
<path d="M29.157 -77.2689L29.4907 -77.3083C29.7696 -76.9753 29.7066 -76.1606 29.7486 -75.6812C29.8433 -74.5952 30.0478 -73.5217 30.3594 -72.4771C30.8492 -70.7769 31.6569 -69.1852 32.7399 -67.7864C38.0954 -60.9313 51.1221 -60.3199 57.8955 -65.4792C61.8077 -68.4591 62.7998 -72.7937 63.3613 -77.4102C65.3098 -76.7623 67.4751 -76.3393 69.5085 -76.0792C69.3622 -71.1113 69.383 -65.5845 70.0564 -60.6903C70.5331 -57.2244 71.6825 -53.8649 71.7234 -50.2744C71.758 -47.2074 70.8117 -44.7733 70.2761 -41.8518C69.4899 -37.855 69.0721 -33.4899 68.4999 -29.5132C67.2202 -20.6148 70.6512 -13.8486 73.5507 -5.71059C74.7817 -2.25604 75.625 2.25043 76.5172 5.99088C71.6676 6.74196 68.5103 8.33007 64.424 10.9504C60.6829 13.5416 57.2197 16.5128 54.0895 19.8165C52.3614 21.6677 50.8045 23.675 48.9886 25.4389C47.2869 25.5218 45.7994 25.5102 44.1028 25.4845C42.0284 23.4281 40.0093 20.9746 37.8804 18.887C31.2606 12.396 25.4329 7.88589 16.3252 5.97572C17.1789 2.04936 17.9646 -1.75393 19.2911 -5.59187C21.1017 -10.8301 23.5689 -15.9911 24.3231 -21.5427C25.1971 -27.9773 23.7589 -35.1596 22.6894 -41.5738C22.0622 -44.3454 21.1805 -47.0866 21.15 -49.9561C21.139 -50.9978 21.1797 -52.2396 21.3796 -53.2724C21.8482 -55.6934 22.422 -58.0296 22.7453 -60.4858C23.4243 -65.6428 23.3566 -70.762 23.3125 -75.9504C25.2815 -76.4008 27.1732 -76.7901 29.157 -77.2689Z" fill="#91364A"/>
<path d="M22.3957 -75.8472L22.75 -75.8633L22.8848 -75.6796C23.1583 -68.22 22.9052 -61.3872 21.0419 -54.1159C20.8989 -54.7236 20.797 -55.1129 20.593 -55.7038C20.6343 -55.1493 20.8232 -53.3561 20.8033 -52.861C20.7397 -51.2852 20.7282 -50.4457 20.8621 -48.8665C21.034 -46.8389 21.7356 -44.5476 21.7309 -42.6032C21.7291 -41.8477 21.2687 -39.5246 21.1152 -38.6513C20.7172 -36.3956 20.343 -34.1357 19.9929 -31.8718C19.3127 -27.3733 19.1253 -23.0138 18.5312 -18.5736C17.9254 -14.0448 16.0249 -9.02973 14.7173 -4.63194C12.4494 2.99681 9.00787 10.3423 7.79282 18.2677C7.19817 22.0129 9.848 23.8795 10.4054 27.2112C10.672 29.4302 10.3796 31.7717 10.299 34.0039C10.2417 35.5891 10.7386 40.2571 9.62732 41.1835C6.8416 41.03 8.75729 31.4996 6.3217 31.7762C4.63029 33.1926 6.57399 39.9086 7.23602 41.8C8.1791 44.1693 10.0825 45.0207 10.6291 47.382C10.704 47.7058 10.5632 47.808 10.3861 48.022C9.1008 48.0864 8.80101 46.5244 7.74986 45.945L8.2092 46.7383C8.01918 46.7042 7.9959 46.7061 7.82992 46.6001C4.09412 44.191 3.39991 42.6107 1.77966 38.6385C1.46341 37.8628 0.484558 35.8037 0.400148 35.0284C-0.109339 32.0513 1.04742 28.5524 1.00408 25.7064C0.887872 18.0849 2.32322 10.8819 3.15634 3.34461C3.69176 -1.49982 3.70292 -6.58867 4.56651 -11.396C5.7492 -17.9785 7.83522 -24.26 8.58204 -30.9508C9.23726 -36.8367 9.65987 -42.7465 9.84875 -48.6658C10.0232 -53.6524 9.92237 -58.6381 10.6629 -63.5864C11.9312 -72.06 14.348 -74.203 22.3957 -75.8472Z" fill="white"/>
<path d="M69.9025 -75.9883C73.9259 -75.2338 78.5662 -74.0281 80.3801 -69.9596C83.2652 -63.4882 82.7659 -55.4265 82.9998 -48.4415C83.2116 -41.9495 83.7008 -35.4694 84.4662 -29.0192C85.1167 -23.5915 87.12 -18.8601 87.8833 -13.636C89.4498 -2.91644 89.7405 8.03338 91.6123 18.7638C91.9353 20.616 91.5437 23.2513 91.783 25.2431C91.885 27.7724 92.9043 31.7604 92.59 34.1945C92.2423 36.8847 89.4464 43.0511 87.4794 44.8474C87.451 44.5992 87.4533 44.6009 87.3585 44.3705L86.8348 44.4748C86.3838 45.7117 84.9732 45.8291 84.8281 46.8534C84.691 46.8667 84.6431 46.8042 84.4758 46.7227L84.3907 46.4217C83.8089 46.6546 83.2426 46.4558 82.6527 46.3024C82.9207 45.6152 83.9561 44.3658 84.5063 43.8305C86.3643 42.0235 88.4126 33.826 86.5094 31.6234L86.2439 31.6616C85.0993 32.9366 85.1825 36.2887 84.8795 38.0014C84.7041 38.9937 84.5771 39.5685 84.283 40.5568C83.9325 40.9421 83.6872 41.2632 83.1751 41.0496C82.8272 40.4905 82.6635 39.6616 82.6145 39.0281C82.4901 37.4154 82.6379 35.5919 82.6219 33.9713C82.6067 32.4363 82.1864 28.3695 82.5528 26.952C83.455 23.4601 85.6025 22.1484 84.9986 18.0301C84.3112 13.3436 82.7778 8.94653 81.2266 4.49571C80.0525 1.13204 78.9025 -2.24034 77.7774 -5.62086C76.349 -9.96451 74.7057 -15.3002 74.0454 -19.8088C73.6125 -22.7637 73.7231 -25.9886 73.2172 -29.0929C72.4762 -33.6382 71.4989 -38.3595 71.1398 -42.9363C71.0106 -44.5836 71.9459 -47.1086 72.0536 -48.9205C72.2063 -51.4895 71.8552 -52.9243 72.3767 -55.5671L72.4064 -55.7137L72.3568 -55.7114C72.1516 -55.1745 72.0084 -54.5345 71.8634 -53.9718C69.7823 -60.0615 69.8551 -69.5803 69.9025 -75.9883Z" fill="white"/>
<path d="M84.3906 46.4233C88.6658 43.6644 89.5171 39.0991 90.9875 34.9141C91.4822 36.2464 88.3234 43.4809 86.8347 44.4764C86.3837 45.7134 84.9732 45.8307 84.828 46.855C84.691 46.8683 84.6431 46.8058 84.4758 46.7244L84.3906 46.4233Z" fill="#515053"/>
<path d="M84.2431 42.7812L84.4206 42.8735L84.4732 43.1645C84.2107 43.7669 83.6524 44.2997 83.1974 44.7918L83.014 44.7441C82.6132 43.9002 83.6123 43.1862 84.2431 42.7812Z" fill="white"/>
<path d="M8.14648 42.7734C9.54076 42.9385 9.92344 43.5525 10.0362 44.8542C9.27504 44.3901 8.65086 43.4863 8.14648 42.7734Z" fill="white"/>
<path d="M86.8346 44.4754L87.3583 44.3711C87.4531 44.6015 87.4508 44.5998 87.4792 44.848C86.8842 45.3109 85.4161 46.5037 84.8279 46.854C84.973 45.8297 86.3836 45.7123 86.8346 44.4754Z" fill="white" fill-opacity="0.956863"/>
<path d="M76.5 4L68.5 4" stroke="#75041D"/>
<path d="M72.5 132L72.5 6" stroke="#75041D" stroke-dasharray="3 3"/>
<path d="M76.5 134L68.5 134" stroke="#75041D"/>
</g>
<defs>
<clipPath id="clip0_1160_34577">
<rect width="93" height="137" fill="white"/>
</clipPath>
</defs>
</svg>
