<svg width="93" height="137" viewBox="0 0 93 137" fill="none" xmlns="http://www.w3.org/2000/svg">
<g clip-path="url(#clip0_1160_32724)">
<path d="M39.2563 -114.3C39.8286 -115.592 40.9515 -116.978 42.3262 -117.333C46.4894 -118.406 51.6437 -118.72 53.3703 -114.055C53.41 -113.948 53.4481 -113.84 53.4844 -113.732L52.582 -111.69C59.9969 -108.374 62.7069 -103.491 62.3465 -95.4231C62.3003 -94.3858 61.9436 -92.8261 62.042 -91.8557C62.4283 -91.8501 62.9998 -91.918 63.2362 -91.6202C63.761 -90.9591 63.8339 -89.5342 63.6967 -88.745C63.0988 -85.3088 62.3049 -81.5173 58.9404 -79.8769C57.8215 -76.7516 57.167 -75.1143 54.7835 -72.6219C54.6626 -68.7397 54.4544 -64.4401 57.2834 -61.3167C63.0892 -54.9075 75.0407 -58.4393 79.9045 -51.3444C83.7637 -45.715 83.127 -34.6991 83.3396 -28.0153C83.5584 -21.8352 84.0362 -15.6667 84.7721 -9.52671C85.0634 -7.17426 85.5477 -3.98005 86.2918 -1.73685C89.3452 7.46752 89.1328 17.0896 90.2924 26.5874C91.0741 32.9896 92.2594 38.9284 92.1513 45.4338C92.1093 47.9554 93.1743 51.2643 92.9752 53.8947C92.9619 55.7503 89.8586 63.2945 88.3343 64.5607C87.7357 65.0579 83.7683 68.5598 82.7251 68.4575C82.3269 68.4197 82.4175 68.4083 82.1382 68.166C81.887 67.4995 82.0257 66.5737 82.3367 65.9773C82.808 65.0715 82.6408 64.7657 82.4815 63.7341C83.4206 62.766 83.6581 62.6682 85.0475 62.4203C86.3558 59.2833 87.5968 54.9872 86.2487 51.7159C85.4544 54.365 85.6521 60.179 83.8578 61.514C81.7914 61.9192 82.1189 58.2675 82.2317 57.0071C82.5462 53.4926 81.7362 49.9981 82.2735 46.5021C82.4584 45.2981 83.3242 43.9627 83.8332 42.8756C84.7957 41.0616 84.9227 40.2967 84.6441 38.3142C83.7789 32.1554 81.4941 26.3946 79.4626 20.5519C77.7835 15.7288 76.2475 10.8571 74.8566 5.94302C73.9288 2.575 73.6262 -0.228249 73.3961 -3.70514C72.9742 -10.0773 71.4325 -16.2756 70.7237 -22.6349C69.8599 -17.8272 69.2547 -13.2429 68.7236 -8.40397C67.8523 -0.463585 70.8028 5.34019 73.2844 12.5789C76.4475 21.8052 78.3726 31.9364 78.5191 41.6964C78.5507 52.1739 75.9882 62.7193 73.736 72.886C72.6748 77.678 71.6539 82.3223 71.0301 87.2052C70.3125 92.8208 70.6925 98.6181 71.417 104.219C72.0718 109.283 72.9962 114.098 72.8052 119.27C72.4867 127.9 71.3012 136.5 70.363 145.071C69.633 151.739 67.8714 160.179 68.9704 166.772H68.6453H58.2237H57.9016C59.2533 158.055 58.0534 153.019 56.8752 144.434C56.0922 138.796 55.3496 133.154 54.6472 127.504C54.1016 123.101 53.9294 118.657 54.1319 114.223C54.2509 111.64 54.7511 108.382 54.5206 105.887C54.1622 102.011 52.3106 97.9365 51.8172 94.0344C51.2059 89.1988 52.1634 84.4352 51.7431 79.56C51.2226 73.524 50.3923 67.5374 49.6404 61.5308C48.9876 56.3157 48.2296 51.1388 48.7202 45.878L44.1704 45.843C44.9914 55.8783 41.9532 67.4976 41.2265 77.5739C40.7088 83.3295 41.6553 89.1098 40.9553 94.8542C40.4999 98.5878 38.6997 102.123 38.4137 105.877C38.1775 108.976 38.6294 112.206 38.7861 115.313C38.9603 119.183 38.8106 123.059 38.3382 126.902C37.4753 134.341 36.2482 141.761 35.3674 149.209C34.5908 155.774 33.7325 160.223 35.0256 166.772H34.6588H24.2811H23.8431C24.994 159.621 23.2996 150.83 22.3703 143.62C21.3491 135.699 20.2818 127.749 20.0631 119.755C19.7733 109.175 23.2661 98.798 21.9772 88.1954C20.0195 72.0908 14.3081 56.7773 14.4231 40.3705C14.4799 32.2832 16.0286 24.0138 18.4017 16.3017C22.1852 4.00521 25.3718 1.08495 23.7517 -12.4729C23.3793 -15.5901 22.9718 -18.9598 22.0367 -21.9556C21.0957 -17.8503 20.357 -12.9105 19.8982 -8.7336C19.3685 -3.90886 19.1603 0.915123 18.0088 5.66092C17.3154 8.51926 16.367 11.2846 15.4527 14.0771C14.2867 17.7524 13.0665 21.4101 11.7924 25.0492C10.2973 29.3761 8.6242 34.0105 8.06589 38.5798C7.66598 41.853 9.66627 43.2503 10.4858 45.9401L10.5181 46.0444C11.214 48.3372 10.5499 52.6207 10.6148 55.0769C10.6516 56.4637 10.993 60.9051 9.59416 61.549C7.30052 61.3513 7.32589 53.9788 6.61768 51.8316C5.54533 54.6312 6.42539 59.2286 7.62473 61.9034C7.73355 62.1445 7.85014 62.3821 7.9741 62.6157C8.54566 62.6399 9.0561 62.599 9.54287 62.8677C10.1619 63.6106 11.2822 67.5374 10.6693 68.3534C10.0393 68.5333 9.76582 68.3269 9.2077 68.0429C8.16734 67.5147 4.59316 64.531 4.011 63.8458C3.01606 62.6742 0.402386 56.9066 0.126066 55.5044C-0.283492 53.4257 0.416202 47.9253 0.645774 45.4876C0.85888 43.224 0.681164 39.8603 0.929473 37.8996C1.61857 32.4603 2.39453 27.0535 2.94471 21.5869C3.44322 16.6361 3.641 11.6658 4.4427 6.75677C4.9151 3.86416 5.80897 1.14593 6.53119 -1.67739C7.25113 -4.52267 7.79733 -7.40884 8.16695 -10.3204C8.82709 -15.5429 9.08638 -20.5852 9.40926 -25.9914C9.93843 -34.2444 8.76861 -43.7986 12.748 -51.3378C14.2723 -54.2255 18.682 -55.5139 21.6852 -56.0877C32.5343 -58.1607 38.9989 -59.2763 38.1438 -72.4737C35.6257 -75.2245 35.1049 -76.6236 33.7501 -80.0269C31.2625 -81.2816 30.887 -83.1039 29.9191 -85.6835C29.4939 -86.8171 28.3769 -90.8436 30.0416 -91.7971C30.0936 -91.8268 30.5884 -91.9097 30.6889 -91.9271C30.8329 -92.8778 30.4682 -94.72 30.4578 -95.7946C30.4071 -100.992 31.3199 -106.025 35.7837 -109.341C36.9418 -110.202 38.7061 -111.118 40.0637 -111.609C39.7063 -112.616 39.4826 -113.241 39.2563 -114.3ZM84.3905 66.4203C83.8088 66.6532 83.2425 66.4544 82.6526 66.3011C82.2886 66.9637 82.099 67.6794 82.7413 68.2417C83.6553 67.9975 83.9469 67.0262 84.4757 66.7214L84.3905 66.4203ZM84.8279 66.852C85.4161 66.5017 86.8842 65.309 87.4793 64.846C87.4509 64.5978 87.4531 64.5995 87.3583 64.3691L86.8346 64.4734C86.3836 65.7103 84.9731 65.8277 84.8279 66.852Z" fill="#5E5E5E"/>
<path d="M16.2873 26.3828C25.7789 28.2422 32.4467 33.8588 39.077 40.6641C40.5249 42.1502 42.7167 44.4172 43.8806 46.0358C44.0962 57.4027 41.9331 67.7649 40.8375 78.996C40.3515 83.9793 41.3915 89.237 40.7101 94.2373C40.2294 98.0655 38.458 101.729 38.1018 105.626C37.787 109.07 38.3383 112.4 38.4797 115.817C38.6192 119.186 38.4188 122.84 38.0713 126.196C37.4636 131.634 36.7648 137.062 35.9749 142.477C34.8416 150.384 33.0764 158.875 34.6588 166.77H24.2811C24.7001 161.208 24.4183 157.499 23.7557 151.944C22.3387 140.067 20.3804 128.094 20.398 116.12C20.4166 112.875 21.1485 109.45 21.5081 106.228C22.3845 100.419 22.9549 94.5194 22.4025 88.6501C20.4194 72.0381 14.1606 55.9629 14.7649 39.051C14.9169 34.7897 15.5397 30.5801 16.2873 26.3828Z" fill="white"/>
<path d="M37.1649 95.3086C37.3263 96.3613 36.2063 98.8661 35.7572 99.9188C35.623 99.4493 36.9134 96.0205 37.1649 95.3086Z" fill="#515053"/>
<path d="M26.5541 94.1484C27.0804 94.8925 27.4351 97.386 27.5649 98.363C26.967 97.4106 26.6784 95.2655 26.5541 94.1484Z" fill="#515053"/>
<path d="M49.0283 46.0242C56.6844 37.6495 64.6119 28.39 76.509 26.3359C79.7771 42.7654 77.4106 55.9972 73.583 71.9651C71.1416 82.1511 69.3275 92.2387 70.8677 102.673C71.6923 108.256 72.6481 114.01 72.4937 119.663C72.0709 128.308 70.9563 137.031 69.9727 145.627C69.1733 152.615 67.7096 159.728 68.6453 166.773H58.2237C59.7101 158.842 58.173 151.149 57.077 143.249C56.3031 137.703 55.5854 132.152 54.9243 126.591C54.4669 122.68 54.306 118.738 54.4428 114.801C54.566 111.882 55.0685 108.341 54.7958 105.479C54.4402 101.749 52.6704 97.9244 52.1935 94.1548C51.5935 89.4139 52.4919 84.4705 52.0886 79.7372C51.5996 73.9966 50.8675 68.1444 50.1118 62.4317C49.3222 56.4613 48.681 52.0551 49.0283 46.0242Z" fill="white"/>
<path d="M66.284 94.0586L66.3573 94.1438C66.4814 95.0905 65.9171 97.0709 65.6744 98.0497L65.591 97.9456C65.5196 97.0008 66.044 95.0507 66.284 94.0586Z" fill="#5E5E5E"/>
<path d="M29.1571 -57.2689L29.4907 -57.3083C29.7697 -56.9753 29.7067 -56.1606 29.7487 -55.6812C29.8433 -54.5952 30.0479 -53.5217 30.3594 -52.4771C30.8492 -50.7769 31.657 -49.1852 32.7399 -47.7864C38.0954 -40.9313 51.1222 -40.3199 57.8956 -45.4792C61.8078 -48.4591 62.7999 -52.7937 63.3614 -57.4102C65.3098 -56.7623 67.4751 -56.3393 69.5086 -56.0792C69.3623 -51.1113 69.3831 -45.5845 70.0565 -40.6903C70.5332 -37.2244 71.6826 -33.8649 71.7235 -30.2744C71.7581 -27.2074 70.8118 -24.7733 70.2762 -21.8518C69.49 -17.855 69.0721 -13.4899 68.5 -9.51319C67.2202 -0.614784 70.6513 6.15136 73.5508 14.2894C74.7817 17.744 75.625 22.2504 76.5172 25.9909C71.6676 26.742 68.5104 28.3301 64.4241 30.9504C60.683 33.5416 57.2197 36.5128 54.0896 39.8165C52.3614 41.6677 50.8046 43.675 48.9886 45.4389C47.287 45.5218 45.7994 45.5102 44.1029 45.4845C42.0284 43.4281 40.0094 40.9746 37.8804 38.887C31.2607 32.396 25.433 27.8859 16.3253 25.9757C17.179 22.0494 17.9646 18.2461 19.2911 14.4081C21.1018 9.16988 23.569 4.00889 24.3232 -1.5427C25.1972 -7.97733 23.759 -15.1596 22.6895 -21.5738C22.0623 -24.3454 21.1805 -27.0866 21.1501 -29.9561C21.1391 -30.9978 21.1798 -32.2396 21.3796 -33.2724C21.8482 -35.6934 22.4221 -38.0296 22.7453 -40.4858C23.4244 -45.6428 23.3566 -50.762 23.3125 -55.9504C25.2816 -56.4008 27.1732 -56.7901 29.1571 -57.2689Z" fill="#91364A"/>
<path d="M22.3957 -55.8472L22.75 -55.8633L22.8848 -55.6796C23.1583 -48.22 22.9052 -41.3872 21.0419 -34.1159C20.8989 -34.7236 20.797 -35.1129 20.593 -35.7038C20.6343 -35.1493 20.8232 -33.3561 20.8033 -32.861C20.7397 -31.2852 20.7282 -30.4457 20.8621 -28.8665C21.034 -26.8389 21.7356 -24.5476 21.7309 -22.6032C21.7291 -21.8477 21.2687 -19.5246 21.1152 -18.6513C20.7172 -16.3956 20.343 -14.1357 19.9929 -11.8718C19.3127 -7.37333 19.1253 -3.01378 18.5312 1.42643C17.9254 5.95525 16.0249 10.9703 14.7173 15.3681C12.4494 22.9968 9.00787 30.3423 7.79282 38.2677C7.19817 42.0129 9.848 43.8795 10.4054 47.2112C10.672 49.4302 10.3796 51.7717 10.299 54.0039C10.2417 55.5891 10.7386 60.2571 9.62732 61.1835C6.8416 61.03 8.75729 51.4996 6.3217 51.7762C4.63029 53.1926 6.57399 59.9086 7.23602 61.8C8.1791 64.1693 10.0825 65.0207 10.6291 67.382C10.704 67.7058 10.5632 67.808 10.3861 68.022C9.1008 68.0864 8.80101 66.5244 7.74986 65.945L8.2092 66.7383C8.01918 66.7042 7.9959 66.7061 7.82992 66.6001C4.09412 64.191 3.39991 62.6107 1.77966 58.6385C1.46341 57.8628 0.484558 55.8037 0.400148 55.0284C-0.109339 52.0513 1.04742 48.5524 1.00408 45.7064C0.887872 38.0849 2.32322 30.8819 3.15634 23.3446C3.69176 18.5002 3.70292 13.4113 4.56651 8.604C5.7492 2.02151 7.83522 -4.25996 8.58204 -10.9508C9.23726 -16.8367 9.65987 -22.7465 9.84875 -28.6658C10.0232 -33.6524 9.92237 -38.6381 10.6629 -43.5864C11.9312 -52.06 14.348 -54.203 22.3957 -55.8472Z" fill="white"/>
<path d="M69.9023 -55.9883C73.9258 -55.2338 78.5661 -54.0281 80.38 -49.9596C83.265 -43.4882 82.7658 -35.4265 82.9997 -28.4415C83.2115 -21.9495 83.7007 -15.4694 84.4661 -9.01924C85.1165 -3.59147 87.1199 1.13993 87.8832 6.36397C89.4497 17.0836 89.7404 28.0334 91.6121 38.7638C91.9352 40.616 91.5436 43.2513 91.7829 45.2431C91.8849 47.7724 92.9042 51.7604 92.5898 54.1945C92.2422 56.8847 89.4462 63.0511 87.4793 64.8474C87.4509 64.5992 87.4532 64.6009 87.3583 64.3705L86.8347 64.4748C86.3836 65.7117 84.9731 65.8291 84.8279 66.8534C84.6909 66.8667 84.643 66.8042 84.4757 66.7227L84.3906 66.4217C83.8088 66.6546 83.2425 66.4558 82.6526 66.3024C82.9206 65.6152 83.956 64.3658 84.5062 63.8305C86.3642 62.0235 88.4125 53.826 86.5093 51.6234L86.2438 51.6616C85.0991 52.9366 85.1824 56.2887 84.8794 58.0014C84.704 58.9937 84.577 59.5685 84.2829 60.5568C83.9324 60.9421 83.6871 61.2632 83.1749 61.0496C82.8271 60.4905 82.6634 59.6616 82.6143 59.0281C82.49 57.4154 82.6378 55.5919 82.6217 53.9713C82.6066 52.4363 82.1862 48.3695 82.5527 46.952C83.4549 43.4601 85.6024 42.1484 84.9985 38.0301C84.3111 33.3436 82.7777 28.9465 81.2265 24.4957C80.0523 21.132 78.9024 17.7597 77.7773 14.3791C76.3489 10.0355 74.7056 4.69975 74.0452 0.191193C73.6124 -2.76371 73.7229 -5.9886 73.217 -9.09288C72.4761 -13.6382 71.4988 -18.3595 71.1397 -22.9363C71.0105 -24.5836 71.9458 -27.1086 72.0535 -28.9205C72.2062 -31.4895 71.8551 -32.9243 72.3765 -35.5671L72.4063 -35.7137L72.3567 -35.7114C72.1515 -35.1745 72.0082 -34.5345 71.8633 -33.9718C69.7822 -40.0615 69.855 -49.5803 69.9023 -55.9883Z" fill="white"/>
<path d="M84.3906 66.4233C88.6658 63.6644 89.5171 59.0991 90.9875 54.9141C91.4822 56.2464 88.3234 63.4809 86.8347 64.4764C86.3837 65.7134 84.9732 65.8307 84.828 66.855C84.691 66.8683 84.6431 66.8058 84.4758 66.7244L84.3906 66.4233Z" fill="#515053"/>
<path d="M84.2429 62.7812L84.4205 62.8735L84.4731 63.1645C84.2106 63.7669 83.6523 64.2997 83.1973 64.7918L83.0139 64.7441C82.613 63.9002 83.6121 63.1862 84.2429 62.7812Z" fill="white"/>
<path d="M8.14648 62.7734C9.54076 62.9385 9.92344 63.5525 10.0362 64.8542C9.27504 64.3901 8.65086 63.4863 8.14648 62.7734Z" fill="white"/>
<path d="M86.8346 64.4754L87.3583 64.3711C87.4531 64.6015 87.4508 64.5998 87.4792 64.848C86.8842 65.3109 85.4161 66.5037 84.8279 66.854C84.973 65.8297 86.3836 65.7123 86.8346 64.4754Z" fill="white" fill-opacity="0.956863"/>
<path d="M14 20L14 28" stroke="#75041D"/>
<path d="M78 24H16" stroke="#75041D" stroke-dasharray="3 3"/>
<path d="M80 20L80 28" stroke="#75041D"/>
</g>
<defs>
<clipPath id="clip0_1160_32724">
<rect width="93" height="137" fill="white"/>
</clipPath>
</defs>
</svg>
