<svg width="93" height="137" viewBox="0 0 93 137" fill="none" xmlns="http://www.w3.org/2000/svg">
<g clip-path="url(#clip0_1160_35637)">
<path d="M39.2563 -127.3C39.8286 -128.592 40.9515 -129.978 42.3262 -130.333C46.4894 -131.406 51.6437 -131.72 53.3703 -127.055C53.41 -126.948 53.4481 -126.84 53.4844 -126.732L52.582 -124.69C59.9969 -121.374 62.7069 -116.491 62.3465 -108.423C62.3003 -107.386 61.9436 -105.826 62.042 -104.856C62.4283 -104.85 62.9998 -104.918 63.2362 -104.62C63.761 -103.959 63.8339 -102.534 63.6967 -101.745C63.0988 -98.3088 62.3049 -94.5173 58.9404 -92.8769C57.8215 -89.7516 57.167 -88.1143 54.7835 -85.6219C54.6626 -81.7397 54.4544 -77.4401 57.2834 -74.3167C63.0892 -67.9075 75.0407 -71.4393 79.9045 -64.3444C83.7637 -58.715 83.127 -47.6991 83.3396 -41.0153C83.5584 -34.8352 84.0362 -28.6667 84.7721 -22.5267C85.0634 -20.1743 85.5477 -16.98 86.2918 -14.7368C89.3452 -5.53248 89.1328 4.08955 90.2924 13.5874C91.0741 19.9896 92.2594 25.9284 92.1513 32.4338C92.1093 34.9554 93.1743 38.2643 92.9752 40.8947C92.9619 42.7503 89.8586 50.2945 88.3343 51.5607C87.7357 52.0579 83.7683 55.5598 82.7251 55.4575C82.3269 55.4197 82.4175 55.4083 82.1382 55.166C81.887 54.4995 82.0257 53.5737 82.3367 52.9773C82.808 52.0715 82.6408 51.7657 82.4815 50.7341C83.4206 49.766 83.6581 49.6682 85.0475 49.4203C86.3558 46.2833 87.5968 41.9872 86.2487 38.7159C85.4544 41.365 85.6521 47.179 83.8578 48.514C81.7914 48.9192 82.1189 45.2675 82.2317 44.0071C82.5462 40.4926 81.7362 36.9981 82.2735 33.5021C82.4584 32.2981 83.3242 30.9627 83.8332 29.8756C84.7957 28.0616 84.9227 27.2967 84.6441 25.3142C83.7789 19.1554 81.4941 13.3946 79.4626 7.55186C77.7835 2.72882 76.2475 -2.14287 74.8566 -7.05698C73.9288 -10.425 73.6262 -13.2282 73.3961 -16.7051C72.9742 -23.0773 71.4325 -29.2756 70.7237 -35.6349C69.8599 -30.8272 69.2547 -26.2429 68.7236 -21.404C67.8523 -13.4636 70.8028 -7.65981 73.2844 -0.421097C76.4475 8.80524 78.3726 18.9364 78.5191 28.6964C78.5507 39.1739 75.9882 49.7193 73.736 59.886C72.6748 64.678 71.6539 69.3223 71.0301 74.2052C70.3125 79.8208 70.6925 85.6181 71.417 91.2185C72.0718 96.2831 72.9962 101.098 72.8052 106.27C72.4867 114.9 71.3012 123.5 70.363 132.071C69.633 138.739 67.8714 147.179 68.9704 153.772H68.6453H58.2237H57.9016C59.2533 145.055 58.0534 140.019 56.8752 131.434C56.0922 125.796 55.3496 120.154 54.6472 114.504C54.1016 110.101 53.9294 105.657 54.1319 101.223C54.2509 98.6403 54.7511 95.3819 54.5206 92.8866C54.1622 89.0109 52.3106 84.9365 51.8172 81.0344C51.2059 76.1988 52.1634 71.4352 51.7431 66.56C51.2226 60.524 50.3923 54.5374 49.6404 48.5308C48.9876 43.3157 48.2296 38.1388 48.7202 32.878L44.1704 32.843C44.9914 42.8783 41.9532 54.4976 41.2265 64.5739C40.7088 70.3295 41.6553 76.1098 40.9553 81.8542C40.4999 85.5878 38.6997 89.1226 38.4137 92.8771C38.1775 95.9764 38.6294 99.2064 38.7861 102.313C38.9603 106.183 38.8106 110.059 38.3382 113.902C37.4753 121.341 36.2482 128.761 35.3674 136.209C34.5908 142.774 33.7325 147.223 35.0256 153.772H34.6588H24.2811H23.8431C24.994 146.621 23.2996 137.83 22.3703 130.62C21.3491 122.699 20.2818 114.749 20.0631 106.755C19.7733 96.1752 23.2661 85.798 21.9772 75.1954C20.0195 59.0908 14.3081 43.7773 14.4231 27.3705C14.4799 19.2832 16.0286 11.0138 18.4017 3.30174C22.1852 -8.99479 25.3718 -11.915 23.7517 -25.4729C23.3793 -28.5901 22.9718 -31.9598 22.0367 -34.9556C21.0957 -30.8503 20.357 -25.9105 19.8982 -21.7336C19.3685 -16.9089 19.1603 -12.0849 18.0088 -7.33908C17.3154 -4.48074 16.367 -1.71536 15.4527 1.0771C14.2867 4.75241 13.0665 8.4101 11.7924 12.0492C10.2973 16.3761 8.6242 21.0105 8.06589 25.5798C7.66598 28.853 9.66627 30.2503 10.4858 32.9401L10.5181 33.0444C11.214 35.3372 10.5499 39.6207 10.6148 42.0769C10.6516 43.4637 10.993 47.9051 9.59416 48.549C7.30052 48.3513 7.32589 40.9788 6.61768 38.8316C5.54533 41.6312 6.42539 46.2286 7.62473 48.9034C7.73355 49.1445 7.85014 49.3821 7.9741 49.6157C8.54566 49.6399 9.0561 49.599 9.54287 49.8677C10.1619 50.6106 11.2822 54.5374 10.6693 55.3534C10.0393 55.5333 9.76582 55.3269 9.2077 55.0429C8.16734 54.5147 4.59316 51.531 4.011 50.8458C3.01606 49.6742 0.402386 43.9066 0.126066 42.5044C-0.283492 40.4257 0.416202 34.9253 0.645774 32.4876C0.85888 30.224 0.681164 26.8603 0.929473 24.8996C1.61857 19.4603 2.39453 14.0535 2.94471 8.58694C3.44322 3.63611 3.641 -1.33423 4.4427 -6.24323C4.9151 -9.13584 5.80897 -11.8541 6.53119 -14.6774C7.25113 -17.5227 7.79733 -20.4088 8.16695 -23.3204C8.82709 -28.5429 9.08638 -33.5852 9.40926 -38.9914C9.93843 -47.2444 8.76861 -56.7986 12.748 -64.3378C14.2723 -67.2255 18.682 -68.5139 21.6852 -69.0877C32.5343 -71.1607 38.9989 -72.2763 38.1438 -85.4737C35.6257 -88.2245 35.1049 -89.6236 33.7501 -93.0269C31.2625 -94.2816 30.887 -96.1039 29.9191 -98.6835C29.4939 -99.8171 28.3769 -103.844 30.0416 -104.797C30.0936 -104.827 30.5884 -104.91 30.6889 -104.927C30.8329 -105.878 30.4682 -107.72 30.4578 -108.795C30.4071 -113.992 31.3199 -119.025 35.7837 -122.341C36.9418 -123.202 38.7061 -124.118 40.0637 -124.609C39.7063 -125.616 39.4826 -126.241 39.2563 -127.3ZM84.3905 53.4203C83.8088 53.6532 83.2425 53.4544 82.6526 53.3011C82.2886 53.9637 82.099 54.6794 82.7413 55.2417C83.6553 54.9975 83.9469 54.0262 84.4757 53.7214L84.3905 53.4203ZM84.8279 53.852C85.4161 53.5017 86.8842 52.309 87.4793 51.846C87.4509 51.5978 87.4531 51.5995 87.3583 51.3691L86.8346 51.4734C86.3836 52.7103 84.9731 52.8277 84.8279 53.852Z" fill="#5E5E5E"/>
<path d="M16.2874 13.3828C25.779 15.2422 32.4468 20.8588 39.0771 27.6641C40.525 29.1502 42.7168 31.4172 43.8808 33.0358C44.0963 44.4027 41.9333 54.7649 40.8376 65.996C40.3516 70.9793 41.3916 76.237 40.7103 81.2373C40.2296 85.0655 38.4581 88.7291 38.1019 92.6256C37.7872 96.0695 38.3385 99.3998 38.4798 102.817C38.6193 106.186 38.4189 109.84 38.0714 113.196C37.4637 118.634 36.765 124.062 35.975 129.477C34.8417 137.384 33.0765 145.875 34.6589 153.77H24.2812C24.7002 148.208 24.4184 144.499 23.7558 138.944C22.3388 127.067 20.3806 115.094 20.3982 103.12C20.4167 99.8751 21.1486 96.4501 21.5082 93.2276C22.3846 87.4189 22.9551 81.5194 22.4026 75.6501C20.4195 59.0381 14.1607 42.9629 14.765 26.051C14.917 21.7897 15.5399 17.5801 16.2874 13.3828Z" fill="white"/>
<path d="M37.165 82.3086C37.3265 83.3613 36.2064 85.8661 35.7573 86.9188C35.6231 86.4493 36.9135 83.0205 37.165 82.3086Z" fill="#515053"/>
<path d="M26.5542 81.1484C27.0805 81.8925 27.4352 84.386 27.565 85.363C26.9672 84.4106 26.6785 82.2655 26.5542 81.1484Z" fill="#515053"/>
<path d="M49.0283 33.0242C56.6844 24.6495 64.6119 15.39 76.509 13.3359C79.7771 29.7654 77.4106 42.9972 73.583 58.9651C71.1416 69.1511 69.3275 79.2387 70.8677 89.6728C71.6923 95.2562 72.6481 101.01 72.4937 106.663C72.0709 115.308 70.9563 124.031 69.9727 132.627C69.1733 139.615 67.7096 146.728 68.6453 153.773H58.2237C59.7101 145.842 58.173 138.149 57.077 130.249C56.3031 124.703 55.5854 119.152 54.9243 113.591C54.4669 109.68 54.306 105.738 54.4428 101.801C54.566 98.8819 55.0685 95.3414 54.7958 92.4787C54.4402 88.7489 52.6704 84.9244 52.1935 81.1548C51.5935 76.4139 52.4919 71.4705 52.0886 66.7372C51.5996 60.9966 50.8675 55.1444 50.1118 49.4317C49.3222 43.4613 48.681 39.0551 49.0283 33.0242Z" fill="white"/>
<path d="M66.2842 81.0586L66.3574 81.1438C66.4816 82.0905 65.9172 84.0709 65.6745 85.0497L65.5911 84.9456C65.5197 84.0008 66.0442 82.0507 66.2842 81.0586Z" fill="#5E5E5E"/>
<path d="M29.157 -70.2689L29.4907 -70.3083C29.7696 -69.9753 29.7066 -69.1606 29.7486 -68.6812C29.8433 -67.5952 30.0478 -66.5217 30.3594 -65.4771C30.8492 -63.7769 31.6569 -62.1852 32.7399 -60.7864C38.0954 -53.9313 51.1221 -53.3199 57.8955 -58.4792C61.8077 -61.4591 62.7998 -65.7937 63.3613 -70.4102C65.3098 -69.7623 67.4751 -69.3393 69.5085 -69.0792C69.3622 -64.1113 69.383 -58.5845 70.0564 -53.6903C70.5331 -50.2244 71.6825 -46.8649 71.7234 -43.2744C71.758 -40.2074 70.8117 -37.7733 70.2761 -34.8518C69.4899 -30.855 69.0721 -26.4899 68.4999 -22.5132C67.2202 -13.6148 70.6512 -6.84864 73.5507 1.28941C74.7817 4.74396 75.625 9.25043 76.5172 12.9909C71.6676 13.742 68.5103 15.3301 64.424 17.9504C60.6829 20.5416 57.2197 23.5128 54.0895 26.8165C52.3614 28.6677 50.8045 30.675 48.9886 32.4389C47.2869 32.5218 45.7994 32.5102 44.1028 32.4845C42.0284 30.4281 40.0093 27.9746 37.8804 25.887C31.2606 19.396 25.4329 14.8859 16.3252 12.9757C17.1789 9.04936 17.9646 5.24607 19.2911 1.40813C21.1017 -3.83012 23.5689 -8.99111 24.3231 -14.5427C25.1971 -20.9773 23.7589 -28.1596 22.6894 -34.5738C22.0622 -37.3454 21.1805 -40.0866 21.15 -42.9561C21.139 -43.9978 21.1797 -45.2396 21.3796 -46.2724C21.8482 -48.6934 22.422 -51.0296 22.7453 -53.4858C23.4243 -58.6428 23.3566 -63.762 23.3125 -68.9504C25.2815 -69.4008 27.1732 -69.7901 29.157 -70.2689Z" fill="#91364A"/>
<path d="M22.396 -68.8472L22.7503 -68.8633L22.885 -68.6796C23.1585 -61.22 22.9055 -54.3872 21.0422 -47.1159C20.8991 -47.7236 20.7973 -48.1129 20.5933 -48.7038C20.6345 -48.1493 20.8234 -46.3561 20.8035 -45.861C20.7399 -44.2852 20.7284 -43.4457 20.8624 -41.8665C21.0342 -39.8389 21.7358 -37.5476 21.7311 -35.6032C21.7294 -34.8477 21.2689 -32.5246 21.1154 -31.6513C20.7174 -29.3956 20.3433 -27.1357 19.9931 -24.8718C19.3129 -20.3733 19.1256 -16.0138 18.5315 -11.5736C17.9257 -7.04475 16.0251 -2.02973 14.7175 2.36806C12.4496 9.99681 9.00811 17.3423 7.79307 25.2677C7.19841 29.0129 9.84824 30.8795 10.4056 34.2112C10.6723 36.4302 10.3799 38.7717 10.2992 41.0039C10.2419 42.5891 10.7389 47.2571 9.62756 48.1835C6.84185 48.03 8.75753 38.4996 6.32195 38.7762C4.63053 40.1926 6.57424 46.9086 7.23627 48.8C8.17935 51.1693 10.0827 52.0207 10.6293 54.382C10.7043 54.7058 10.5634 54.808 10.3863 55.022C9.10104 55.0864 8.80126 53.5244 7.75011 52.945L8.20944 53.7383C8.01942 53.7042 7.99614 53.7061 7.83016 53.6001C4.09437 51.191 3.40016 49.6107 1.77991 45.6385C1.46365 44.8628 0.484802 42.8037 0.400393 42.0284C-0.109095 39.0513 1.04766 35.5524 1.00432 32.7064C0.888117 25.0849 2.32346 17.8819 3.15658 10.3446C3.692 5.50018 3.70316 0.411331 4.56676 -4.396C5.74944 -10.9785 7.83546 -17.26 8.58228 -23.9508C9.2375 -29.8367 9.66011 -35.7465 9.849 -41.6658C10.0235 -46.6524 9.92262 -51.6381 10.6632 -56.5864C11.9314 -65.06 14.3483 -67.203 22.396 -68.8472Z" fill="white"/>
<path d="M69.9025 -68.9883C73.9259 -68.2338 78.5662 -67.0281 80.3801 -62.9596C83.2652 -56.4882 82.7659 -48.4265 82.9998 -41.4415C83.2116 -34.9495 83.7008 -28.4694 84.4662 -22.0192C85.1167 -16.5915 87.12 -11.8601 87.8833 -6.63603C89.4498 4.08356 89.7405 15.0334 91.6123 25.7638C91.9353 27.616 91.5437 30.2513 91.783 32.2431C91.885 34.7724 92.9043 38.7604 92.59 41.1945C92.2423 43.8847 89.4464 50.0511 87.4794 51.8474C87.451 51.5992 87.4533 51.6009 87.3585 51.3705L86.8348 51.4748C86.3838 52.7117 84.9732 52.8291 84.8281 53.8534C84.691 53.8667 84.6431 53.8042 84.4758 53.7227L84.3907 53.4217C83.8089 53.6546 83.2426 53.4558 82.6527 53.3024C82.9207 52.6152 83.9561 51.3658 84.5063 50.8305C86.3643 49.0235 88.4126 40.826 86.5094 38.6234L86.2439 38.6616C85.0993 39.9366 85.1825 43.2887 84.8795 45.0014C84.7041 45.9937 84.5771 46.5685 84.283 47.5568C83.9325 47.9421 83.6872 48.2632 83.1751 48.0496C82.8272 47.4905 82.6635 46.6616 82.6145 46.0281C82.4901 44.4154 82.6379 42.5919 82.6219 40.9713C82.6067 39.4363 82.1864 35.3695 82.5528 33.952C83.455 30.4601 85.6025 29.1484 84.9986 25.0301C84.3112 20.3436 82.7778 15.9465 81.2266 11.4957C80.0525 8.13204 78.9025 4.75966 77.7774 1.37914C76.349 -2.96451 74.7057 -8.30025 74.0454 -12.8088C73.6125 -15.7637 73.7231 -18.9886 73.2172 -22.0929C72.4762 -26.6382 71.4989 -31.3595 71.1398 -35.9363C71.0106 -37.5836 71.9459 -40.1086 72.0536 -41.9205C72.2063 -44.4895 71.8552 -45.9243 72.3767 -48.5671L72.4064 -48.7137L72.3568 -48.7114C72.1516 -48.1745 72.0084 -47.5345 71.8634 -46.9718C69.7823 -53.0615 69.8551 -62.5803 69.9025 -68.9883Z" fill="white"/>
<path d="M84.3906 53.4233C88.6658 50.6644 89.5171 46.0991 90.9875 41.9141C91.4822 43.2464 88.3234 50.4809 86.8347 51.4764C86.3837 52.7134 84.9732 52.8307 84.828 53.855C84.691 53.8683 84.6431 53.8058 84.4758 53.7244L84.3906 53.4233Z" fill="#515053"/>
<path d="M84.2431 49.7812L84.4206 49.8735L84.4732 50.1645C84.2107 50.7669 83.6524 51.2997 83.1974 51.7918L83.014 51.7441C82.6132 50.9002 83.6123 50.1862 84.2431 49.7812Z" fill="white"/>
<path d="M8.14648 49.7734C9.54076 49.9385 9.92344 50.5525 10.0362 51.8542C9.27504 51.3901 8.65086 50.4863 8.14648 49.7734Z" fill="white"/>
<path d="M86.8348 51.4754L87.3585 51.3711C87.4533 51.6015 87.4511 51.5998 87.4795 51.848C86.8844 52.3109 85.4163 53.5037 84.8281 53.854C84.9733 52.8297 86.3838 52.7123 86.8348 51.4754Z" fill="white" fill-opacity="0.956863"/>
<path d="M76.5 1L68.5 1" stroke="#75041D"/>
<path d="M72.5 135L72.5 2.99999" stroke="#75041D" stroke-dasharray="3 3"/>
<path d="M76.5 137L68.5 137" stroke="#75041D"/>
</g>
<defs>
<clipPath id="clip0_1160_35637">
<rect width="93" height="137" fill="white"/>
</clipPath>
</defs>
</svg>
