<svg width="93" height="137" viewBox="0 0 93 137" fill="none" xmlns="http://www.w3.org/2000/svg">
<g clip-path="url(#clip0_1160_35372)">
<path d="M39.2563 -82.2999C39.8286 -83.5922 40.9515 -84.9779 42.3262 -85.3325C46.4894 -86.4065 51.6437 -86.7196 53.3703 -82.0553C53.41 -81.9482 53.4481 -81.8405 53.4844 -81.7322L52.582 -79.6897C59.9969 -76.3741 62.7069 -71.4911 62.3465 -63.4231C62.3003 -62.3858 61.9436 -60.8261 62.042 -59.8557C62.4283 -59.8501 62.9998 -59.918 63.2362 -59.6202C63.761 -58.9591 63.8339 -57.5342 63.6967 -56.745C63.0988 -53.3088 62.3049 -49.5173 58.9404 -47.8769C57.8215 -44.7516 57.167 -43.1143 54.7835 -40.6219C54.6626 -36.7397 54.4544 -32.4401 57.2834 -29.3167C63.0892 -22.9075 75.0407 -26.4393 79.9045 -19.3444C83.7637 -13.715 83.127 -2.69913 83.3396 3.98466C83.5584 10.1648 84.0362 16.3333 84.7721 22.4733C85.0634 24.8257 85.5477 28.02 86.2918 30.2632C89.3452 39.4675 89.1328 49.0896 90.2924 58.5874C91.0741 64.9896 92.2594 70.9284 92.1513 77.4338C92.1093 79.9554 93.1743 83.2643 92.9752 85.8947C92.9619 87.7503 89.8586 95.2945 88.3343 96.5607C87.7357 97.0579 83.7683 100.56 82.7251 100.458C82.3269 100.42 82.4175 100.408 82.1382 100.166C81.887 99.4995 82.0257 98.5737 82.3367 97.9773C82.808 97.0715 82.6408 96.7657 82.4815 95.7341C83.4206 94.766 83.6581 94.6682 85.0475 94.4203C86.3558 91.2833 87.5968 86.9872 86.2487 83.7159C85.4544 86.365 85.6521 92.179 83.8578 93.514C81.7914 93.9192 82.1189 90.2675 82.2317 89.0071C82.5462 85.4926 81.7362 81.9981 82.2735 78.5021C82.4584 77.2981 83.3242 75.9627 83.8332 74.8756C84.7957 73.0616 84.9227 72.2967 84.6441 70.3142C83.7789 64.1554 81.4941 58.3946 79.4626 52.5519C77.7835 47.7288 76.2475 42.8571 74.8566 37.943C73.9288 34.575 73.6262 31.7718 73.3961 28.2949C72.9742 21.9227 71.4325 15.7244 70.7237 9.3651C69.8599 14.1728 69.2547 18.7571 68.7236 23.596C67.8523 31.5364 70.8028 37.3402 73.2844 44.5789C76.4475 53.8052 78.3726 63.9364 78.5191 73.6964C78.5507 84.1739 75.9882 94.7193 73.736 104.886C72.6748 109.678 71.6539 114.322 71.0301 119.205C70.3125 124.821 70.6925 130.618 71.417 136.219C72.0718 141.283 72.9962 146.098 72.8052 151.27C72.4867 159.9 71.3012 168.5 70.363 177.071C69.633 183.739 67.8714 192.179 68.9704 198.772H68.6453H58.2237H57.9016C59.2533 190.055 58.0534 185.019 56.8752 176.434C56.0922 170.796 55.3496 165.154 54.6472 159.504C54.1016 155.101 53.9294 150.657 54.1319 146.223C54.2509 143.64 54.7511 140.382 54.5206 137.887C54.1622 134.011 52.3106 129.936 51.8172 126.034C51.2059 121.199 52.1634 116.435 51.7431 111.56C51.2226 105.524 50.3923 99.5374 49.6404 93.5308C48.9876 88.3157 48.2296 83.1388 48.7202 77.878L44.1704 77.843C44.9914 87.8783 41.9532 99.4976 41.2265 109.574C40.7088 115.33 41.6553 121.11 40.9553 126.854C40.4999 130.588 38.6997 134.123 38.4137 137.877C38.1775 140.976 38.6294 144.206 38.7861 147.313C38.9603 151.183 38.8106 155.059 38.3382 158.902C37.4753 166.341 36.2482 173.761 35.3674 181.209C34.5908 187.774 33.7325 192.223 35.0256 198.772H34.6588H24.2811H23.8431C24.994 191.621 23.2996 182.83 22.3703 175.62C21.3491 167.699 20.2818 159.749 20.0631 151.755C19.7733 141.175 23.2661 130.798 21.9772 120.195C20.0195 104.091 14.3081 88.7773 14.4231 72.3705C14.4799 64.2832 16.0286 56.0138 18.4017 48.3017C22.1852 36.0052 25.3718 33.085 23.7517 19.5271C23.3793 16.4099 22.9718 13.0402 22.0367 10.0444C21.0957 14.1497 20.357 19.0895 19.8982 23.2664C19.3685 28.0911 19.1603 32.9151 18.0088 37.6609C17.3154 40.5193 16.367 43.2846 15.4527 46.0771C14.2867 49.7524 13.0665 53.4101 11.7924 57.0492C10.2973 61.3761 8.6242 66.0105 8.06589 70.5798C7.66598 73.853 9.66627 75.2503 10.4858 77.9401L10.5181 78.0444C11.214 80.3372 10.5499 84.6207 10.6148 87.0769C10.6516 88.4637 10.993 92.9051 9.59416 93.549C7.30052 93.3513 7.32589 85.9788 6.61768 83.8316C5.54533 86.6312 6.42539 91.2286 7.62473 93.9034C7.73355 94.1445 7.85014 94.3821 7.9741 94.6157C8.54566 94.6399 9.0561 94.599 9.54287 94.8677C10.1619 95.6106 11.2822 99.5374 10.6693 100.353C10.0393 100.533 9.76582 100.327 9.2077 100.043C8.16734 99.5147 4.59316 96.531 4.011 95.8458C3.01606 94.6742 0.402386 88.9066 0.126066 87.5044C-0.283492 85.4257 0.416202 79.9253 0.645774 77.4876C0.85888 75.224 0.681164 71.8603 0.929473 69.8996C1.61857 64.4603 2.39453 59.0535 2.94471 53.5869C3.44322 48.6361 3.641 43.6658 4.4427 38.7568C4.9151 35.8642 5.80897 33.1459 6.53119 30.3226C7.25113 27.4773 7.79733 24.5912 8.16695 21.6796C8.82709 16.4571 9.08638 11.4148 9.40926 6.00861C9.93843 -2.24436 8.76861 -11.7986 12.748 -19.3378C14.2723 -22.2255 18.682 -23.5139 21.6852 -24.0877C32.5343 -26.1607 38.9989 -27.2763 38.1438 -40.4737C35.6257 -43.2245 35.1049 -44.6236 33.7501 -48.0269C31.2625 -49.2816 30.887 -51.1039 29.9191 -53.6835C29.4939 -54.8171 28.3769 -58.8436 30.0416 -59.7971C30.0936 -59.8268 30.5884 -59.9097 30.6889 -59.9271C30.8329 -60.8778 30.4682 -62.72 30.4578 -63.7946C30.4071 -68.9916 31.3199 -74.025 35.7837 -77.3414C36.9418 -78.2018 38.7061 -79.1177 40.0637 -79.609C39.7063 -80.6164 39.4826 -81.2411 39.2563 -82.2999ZM84.3905 98.4203C83.8088 98.6532 83.2425 98.4544 82.6526 98.3011C82.2886 98.9637 82.099 99.6794 82.7413 100.242C83.6553 99.9975 83.9469 99.0262 84.4757 98.7214L84.3905 98.4203ZM84.8279 98.852C85.4161 98.5017 86.8842 97.309 87.4793 96.846C87.4509 96.5978 87.4531 96.5995 87.3583 96.3691L86.8346 96.4734C86.3836 97.7103 84.9731 97.8277 84.8279 98.852Z" fill="#5E5E5E"/>
<path d="M16.2874 58.3828C25.779 60.2422 32.4468 65.8588 39.0771 72.6641C40.525 74.1502 42.7168 76.4172 43.8808 78.0358C44.0963 89.4027 41.9333 99.7649 40.8376 110.996C40.3516 115.979 41.3916 121.237 40.7103 126.237C40.2296 130.066 38.4581 133.729 38.1019 137.626C37.7872 141.07 38.3385 144.4 38.4798 147.817C38.6193 151.186 38.4189 154.84 38.0714 158.196C37.4637 163.634 36.765 169.062 35.975 174.477C34.8417 182.384 33.0765 190.875 34.6589 198.77H24.2812C24.7002 193.208 24.4184 189.499 23.7558 183.944C22.3388 172.067 20.3806 160.094 20.3982 148.12C20.4167 144.875 21.1486 141.45 21.5082 138.228C22.3846 132.419 22.9551 126.519 22.4026 120.65C20.4195 104.038 14.1607 87.9629 14.765 71.051C14.917 66.7897 15.5399 62.5801 16.2874 58.3828Z" fill="white"/>
<path d="M37.165 127.309C37.3265 128.361 36.2064 130.866 35.7573 131.919C35.6231 131.449 36.9135 128.02 37.165 127.309Z" fill="#515053"/>
<path d="M26.5542 126.148C27.0805 126.893 27.4352 129.386 27.565 130.363C26.9672 129.411 26.6785 127.265 26.5542 126.148Z" fill="#515053"/>
<path d="M49.0283 78.0242C56.6844 69.6495 64.6119 60.39 76.509 58.3359C79.7771 74.7654 77.4106 87.9972 73.583 103.965C71.1416 114.151 69.3275 124.239 70.8677 134.673C71.6923 140.256 72.6481 146.01 72.4937 151.663C72.0709 160.308 70.9563 169.031 69.9727 177.627C69.1733 184.615 67.7096 191.728 68.6453 198.773H58.2237C59.7101 190.842 58.173 183.149 57.077 175.249C56.3031 169.703 55.5854 164.152 54.9243 158.591C54.4669 154.68 54.306 150.738 54.4428 146.801C54.566 143.882 55.0685 140.341 54.7958 137.479C54.4402 133.749 52.6704 129.924 52.1935 126.155C51.5935 121.414 52.4919 116.47 52.0886 111.737C51.5996 105.997 50.8675 100.144 50.1118 94.4317C49.3222 88.4613 48.681 84.0551 49.0283 78.0242Z" fill="white"/>
<path d="M66.2842 126.059L66.3574 126.144C66.4816 127.09 65.9172 129.071 65.6745 130.05L65.5911 129.946C65.5197 129.001 66.0442 127.051 66.2842 126.059Z" fill="#5E5E5E"/>
<path d="M29.157 -25.2689L29.4907 -25.3083C29.7696 -24.9753 29.7066 -24.1606 29.7486 -23.6812C29.8433 -22.5952 30.0478 -21.5217 30.3594 -20.4771C30.8492 -18.7769 31.6569 -17.1852 32.7399 -15.7864C38.0954 -8.93129 51.1221 -8.31993 57.8955 -13.4792C61.8077 -16.4591 62.7998 -20.7937 63.3613 -25.4102C65.3098 -24.7623 67.4751 -24.3393 69.5085 -24.0792C69.3622 -19.1113 69.383 -13.5845 70.0564 -8.69027C70.5331 -5.22436 71.6825 -1.86485 71.7234 1.72563C71.758 4.79262 70.8117 7.22667 70.2761 10.1482C69.4899 14.145 69.0721 18.5101 68.4999 22.4868C67.2202 31.3852 70.6512 38.1514 73.5507 46.2894C74.7817 49.744 75.625 54.2504 76.5172 57.9909C71.6676 58.742 68.5103 60.3301 64.424 62.9504C60.6829 65.5416 57.2197 68.5128 54.0895 71.8165C52.3614 73.6677 50.8045 75.675 48.9886 77.4389C47.2869 77.5218 45.7994 77.5102 44.1028 77.4845C42.0284 75.4281 40.0093 72.9746 37.8804 70.887C31.2606 64.396 25.4329 59.8859 16.3252 57.9757C17.1789 54.0494 17.9646 50.2461 19.2911 46.4081C21.1017 41.1699 23.5689 36.0089 24.3231 30.4573C25.1971 24.0227 23.7589 16.8404 22.6894 10.4262C22.0622 7.65456 21.1805 4.91341 21.15 2.0439C21.139 1.0022 21.1797 -0.23963 21.3796 -1.27243C21.8482 -3.69342 22.422 -6.02959 22.7453 -8.48579C23.4243 -13.6428 23.3566 -18.762 23.3125 -23.9504C25.2815 -24.4008 27.1732 -24.7901 29.157 -25.2689Z" fill="#91364A"/>
<path d="M22.396 -23.8472L22.7503 -23.8633L22.885 -23.6796C23.1585 -16.22 22.9055 -9.38717 21.0422 -2.11588C20.8991 -2.72363 20.7973 -3.1129 20.5933 -3.7038C20.6345 -3.14925 20.8234 -1.35609 20.8035 -0.860983C20.7399 0.714825 20.7284 1.55432 20.8624 3.13354C21.0342 5.16109 21.7358 7.45239 21.7311 9.39683C21.7294 10.1523 21.2689 12.4754 21.1154 13.3487C20.7174 15.6044 20.3433 17.8643 19.9931 20.1282C19.3129 24.6267 19.1256 28.9862 18.5315 33.4264C17.9257 37.9552 16.0251 42.9703 14.7175 47.3681C12.4496 54.9968 9.00811 62.3423 7.79307 70.2677C7.19841 74.0129 9.84824 75.8795 10.4056 79.2112C10.6723 81.4302 10.3799 83.7717 10.2992 86.0039C10.2419 87.5891 10.7389 92.2571 9.62756 93.1835C6.84185 93.03 8.75753 83.4996 6.32195 83.7762C4.63053 85.1926 6.57424 91.9086 7.23627 93.8C8.17935 96.1693 10.0827 97.0207 10.6293 99.382C10.7043 99.7058 10.5634 99.808 10.3863 100.022C9.10104 100.086 8.80126 98.5244 7.75011 97.945L8.20944 98.7383C8.01942 98.7042 7.99614 98.7061 7.83016 98.6001C4.09437 96.191 3.40016 94.6107 1.77991 90.6385C1.46365 89.8628 0.484802 87.8037 0.400393 87.0284C-0.109095 84.0513 1.04766 80.5524 1.00432 77.7064C0.888117 70.0849 2.32346 62.8819 3.15658 55.3446C3.692 50.5002 3.70316 45.4113 4.56676 40.604C5.74944 34.0215 7.83546 27.74 8.58228 21.0492C9.2375 15.1633 9.66011 9.2535 9.849 3.33423C10.0235 -1.65239 9.92262 -6.63807 10.6632 -11.5864C11.9314 -20.06 14.3483 -22.203 22.396 -23.8472Z" fill="white"/>
<path d="M69.9025 -23.9883C73.9259 -23.2338 78.5662 -22.0281 80.3801 -17.9596C83.2652 -11.4882 82.7659 -3.42647 82.9998 3.55855C83.2116 10.0505 83.7008 16.5306 84.4662 22.9808C85.1167 28.4085 87.12 33.1399 87.8833 38.364C89.4498 49.0836 89.7405 60.0334 91.6123 70.7638C91.9353 72.616 91.5437 75.2513 91.783 77.2431C91.885 79.7724 92.9043 83.7604 92.59 86.1945C92.2423 88.8847 89.4464 95.0511 87.4794 96.8474C87.451 96.5992 87.4533 96.6009 87.3585 96.3705L86.8348 96.4748C86.3838 97.7117 84.9732 97.8291 84.8281 98.8534C84.691 98.8667 84.6431 98.8042 84.4758 98.7227L84.3907 98.4217C83.8089 98.6546 83.2426 98.4558 82.6527 98.3024C82.9207 97.6152 83.9561 96.3658 84.5063 95.8305C86.3643 94.0235 88.4126 85.826 86.5094 83.6234L86.2439 83.6616C85.0993 84.9366 85.1825 88.2887 84.8795 90.0014C84.7041 90.9937 84.5771 91.5685 84.283 92.5568C83.9325 92.9421 83.6872 93.2632 83.1751 93.0496C82.8272 92.4905 82.6635 91.6616 82.6145 91.0281C82.4901 89.4154 82.6379 87.5919 82.6219 85.9713C82.6067 84.4363 82.1864 80.3695 82.5528 78.952C83.455 75.4601 85.6025 74.1484 84.9986 70.0301C84.3112 65.3436 82.7778 60.9465 81.2266 56.4957C80.0525 53.132 78.9025 49.7597 77.7774 46.3791C76.349 42.0355 74.7057 36.6998 74.0454 32.1912C73.6125 29.2363 73.7231 26.0114 73.2172 22.9071C72.4762 18.3618 71.4989 13.6405 71.1398 9.06374C71.0106 7.41637 71.9459 4.89144 72.0536 3.07954C72.2063 0.510494 71.8552 -0.924267 72.3767 -3.56715L72.4064 -3.71369L72.3568 -3.71142C72.1516 -3.17447 72.0084 -2.53453 71.8634 -1.97184C69.7823 -8.06151 69.8551 -17.5803 69.9025 -23.9883Z" fill="white"/>
<path d="M84.3906 98.4233C88.6658 95.6644 89.5171 91.0991 90.9875 86.9141C91.4822 88.2464 88.3234 95.4809 86.8347 96.4764C86.3837 97.7134 84.9732 97.8307 84.828 98.855C84.691 98.8683 84.6431 98.8058 84.4758 98.7244L84.3906 98.4233Z" fill="#515053"/>
<path d="M84.2431 94.7812L84.4206 94.8735L84.4732 95.1645C84.2107 95.7669 83.6524 96.2997 83.1974 96.7918L83.014 96.7441C82.6132 95.9002 83.6123 95.1862 84.2431 94.7812Z" fill="white"/>
<path d="M8.14648 94.7734C9.54076 94.9385 9.92344 95.5525 10.0362 96.8542C9.27504 96.3901 8.65086 95.4863 8.14648 94.7734Z" fill="white"/>
<path d="M86.8348 96.4754L87.3585 96.3711C87.4533 96.6015 87.4511 96.5998 87.4795 96.848C86.8844 97.3109 85.4163 98.5037 84.8281 98.854C84.9733 97.8297 86.3838 97.7123 86.8348 96.4754Z" fill="white" fill-opacity="0.956863"/>
<path d="M77.5 39L69.5 39" stroke="#75041D"/>
<path d="M73.5 71L73.5 41" stroke="#75041D" stroke-dasharray="3 3"/>
<path d="M77.5 73L69.5 73" stroke="#75041D"/>
</g>
<defs>
<clipPath id="clip0_1160_35372">
<rect width="93" height="137" fill="white"/>
</clipPath>
</defs>
</svg>
