<svg width="343" height="157" viewBox="0 0 343 157" fill="none" xmlns="http://www.w3.org/2000/svg">
<g clip-path="url(#clip0_1784_57585)">
<rect x="139.635" y="97.8507" width="110" height="31" transform="rotate(15 139.635 97.8507)" stroke="#E0E0E0"/>
<path d="M144.859 121.337L153.311 123.601M149.84 119.652L152.105 111.2M152.105 111.2L153.909 114.325M152.105 111.2L148.979 113.004" stroke="#151011" stroke-linecap="round" stroke-linejoin="round"/>
<path d="M167.381 126.178C166.744 126.007 166.215 125.725 165.795 125.33C165.378 124.937 165.095 124.464 164.945 123.91C164.795 123.356 164.806 122.759 164.978 122.118L166.405 116.791L167.265 117.015L165.866 122.237C165.75 122.67 165.723 123.064 165.784 123.421C165.847 123.773 165.969 124.083 166.15 124.351C166.336 124.616 166.557 124.835 166.813 125.007C167.069 125.179 167.331 125.301 167.597 125.372C167.868 125.445 168.157 125.47 168.465 125.449C168.773 125.428 169.071 125.349 169.361 125.211C169.651 125.07 169.912 124.862 170.143 124.588C170.374 124.311 170.548 123.956 170.664 123.523L172.063 118.301L172.921 118.531L171.492 123.863C171.321 124.504 171.031 125.027 170.625 125.432C170.219 125.833 169.735 126.101 169.173 126.236C168.616 126.368 168.019 126.349 167.381 126.178ZM175.074 128.239C174.498 128.085 174.05 127.809 173.73 127.413C173.41 127.013 173.215 126.536 173.144 125.983C173.074 125.426 173.122 124.836 173.289 124.214C173.458 123.58 173.712 123.044 174.049 122.604C174.391 122.161 174.802 121.851 175.28 121.673C175.759 121.495 176.292 121.484 176.879 121.641C177.451 121.795 177.902 122.071 178.234 122.471C178.566 122.87 178.774 123.348 178.856 123.904C178.943 124.462 178.903 125.052 178.736 125.674C178.569 126.3 178.308 126.832 177.954 127.272C177.6 127.711 177.178 128.022 176.685 128.205C176.194 128.384 175.657 128.395 175.074 128.239ZM171.558 130.092L173.981 121.051L174.746 121.256L173.483 125.968L173.576 125.993L172.416 130.322L171.558 130.092ZM175.2 127.422C175.636 127.539 176.029 127.526 176.378 127.383C176.726 127.241 177.023 126.999 177.267 126.659C177.517 126.316 177.705 125.907 177.832 125.431C177.959 124.96 178.001 124.516 177.96 124.099C177.918 123.682 177.78 123.324 177.545 123.025C177.315 122.727 176.975 122.518 176.527 122.398C176.09 122.281 175.699 122.29 175.352 122.425C175.009 122.561 174.715 122.799 174.471 123.139C174.228 123.476 174.04 123.889 173.909 124.38C173.779 124.863 173.735 125.315 173.775 125.736C173.817 126.153 173.954 126.508 174.185 126.802C174.417 127.096 174.755 127.303 175.2 127.422ZM179.285 129.181L181.568 120.662L182.42 120.89L180.137 129.409L179.285 129.181ZM184.442 130.749C183.82 130.582 183.326 130.299 182.961 129.899C182.596 129.499 182.363 129.018 182.261 128.457C182.158 127.895 182.194 127.292 182.367 126.646C182.543 125.99 182.817 125.446 183.189 125.016C183.561 124.585 184.004 124.292 184.518 124.136C185.037 123.976 185.601 123.979 186.212 124.142C186.838 124.31 187.333 124.594 187.698 124.994C188.068 125.391 188.302 125.87 188.4 126.431C188.503 126.988 188.469 127.59 188.296 128.235C188.12 128.892 187.847 129.438 187.478 129.873C187.11 130.305 186.666 130.6 186.147 130.759C185.628 130.918 185.06 130.915 184.442 130.749ZM184.661 129.932C185.356 130.118 185.935 130.027 186.399 129.658C186.863 129.286 187.194 128.731 187.392 127.993C187.594 127.235 187.584 126.587 187.36 126.046C187.14 125.507 186.685 125.145 185.993 124.959C185.525 124.834 185.111 124.837 184.748 124.968C184.391 125.095 184.087 125.327 183.836 125.661C183.59 125.993 183.401 126.402 183.271 126.889C183.069 127.642 183.081 128.293 183.306 128.842C183.533 129.388 183.984 129.751 184.661 129.932ZM190.478 132.367C190.007 132.24 189.634 132.049 189.358 131.793C189.087 131.538 188.91 131.249 188.827 130.924C188.744 130.6 188.748 130.271 188.837 129.939C188.928 129.599 189.073 129.327 189.272 129.124C189.477 128.918 189.717 128.769 189.994 128.678C190.275 128.587 190.583 128.544 190.918 128.546C191.255 128.554 191.623 128.58 192.021 128.625C192.424 128.666 192.815 128.715 193.193 128.771C193.577 128.824 193.913 128.866 194.203 128.898L193.852 129.003C194.029 128.388 194.032 127.898 193.86 127.533C193.689 127.169 193.292 126.903 192.67 126.736C192.241 126.621 191.852 126.62 191.503 126.734C191.158 126.848 190.869 127.098 190.637 127.483L189.874 127.018C190.167 126.496 190.571 126.139 191.087 125.945C191.602 125.752 192.206 125.748 192.898 125.934C193.469 126.087 193.925 126.325 194.265 126.648C194.61 126.968 194.811 127.353 194.869 127.804C194.897 128.006 194.893 128.222 194.856 128.452C194.82 128.683 194.77 128.914 194.708 129.146L193.666 133.034L192.907 132.831L193.328 131.26L193.523 131.412C193.167 131.892 192.726 132.213 192.203 132.375C191.679 132.537 191.104 132.534 190.478 132.367ZM190.774 131.657C191.172 131.764 191.539 131.785 191.875 131.722C192.21 131.659 192.502 131.528 192.75 131.329C192.999 131.127 193.192 130.876 193.33 130.578C193.431 130.389 193.515 130.176 193.583 129.937C193.652 129.695 193.702 129.514 193.734 129.394L194.014 129.649C193.714 129.61 193.389 129.564 193.038 129.512C192.692 129.461 192.348 129.416 192.006 129.378C191.668 129.341 191.358 129.323 191.077 129.322C190.885 129.324 190.694 129.35 190.503 129.398C190.313 129.442 190.144 129.525 189.996 129.647C189.851 129.77 189.749 129.943 189.689 130.167C189.64 130.349 189.637 130.537 189.68 130.73C189.728 130.925 189.837 131.106 190.008 131.272C190.182 131.438 190.438 131.567 190.774 131.657ZM197.556 134.263C196.973 134.107 196.513 133.829 196.178 133.428C195.843 133.024 195.632 132.543 195.546 131.985C195.459 131.428 195.499 130.836 195.667 130.21C195.834 129.588 196.092 129.057 196.442 128.616C196.796 128.177 197.216 127.867 197.703 127.687C198.191 127.507 198.72 127.494 199.292 127.647C199.879 127.804 200.336 128.08 200.661 128.473C200.986 128.867 201.184 129.34 201.255 129.894C201.332 130.444 201.285 131.036 201.115 131.67C200.948 132.292 200.695 132.827 200.356 133.274C200.018 133.718 199.61 134.033 199.133 134.22C198.658 134.403 198.132 134.418 197.556 134.263ZM197.856 133.493C198.3 133.612 198.697 133.602 199.044 133.463C199.392 133.324 199.688 133.085 199.933 132.744C200.178 132.4 200.365 131.987 200.495 131.504C200.626 131.013 200.671 130.561 200.628 130.148C200.587 129.731 200.45 129.378 200.217 129.087C199.988 128.798 199.655 128.595 199.218 128.478C198.77 128.358 198.37 128.369 198.017 128.51C197.664 128.652 197.366 128.893 197.121 129.233C196.881 129.575 196.698 129.981 196.571 130.452C196.444 130.928 196.4 131.376 196.441 131.796C196.486 132.214 196.624 132.572 196.855 132.87C197.086 133.168 197.42 133.376 197.856 133.493ZM199.655 134.639L200.917 129.927L200.824 129.903L201.798 126.269L202.656 126.499L200.42 134.844L199.655 134.639ZM205.699 136.259L205.465 129.481L206.316 129.715L206.496 134.975L209.289 130.512L210.065 130.72L210.252 135.982L213.05 131.52L213.896 131.747L210.307 137.493L209.565 137.295L209.335 131.891L206.441 136.458L205.699 136.259ZM215.604 139.099C214.982 138.932 214.488 138.649 214.124 138.249C213.759 137.849 213.525 137.368 213.423 136.807C213.321 136.245 213.356 135.642 213.529 134.996C213.705 134.339 213.979 133.796 214.351 133.366C214.723 132.935 215.166 132.642 215.68 132.486C216.199 132.326 216.764 132.329 217.374 132.492C218 132.66 218.496 132.944 218.861 133.344C219.23 133.741 219.464 134.22 219.563 134.781C219.666 135.338 219.631 135.94 219.458 136.585C219.282 137.242 219.009 137.788 218.64 138.223C218.272 138.654 217.828 138.95 217.31 139.109C216.791 139.268 216.222 139.265 215.604 139.099ZM215.823 138.282C216.518 138.468 217.098 138.377 217.561 138.008C218.025 137.636 218.356 137.081 218.554 136.343C218.757 135.585 218.746 134.937 218.523 134.396C218.303 133.857 217.847 133.495 217.155 133.309C216.688 133.184 216.273 133.187 215.911 133.318C215.554 133.445 215.249 133.677 214.998 134.011C214.752 134.343 214.564 134.752 214.433 135.239C214.231 135.992 214.243 136.643 214.469 137.192C214.695 137.738 215.147 138.101 215.823 138.282ZM219.896 140.063L221.574 133.804L222.339 134.009L221.935 135.516L221.837 135.278C221.956 135.111 222.092 134.966 222.246 134.841C222.4 134.713 222.557 134.616 222.715 134.551C222.916 134.451 223.134 134.394 223.37 134.378C223.607 134.359 223.837 134.373 224.061 134.42C224.285 134.464 224.482 134.533 224.651 134.628L224.437 135.428C224.224 135.309 223.979 135.229 223.7 135.187C223.421 135.146 223.143 135.187 222.865 135.311C222.613 135.418 222.404 135.571 222.239 135.771C222.075 135.967 221.941 136.188 221.838 136.434C221.736 136.676 221.652 136.92 221.585 137.167L220.748 140.291L219.896 140.063ZM224.067 141.181L226.309 132.836L227.167 133.066L225.801 138.166L229.402 135.901L230.538 136.206L226.766 138.549L229.243 142.567L228.003 142.235L225.739 138.398L224.931 141.412L224.067 141.181ZM232.001 143.486C231.267 143.29 230.705 142.969 230.314 142.525C229.928 142.082 229.756 141.564 229.799 140.971L230.707 141.059C230.705 141.439 230.839 141.78 231.111 142.08C231.387 142.378 231.769 142.592 232.255 142.722C232.731 142.85 233.132 142.851 233.459 142.728C233.787 142.601 233.997 142.365 234.089 142.021C234.141 141.828 234.139 141.659 234.082 141.516C234.03 141.369 233.885 141.208 233.646 141.033C233.407 140.857 233.043 140.627 232.552 140.342C232.025 140.035 231.622 139.761 231.343 139.521C231.064 139.281 230.883 139.042 230.802 138.805C230.721 138.564 230.721 138.296 230.799 138.003C230.895 137.647 231.078 137.363 231.351 137.15C231.624 136.934 231.958 136.8 232.353 136.748C232.749 136.692 233.182 136.728 233.654 136.854C234.125 136.981 234.526 137.171 234.855 137.425C235.189 137.676 235.434 137.969 235.588 138.304C235.743 138.64 235.793 138.995 235.738 139.369L234.827 139.293C234.867 138.91 234.761 138.571 234.509 138.276C234.262 137.978 233.903 137.762 233.434 137.628C232.993 137.497 232.609 137.485 232.282 137.592C231.956 137.696 231.753 137.896 231.674 138.193C231.629 138.36 231.641 138.516 231.709 138.663C231.779 138.805 231.931 138.964 232.166 139.139C232.404 139.315 232.752 139.53 233.21 139.785C233.746 140.086 234.157 140.362 234.442 140.612C234.727 140.863 234.909 141.116 234.989 141.374C235.07 141.631 235.066 141.922 234.979 142.247C234.821 142.838 234.476 143.245 233.944 143.467C233.418 143.686 232.77 143.692 232.001 143.486Z" fill="#151011"/>
<rect x="8.61237" y="85.3418" width="83" height="31" transform="rotate(-15 8.61237 85.3418)" stroke="#E0E0E0"/>
<path d="M26.6526 92.7791C26.5193 92.8147 26.3988 92.8875 26.3051 92.9889C26.2115 93.0903 26.1486 93.2161 26.1237 93.3519C26.1117 93.4235 26.0856 93.492 26.0468 93.5534C26.0081 93.6148 25.9575 93.6679 25.8981 93.7096C25.8386 93.7512 25.7715 93.7807 25.7005 93.7961C25.6296 93.8115 25.5563 93.8127 25.4849 93.7995C25.4135 93.7863 25.3454 93.759 25.2847 93.7192C25.2239 93.6795 25.1717 93.628 25.1311 93.5678C25.0904 93.5077 25.0622 93.44 25.048 93.3688C25.0338 93.2976 25.0339 93.2243 25.0483 93.1531C25.0988 92.8802 25.211 92.6225 25.3762 92.3995C25.5415 92.1765 25.7555 91.9942 26.0019 91.8665C26.2483 91.7388 26.5206 91.669 26.7981 91.6625C27.0756 91.656 27.3509 91.713 27.603 91.8291C27.8551 91.9451 28.0774 92.1172 28.2529 92.3322C28.4284 92.5472 28.5525 92.7995 28.6157 93.0697C28.679 93.3399 28.6796 93.6211 28.6177 93.8916C28.5558 94.1622 28.4329 94.415 28.2585 94.6309C28.1262 94.7939 28.02 94.9439 27.9571 95.0838C27.8939 95.22 27.8942 95.2999 27.9072 95.3485C27.9314 95.4387 28.0028 95.5079 28.0925 95.5299L33.3659 96.8194C33.6814 96.8965 33.9622 97.0763 34.1641 97.3306C34.3661 97.585 34.4776 97.8992 34.4813 98.224C34.4849 98.5487 34.3803 98.8654 34.1841 99.1241C33.9879 99.3829 33.7111 99.569 33.3975 99.6531L24.2483 102.105C23.9344 102.189 23.6011 102.166 23.3015 102.04C23.0018 101.914 22.7529 101.691 22.5941 101.408C22.4353 101.124 22.3757 100.795 22.4248 100.474C22.4739 100.152 22.6289 99.8564 22.8652 99.633L26.0829 96.5862C26.1348 96.5356 26.1963 96.4959 26.2637 96.4693C26.3311 96.4427 26.4031 96.4298 26.4756 96.4313C26.548 96.4328 26.6194 96.4486 26.6857 96.4779C26.752 96.5073 26.8117 96.5495 26.8615 96.6021C26.9114 96.6547 26.9502 96.7167 26.9759 96.7845C27.0015 96.8523 27.0134 96.9245 27.0109 96.9969C27.0084 97.0693 26.9916 97.1405 26.9613 97.2063C26.9311 97.2722 26.888 97.3314 26.8347 97.3804L23.6177 100.427C23.5581 100.483 23.519 100.558 23.5066 100.638C23.4941 100.719 23.5091 100.802 23.549 100.873C23.589 100.945 23.6517 101.001 23.7271 101.032C23.8025 101.064 23.8863 101.07 23.9653 101.048L33.1144 98.5966C33.1936 98.5754 33.2635 98.5285 33.313 98.4632C33.3626 98.3979 33.389 98.3179 33.388 98.2359C33.3871 98.154 33.3589 98.0746 33.3079 98.0105C33.2568 97.9463 33.1859 97.901 33.1062 97.8816L27.8335 96.5919C27.5989 96.5345 27.384 96.4151 27.2113 96.2463C27.0386 96.0775 26.9144 95.8653 26.8516 95.6321C26.7501 95.2532 26.8374 94.9029 26.9614 94.6304C27.0841 94.3612 27.2621 94.1241 27.4083 93.943C27.5055 93.8234 27.5623 93.676 27.5706 93.5221C27.5788 93.3682 27.538 93.2157 27.4542 93.0863C27.3703 92.957 27.2476 92.8576 27.1037 92.8024C26.9598 92.7472 26.8022 92.739 26.6533 92.7789" fill="#151011"/>
<path d="M43.4504 96.7124L41.2142 88.3668L44.4366 87.5034C44.5177 87.4817 44.6095 87.4612 44.7121 87.442C44.8174 87.4179 44.9248 87.4015 45.0343 87.3929C45.4885 87.3416 45.8984 87.3954 46.264 87.5542C46.6324 87.7081 46.942 87.944 47.1928 88.2619C47.4475 88.5788 47.6333 88.9555 47.7503 89.3921C47.8663 89.8248 47.8932 90.2421 47.831 90.6438C47.7689 91.0456 47.6173 91.4072 47.3763 91.7285C47.1381 92.0449 46.8114 92.294 46.3962 92.4756C46.2961 92.519 46.1949 92.5586 46.0926 92.5942C45.9942 92.6289 45.9045 92.6571 45.8233 92.6788L43.4529 93.314L44.3024 96.4841L43.4504 96.7124ZM43.2355 92.5026L45.5827 91.8737C45.6523 91.855 45.7324 91.8294 45.823 91.7968C45.9137 91.7643 46.0009 91.7264 46.0846 91.6833C46.3539 91.5449 46.5561 91.3644 46.6911 91.1419C46.83 90.9183 46.9117 90.6748 46.9364 90.4115C46.965 90.1471 46.9445 89.8854 46.8752 89.6266C46.8058 89.3677 46.6927 89.1309 46.5358 88.9162C46.3817 88.6966 46.1886 88.5247 45.9566 88.4006C45.7284 88.2754 45.4631 88.2201 45.1606 88.2349C45.0665 88.2394 44.9726 88.2522 44.8789 88.2731C44.7841 88.2903 44.7019 88.3081 44.6323 88.3268L42.2851 88.9557L43.2355 92.5026ZM53.0723 94.3206C52.4502 94.4873 51.8812 94.4886 51.3651 94.3246C50.8491 94.1605 50.4065 93.8609 50.0372 93.4256C49.668 92.9904 49.3969 92.4501 49.224 91.8049C49.048 91.148 49.0136 90.5403 49.1206 89.9815C49.2276 89.4228 49.4646 88.9472 49.8316 88.5549C50.2014 88.1576 50.6915 87.8772 51.302 87.7137C51.9279 87.546 52.4989 87.5441 53.0149 87.7081C53.5338 87.8673 53.9759 88.165 54.3412 88.6013C54.7094 89.0327 54.98 89.571 55.1529 90.2162C55.3289 90.8731 55.3658 91.4823 55.2637 92.0438C55.1605 92.6016 54.924 93.079 54.5542 93.4763C54.1845 93.8735 53.6905 94.155 53.0723 94.3206ZM52.8533 93.5034C53.5488 93.3171 54.0049 92.9485 54.2217 92.3976C54.4375 91.8428 54.4465 91.1965 54.2488 90.4585C54.0459 89.7012 53.7124 89.1445 53.2485 88.7885C52.7884 88.4314 52.2125 88.3455 51.5209 88.5308C51.0534 88.6561 50.6955 88.8659 50.4472 89.1602C50.2018 89.4496 50.0539 89.8018 50.0036 90.217C49.9562 90.6273 49.9977 91.0758 50.1281 91.5626C50.33 92.316 50.6659 92.8741 51.1358 93.2369C51.6047 93.5957 52.1772 93.6846 52.8533 93.5034ZM57.2715 93.0091L55.5943 86.7499L56.3593 86.5449L56.7631 88.0517L56.5596 87.8951C56.5795 87.691 56.6247 87.4966 56.6954 87.3121C56.765 87.1236 56.852 86.9616 56.9564 86.8259C57.0804 86.6395 57.2407 86.4806 57.4374 86.3492C57.6331 86.2139 57.8395 86.111 58.0566 86.0404C58.2727 85.966 58.4778 85.9276 58.6718 85.9253L58.8861 86.7251C58.6426 86.7282 58.3898 86.7814 58.1276 86.8848C57.8654 86.9882 57.6452 87.1632 57.4669 87.4097C57.3018 87.6279 57.1976 87.8649 57.1543 88.1208C57.11 88.3729 57.1047 88.6311 57.1382 88.8954C57.1708 89.1559 57.2201 89.4097 57.2864 89.657L58.1234 92.7808L57.2715 93.0091ZM64.8561 90.9768C64.5242 91.1444 64.1842 91.2665 63.8362 91.3432C63.4921 91.4189 63.1672 91.4273 62.8615 91.3684C62.5597 91.3084 62.302 91.158 62.0884 90.9171C61.9142 90.7153 61.7898 90.4981 61.715 90.2655C61.6431 90.028 61.5663 89.7567 61.4845 89.4515L59.9486 83.7196L60.7948 83.4929L62.3213 89.19C62.3917 89.4527 62.4526 89.6724 62.5041 89.8491C62.5584 90.0209 62.6404 90.1646 62.7501 90.2801C62.9585 90.5017 63.2202 90.5973 63.535 90.5667C63.8537 90.5352 64.2273 90.4227 64.6558 90.2291L64.8561 90.9768ZM59.2714 86.5473L59.0757 85.817L63.179 84.7176L63.3747 85.4478L59.2714 86.5473ZM66.7094 90.4802L64.9081 83.7573C64.8646 83.5951 64.8293 83.4326 64.8024 83.2701C64.7792 83.1065 64.7756 82.946 64.7913 82.7885C64.8061 82.6272 64.8549 82.4692 64.9376 82.3145C65.0279 82.1413 65.1401 82.0035 65.2742 81.9013C65.4073 81.7953 65.5524 81.7109 65.7094 81.6481C65.8704 81.5842 66.0301 81.5311 66.1885 81.4886L66.9883 81.2743L67.1809 81.993L66.439 82.1917C66.1145 82.2787 65.8923 82.4231 65.7725 82.625C65.6565 82.8259 65.6441 83.0963 65.7352 83.4363L67.5614 90.2519L66.7094 90.4802ZM64.1442 85.2416L63.9485 84.5114L67.5939 83.5346L67.7896 84.2648L64.1442 85.2416ZM72.6323 89.0795C72.0102 89.2462 71.4412 89.2475 70.9251 89.0835C70.4091 88.9195 69.9665 88.6198 69.5972 88.1845C69.228 87.7493 68.9569 87.209 68.784 86.5638C68.608 85.907 68.5736 85.2992 68.6806 84.7404C68.7876 84.1817 69.0246 83.7062 69.3916 83.3138C69.7614 82.9166 70.2515 82.6362 70.862 82.4726C71.4879 82.3049 72.0589 82.303 72.5749 82.4671C73.0938 82.6262 73.5359 82.9239 73.9012 83.3602C74.2694 83.7916 74.54 84.3299 74.7129 84.9752C74.8889 85.632 74.9258 86.2412 74.8237 86.8028C74.7205 87.3605 74.484 87.8379 74.1142 88.2352C73.7445 88.6324 73.2505 88.9139 72.6323 89.0795ZM72.4133 88.2623C73.1088 88.076 73.5649 87.7074 73.7817 87.1565C73.9975 86.6017 74.0065 85.9554 73.8088 85.2174C73.6059 84.4601 73.2724 83.9035 72.8085 83.5474C72.3484 83.1903 71.7725 83.1044 71.0809 83.2898C70.6134 83.415 70.2555 83.6248 70.0072 83.9191C69.7617 84.2085 69.6139 84.5608 69.5636 84.9759C69.5162 85.3862 69.5577 85.8347 69.6881 86.3215C69.89 87.075 70.2259 87.633 70.6958 87.9958C71.1647 88.3547 71.7372 88.4435 72.4133 88.2623ZM76.9474 87.7369L74.6646 79.2175L75.5165 78.9892L77.7993 87.5087L76.9474 87.7369ZM77.6572 79.5648L77.401 78.6085L78.253 78.3802L78.5092 79.3365L77.6572 79.5648ZM79.6527 87.012L77.9756 80.7528L78.8275 80.5246L80.5047 86.7838L79.6527 87.012ZM84.9026 85.7917C84.2805 85.9584 83.7114 85.9597 83.1954 85.7957C82.6794 85.6317 82.2367 85.332 81.8675 84.8967C81.4983 84.4615 81.2272 83.9212 81.0543 83.276C80.8783 82.6192 80.8438 82.0114 80.9509 81.4526C81.0579 80.8939 81.2949 80.4183 81.6619 80.026C82.0316 79.6288 82.5218 79.3483 83.1322 79.1848C83.7581 79.0171 84.3291 79.0152 84.8452 79.1792C85.364 79.3384 85.8061 79.6361 86.1715 80.0724C86.5397 80.5038 86.8103 81.0421 86.9832 81.6873C87.1592 82.3442 87.1961 82.9534 87.094 83.5149C86.9908 84.0727 86.7543 84.5501 86.3845 84.9474C86.0147 85.3446 85.5207 85.6261 84.9026 85.7917ZM84.6836 84.9745C85.3791 84.7882 85.8352 84.4196 86.052 83.8687C86.2678 83.3139 86.2768 82.6676 86.0791 81.9296C85.8761 81.1723 85.5427 80.6157 85.0787 80.2596C84.6186 79.9025 84.0428 79.8166 83.3512 80.0019C82.8837 80.1272 82.5258 80.337 82.2775 80.6313C82.032 80.9207 81.8842 81.2729 81.8339 81.6881C81.7865 82.0984 81.828 82.5469 81.9584 83.0337C82.1603 83.7871 82.4962 84.3452 82.9661 84.708C83.4349 85.0669 84.0074 85.1557 84.6836 84.9745Z" fill="#151011"/>
<rect x="158.354" y="1.61237" width="75" height="31" transform="rotate(15 158.354 1.61237)" stroke="#E0E0E0"/>
<path d="M171.997 26.5993L172.333 25.3482C172.538 24.5828 172.394 23.7397 171.782 23.2357C171.037 22.6205 170.078 22.1218 168.982 21.8282C167.887 21.5346 166.807 21.4872 165.854 21.6472C165.072 21.7779 164.526 22.4361 164.321 23.2015L163.986 24.4526" stroke="#151011" stroke-width="0.957031" stroke-linecap="round" stroke-linejoin="round"/>
<path d="M169.478 19.9798C170.669 20.299 171.893 19.5921 172.213 18.4008C172.532 17.2095 171.825 15.9851 170.634 15.6659C169.442 15.3467 168.218 16.0536 167.899 17.2449C167.579 18.4361 168.286 19.6606 169.478 19.9798Z" stroke="#151011" stroke-width="0.957031" stroke-linecap="round" stroke-linejoin="round"/>
<path d="M186.167 29.9575C185.336 29.7349 184.684 29.3635 184.211 28.8432C183.738 28.3191 183.443 27.6912 183.324 26.9596C183.205 26.2279 183.26 25.4352 183.489 24.5813C183.718 23.7274 184.067 23.0133 184.535 22.439C185.004 21.8648 185.573 21.4707 186.244 21.2569C186.915 21.0392 187.666 21.0416 188.496 21.2642C189.466 21.5241 190.191 21.9855 190.672 22.6485C191.154 23.3077 191.397 24.0851 191.401 24.9807L190.472 24.9738C190.471 24.2655 190.292 23.6566 189.936 23.147C189.58 22.6374 189.027 22.2822 188.277 22.0814C187.624 21.9064 187.042 21.9097 186.529 22.0913C186.017 22.2728 185.579 22.6007 185.216 23.0749C184.858 23.5462 184.582 24.1286 184.388 24.822C184.197 25.5164 184.14 26.1573 184.214 26.7446C184.292 27.3329 184.51 27.8363 184.865 28.2546C185.226 28.6702 185.733 28.9654 186.386 29.1404C187.136 29.3412 187.792 29.31 188.355 29.0469C188.92 28.7798 189.379 28.3417 189.732 27.7325L190.541 28.1915C190.09 28.9649 189.49 29.5186 188.742 29.8524C187.995 30.1823 187.137 30.2174 186.167 29.9575ZM191.248 31.1326L193.531 22.6131L194.383 22.8414L192.1 31.3609L191.248 31.1326ZM195.949 24.4102L196.205 23.4539L197.057 23.6822L196.801 24.6385L195.949 24.4102ZM193.953 31.8575L195.63 25.5983L196.482 25.8266L194.805 32.0858L193.953 31.8575ZM199.145 33.4349C198.534 33.2713 198.041 32.9942 197.665 32.6037C197.293 32.2142 197.05 31.7409 196.934 31.184C196.818 30.627 196.849 30.0182 197.026 29.3575C197.209 28.6737 197.489 28.1151 197.866 27.6819C198.243 27.2487 198.688 26.9559 199.201 26.8035C199.718 26.6521 200.277 26.6571 200.88 26.8186C201.498 26.9843 201.987 27.2685 202.347 27.6714C202.708 28.0705 202.93 28.5647 203.012 29.1541C203.095 29.7434 203.028 30.4026 202.812 31.1315L201.942 30.8986L202.023 30.5972C202.225 29.7817 202.213 29.1222 201.988 28.6187C201.767 28.1162 201.335 27.7791 200.694 27.6072C200.021 27.4271 199.447 27.5072 198.971 27.8475C198.498 28.1889 198.154 28.7633 197.938 29.5708C197.726 30.359 197.74 31.019 197.979 31.5509C198.222 32.0799 198.672 32.4324 199.329 32.6084C199.777 32.7285 200.195 32.7306 200.582 32.6149C200.974 32.4963 201.319 32.2678 201.617 31.9293L202.328 32.4493C201.935 32.9278 201.456 33.253 200.893 33.425C200.334 33.5941 199.751 33.5974 199.145 33.4349ZM197.573 29.7277L197.764 29.0148L202.545 30.296L202.354 31.0088L197.573 29.7277ZM207.674 35.5339L208.529 32.3405C208.623 31.9928 208.675 31.6652 208.687 31.3579C208.7 31.0466 208.662 30.7632 208.573 30.5074C208.489 30.2489 208.348 30.0287 208.148 29.8468C207.952 29.666 207.69 29.5315 207.361 29.4435C207.06 29.3628 206.779 29.3435 206.52 29.3857C206.264 29.4289 206.03 29.5279 205.819 29.6825C205.613 29.8342 205.432 30.0383 205.276 30.2948C205.12 30.5512 204.995 30.8572 204.9 31.2127L204.333 30.9179C204.504 30.2765 204.761 29.7675 205.102 29.391C205.443 29.0144 205.841 28.7669 206.295 28.6484C206.749 28.5299 207.231 28.539 207.741 28.6756C208.116 28.7761 208.427 28.9215 208.674 29.1119C208.925 29.3034 209.121 29.5236 209.261 29.7724C209.405 30.0222 209.503 30.2907 209.555 30.5778C209.607 30.861 209.622 31.1529 209.599 31.4533C209.578 31.7498 209.529 32.0391 209.454 32.3212L208.531 35.7637L207.674 35.5339ZM203.147 34.3211L204.825 28.0619L205.595 28.2684L205.182 29.81L205.269 29.8333L204.005 34.5509L203.147 34.3211ZM213.443 37.0798C213.072 37.059 212.716 36.9948 212.377 36.8872C212.041 36.7807 211.755 36.6255 211.52 36.4216C211.289 36.2188 211.141 35.9597 211.076 35.6442C211.026 35.3824 211.027 35.1321 211.079 34.8933C211.135 34.6517 211.204 34.3782 211.286 34.073L212.822 28.3412L213.668 28.5679L212.141 34.265C212.071 34.5277 212.014 34.7484 211.97 34.9272C211.931 35.1031 211.93 35.2686 211.968 35.4235C212.037 35.7196 212.216 35.9332 212.504 36.0641C212.796 36.1962 213.176 36.2855 213.644 36.3322L213.443 37.0798ZM210.821 30.4514L211.017 29.7212L215.12 30.8206L214.925 31.5509L210.821 30.4514ZM216.967 38.2041C216.233 38.0074 215.671 37.687 215.28 37.2428C214.894 36.7997 214.722 36.2816 214.765 35.6885L215.673 35.7766C215.671 36.1569 215.805 36.4973 216.077 36.7978C216.353 37.0955 216.735 37.3095 217.221 37.44C217.697 37.5673 218.098 37.5692 218.425 37.4457C218.753 37.3182 218.963 37.0826 219.055 36.7387C219.107 36.5456 219.105 36.3772 219.048 36.2336C218.996 36.0872 218.851 35.9261 218.612 35.7503C218.373 35.5746 218.009 35.3443 217.518 35.0595C216.991 34.7528 216.588 34.4792 216.309 34.2387C216.03 33.9982 215.849 33.7594 215.768 33.5223C215.688 33.2812 215.687 33.0139 215.765 32.7203C215.861 32.3648 216.044 32.0807 216.317 31.8679C216.59 31.6513 216.924 31.5172 217.319 31.4656C217.715 31.4102 218.148 31.4456 218.62 31.5719C219.091 31.6983 219.492 31.8884 219.821 32.1423C220.156 32.3934 220.4 32.6867 220.554 33.0221C220.709 33.3575 220.759 33.7125 220.704 34.087L219.793 34.0106C219.833 33.628 219.727 33.289 219.475 32.9937C219.228 32.6956 218.869 32.4795 218.4 32.3454C217.959 32.2148 217.575 32.203 217.248 32.3101C216.922 32.4132 216.719 32.6136 216.64 32.9111C216.595 33.0772 216.607 33.2337 216.676 33.3803C216.745 33.5232 216.897 33.6819 217.132 33.8567C217.37 34.0324 217.719 34.2479 218.176 34.503C218.712 34.8041 219.123 35.0797 219.408 35.33C219.693 35.5803 219.875 35.8342 219.956 36.0917C220.036 36.3492 220.032 36.6402 219.945 36.9647C219.787 37.5559 219.442 37.9625 218.91 38.1844C218.384 38.4036 217.736 38.4102 216.967 38.2041Z" fill="#151011"/>
<rect x="115.5" y="59.7383" width="109" height="31" stroke="#E0E0E0"/>
<path d="M128.81 74.5094C129.615 74.5094 130.268 73.8565 130.268 73.0511C130.268 72.2457 129.615 71.5928 128.81 71.5928C128.004 71.5928 127.352 72.2457 127.352 73.0511C127.352 73.8565 128.004 74.5094 128.81 74.5094Z" stroke="#151011" stroke-width="0.833333"/>
<path d="M131.728 77.4261C131.728 78.2318 131.728 78.8844 128.811 78.8844C125.895 78.8844 125.895 78.2318 125.895 77.4261C125.895 76.6204 127.2 75.9678 128.811 75.9678C130.423 75.9678 131.728 76.6204 131.728 77.4261Z" stroke="#151011" stroke-width="0.833333"/>
<path d="M123.707 75.2386C123.707 72.4889 123.707 71.1137 124.562 70.2599C125.416 69.406 126.791 69.4053 129.54 69.4053H132.457C135.207 69.4053 136.582 69.4053 137.436 70.2599C138.29 71.1144 138.29 72.4889 138.29 75.2386C138.29 77.9883 138.29 79.3635 137.436 80.2174C136.581 81.0712 135.207 81.0719 132.457 81.0719H129.54C126.791 81.0719 125.415 81.0719 124.562 80.2174C123.708 79.3628 123.707 77.9883 123.707 75.2386Z" stroke="#151011" stroke-width="0.833333"/>
<path d="M136.103 75.2383H133.186M136.103 73.0508H132.457M136.103 77.4258H133.915" stroke="#151011" stroke-width="0.833333" stroke-linecap="round"/>
<path d="M146.137 79.7383V71.0983H146.947L150.343 78.3643L153.721 71.0983H154.543V79.7323H153.703V73.0663L150.625 79.7383H150.055L146.983 73.0663V79.7383H146.137ZM158.081 79.9183C157.593 79.9183 157.183 79.8303 156.851 79.6543C156.523 79.4783 156.277 79.2443 156.113 78.9523C155.949 78.6603 155.867 78.3423 155.867 77.9983C155.867 77.6463 155.937 77.3463 156.077 77.0983C156.221 76.8463 156.415 76.6403 156.659 76.4803C156.907 76.3203 157.193 76.1983 157.517 76.1143C157.845 76.0343 158.207 75.9643 158.603 75.9043C159.003 75.8403 159.393 75.7863 159.773 75.7423C160.157 75.6943 160.493 75.6483 160.781 75.6043L160.469 75.7963C160.481 75.1563 160.357 74.6823 160.097 74.3743C159.837 74.0663 159.385 73.9123 158.741 73.9123C158.297 73.9123 157.921 74.0123 157.613 74.2123C157.309 74.4123 157.095 74.7283 156.971 75.1603L156.113 74.9083C156.261 74.3283 156.559 73.8783 157.007 73.5583C157.455 73.2383 158.037 73.0783 158.753 73.0783C159.345 73.0783 159.847 73.1903 160.259 73.4143C160.675 73.6343 160.969 73.9543 161.141 74.3743C161.221 74.5623 161.273 74.7723 161.297 75.0043C161.321 75.2363 161.333 75.4723 161.333 75.7123V79.7383H160.547V78.1123L160.775 78.2083C160.555 78.7643 160.213 79.1883 159.749 79.4803C159.285 79.7723 158.729 79.9183 158.081 79.9183ZM158.183 79.1563C158.595 79.1563 158.955 79.0823 159.263 78.9343C159.571 78.7863 159.819 78.5843 160.007 78.3283C160.195 78.0683 160.317 77.7763 160.373 77.4523C160.421 77.2443 160.447 77.0163 160.451 76.7683C160.455 76.5163 160.457 76.3283 160.457 76.2043L160.793 76.3783C160.493 76.4183 160.167 76.4583 159.815 76.4983C159.467 76.5383 159.123 76.5843 158.783 76.6363C158.447 76.6883 158.143 76.7503 157.871 76.8223C157.687 76.8743 157.509 76.9483 157.337 77.0443C157.165 77.1363 157.023 77.2603 156.911 77.4163C156.803 77.5723 156.749 77.7663 156.749 77.9983C156.749 78.1863 156.795 78.3683 156.887 78.5443C156.983 78.7203 157.135 78.8663 157.343 78.9823C157.555 79.0983 157.835 79.1563 158.183 79.1563ZM167.575 79.7383V76.4323C167.575 76.0723 167.541 75.7423 167.473 75.4423C167.405 75.1383 167.295 74.8743 167.143 74.6503C166.995 74.4223 166.801 74.2463 166.561 74.1223C166.325 73.9983 166.037 73.9363 165.697 73.9363C165.385 73.9363 165.109 73.9903 164.869 74.0983C164.633 74.2063 164.433 74.3623 164.269 74.5663C164.109 74.7663 163.987 75.0103 163.903 75.2983C163.819 75.5863 163.777 75.9143 163.777 76.2823L163.153 76.1443C163.153 75.4803 163.269 74.9223 163.501 74.4703C163.733 74.0183 164.053 73.6763 164.461 73.4443C164.869 73.2123 165.337 73.0963 165.865 73.0963C166.253 73.0963 166.591 73.1563 166.879 73.2763C167.171 73.3963 167.417 73.5583 167.617 73.7623C167.821 73.9663 167.985 74.2003 168.109 74.4643C168.233 74.7243 168.323 75.0023 168.379 75.2983C168.435 75.5903 168.463 75.8823 168.463 76.1743V79.7383H167.575ZM162.889 79.7383V73.2583H163.687V74.8543H163.777V79.7383H162.889ZM171.874 79.9183C171.386 79.9183 170.976 79.8303 170.644 79.6543C170.316 79.4783 170.07 79.2443 169.906 78.9523C169.742 78.6603 169.66 78.3423 169.66 77.9983C169.66 77.6463 169.73 77.3463 169.87 77.0983C170.014 76.8463 170.208 76.6403 170.452 76.4803C170.7 76.3203 170.986 76.1983 171.31 76.1143C171.638 76.0343 172 75.9643 172.396 75.9043C172.796 75.8403 173.186 75.7863 173.566 75.7423C173.95 75.6943 174.286 75.6483 174.574 75.6043L174.262 75.7963C174.274 75.1563 174.15 74.6823 173.89 74.3743C173.63 74.0663 173.178 73.9123 172.534 73.9123C172.09 73.9123 171.714 74.0123 171.406 74.2123C171.102 74.4123 170.888 74.7283 170.764 75.1603L169.906 74.9083C170.054 74.3283 170.352 73.8783 170.8 73.5583C171.248 73.2383 171.83 73.0783 172.546 73.0783C173.138 73.0783 173.64 73.1903 174.052 73.4143C174.468 73.6343 174.762 73.9543 174.934 74.3743C175.014 74.5623 175.066 74.7723 175.09 75.0043C175.114 75.2363 175.126 75.4723 175.126 75.7123V79.7383H174.34V78.1123L174.568 78.2083C174.348 78.7643 174.006 79.1883 173.542 79.4803C173.078 79.7723 172.522 79.9183 171.874 79.9183ZM171.976 79.1563C172.388 79.1563 172.748 79.0823 173.056 78.9343C173.364 78.7863 173.612 78.5843 173.8 78.3283C173.988 78.0683 174.11 77.7763 174.166 77.4523C174.214 77.2443 174.24 77.0163 174.244 76.7683C174.248 76.5163 174.25 76.3283 174.25 76.2043L174.586 76.3783C174.286 76.4183 173.96 76.4583 173.608 76.4983C173.26 76.5383 172.916 76.5843 172.576 76.6363C172.24 76.6883 171.936 76.7503 171.664 76.8223C171.48 76.8743 171.302 76.9483 171.13 77.0443C170.958 77.1363 170.816 77.2603 170.704 77.4163C170.596 77.5723 170.542 77.7663 170.542 77.9983C170.542 78.1863 170.588 78.3683 170.68 78.5443C170.776 78.7203 170.928 78.8663 171.136 78.9823C171.348 79.0983 171.628 79.1563 171.976 79.1563ZM179.262 82.7983C178.93 82.7983 178.602 82.7483 178.278 82.6483C177.958 82.5523 177.662 82.3983 177.39 82.1863C177.118 81.9783 176.89 81.7063 176.706 81.3703L177.504 80.9263C177.684 81.2863 177.936 81.5443 178.26 81.7003C178.588 81.8603 178.922 81.9403 179.262 81.9403C179.73 81.9403 180.108 81.8523 180.396 81.6763C180.688 81.5043 180.9 81.2483 181.032 80.9083C181.164 80.5683 181.228 80.1443 181.224 79.6363V77.9083H181.326V73.2583H182.112V79.6483C182.112 79.8323 182.106 80.0083 182.094 80.1763C182.086 80.3483 182.068 80.5163 182.04 80.6803C181.964 81.1643 181.806 81.5623 181.566 81.8743C181.33 82.1863 181.018 82.4183 180.63 82.5703C180.246 82.7223 179.79 82.7983 179.262 82.7983ZM179.202 79.9183C178.598 79.9183 178.082 79.7683 177.654 79.4683C177.226 79.1643 176.898 78.7543 176.67 78.2383C176.442 77.7223 176.328 77.1403 176.328 76.4923C176.328 75.8483 176.44 75.2683 176.664 74.7523C176.892 74.2363 177.218 73.8283 177.642 73.5283C178.066 73.2283 178.574 73.0783 179.166 73.0783C179.774 73.0783 180.286 73.2263 180.702 73.5223C181.118 73.8183 181.432 74.2243 181.644 74.7403C181.86 75.2523 181.968 75.8363 181.968 76.4923C181.968 77.1363 181.862 77.7183 181.65 78.2383C181.438 78.7543 181.126 79.1643 180.714 79.4683C180.302 79.7683 179.798 79.9183 179.202 79.9183ZM179.292 79.0963C179.752 79.0963 180.132 78.9843 180.432 78.7603C180.732 78.5363 180.956 78.2283 181.104 77.8363C181.252 77.4403 181.326 76.9923 181.326 76.4923C181.326 75.9843 181.252 75.5363 181.104 75.1483C180.956 74.7563 180.732 74.4503 180.432 74.2303C180.136 74.0103 179.762 73.9003 179.31 73.9003C178.846 73.9003 178.462 74.0143 178.158 74.2423C177.854 74.4703 177.628 74.7803 177.48 75.1723C177.336 75.5643 177.264 76.0043 177.264 76.4923C177.264 76.9843 177.338 77.4283 177.486 77.8243C177.638 78.2163 177.864 78.5263 178.164 78.7543C178.464 78.9823 178.84 79.0963 179.292 79.0963ZM186.531 79.9183C185.899 79.9183 185.351 79.7783 184.887 79.4983C184.427 79.2183 184.069 78.8243 183.813 78.3163C183.557 77.8083 183.429 77.2123 183.429 76.5283C183.429 75.8203 183.555 75.2083 183.807 74.6923C184.059 74.1763 184.413 73.7783 184.869 73.4983C185.329 73.2183 185.871 73.0783 186.495 73.0783C187.135 73.0783 187.681 73.2263 188.133 73.5223C188.585 73.8143 188.927 74.2343 189.159 74.7823C189.391 75.3303 189.497 75.9843 189.477 76.7443H188.577V76.4323C188.561 75.5923 188.379 74.9583 188.031 74.5303C187.687 74.1023 187.183 73.8883 186.519 73.8883C185.823 73.8883 185.289 74.1143 184.917 74.5663C184.549 75.0183 184.365 75.6623 184.365 76.4983C184.365 77.3143 184.549 77.9483 184.917 78.4003C185.289 78.8483 185.815 79.0723 186.495 79.0723C186.959 79.0723 187.363 78.9663 187.707 78.7543C188.055 78.5383 188.329 78.2283 188.529 77.8243L189.351 78.1423C189.095 78.7063 188.717 79.1443 188.217 79.4563C187.721 79.7643 187.159 79.9183 186.531 79.9183ZM184.053 76.7443V76.0063H189.003V76.7443H184.053ZM198.361 79.7383L198.367 75.4843C198.367 74.9843 198.227 74.5923 197.947 74.3083C197.671 74.0203 197.319 73.8763 196.891 73.8763C196.647 73.8763 196.409 73.9323 196.177 74.0443C195.945 74.1563 195.753 74.3363 195.601 74.5843C195.453 74.8323 195.379 75.1563 195.379 75.5563L194.857 75.4063C194.845 74.9423 194.935 74.5363 195.127 74.1883C195.323 73.8403 195.591 73.5703 195.931 73.3783C196.275 73.1823 196.663 73.0843 197.095 73.0843C197.747 73.0843 198.269 73.2863 198.661 73.6903C199.053 74.0903 199.249 74.6323 199.249 75.3163L199.243 79.7383H198.361ZM190.627 79.7383V73.2583H191.419V74.8543H191.515V79.7383H190.627ZM194.503 79.7383L194.509 75.5443C194.509 75.0283 194.371 74.6223 194.095 74.3263C193.823 74.0263 193.463 73.8763 193.015 73.8763C192.567 73.8763 192.205 74.0303 191.929 74.3383C191.653 74.6423 191.515 75.0483 191.515 75.5563L190.987 75.2683C190.987 74.8523 191.085 74.4803 191.281 74.1523C191.477 73.8203 191.745 73.5603 192.085 73.3723C192.425 73.1803 192.811 73.0843 193.243 73.0843C193.655 73.0843 194.021 73.1723 194.341 73.3483C194.665 73.5243 194.919 73.7803 195.103 74.1163C195.287 74.4523 195.379 74.8603 195.379 75.3403L195.373 79.7383H194.503ZM203.512 79.9183C202.88 79.9183 202.332 79.7783 201.868 79.4983C201.408 79.2183 201.05 78.8243 200.794 78.3163C200.538 77.8083 200.41 77.2123 200.41 76.5283C200.41 75.8203 200.536 75.2083 200.788 74.6923C201.04 74.1763 201.394 73.7783 201.85 73.4983C202.31 73.2183 202.852 73.0783 203.476 73.0783C204.116 73.0783 204.662 73.2263 205.114 73.5223C205.566 73.8143 205.908 74.2343 206.14 74.7823C206.372 75.3303 206.478 75.9843 206.458 76.7443H205.558V76.4323C205.542 75.5923 205.36 74.9583 205.012 74.5303C204.668 74.1023 204.164 73.8883 203.5 73.8883C202.804 73.8883 202.27 74.1143 201.898 74.5663C201.53 75.0183 201.346 75.6623 201.346 76.4983C201.346 77.3143 201.53 77.9483 201.898 78.4003C202.27 78.8483 202.796 79.0723 203.476 79.0723C203.94 79.0723 204.344 78.9663 204.688 78.7543C205.036 78.5383 205.31 78.2283 205.51 77.8243L206.332 78.1423C206.076 78.7063 205.698 79.1443 205.198 79.4563C204.702 79.7643 204.14 79.9183 203.512 79.9183ZM201.034 76.7443V76.0063H205.984V76.7443H201.034ZM212.293 79.7383V76.4323C212.293 76.0723 212.259 75.7423 212.191 75.4423C212.123 75.1383 212.013 74.8743 211.861 74.6503C211.713 74.4223 211.519 74.2463 211.279 74.1223C211.043 73.9983 210.755 73.9363 210.415 73.9363C210.103 73.9363 209.827 73.9903 209.587 74.0983C209.351 74.2063 209.151 74.3623 208.987 74.5663C208.827 74.7663 208.705 75.0103 208.621 75.2983C208.537 75.5863 208.495 75.9143 208.495 76.2823L207.871 76.1443C207.871 75.4803 207.987 74.9223 208.219 74.4703C208.451 74.0183 208.771 73.6763 209.179 73.4443C209.587 73.2123 210.055 73.0963 210.583 73.0963C210.971 73.0963 211.309 73.1563 211.597 73.2763C211.889 73.3963 212.135 73.5583 212.335 73.7623C212.539 73.9663 212.703 74.2003 212.827 74.4643C212.951 74.7243 213.041 75.0023 213.097 75.2983C213.153 75.5903 213.181 75.8823 213.181 76.1743V79.7383H212.293ZM207.607 79.7383V73.2583H208.405V74.8543H208.495V79.7383H207.607ZM218.266 79.7383C217.902 79.8143 217.542 79.8443 217.186 79.8283C216.834 79.8123 216.518 79.7363 216.238 79.6003C215.962 79.4643 215.752 79.2523 215.608 78.9643C215.492 78.7243 215.428 78.4823 215.416 78.2383C215.408 77.9903 215.404 77.7083 215.404 77.3923V71.4583H216.28V77.3563C216.28 77.6283 216.282 77.8563 216.286 78.0403C216.294 78.2203 216.336 78.3803 216.412 78.5203C216.556 78.7883 216.784 78.9483 217.096 79.0003C217.412 79.0523 217.802 79.0403 218.266 78.9643V79.7383ZM214.018 74.0143V73.2583H218.266V74.0143H214.018Z" fill="#151011"/>
<rect x="342.5" y="47.7383" width="109" height="31" transform="rotate(90 342.5 47.7383)" stroke="#E0E0E0"/>
<path d="M329.646 57.7982L330.28 57.7691C330.667 57.7691 331.038 57.9227 331.311 58.1962C331.585 58.4697 331.738 58.8406 331.738 59.2274L331.738 61.9049C331.738 62.2916 331.584 62.6625 331.311 62.9359L330.707 63.5397C330.434 63.8131 330.28 64.184 330.28 64.5707L330.28 67.4743C330.28 67.6769 330.238 67.8774 330.156 68.0628C330.074 68.2482 329.955 68.4146 329.805 68.5512C329.655 68.6879 329.479 68.7919 329.287 68.8565C329.095 68.9212 328.891 68.9451 328.69 68.9268L323.585 68.4623C323.223 68.4294 322.886 68.2622 322.641 67.9936C322.395 67.725 322.259 67.3744 322.259 67.0105L322.259 59.4651C322.259 59.1013 322.395 58.7507 322.641 58.482C322.886 58.2134 323.223 58.0463 323.585 58.0133L328.69 57.5489C329.027 57.5184 329.365 57.6066 329.645 57.7982L329.646 57.7982ZM329.551 59.0014C329.551 58.9001 329.53 58.7999 329.489 58.7072C329.448 58.6145 329.388 58.5314 329.313 58.463C329.239 58.3947 329.151 58.3427 329.055 58.3104C328.959 58.278 328.857 58.266 328.756 58.2751L323.652 58.7396C323.471 58.756 323.302 58.8395 323.179 58.9737C323.057 59.1079 322.988 59.2832 322.988 59.4651L322.988 67.0105C322.988 67.1924 323.057 67.3677 323.179 67.5019C323.302 67.6362 323.471 67.7197 323.652 67.7361L328.756 68.2005C328.857 68.2096 328.959 68.1976 329.055 68.1653C329.151 68.1329 329.239 68.0809 329.313 68.0126C329.388 67.9443 329.448 67.8611 329.489 67.7684C329.53 67.6758 329.551 67.5756 329.551 67.4743L329.551 59.0014ZM330.795 62.4212C330.863 62.3534 330.917 62.2729 330.954 62.1843C330.99 62.0957 331.009 62.0008 331.009 61.9049L331.009 59.2274C331.009 59.0364 330.934 58.853 330.8 58.7166C330.667 58.5803 330.485 58.5019 330.294 58.4982L330.192 58.5026C330.25 58.6596 330.279 58.8259 330.28 59.0014L330.28 62.9359L330.795 62.4212Z" fill="#151011"/>
<path d="M322.32 81.4455C322.32 80.8415 322.42 80.2975 322.62 79.8135C322.824 79.3335 323.112 78.9355 323.484 78.6195C323.856 78.3075 324.298 78.1035 324.81 78.0075L324.96 78.9075C324.4 79.0515 323.96 79.3555 323.64 79.8195C323.324 80.2835 323.166 80.8375 323.166 81.4815C323.166 81.9055 323.232 82.2855 323.364 82.6215C323.5 82.9575 323.692 83.2215 323.94 83.4135C324.188 83.6055 324.482 83.7015 324.822 83.7015C325.046 83.7015 325.236 83.6615 325.392 83.5815C325.552 83.5015 325.684 83.3955 325.788 83.2635C325.892 83.1315 325.978 82.9875 326.046 82.8315C326.118 82.6755 326.176 82.5235 326.22 82.3755L326.874 80.1855C326.95 79.9215 327.046 79.6775 327.162 79.4535C327.282 79.2295 327.424 79.0335 327.588 78.8655C327.756 78.7015 327.952 78.5735 328.176 78.4815C328.4 78.3895 328.656 78.3435 328.944 78.3435C329.432 78.3435 329.854 78.4715 330.21 78.7275C330.566 78.9835 330.84 79.3335 331.032 79.7775C331.224 80.2215 331.318 80.7275 331.314 81.2955C331.314 81.8715 331.212 82.3855 331.008 82.8375C330.804 83.2935 330.512 83.6695 330.132 83.9655C329.756 84.2615 329.31 84.4575 328.794 84.5535L328.626 83.6295C329.002 83.5695 329.328 83.4315 329.604 83.2155C329.88 82.9995 330.092 82.7235 330.24 82.3875C330.392 82.0555 330.47 81.6895 330.474 81.2895C330.474 80.9015 330.408 80.5555 330.276 80.2515C330.148 79.9515 329.972 79.7135 329.748 79.5375C329.524 79.3615 329.268 79.2735 328.98 79.2735C328.688 79.2735 328.454 79.3535 328.278 79.5135C328.102 79.6775 327.964 79.8775 327.864 80.1135C327.764 80.3535 327.682 80.5855 327.618 80.8095L327.12 82.5015C327.072 82.6775 327.002 82.8835 326.91 83.1195C326.822 83.3595 326.694 83.5915 326.526 83.8155C326.362 84.0435 326.146 84.2315 325.878 84.3795C325.61 84.5275 325.27 84.6015 324.858 84.6015C324.458 84.6015 324.1 84.5215 323.784 84.3615C323.468 84.2055 323.202 83.9835 322.986 83.6955C322.77 83.4115 322.606 83.0775 322.494 82.6935C322.378 82.3135 322.32 81.8975 322.32 81.4455ZM322.5 90.52L325.806 90.52C326.166 90.52 326.496 90.486 326.796 90.418C327.1 90.35 327.364 90.24 327.588 90.088C327.816 89.94 327.992 89.746 328.116 89.506C328.24 89.27 328.302 88.982 328.302 88.642C328.302 88.33 328.248 88.054 328.14 87.814C328.032 87.578 327.876 87.378 327.672 87.214C327.472 87.054 327.228 86.932 326.94 86.848C326.652 86.764 326.324 86.722 325.956 86.722L326.094 86.098C326.758 86.098 327.316 86.214 327.768 86.446C328.22 86.678 328.562 86.998 328.794 87.406C329.026 87.814 329.142 88.282 329.142 88.81C329.142 89.198 329.082 89.536 328.962 89.824C328.842 90.116 328.68 90.362 328.476 90.562C328.272 90.766 328.038 90.93 327.774 91.054C327.514 91.178 327.236 91.268 326.94 91.324C326.648 91.38 326.356 91.408 326.064 91.408L322.5 91.408L322.5 90.52ZM322.5 85.834L331.14 85.834L331.14 86.632L326.262 86.632L326.262 86.722L322.5 86.722L322.5 85.834ZM322.32 94.819C322.32 94.331 322.408 93.921 322.584 93.589C322.76 93.261 322.994 93.015 323.286 92.851C323.578 92.687 323.896 92.605 324.24 92.605C324.592 92.605 324.892 92.675 325.14 92.815C325.392 92.959 325.598 93.153 325.758 93.397C325.918 93.645 326.04 93.931 326.124 94.255C326.204 94.583 326.274 94.945 326.334 95.341C326.398 95.741 326.452 96.131 326.496 96.511C326.544 96.895 326.59 97.231 326.634 97.519L326.442 97.207C327.082 97.219 327.556 97.095 327.864 96.835C328.172 96.575 328.326 96.123 328.326 95.479C328.326 95.035 328.226 94.659 328.026 94.351C327.826 94.047 327.51 93.833 327.078 93.709L327.33 92.851C327.91 92.999 328.36 93.297 328.68 93.745C329 94.193 329.16 94.775 329.16 95.491C329.16 96.083 329.048 96.585 328.824 96.997C328.604 97.413 328.284 97.707 327.864 97.879C327.676 97.959 327.466 98.011 327.234 98.035C327.002 98.059 326.766 98.071 326.526 98.071L322.5 98.071L322.5 97.285L324.126 97.285L324.03 97.513C323.474 97.293 323.05 96.951 322.758 96.487C322.466 96.023 322.32 95.467 322.32 94.819ZM323.082 94.921C323.082 95.333 323.156 95.693 323.304 96.001C323.452 96.309 323.654 96.557 323.91 96.745C324.17 96.933 324.462 97.055 324.786 97.111C324.994 97.159 325.222 97.185 325.47 97.189C325.722 97.193 325.91 97.195 326.034 97.195L325.86 97.531C325.82 97.231 325.78 96.905 325.74 96.553C325.7 96.205 325.654 95.861 325.602 95.521C325.55 95.185 325.488 94.881 325.416 94.609C325.364 94.425 325.29 94.247 325.194 94.075C325.102 93.903 324.978 93.761 324.822 93.649C324.666 93.541 324.472 93.487 324.24 93.487C324.052 93.487 323.87 93.533 323.694 93.625C323.518 93.721 323.372 93.873 323.256 94.081C323.14 94.293 323.082 94.573 323.082 94.921ZM322.5 99.633L328.98 99.633L328.98 100.425L327.42 100.425L327.624 100.269C327.816 100.341 327.992 100.435 328.152 100.551C328.316 100.667 328.45 100.793 328.554 100.929C328.702 101.097 328.814 101.293 328.89 101.517C328.97 101.741 329.016 101.967 329.028 102.195C329.044 102.423 329.028 102.631 328.98 102.819L328.152 102.819C328.212 102.583 328.226 102.325 328.194 102.045C328.162 101.765 328.05 101.507 327.858 101.271C327.69 101.055 327.488 100.893 327.252 100.785C327.02 100.677 326.772 100.605 326.508 100.569C326.248 100.533 325.99 100.515 325.734 100.515L322.5 100.515L322.5 99.633ZM322.32 106.582C322.32 105.95 322.46 105.402 322.74 104.938C323.02 104.478 323.414 104.12 323.922 103.864C324.43 103.608 325.026 103.48 325.71 103.48C326.418 103.48 327.03 103.606 327.546 103.858C328.062 104.11 328.46 104.464 328.74 104.92C329.02 105.38 329.16 105.922 329.16 106.546C329.16 107.186 329.012 107.732 328.716 108.184C328.424 108.636 328.004 108.978 327.456 109.21C326.908 109.442 326.254 109.548 325.494 109.528L325.494 108.628L325.806 108.628C326.646 108.612 327.28 108.43 327.708 108.082C328.136 107.738 328.35 107.234 328.35 106.57C328.35 105.874 328.124 105.34 327.672 104.968C327.22 104.6 326.576 104.416 325.74 104.416C324.924 104.416 324.29 104.6 323.838 104.968C323.39 105.34 323.166 105.866 323.166 106.546C323.166 107.01 323.272 107.414 323.484 107.758C323.7 108.106 324.01 108.38 324.414 108.58L324.096 109.402C323.532 109.146 323.094 108.768 322.782 108.268C322.474 107.772 322.32 107.21 322.32 106.582ZM325.494 104.104L326.232 104.104L326.232 109.054L325.494 109.054L325.494 104.104ZM322.5 113.904L329.46 113.904C329.628 113.904 329.794 113.912 329.958 113.928C330.122 113.948 330.278 113.986 330.426 114.042C330.578 114.098 330.718 114.186 330.846 114.306C330.99 114.438 331.094 114.582 331.158 114.738C331.226 114.894 331.27 115.056 331.29 115.224C331.31 115.396 331.32 115.564 331.32 115.728L331.32 116.556L330.576 116.556L330.576 115.788C330.576 115.452 330.494 115.2 330.33 115.032C330.166 114.868 329.908 114.786 329.556 114.786L322.5 114.786L322.5 113.904ZM328.224 112.782L328.98 112.782L328.98 116.556L328.224 116.556L328.224 112.782ZM322.32 119.987C322.32 119.343 322.466 118.793 322.758 118.337C323.05 117.881 323.454 117.531 323.97 117.287C324.486 117.043 325.078 116.921 325.746 116.921C326.426 116.921 327.022 117.045 327.534 117.293C328.046 117.541 328.444 117.893 328.728 118.349C329.016 118.809 329.16 119.355 329.16 119.987C329.16 120.635 329.014 121.187 328.722 121.643C328.434 122.103 328.032 122.453 327.516 122.693C327.004 122.937 326.414 123.059 325.746 123.059C325.066 123.059 324.468 122.937 323.952 122.693C323.44 122.449 323.04 122.097 322.752 121.637C322.464 121.177 322.32 120.627 322.32 119.987ZM323.166 119.987C323.166 120.707 323.404 121.243 323.88 121.595C324.36 121.947 324.982 122.123 325.746 122.123C326.53 122.123 327.154 121.945 327.618 121.589C328.082 121.237 328.314 120.703 328.314 119.987C328.314 119.503 328.204 119.103 327.984 118.787C327.768 118.475 327.466 118.241 327.078 118.085C326.694 117.933 326.25 117.857 325.746 117.857C324.966 117.857 324.34 118.037 323.868 118.397C323.4 118.757 323.166 119.287 323.166 119.987ZM322.5 124.503L331.32 124.503L331.32 125.385L322.5 125.385L322.5 124.503ZM322.32 129.698C322.32 129.094 322.47 128.578 322.77 128.15C323.074 127.722 323.484 127.394 324 127.166C324.516 126.938 325.098 126.824 325.746 126.824C326.39 126.824 326.97 126.936 327.486 127.16C328.002 127.388 328.41 127.714 328.71 128.138C329.01 128.562 329.16 129.07 329.16 129.662C329.16 130.27 329.012 130.782 328.716 131.198C328.42 131.614 328.014 131.928 327.498 132.14C326.986 132.356 326.402 132.464 325.746 132.464C325.102 132.464 324.52 132.358 324 132.146C323.484 131.934 323.074 131.622 322.77 131.21C322.47 130.798 322.32 130.294 322.32 129.698ZM323.142 129.788C323.142 130.248 323.254 130.628 323.478 130.928C323.702 131.228 324.01 131.452 324.402 131.6C324.798 131.748 325.246 131.822 325.746 131.822C326.254 131.822 326.702 131.748 327.09 131.6C327.482 131.452 327.788 131.228 328.008 130.928C328.228 130.632 328.338 130.258 328.338 129.806C328.338 129.342 328.224 128.958 327.996 128.654C327.768 128.35 327.458 128.124 327.066 127.976C326.674 127.832 326.234 127.76 325.746 127.76C325.254 127.76 324.81 127.834 324.414 127.982C324.022 128.134 323.712 128.36 323.484 128.66C323.256 128.96 323.142 129.336 323.142 129.788ZM322.5 131.822L327.378 131.822L327.378 131.726L331.14 131.726L331.14 132.614L322.5 132.614L322.5 131.822ZM322.32 137.039C322.32 136.407 322.46 135.859 322.74 135.395C323.02 134.935 323.414 134.577 323.922 134.321C324.43 134.065 325.026 133.937 325.71 133.937C326.418 133.937 327.03 134.063 327.546 134.315C328.062 134.567 328.46 134.921 328.74 135.377C329.02 135.837 329.16 136.379 329.16 137.003C329.16 137.643 329.012 138.189 328.716 138.641C328.424 139.093 328.004 139.435 327.456 139.667C326.908 139.899 326.254 140.005 325.494 139.985L325.494 139.085L325.806 139.085C326.646 139.069 327.28 138.887 327.708 138.539C328.136 138.195 328.35 137.691 328.35 137.027C328.35 136.331 328.124 135.797 327.672 135.425C327.22 135.057 326.576 134.873 325.74 134.873C324.924 134.873 324.29 135.057 323.838 135.425C323.39 135.797 323.166 136.323 323.166 137.003C323.166 137.467 323.272 137.871 323.484 138.215C323.7 138.563 324.01 138.837 324.414 139.037L324.096 139.859C323.532 139.603 323.094 139.225 322.782 138.725C322.474 138.229 322.32 137.667 322.32 137.039ZM325.494 134.561L326.232 134.561L326.232 139.511L325.494 139.511L325.494 134.561ZM322.5 141.317L328.98 141.317L328.98 142.109L327.42 142.109L327.624 141.953C327.816 142.025 327.992 142.119 328.152 142.235C328.316 142.351 328.45 142.477 328.554 142.613C328.702 142.781 328.814 142.977 328.89 143.201C328.97 143.425 329.016 143.651 329.028 143.879C329.044 144.107 329.028 144.315 328.98 144.503L328.152 144.503C328.212 144.267 328.226 144.009 328.194 143.729C328.162 143.449 328.05 143.191 327.858 142.955C327.69 142.739 327.488 142.577 327.252 142.469C327.02 142.361 326.772 142.289 326.508 142.253C326.248 142.217 325.99 142.199 325.734 142.199L322.5 142.199L322.5 141.317ZM322.326 147.824C322.326 147.064 322.49 146.438 322.818 145.946C323.146 145.458 323.602 145.158 324.186 145.046L324.336 145.946C323.968 146.042 323.674 146.26 323.454 146.6C323.238 146.944 323.13 147.368 323.13 147.872C323.13 148.364 323.232 148.752 323.436 149.036C323.644 149.32 323.926 149.462 324.282 149.462C324.482 149.462 324.644 149.416 324.768 149.324C324.896 149.236 325.014 149.054 325.122 148.778C325.23 148.502 325.358 148.09 325.506 147.542C325.666 146.954 325.826 146.494 325.986 146.162C326.146 145.83 326.33 145.594 326.538 145.454C326.75 145.314 327.008 145.244 327.312 145.244C327.68 145.244 328.002 145.348 328.278 145.556C328.558 145.764 328.774 146.052 328.926 146.42C329.082 146.788 329.16 147.216 329.16 147.704C329.16 148.192 329.08 148.628 328.92 149.012C328.764 149.4 328.544 149.712 328.26 149.948C327.976 150.184 327.646 150.324 327.27 150.368L327.108 149.468C327.488 149.408 327.788 149.218 328.008 148.898C328.232 148.582 328.348 148.18 328.356 147.692C328.368 147.232 328.28 146.858 328.092 146.57C327.908 146.282 327.662 146.138 327.354 146.138C327.182 146.138 327.034 146.19 326.91 146.294C326.79 146.398 326.676 146.586 326.568 146.858C326.46 147.134 326.342 147.526 326.214 148.034C326.062 148.63 325.902 149.098 325.734 149.438C325.566 149.778 325.368 150.02 325.14 150.164C324.912 150.308 324.63 150.38 324.294 150.38C323.682 150.38 323.2 150.152 322.848 149.696C322.5 149.244 322.326 148.62 322.326 147.824Z" fill="#151011"/>
<rect x="0.5" y="125.738" width="119" height="31" stroke="#E0E0E0"/>
<path d="M11 139.795C11 140.592 12.2786 141.238 13.8571 141.238V139.795C13.8571 139.085 13.8571 138.729 13.5736 138.512C13.2893 138.296 13.0079 138.377 12.445 138.539C11.5821 138.788 11 139.256 11 139.795Z" stroke="#151011" stroke-width="0.857143" stroke-linejoin="round"/>
<path d="M18.8555 138.738C18.8555 140.119 16.6169 141.238 13.8555 141.238C11.094 141.238 8.85547 140.119 8.85547 138.738C8.85547 137.358 11.094 136.238 13.8555 136.238C16.6169 136.238 18.8555 137.358 18.8555 138.738Z" stroke="#151011" stroke-width="0.857143"/>
<path d="M8.85547 139.096V143.858C8.85547 145.172 11.094 146.239 13.8555 146.239H21.7126C22.3862 146.239 22.7226 146.239 22.9319 146.029C23.1412 145.82 23.1412 145.484 23.1412 144.81V142.667C23.1412 141.994 23.1412 141.657 22.9319 141.448C22.7226 141.239 22.3862 141.239 21.7126 141.239H13.8555" stroke="#151011" stroke-width="0.857143"/>
<path d="M20.2824 146.238V144.809M17.4252 146.238V144.809M14.5681 146.238V144.809M11.7109 145.881V144.452" stroke="#151011" stroke-width="0.857143" stroke-linecap="round" stroke-linejoin="round"/>
<path d="M31.1623 145.738V137.098H31.9723L35.3683 144.364L38.7463 137.098H39.5683V145.732H38.7283V139.066L35.6503 145.738H35.0803L32.0083 139.066V145.738H31.1623ZM43.9941 145.918C43.3621 145.918 42.8141 145.778 42.3501 145.498C41.8901 145.218 41.5321 144.824 41.2761 144.316C41.0201 143.808 40.8921 143.212 40.8921 142.528C40.8921 141.82 41.0181 141.208 41.2701 140.692C41.5221 140.176 41.8761 139.778 42.3321 139.498C42.7921 139.218 43.3341 139.078 43.9581 139.078C44.5981 139.078 45.1441 139.226 45.5961 139.522C46.0481 139.814 46.3901 140.234 46.6221 140.782C46.8541 141.33 46.9601 141.984 46.9401 142.744H46.0401V142.432C46.0241 141.592 45.8421 140.958 45.4941 140.53C45.1501 140.102 44.6461 139.888 43.9821 139.888C43.2861 139.888 42.7521 140.114 42.3801 140.566C42.0121 141.018 41.8281 141.662 41.8281 142.498C41.8281 143.314 42.0121 143.948 42.3801 144.4C42.7521 144.848 43.2781 145.072 43.9581 145.072C44.4221 145.072 44.8261 144.966 45.1701 144.754C45.5181 144.538 45.7921 144.228 45.9921 143.824L46.8141 144.142C46.5581 144.706 46.1801 145.144 45.6801 145.456C45.1841 145.764 44.6221 145.918 43.9941 145.918ZM41.5161 142.744V142.006H46.4661V142.744H41.5161ZM50.0085 145.918C49.5205 145.918 49.1105 145.83 48.7785 145.654C48.4505 145.478 48.2045 145.244 48.0405 144.952C47.8765 144.66 47.7945 144.342 47.7945 143.998C47.7945 143.646 47.8645 143.346 48.0045 143.098C48.1485 142.846 48.3425 142.64 48.5865 142.48C48.8345 142.32 49.1205 142.198 49.4445 142.114C49.7725 142.034 50.1345 141.964 50.5305 141.904C50.9305 141.84 51.3205 141.786 51.7005 141.742C52.0845 141.694 52.4205 141.648 52.7085 141.604L52.3965 141.796C52.4085 141.156 52.2845 140.682 52.0245 140.374C51.7645 140.066 51.3125 139.912 50.6685 139.912C50.2245 139.912 49.8485 140.012 49.5405 140.212C49.2365 140.412 49.0225 140.728 48.8985 141.16L48.0405 140.908C48.1885 140.328 48.4865 139.878 48.9345 139.558C49.3825 139.238 49.9645 139.078 50.6805 139.078C51.2725 139.078 51.7745 139.19 52.1865 139.414C52.6025 139.634 52.8965 139.954 53.0685 140.374C53.1485 140.562 53.2005 140.772 53.2245 141.004C53.2485 141.236 53.2605 141.472 53.2605 141.712V145.738H52.4745V144.112L52.7025 144.208C52.4825 144.764 52.1405 145.188 51.6765 145.48C51.2125 145.772 50.6565 145.918 50.0085 145.918ZM50.1105 145.156C50.5225 145.156 50.8825 145.082 51.1905 144.934C51.4985 144.786 51.7465 144.584 51.9345 144.328C52.1225 144.068 52.2445 143.776 52.3005 143.452C52.3485 143.244 52.3745 143.016 52.3785 142.768C52.3825 142.516 52.3845 142.328 52.3845 142.204L52.7205 142.378C52.4205 142.418 52.0945 142.458 51.7425 142.498C51.3945 142.538 51.0505 142.584 50.7105 142.636C50.3745 142.688 50.0705 142.75 49.7985 142.822C49.6145 142.874 49.4365 142.948 49.2645 143.044C49.0925 143.136 48.9505 143.26 48.8385 143.416C48.7305 143.572 48.6765 143.766 48.6765 143.998C48.6765 144.186 48.7225 144.368 48.8145 144.544C48.9105 144.72 49.0625 144.866 49.2705 144.982C49.4825 145.098 49.7625 145.156 50.1105 145.156ZM57.2404 145.912C56.4804 145.912 55.8544 145.748 55.3624 145.42C54.8744 145.092 54.5744 144.636 54.4624 144.052L55.3624 143.902C55.4584 144.27 55.6764 144.564 56.0164 144.784C56.3604 145 56.7844 145.108 57.2884 145.108C57.7804 145.108 58.1684 145.006 58.4524 144.802C58.7364 144.594 58.8784 144.312 58.8784 143.956C58.8784 143.756 58.8324 143.594 58.7404 143.47C58.6524 143.342 58.4704 143.224 58.1944 143.116C57.9184 143.008 57.5064 142.88 56.9584 142.732C56.3704 142.572 55.9104 142.412 55.5784 142.252C55.2464 142.092 55.0104 141.908 54.8704 141.7C54.7304 141.488 54.6604 141.23 54.6604 140.926C54.6604 140.558 54.7644 140.236 54.9724 139.96C55.1804 139.68 55.4684 139.464 55.8364 139.312C56.2044 139.156 56.6324 139.078 57.1204 139.078C57.6084 139.078 58.0444 139.158 58.4284 139.318C58.8164 139.474 59.1284 139.694 59.3644 139.978C59.6004 140.262 59.7404 140.592 59.7844 140.968L58.8844 141.13C58.8244 140.75 58.6344 140.45 58.3144 140.23C57.9984 140.006 57.5964 139.89 57.1084 139.882C56.6484 139.87 56.2744 139.958 55.9864 140.146C55.6984 140.33 55.5544 140.576 55.5544 140.884C55.5544 141.056 55.6064 141.204 55.7104 141.328C55.8144 141.448 56.0024 141.562 56.2744 141.67C56.5504 141.778 56.9424 141.896 57.4504 142.024C58.0464 142.176 58.5144 142.336 58.8544 142.504C59.1944 142.672 59.4364 142.87 59.5804 143.098C59.7244 143.326 59.7964 143.608 59.7964 143.944C59.7964 144.556 59.5684 145.038 59.1124 145.39C58.6604 145.738 58.0364 145.912 57.2404 145.912ZM63.6051 145.9C63.2171 145.9 62.8771 145.84 62.5851 145.72C62.2971 145.6 62.0511 145.438 61.8471 145.234C61.6471 145.03 61.4851 144.798 61.3611 144.538C61.2371 144.274 61.1471 143.996 61.0911 143.704C61.0351 143.408 61.0071 143.114 61.0071 142.822V139.258H61.8951V142.564C61.8951 142.92 61.9291 143.25 61.9971 143.554C62.0651 143.858 62.1731 144.124 62.3211 144.352C62.4731 144.576 62.6671 144.75 62.9031 144.874C63.1431 144.998 63.4331 145.06 63.7731 145.06C64.0851 145.06 64.3591 145.006 64.5951 144.898C64.8351 144.79 65.0351 144.636 65.1951 144.436C65.3591 144.232 65.4831 143.986 65.5671 143.698C65.6511 143.406 65.6931 143.078 65.6931 142.714L66.3171 142.852C66.3171 143.516 66.2011 144.074 65.9691 144.526C65.7371 144.978 65.4171 145.32 65.0091 145.552C64.6011 145.784 64.1331 145.9 63.6051 145.9ZM65.7831 145.738V144.142H65.6931V139.258H66.5751V145.738H65.7831ZM68.2521 145.738V139.258H69.0441V140.818L68.8881 140.614C68.9601 140.422 69.0541 140.246 69.1701 140.086C69.2861 139.922 69.4121 139.788 69.5481 139.684C69.7161 139.536 69.9121 139.424 70.1361 139.348C70.3601 139.268 70.5861 139.222 70.8141 139.21C71.0421 139.194 71.2501 139.21 71.4381 139.258V140.086C71.2021 140.026 70.9441 140.012 70.6641 140.044C70.3841 140.076 70.1261 140.188 69.8901 140.38C69.6741 140.548 69.5121 140.75 69.4041 140.986C69.2961 141.218 69.2241 141.466 69.1881 141.73C69.1521 141.99 69.1341 142.248 69.1341 142.504V145.738H68.2521ZM75.2011 145.918C74.5691 145.918 74.0211 145.778 73.5571 145.498C73.0971 145.218 72.7391 144.824 72.4831 144.316C72.2271 143.808 72.0991 143.212 72.0991 142.528C72.0991 141.82 72.2251 141.208 72.4771 140.692C72.7291 140.176 73.0831 139.778 73.5391 139.498C73.9991 139.218 74.5411 139.078 75.1651 139.078C75.8051 139.078 76.3511 139.226 76.8031 139.522C77.2551 139.814 77.5971 140.234 77.8291 140.782C78.0611 141.33 78.1671 141.984 78.1471 142.744H77.2471V142.432C77.2311 141.592 77.0491 140.958 76.7011 140.53C76.3571 140.102 75.8531 139.888 75.1891 139.888C74.4931 139.888 73.9591 140.114 73.5871 140.566C73.2191 141.018 73.0351 141.662 73.0351 142.498C73.0351 143.314 73.2191 143.948 73.5871 144.4C73.9591 144.848 74.4851 145.072 75.1651 145.072C75.6291 145.072 76.0331 144.966 76.3771 144.754C76.7251 144.538 76.9991 144.228 77.1991 143.824L78.0211 144.142C77.7651 144.706 77.3871 145.144 76.8871 145.456C76.3911 145.764 75.8291 145.918 75.2011 145.918ZM72.7231 142.744V142.006H77.6731V142.744H72.7231ZM87.0309 145.738L87.0369 141.484C87.0369 140.984 86.8969 140.592 86.6169 140.308C86.3409 140.02 85.9889 139.876 85.5609 139.876C85.3169 139.876 85.0789 139.932 84.8469 140.044C84.6149 140.156 84.4229 140.336 84.2709 140.584C84.1229 140.832 84.0489 141.156 84.0489 141.556L83.5269 141.406C83.5149 140.942 83.6049 140.536 83.7969 140.188C83.9929 139.84 84.2609 139.57 84.6009 139.378C84.9449 139.182 85.3329 139.084 85.7649 139.084C86.4169 139.084 86.9389 139.286 87.3309 139.69C87.7229 140.09 87.9189 140.632 87.9189 141.316L87.9129 145.738H87.0309ZM79.2969 145.738V139.258H80.0889V140.854H80.1849V145.738H79.2969ZM83.1729 145.738L83.1789 141.544C83.1789 141.028 83.0409 140.622 82.7649 140.326C82.4929 140.026 82.1329 139.876 81.6849 139.876C81.2369 139.876 80.8749 140.03 80.5989 140.338C80.3229 140.642 80.1849 141.048 80.1849 141.556L79.6569 141.268C79.6569 140.852 79.7549 140.48 79.9509 140.152C80.1469 139.82 80.4149 139.56 80.7549 139.372C81.0949 139.18 81.4809 139.084 81.9129 139.084C82.3249 139.084 82.6909 139.172 83.0109 139.348C83.3349 139.524 83.5889 139.78 83.7729 140.116C83.9569 140.452 84.0489 140.86 84.0489 141.34L84.0429 145.738H83.1729ZM92.1816 145.918C91.5496 145.918 91.0016 145.778 90.5376 145.498C90.0776 145.218 89.7196 144.824 89.4636 144.316C89.2076 143.808 89.0796 143.212 89.0796 142.528C89.0796 141.82 89.2056 141.208 89.4576 140.692C89.7096 140.176 90.0636 139.778 90.5196 139.498C90.9796 139.218 91.5216 139.078 92.1456 139.078C92.7856 139.078 93.3316 139.226 93.7836 139.522C94.2356 139.814 94.5776 140.234 94.8096 140.782C95.0416 141.33 95.1476 141.984 95.1276 142.744H94.2276V142.432C94.2116 141.592 94.0296 140.958 93.6816 140.53C93.3376 140.102 92.8336 139.888 92.1696 139.888C91.4736 139.888 90.9396 140.114 90.5676 140.566C90.1996 141.018 90.0156 141.662 90.0156 142.498C90.0156 143.314 90.1996 143.948 90.5676 144.4C90.9396 144.848 91.4656 145.072 92.1456 145.072C92.6096 145.072 93.0136 144.966 93.3576 144.754C93.7056 144.538 93.9796 144.228 94.1796 143.824L95.0016 144.142C94.7456 144.706 94.3676 145.144 93.8676 145.456C93.3716 145.764 92.8096 145.918 92.1816 145.918ZM89.7036 142.744V142.006H94.6536V142.744H89.7036ZM100.963 145.738V142.432C100.963 142.072 100.929 141.742 100.861 141.442C100.793 141.138 100.683 140.874 100.531 140.65C100.383 140.422 100.189 140.246 99.9494 140.122C99.7134 139.998 99.4254 139.936 99.0854 139.936C98.7734 139.936 98.4974 139.99 98.2574 140.098C98.0214 140.206 97.8214 140.362 97.6574 140.566C97.4974 140.766 97.3754 141.01 97.2914 141.298C97.2074 141.586 97.1654 141.914 97.1654 142.282L96.5414 142.144C96.5414 141.48 96.6574 140.922 96.8894 140.47C97.1214 140.018 97.4414 139.676 97.8494 139.444C98.2574 139.212 98.7254 139.096 99.2534 139.096C99.6414 139.096 99.9794 139.156 100.267 139.276C100.559 139.396 100.805 139.558 101.005 139.762C101.209 139.966 101.373 140.2 101.497 140.464C101.621 140.724 101.711 141.002 101.767 141.298C101.823 141.59 101.851 141.882 101.851 142.174V145.738H100.963ZM96.2774 145.738V139.258H97.0754V140.854H97.1654V145.738H96.2774ZM106.936 145.738C106.572 145.814 106.212 145.844 105.856 145.828C105.504 145.812 105.188 145.736 104.908 145.6C104.632 145.464 104.422 145.252 104.278 144.964C104.162 144.724 104.098 144.482 104.086 144.238C104.078 143.99 104.074 143.708 104.074 143.392V137.458H104.95V143.356C104.95 143.628 104.952 143.856 104.956 144.04C104.964 144.22 105.006 144.38 105.082 144.52C105.226 144.788 105.454 144.948 105.766 145C106.082 145.052 106.472 145.04 106.936 144.964V145.738ZM102.688 140.014V139.258H106.936V140.014H102.688ZM110.631 145.912C109.871 145.912 109.245 145.748 108.753 145.42C108.265 145.092 107.965 144.636 107.853 144.052L108.753 143.902C108.849 144.27 109.067 144.564 109.407 144.784C109.751 145 110.175 145.108 110.679 145.108C111.171 145.108 111.559 145.006 111.843 144.802C112.127 144.594 112.269 144.312 112.269 143.956C112.269 143.756 112.223 143.594 112.131 143.47C112.043 143.342 111.861 143.224 111.585 143.116C111.309 143.008 110.897 142.88 110.349 142.732C109.761 142.572 109.301 142.412 108.969 142.252C108.637 142.092 108.401 141.908 108.261 141.7C108.121 141.488 108.051 141.23 108.051 140.926C108.051 140.558 108.155 140.236 108.363 139.96C108.571 139.68 108.859 139.464 109.227 139.312C109.595 139.156 110.023 139.078 110.511 139.078C110.999 139.078 111.435 139.158 111.819 139.318C112.207 139.474 112.519 139.694 112.755 139.978C112.991 140.262 113.131 140.592 113.175 140.968L112.275 141.13C112.215 140.75 112.025 140.45 111.705 140.23C111.389 140.006 110.987 139.89 110.499 139.882C110.039 139.87 109.665 139.958 109.377 140.146C109.089 140.33 108.945 140.576 108.945 140.884C108.945 141.056 108.997 141.204 109.101 141.328C109.205 141.448 109.393 141.562 109.665 141.67C109.941 141.778 110.333 141.896 110.841 142.024C111.437 142.176 111.905 142.336 112.245 142.504C112.585 142.672 112.827 142.87 112.971 143.098C113.115 143.326 113.187 143.608 113.187 143.944C113.187 144.556 112.959 145.038 112.503 145.39C112.051 145.738 111.427 145.912 110.631 145.912Z" fill="#151011"/>
<rect x="267.838" y="27.8507" width="112" height="31" transform="rotate(75 267.838 27.8507)" stroke="#E0E0E0"/>
<path d="M250.243 43.0041L253.047 53.4683M260.5 46.0019L262.584 47.2054L260.477 50.8541L258.393 49.6506M260.5 46.0019L256.367 43.6157C256.228 43.5359 256.064 43.5142 255.91 43.5555L253.273 44.2621L253.979 46.899C254.021 47.0532 254.122 47.1846 254.26 47.2644L258.393 49.6506M260.5 46.0019L258.393 49.6506" stroke="#151011" stroke-width="0.833333" stroke-linecap="round" stroke-linejoin="round"/>
<path d="M257.138 65.8868C256.915 65.0561 256.911 64.3057 257.124 63.6355C257.342 62.9643 257.738 62.3944 258.312 61.9258C258.887 61.4572 259.601 61.1085 260.455 60.8797C261.309 60.6509 262.101 60.5958 262.833 60.7145C263.565 60.8332 264.191 61.1293 264.711 61.6027C265.235 62.0752 265.608 62.7267 265.831 63.5574C266.091 64.5272 266.054 65.3861 265.72 66.1339C265.39 66.8808 264.838 67.48 264.065 67.9316L263.606 67.1228C264.219 66.768 264.657 66.309 264.92 65.7457C265.183 65.1824 265.215 64.526 265.014 63.7764C264.839 63.1234 264.545 62.6204 264.131 62.2674C263.718 61.9144 263.215 61.6992 262.623 61.6219C262.035 61.5473 261.393 61.5994 260.695 61.778C259.999 61.9605 259.415 62.2308 258.944 62.589C258.473 62.9511 258.146 63.3908 257.962 63.9081C257.782 64.4283 257.78 65.0149 257.955 65.6679C258.156 66.4174 258.511 66.9703 259.02 67.3266C259.534 67.6818 260.143 67.8603 260.847 67.862L260.854 68.7919C259.958 68.7876 259.179 68.545 258.516 68.0642C257.857 67.5824 257.397 66.8566 257.138 65.8868ZM259.114 73.1941C259.014 72.8193 258.984 72.4753 259.024 72.1622C259.065 71.853 259.158 71.5734 259.302 71.3236C259.448 71.0776 259.63 70.8611 259.849 70.674C260.072 70.4859 260.317 70.327 260.585 70.1974C260.856 70.0667 261.133 69.9635 261.415 69.8879L264.857 68.9655L265.087 69.8233L261.894 70.6789C261.55 70.771 261.24 70.8893 260.964 71.0337C260.688 71.178 260.459 71.3512 260.277 71.5532C260.1 71.758 259.982 71.9904 259.924 72.2504C259.866 72.5144 259.881 72.8105 259.969 73.1389C260.05 73.4403 260.173 73.691 260.338 73.891C260.505 74.0949 260.705 74.2482 260.94 74.351C261.179 74.4566 261.449 74.5127 261.749 74.5193C262.053 74.5249 262.38 74.4805 262.732 74.3863L262.76 75.0248C262.119 75.1966 261.55 75.229 261.053 75.1219C260.557 75.0148 260.143 74.7942 259.814 74.4602C259.484 74.1261 259.251 73.7041 259.114 73.1941ZM259.834 75.2559L261.376 74.8428L261.353 74.7559L266.07 73.4918L266.299 74.3438L260.039 76.0209L259.834 75.2559ZM260.931 80.0214C260.734 79.2873 260.731 78.6402 260.92 78.0801C261.111 77.5238 261.474 77.116 262.009 76.8567L262.387 77.6872C262.056 77.8752 261.828 78.1618 261.704 78.5472C261.584 78.9354 261.59 79.3729 261.72 79.8597C261.848 80.3349 262.046 80.6833 262.317 80.9048C262.591 81.1253 262.901 81.1895 263.244 81.0974C263.438 81.0456 263.582 80.9592 263.678 80.8383C263.779 80.7202 263.846 80.5138 263.879 80.2193C263.912 79.9247 263.929 79.4936 263.93 78.926C263.932 78.3166 263.968 77.8309 264.036 77.4688C264.105 77.1067 264.222 76.8311 264.386 76.642C264.555 76.4519 264.786 76.3176 265.08 76.2389C265.435 76.1436 265.773 76.1607 266.093 76.2902C266.418 76.4187 266.701 76.6409 266.943 76.9571C267.189 77.2722 267.375 77.6654 267.501 78.1368C267.628 78.6081 267.663 79.05 267.608 79.4623C267.558 79.8775 267.426 80.2358 267.213 80.5372C266.999 80.8387 266.717 81.0593 266.365 81.1991L265.976 80.3717C266.327 80.2154 266.568 79.9543 266.698 79.5882C266.832 79.225 266.84 78.8067 266.722 78.3333C266.614 77.8858 266.432 77.5473 266.176 77.3178C265.924 77.0872 265.649 77.0118 265.351 77.0915C265.185 77.1361 265.056 77.2246 264.963 77.3571C264.874 77.4887 264.813 77.6998 264.779 77.9904C264.746 78.285 264.733 78.6942 264.741 79.218C264.748 79.833 264.715 80.3265 264.641 80.6984C264.566 81.0703 264.438 81.3553 264.255 81.5534C264.072 81.7515 263.818 81.894 263.494 81.981C262.902 82.1394 262.378 82.0439 261.92 81.6945C261.467 81.348 261.137 80.7903 260.931 80.0214ZM263.018 87.1384C262.851 86.8065 262.729 86.4665 262.652 86.1185C262.576 85.7744 262.568 85.4495 262.627 85.1438C262.687 84.842 262.837 84.5843 263.078 84.3707C263.28 84.1965 263.497 84.0721 263.73 83.9973C263.967 83.9254 264.238 83.8486 264.544 83.7668L270.275 82.2309L270.502 83.0771L264.805 84.6036C264.542 84.674 264.323 84.7349 264.146 84.7864C263.974 84.8407 263.831 84.9227 263.715 85.0324C263.493 85.2408 263.398 85.5025 263.428 85.8173C263.46 86.136 263.572 86.5096 263.766 86.9381L263.018 87.1384ZM267.448 81.5537L268.178 81.358L269.277 85.4613L268.547 85.657L267.448 81.5537ZM263.815 90.8056C263.648 90.1836 263.647 89.6145 263.811 89.0985C263.975 88.5824 264.274 88.1398 264.71 87.7706C265.145 87.4013 265.685 87.1303 266.33 86.9574C266.987 86.7814 267.595 86.7469 268.154 86.8539C268.712 86.961 269.188 87.198 269.58 87.5649C269.978 87.9347 270.258 88.4248 270.421 89.0353C270.589 89.6612 270.591 90.2322 270.427 90.7482C270.268 91.2671 269.97 91.7092 269.534 92.0746C269.102 92.4428 268.564 92.7133 267.919 92.8862C267.262 93.0622 266.653 93.0992 266.091 92.997C265.534 92.8939 265.056 92.6574 264.659 92.2876C264.262 91.9178 263.98 91.4238 263.815 90.8056ZM264.632 90.5867C264.818 91.2821 265.187 91.7383 265.738 91.9551C266.292 92.1708 266.939 92.1799 267.677 91.9821C268.434 91.7792 268.991 91.4458 269.347 90.9818C269.704 90.5217 269.79 89.9459 269.604 89.2543C269.479 88.7867 269.269 88.4288 268.975 88.1806C268.686 87.9351 268.333 87.7872 267.918 87.737C267.508 87.6895 267.059 87.731 266.573 87.8615C265.819 88.0634 265.261 88.3992 264.898 88.8691C264.539 89.338 264.451 89.9105 264.632 90.5867ZM267.126 102.469L271.237 101.374C271.72 101.245 272.062 101.008 272.264 100.664C272.471 100.323 272.519 99.9458 272.408 99.5324C272.345 99.2967 272.229 99.0813 272.061 98.8862C271.893 98.6911 271.669 98.5522 271.39 98.4696C271.112 98.3908 270.78 98.4032 270.394 98.5067L270.404 97.9637C270.849 97.832 271.264 97.8139 271.65 97.9092C272.037 98.0085 272.367 98.1975 272.641 98.4762C272.919 98.7578 273.114 99.1072 273.226 99.5244C273.395 100.154 273.335 100.711 273.046 101.194C272.761 101.676 272.288 102.006 271.627 102.183L267.355 103.321L267.126 102.469ZM265.125 94.999L271.384 93.3219L271.589 94.0869L270.047 94.5L270.072 94.5927L265.354 95.8568L265.125 94.999ZM266.128 98.743L270.18 97.6633C270.679 97.5297 271.035 97.2913 271.25 96.9481C271.469 96.6077 271.521 96.2212 271.405 95.7885C271.289 95.3557 271.046 95.0459 270.678 94.859C270.312 94.6711 269.885 94.6429 269.394 94.7744L269.535 94.1898C269.937 94.0822 270.322 94.0805 270.689 94.185C271.061 94.2884 271.381 94.4799 271.651 94.7597C271.924 95.0384 272.117 95.3864 272.229 95.8037C272.336 96.2017 272.345 96.578 272.258 96.9326C272.172 97.2911 271.99 97.6027 271.713 97.8674C271.437 98.1321 271.066 98.3266 270.603 98.4508L266.353 99.5833L266.128 98.743ZM268.547 107.771L275.27 105.969C275.432 105.926 275.594 105.891 275.757 105.864C275.92 105.84 276.081 105.837 276.238 105.853C276.4 105.867 276.558 105.916 276.712 105.999C276.886 106.089 277.023 106.201 277.126 106.335C277.232 106.469 277.316 106.614 277.379 106.771C277.443 106.932 277.496 107.091 277.538 107.25L277.753 108.05L277.034 108.242L276.835 107.5C276.748 107.176 276.604 106.954 276.402 106.834C276.201 106.718 275.931 106.705 275.591 106.796L268.775 108.623L268.547 107.771ZM273.785 105.205L274.515 105.01L275.492 108.655L274.762 108.851L273.785 105.205ZM277.006 109.554L277.963 109.298L278.191 110.15L277.235 110.406L277.006 109.554ZM269.559 111.549L275.818 109.872L276.047 110.724L269.787 112.401L269.559 111.549ZM270.788 116.83C270.624 116.219 270.618 115.654 270.768 115.133C270.919 114.616 271.207 114.169 271.632 113.79C272.056 113.411 272.599 113.133 273.259 112.956C273.943 112.773 274.567 112.736 275.131 112.846C275.694 112.956 276.17 113.195 276.559 113.563C276.948 113.935 277.224 114.422 277.385 115.025C277.551 115.643 277.549 116.209 277.38 116.722C277.215 117.234 276.898 117.673 276.429 118.039C275.96 118.405 275.355 118.677 274.616 118.854L274.383 117.985L274.684 117.904C275.492 117.671 276.057 117.331 276.38 116.884C276.705 116.441 276.781 115.899 276.609 115.258C276.429 114.585 276.073 114.128 275.54 113.886C275.008 113.647 274.338 113.636 273.531 113.852C272.742 114.064 272.178 114.405 271.836 114.878C271.5 115.353 271.42 115.919 271.596 116.576C271.716 117.024 271.923 117.387 272.216 117.664C272.515 117.945 272.886 118.129 273.328 118.218L273.233 119.094C272.622 118.993 272.101 118.741 271.67 118.339C271.244 117.939 270.95 117.436 270.788 116.83ZM273.212 113.615L273.925 113.424L275.206 118.205L274.493 118.396L273.212 113.615ZM272.1 121.031L280.619 118.748L280.848 119.6L272.328 121.883L272.1 121.031ZM273.27 126.095C273.114 125.512 273.125 124.975 273.304 124.484C273.487 123.991 273.798 123.569 274.238 123.215C274.677 122.861 275.21 122.6 275.836 122.433C276.458 122.266 277.047 122.224 277.603 122.307C278.161 122.393 278.639 122.603 279.039 122.935C279.438 123.267 279.715 123.718 279.868 124.29C280.025 124.877 280.015 125.41 279.837 125.889C279.658 126.367 279.348 126.776 278.904 127.114C278.465 127.455 277.929 127.711 277.296 127.88C276.674 128.047 276.084 128.095 275.527 128.025C274.973 127.954 274.497 127.759 274.096 127.439C273.7 127.119 273.425 126.671 273.27 126.095ZM274.088 125.969C274.207 126.414 274.413 126.752 274.707 126.984C275.001 127.215 275.357 127.352 275.774 127.394C276.195 127.434 276.646 127.39 277.129 127.26C277.62 127.129 278.034 126.941 278.37 126.698C278.71 126.454 278.948 126.158 279.083 125.811C279.219 125.468 279.228 125.079 279.111 124.642C278.991 124.194 278.782 123.852 278.483 123.618C278.184 123.383 277.826 123.245 277.409 123.204C276.993 123.166 276.549 123.21 276.078 123.337C275.603 123.464 275.193 123.65 274.849 123.896C274.51 124.144 274.269 124.443 274.126 124.791C273.984 125.14 273.971 125.533 274.088 125.969ZM273.994 128.1L278.706 126.838L278.681 126.745L282.315 125.771L282.545 126.629L274.199 128.865L273.994 128.1ZM275.092 132.872C274.896 132.138 274.892 131.491 275.082 130.931C275.272 130.374 275.635 129.967 276.17 129.707L276.548 130.538C276.217 130.726 275.99 131.012 275.865 131.398C275.746 131.786 275.751 132.223 275.881 132.71C276.009 133.185 276.208 133.534 276.478 133.755C276.753 133.976 277.062 134.04 277.406 133.948C277.599 133.896 277.743 133.81 277.839 133.689C277.94 133.571 278.007 133.364 278.04 133.07C278.073 132.775 278.09 132.344 278.091 131.776C278.093 131.167 278.129 130.681 278.198 130.319C278.266 129.957 278.383 129.682 278.547 129.493C278.716 129.302 278.947 129.168 279.241 129.089C279.596 128.994 279.934 129.011 280.255 129.141C280.579 129.269 280.862 129.491 281.104 129.808C281.35 130.123 281.536 130.516 281.662 130.987C281.789 131.459 281.824 131.9 281.769 132.313C281.719 132.728 281.587 133.086 281.374 133.388C281.161 133.689 280.878 133.91 280.526 134.05L280.137 133.222C280.488 133.066 280.729 132.805 280.859 132.439C280.993 132.076 281.001 131.657 280.883 131.184C280.775 130.736 280.594 130.398 280.337 130.168C280.085 129.938 279.81 129.862 279.513 129.942C279.347 129.987 279.217 130.075 279.124 130.208C279.035 130.339 278.974 130.55 278.94 130.841C278.907 131.135 278.894 131.545 278.902 132.068C278.91 132.684 278.876 133.177 278.802 133.549C278.728 133.921 278.599 134.206 278.416 134.404C278.233 134.602 277.979 134.745 277.655 134.831C277.064 134.99 276.539 134.894 276.081 134.545C275.628 134.198 275.298 133.641 275.092 132.872Z" fill="#151011"/>
</g>
<defs>
<clipPath id="clip0_1784_57585">
<rect width="343" height="157" fill="white"/>
</clipPath>
</defs>
</svg>
