<svg width="232" height="216" viewBox="0 0 232 216" fill="none" xmlns="http://www.w3.org/2000/svg">
<g clip-path="url(#clip0_4084_38434)">
<rect x="0.612372" y="146.033" width="125" height="33" transform="rotate(-15 0.612372 146.033)" stroke="#E0E0E0"/>
<path d="M20.4589 165.046L30.6011 162.329M24.6242 160.307L21.9066 150.165M21.9066 150.165L25.6573 152.33M21.9066 150.165L19.741 153.915" stroke="#151011" stroke-width="1.2" stroke-linecap="round" stroke-linejoin="round"/>
<path d="M48.9125 155.031C48.2219 155.216 47.5727 155.238 46.9648 155.096C46.3611 154.952 45.8391 154.662 45.3987 154.223C44.9582 153.785 44.6449 153.218 44.4587 152.524L42.9127 146.754L43.8402 146.498L45.356 152.155C45.4816 152.624 45.6699 153.009 45.9209 153.309C46.1708 153.606 46.4532 153.831 46.7679 153.984C47.0858 154.132 47.4115 154.218 47.7451 154.241C48.0787 154.263 48.3899 154.236 48.6787 154.159C48.9717 154.08 49.2569 153.948 49.5345 153.761C49.812 153.575 50.0492 153.338 50.2462 153.052C50.4421 152.762 50.5742 152.426 50.6424 152.044C50.7095 151.658 50.6802 151.231 50.5546 150.762L49.0388 145.105L49.968 144.856L51.5158 150.633C51.702 151.327 51.7139 151.975 51.5516 152.575C51.3882 153.17 51.0794 153.684 50.6252 154.115C50.1741 154.541 49.6032 154.846 48.9125 155.031ZM56.9949 152.866C56.3712 153.033 55.8017 153.017 55.2865 152.819C54.7701 152.616 54.3287 152.275 53.9622 151.794C53.5945 151.309 53.3204 150.73 53.1398 150.056C52.9559 149.37 52.9031 148.729 52.9814 148.134C53.0627 147.533 53.2795 147.02 53.6319 146.593C53.9842 146.167 54.4784 145.869 55.1147 145.698C55.7342 145.532 56.3078 145.547 56.8356 145.742C57.3634 145.937 57.8168 146.273 58.1959 146.75C58.5792 147.226 58.8611 147.801 59.0417 148.475C59.2233 149.153 59.2672 149.794 59.1733 150.398C59.0794 151.002 58.8512 151.523 58.4885 151.961C58.1248 152.395 57.6269 152.696 56.9949 152.866ZM54.7005 156.509L52.0761 146.714L52.9049 146.492L54.2726 151.596L54.3731 151.57L55.6298 156.26L54.7005 156.509ZM56.6702 152.031C57.1432 151.904 57.5047 151.679 57.7547 151.357C58.0047 151.034 58.1521 150.647 58.1971 150.195C58.2451 149.738 58.2002 149.252 58.0622 148.737C57.9254 148.227 57.7246 147.787 57.4598 147.418C57.195 147.05 56.8716 146.788 56.4896 146.635C56.1117 146.481 55.68 146.468 55.1945 146.599C54.7215 146.725 54.3589 146.946 54.1066 147.26C53.8586 147.573 53.7121 147.956 53.6671 148.408C53.621 148.855 53.6692 149.345 53.8116 149.876C53.9518 150.399 54.1549 150.847 54.4208 151.22C54.6856 151.589 55.0063 151.849 55.3831 151.999C55.7598 152.149 56.1888 152.16 56.6702 152.031ZM61.2049 151.536L58.7319 142.306L59.6549 142.059L62.1279 151.288L61.2049 151.536ZM66.6411 150.281C65.9672 150.462 65.3507 150.463 64.7917 150.285C64.2327 150.108 63.7531 149.783 63.3531 149.311C62.9531 148.84 62.6595 148.255 62.4722 147.556C62.2815 146.844 62.2442 146.186 62.3601 145.58C62.4761 144.975 62.7328 144.46 63.1303 144.035C63.5309 143.604 64.0619 143.301 64.7233 143.123C65.4013 142.942 66.0199 142.94 66.5789 143.117C67.141 143.29 67.62 143.612 68.0158 144.085C68.4147 144.552 68.7078 145.136 68.8951 145.835C69.0858 146.546 69.1258 147.206 69.0151 147.814C68.9034 148.419 68.6472 148.936 68.2466 149.366C67.846 149.797 67.3108 150.102 66.6411 150.281ZM66.4039 149.396C67.1573 149.194 67.6515 148.794 67.8863 148.198C68.1201 147.597 68.1299 146.896 67.9157 146.097C67.6958 145.277 67.3346 144.674 66.832 144.288C66.3335 143.901 65.7097 143.808 64.9605 144.009C64.454 144.144 64.0663 144.372 63.7973 144.691C63.5314 145.004 63.3712 145.386 63.3167 145.835C63.2653 146.28 63.3103 146.766 63.4516 147.293C63.6703 148.109 64.0342 148.714 64.5433 149.107C65.0512 149.496 65.6714 149.592 66.4039 149.396ZM72.9296 148.596C72.419 148.733 71.9653 148.756 71.5685 148.665C71.1759 148.572 70.8529 148.396 70.5994 148.137C70.3459 147.877 70.171 147.568 70.0745 147.208C69.9758 146.839 69.9649 146.506 70.0419 146.207C70.1219 145.903 70.2672 145.633 70.4776 145.397C70.6923 145.16 70.9574 144.952 71.2729 144.774C71.5937 144.598 71.9528 144.423 72.3504 144.249C72.751 144.07 73.144 143.904 73.5293 143.752C73.9176 143.594 74.2563 143.451 74.5454 143.325L74.2727 143.613C74.1058 142.94 73.8432 142.479 73.4847 142.229C73.1263 141.98 72.6102 141.946 71.9363 142.126C71.4716 142.251 71.1062 142.461 70.84 142.756C70.578 143.051 70.4426 143.441 70.434 143.928L69.4655 143.905C69.4578 143.257 69.6434 142.702 70.0225 142.242C70.4016 141.781 70.9657 141.451 71.715 141.25C72.3345 141.084 72.8912 141.06 73.3851 141.179C73.8821 141.293 74.2795 141.545 74.5772 141.937C74.7136 142.111 74.8269 142.316 74.9171 142.552C75.0073 142.788 75.086 143.032 75.1533 143.283L76.2821 147.496L75.4596 147.716L75.0037 146.015L75.2692 146.051C75.1949 146.695 74.9559 147.234 74.5522 147.67C74.1486 148.106 73.6077 148.414 72.9296 148.596ZM72.8227 147.77C73.2538 147.654 73.6098 147.476 73.8906 147.235C74.1714 146.994 74.3743 146.713 74.4992 146.392C74.623 146.067 74.6688 145.728 74.6366 145.373C74.6285 145.142 74.5918 144.896 74.5264 144.635C74.46 144.37 74.4093 144.173 74.3746 144.043L74.7749 144.131C74.4722 144.257 74.1423 144.39 73.7852 144.531C73.4323 144.67 73.0852 144.815 72.744 144.965C72.407 145.113 72.1062 145.264 71.8418 145.415C71.6638 145.521 71.4983 145.648 71.3453 145.797C71.1911 145.942 71.0772 146.111 71.0038 146.306C70.9345 146.499 70.9324 146.718 70.9975 146.96C71.0502 147.157 71.1493 147.335 71.295 147.493C71.4448 147.65 71.6447 147.76 71.8949 147.823C72.1493 147.885 72.4586 147.868 72.8227 147.77ZM80.3466 146.609C79.7146 146.778 79.1326 146.766 78.6006 146.572C78.0675 146.374 77.6093 146.037 77.226 145.561C76.8428 145.085 76.5603 144.507 76.3786 143.829C76.198 143.155 76.1526 142.517 76.2423 141.914C76.3362 141.311 76.563 140.792 76.9225 140.359C77.2821 139.927 77.7716 139.627 78.3911 139.461C79.0273 139.291 79.6046 139.302 80.1229 139.495C80.6412 139.688 81.0836 140.025 81.4501 140.506C81.8197 140.981 82.0965 141.562 82.2804 142.248C82.461 142.922 82.5132 143.561 82.4372 144.164C82.36 144.764 82.1485 145.28 81.8026 145.714C81.4556 146.143 80.9703 146.441 80.3466 146.609ZM80.2103 145.723C80.6917 145.594 81.0579 145.37 81.309 145.052C81.5601 144.733 81.7082 144.348 81.7531 143.897C81.797 143.441 81.7488 142.951 81.6086 142.428C81.4662 141.896 81.2631 141.448 80.9995 141.084C80.7347 140.715 80.4145 140.458 80.0389 140.312C79.6674 140.164 79.2452 140.154 78.7723 140.281C78.2867 140.411 77.9169 140.638 77.6627 140.962C77.4085 141.286 77.2589 141.673 77.214 142.125C77.1732 142.576 77.2212 143.056 77.3581 143.567C77.496 144.082 77.6979 144.526 77.9638 144.899C78.2328 145.266 78.5562 145.527 78.9341 145.682C79.3119 145.836 79.7373 145.85 80.2103 145.723ZM82.5187 145.825L81.151 140.72L81.0506 140.747L79.9957 136.811L80.925 136.562L83.3475 145.603L82.5187 145.825ZM88.5646 144.205L84.6741 137.973L85.5987 137.732L88.6175 142.569L88.8196 136.869L89.6609 136.643L92.6859 141.479L92.8943 135.777L93.811 135.531L93.556 142.867L92.7523 143.083L89.6103 138.137L89.3682 143.989L88.5646 144.205ZM99.1447 141.572C98.4708 141.752 97.8543 141.754 97.2953 141.576C96.7363 141.398 96.2567 141.074 95.8567 140.602C95.4567 140.131 95.1631 139.545 94.9758 138.846C94.7851 138.135 94.7477 137.476 94.8637 136.871C94.9797 136.266 95.2364 135.751 95.6339 135.325C96.0345 134.895 96.5655 134.591 97.2268 134.414C97.9049 134.232 98.5235 134.23 99.0825 134.408C99.6446 134.581 100.124 134.903 100.519 135.376C100.918 135.843 101.211 136.426 101.399 137.125C101.589 137.837 101.629 138.497 101.519 139.105C101.407 139.709 101.151 140.227 100.75 140.657C100.35 141.087 99.8144 141.392 99.1447 141.572ZM98.9075 140.686C99.6609 140.484 100.155 140.085 100.39 139.488C100.624 138.887 100.633 138.187 100.419 137.388C100.199 136.567 99.8382 135.964 99.3356 135.579C98.8371 135.192 98.2133 135.099 97.4641 135.299C96.9576 135.435 96.5699 135.662 96.3009 135.981C96.035 136.295 95.8748 136.676 95.8203 137.126C95.7689 137.571 95.8139 138.056 95.9552 138.584C96.1739 139.4 96.5378 140.005 97.0468 140.398C97.5548 140.786 98.175 140.883 98.9075 140.686ZM103.443 140.218L101.626 133.437L102.455 133.215L102.892 134.848L102.672 134.678C102.693 134.457 102.742 134.246 102.819 134.046C102.894 133.842 102.988 133.667 103.101 133.52C103.236 133.318 103.409 133.146 103.622 133.003C103.834 132.857 104.058 132.745 104.293 132.669C104.527 132.588 104.749 132.546 104.96 132.544L105.192 133.41C104.928 133.414 104.654 133.472 104.37 133.584C104.086 133.696 103.848 133.885 103.654 134.152C103.475 134.388 103.363 134.645 103.316 134.923C103.268 135.196 103.262 135.475 103.298 135.762C103.334 136.044 103.387 136.319 103.459 136.587L104.366 139.971L103.443 140.218ZM107.71 139.075L105.294 130.032L106.223 129.783L107.704 135.308L109.855 131.232L111.086 130.903L108.817 135.144L113.317 137.572L111.973 137.932L107.771 135.559L108.646 138.824L107.71 139.075ZM116.151 137.008C115.356 137.221 114.655 137.225 114.048 137.02C113.445 136.813 113.004 136.42 112.723 135.841L113.622 135.431C113.826 135.789 114.137 136.036 114.554 136.171C114.975 136.3 115.449 136.295 115.976 136.153C116.491 136.015 116.868 135.8 117.108 135.507C117.347 135.209 117.417 134.874 117.317 134.502C117.261 134.293 117.167 134.136 117.036 134.032C116.908 133.923 116.685 133.85 116.366 133.815C116.046 133.779 115.579 133.761 114.965 133.759C114.304 133.757 113.778 133.718 113.386 133.644C112.994 133.57 112.695 133.443 112.49 133.265C112.284 133.082 112.139 132.832 112.053 132.514C111.95 132.129 111.969 131.763 112.109 131.416C112.248 131.064 112.489 130.758 112.831 130.495C113.173 130.229 113.599 130.027 114.109 129.89C114.62 129.754 115.099 129.715 115.545 129.775C115.995 129.829 116.383 129.972 116.71 130.203C117.037 130.434 117.276 130.74 117.427 131.121L116.531 131.543C116.361 131.162 116.078 130.902 115.682 130.761C115.288 130.615 114.835 130.607 114.322 130.735C113.838 130.852 113.471 131.049 113.222 131.326C112.973 131.599 112.891 131.897 112.977 132.219C113.025 132.399 113.121 132.54 113.265 132.64C113.407 132.737 113.636 132.803 113.951 132.84C114.27 132.876 114.713 132.889 115.281 132.881C115.947 132.873 116.482 132.909 116.885 132.989C117.287 133.07 117.596 133.209 117.811 133.407C118.025 133.606 118.18 133.88 118.274 134.232C118.446 134.872 118.342 135.441 117.964 135.937C117.588 136.428 116.984 136.785 116.151 137.008Z" fill="#151011"/>
<rect x="18.1543" y="51.9327" width="97" height="33" transform="rotate(15 18.1543 51.9327)" stroke="#E0E0E0"/>
<path d="M33.8515 68.6913C33.6916 68.6483 33.5227 68.6516 33.3646 68.7008C33.2064 68.75 33.0655 68.8431 32.9581 68.9692C32.9027 69.0364 32.8345 69.092 32.7574 69.1326C32.6803 69.1731 32.5959 69.198 32.5091 69.2056C32.4223 69.2132 32.3349 69.2035 32.2519 69.1769C32.1689 69.1504 32.092 69.1076 32.0257 69.0511C31.9595 68.9945 31.9051 68.9253 31.8659 68.8476C31.8266 68.7698 31.8032 68.685 31.7971 68.5981C31.7909 68.5112 31.8022 68.4239 31.8301 68.3414C31.8581 68.2589 31.9022 68.1827 31.9598 68.1174C32.1761 67.8641 32.4473 67.6635 32.7528 67.531C33.0584 67.3984 33.3902 67.3374 33.7229 67.3525C34.0556 67.3676 34.3804 67.4585 34.6727 67.6183C34.9649 67.778 35.2168 68.0023 35.4092 68.2742C35.6016 68.5461 35.7293 68.8583 35.7827 69.1871C35.8361 69.5158 35.8137 69.8524 35.7173 70.1712C35.6209 70.49 35.4529 70.7825 35.2262 71.0265C34.9995 71.2706 34.7201 71.4596 34.4093 71.5792C34.1741 71.6693 33.9737 71.7614 33.8244 71.8691C33.677 71.9727 33.6293 72.056 33.6137 72.1143C33.5847 72.2225 33.6174 72.3372 33.6974 72.4139L38.404 76.918C38.6856 77.1874 38.8695 77.5429 38.9268 77.9283C38.9841 78.3138 38.9115 78.7073 38.7204 79.047C38.5293 79.3866 38.2307 79.653 37.8715 79.8042C37.5123 79.9553 37.113 79.9826 36.7366 79.8819L25.7577 76.9401C25.3806 76.8395 25.0479 76.616 24.8123 76.305C24.5766 75.994 24.4515 75.6133 24.4567 75.2231C24.462 74.833 24.5972 74.4557 24.8411 74.1511C25.085 73.8465 25.4236 73.6321 25.8032 73.5417L30.9752 72.3059C31.0595 72.2845 31.1472 72.2801 31.2332 72.2929C31.3192 72.3058 31.4018 72.3355 31.4762 72.3805C31.5506 72.4255 31.6153 72.4849 31.6666 72.5551C31.7179 72.6253 31.7547 72.7051 31.7749 72.7896C31.7951 72.8742 31.7982 72.962 31.7842 73.0478C31.7702 73.1336 31.7393 73.2158 31.6932 73.2895C31.6472 73.3633 31.5869 73.4272 31.516 73.4775C31.4451 73.5277 31.3648 73.5634 31.28 73.5824L26.1088 74.8184C26.0132 74.8409 25.928 74.8947 25.8665 74.9713C25.8051 75.0478 25.771 75.1427 25.7697 75.2409C25.7684 75.339 25.7999 75.4348 25.8593 75.513C25.9187 75.5911 26.0025 75.6472 26.0974 75.6723L37.0763 78.6141C37.1713 78.6396 37.2721 78.6327 37.3628 78.5946C37.4535 78.5565 37.5289 78.4892 37.5771 78.4035C37.6253 78.3177 37.6436 78.2184 37.6291 78.1211C37.6145 78.0238 37.568 77.9341 37.4968 77.8662L32.7911 73.3623C32.5817 73.1618 32.43 72.9088 32.3518 72.6298C32.2737 72.3507 32.2718 72.0557 32.3466 71.7757C32.4684 71.321 32.7693 71.0093 33.0617 70.8005C33.3506 70.5944 33.6779 70.4547 33.9386 70.3543C34.1113 70.2883 34.2588 70.1692 34.3597 70.0142C34.4606 69.8592 34.5098 69.6763 34.5002 69.4916C34.4906 69.3069 34.4228 69.1299 34.3064 68.9862C34.19 68.8425 34.031 68.7393 33.8524 68.6916" fill="#151011"/>
<path d="M52.1772 82.7927L54.5997 73.7516L58.0906 74.687C58.1785 74.7106 58.2757 74.7411 58.3823 74.7786C58.4942 74.8131 58.6038 74.856 58.7112 74.9072C59.1652 75.1051 59.5206 75.3775 59.7775 75.7245C60.0398 76.0684 60.2025 76.4574 60.2656 76.8916C60.3329 77.3268 60.3032 77.7809 60.1765 78.2539C60.0509 78.7227 59.8501 79.1288 59.5742 79.472C59.2983 79.8153 58.9602 80.0724 58.56 80.2433C58.1651 80.4112 57.7237 80.4679 57.2358 80.4134C57.1183 80.3999 57.002 80.3822 56.8867 80.3602C56.7756 80.3395 56.6762 80.3173 56.5883 80.2937L54.0203 79.6057L53.1001 83.04L52.1772 82.7927ZM54.2559 78.7267L56.7987 79.408C56.874 79.4282 56.963 79.4476 57.0657 79.4661C57.1684 79.4847 57.2707 79.4964 57.3726 79.5012C57.7003 79.5173 57.9877 79.4574 58.2349 79.3218C58.4863 79.1873 58.6949 79.0032 58.8607 78.7694C59.0307 78.5369 59.1533 78.2803 59.2284 77.9999C59.3036 77.7195 59.3257 77.436 59.2947 77.1496C59.2691 76.8601 59.1811 76.5943 59.0307 76.3521C58.8844 76.111 58.6654 75.9155 58.3736 75.7655C58.2829 75.7188 58.1879 75.6799 58.0886 75.6488C57.9904 75.6135 57.9036 75.5857 57.8283 75.5656L55.2855 74.8842L54.2559 78.7267ZM62.2487 85.6933C61.5749 85.5127 61.0403 85.2057 60.645 84.7723C60.2497 84.3389 59.9967 83.818 59.8861 83.2096C59.7754 82.6013 59.8137 81.9476 60.001 81.2486C60.1917 80.537 60.4886 79.9481 60.8916 79.4819C61.2947 79.0156 61.7746 78.6979 62.3314 78.5285C62.8935 78.3561 63.5053 78.3585 64.1666 78.5358C64.8447 78.7174 65.3814 79.025 65.7767 79.4584C66.1773 79.8888 66.4308 80.4076 66.5373 81.0148C66.649 81.619 66.6113 82.2706 66.424 82.9696C66.2333 83.6811 65.938 84.2727 65.538 84.7442C65.1391 85.2116 64.6586 85.5315 64.0965 85.7039C63.5344 85.8762 62.9185 85.8727 62.2487 85.6933ZM62.486 84.808C63.2394 85.0099 63.867 84.9111 64.3688 84.5117C64.8717 84.1081 65.2303 83.5066 65.4445 82.7071C65.6643 81.8867 65.653 81.1839 65.4106 80.5985C65.1724 80.0143 64.6786 79.6218 63.9294 79.421C63.4229 79.2853 62.9735 79.2883 62.5812 79.4299C62.1941 79.5684 61.8646 79.8188 61.5925 80.1811C61.3258 80.5403 61.1218 80.9836 60.9805 81.511C60.7618 82.3272 60.7746 83.0327 61.019 83.6276C61.2645 84.2183 61.7535 84.6117 62.486 84.808ZM66.6477 86.6701L68.4646 79.8893L69.2934 80.1113L68.856 81.7438L68.7499 81.4865C68.8791 81.3058 69.0268 81.148 69.193 81.0131C69.3604 80.874 69.5298 80.7691 69.7013 80.6984C69.9186 80.5907 70.1551 80.5284 70.4108 80.5117C70.6676 80.4908 70.917 80.506 71.159 80.5574C71.402 80.6046 71.6152 80.6797 71.7985 80.7826L71.5663 81.649C71.3362 81.5201 71.0701 81.4331 70.7682 81.3881C70.4662 81.343 70.1648 81.3879 69.864 81.5226C69.5909 81.6379 69.3647 81.8038 69.1856 82.0205C69.0075 82.233 68.8626 82.4723 68.7509 82.7385C68.6404 83.0004 68.5492 83.2654 68.4774 83.5333L67.5706 86.9174L66.6477 86.6701ZM74.6133 88.8044C74.211 88.7819 73.8259 88.7124 73.4579 88.5958C73.094 88.4804 72.7847 88.3122 72.5298 88.0914C72.2791 87.8717 72.1188 87.591 72.0489 87.2492C71.9948 86.9656 71.9957 86.6944 72.0515 86.4357C72.1127 86.174 72.1876 85.8777 72.2762 85.5471L73.94 79.3376L74.8567 79.5832L73.2029 85.755C73.1267 86.0397 73.0648 86.2788 73.0174 86.4725C72.9753 86.6631 72.9744 86.8423 73.0147 87.0101C73.0902 87.3309 73.284 87.5622 73.5959 87.7041C73.912 87.8472 74.3234 87.9439 74.8303 87.9945L74.6133 88.8044ZM71.773 81.6237L71.985 80.8326L76.4302 82.0236L76.2182 82.8147L71.773 81.6237ZM76.3699 89.2751L78.3214 81.992C78.3685 81.8163 78.4234 81.6448 78.4861 81.4777C78.553 81.3117 78.6365 81.1591 78.7366 81.0199C78.8378 80.8765 78.9692 80.7547 79.1306 80.6544C79.3091 80.5408 79.489 80.4723 79.6702 80.4491C79.8525 80.4217 80.0343 80.421 80.2157 80.4472C80.4013 80.4745 80.5799 80.5112 80.7516 80.5571L81.618 80.7893L81.4094 81.5678L80.6057 81.3525C80.2541 81.2583 79.9674 81.2734 79.7457 81.3979C79.5281 81.5236 79.3699 81.7706 79.2712 82.1389L77.2928 89.5224L76.3699 89.2751ZM76.8007 82.9708L77.0127 82.1797L80.9619 83.2379L80.7499 84.029L76.8007 82.9708ZM82.4342 91.1019C81.7603 90.9214 81.2257 90.6144 80.8304 90.181C80.4351 89.7476 80.1821 89.2267 80.0715 88.6183C79.9608 88.0099 79.9992 87.3562 80.1865 86.6572C80.3771 85.9457 80.674 85.3568 81.0771 84.8905C81.4801 84.4243 81.9601 84.1065 82.5169 83.9372C83.079 83.7648 83.6907 83.7672 84.352 83.9444C85.0301 84.1261 85.5668 84.4337 85.9621 84.8671C86.3627 85.2974 86.6162 85.8162 86.7227 86.4235C86.8345 87.0277 86.7967 87.6792 86.6094 88.3783C86.4187 89.0898 86.1234 89.6814 85.7234 90.1529C85.3245 90.6203 84.844 90.9401 84.2819 91.1125C83.7198 91.2849 83.1039 91.2814 82.4342 91.1019ZM82.6714 90.2167C83.4248 90.4185 84.0524 90.3198 84.5542 89.9204C85.0572 89.5168 85.4157 88.9153 85.6299 88.1158C85.8498 87.2954 85.8385 86.5925 85.596 86.0072C85.3578 85.423 84.8641 85.0305 84.1148 84.8297C83.6084 84.694 83.1589 84.6969 82.7666 84.8386C82.3795 84.9771 82.05 85.2275 81.778 85.5898C81.5113 85.949 81.3072 86.3923 81.1659 86.9197C80.9472 87.7359 80.96 88.4414 81.2044 89.0363C81.4499 89.6269 81.9389 90.0204 82.6714 90.2167ZM86.9587 92.1124L89.4317 82.883L90.3546 83.1303L87.8816 92.3597L86.9587 92.1124ZM91.8001 84.7625L92.0777 83.7266L93.0007 83.9739L92.7231 85.0098L91.8001 84.7625ZM89.6383 92.8304L91.4552 86.0496L92.3782 86.2969L90.5613 93.0777L89.6383 92.8304ZM94.9736 94.4619C94.2997 94.2813 93.7651 93.9743 93.3698 93.5409C92.9745 93.1075 92.7215 92.5866 92.6109 91.9782C92.5002 91.3698 92.5385 90.7162 92.7258 90.0172C92.9165 89.3056 93.2134 88.7167 93.6164 88.2505C94.0195 87.7842 94.4994 87.4664 95.0562 87.2971C95.6184 87.1247 96.2301 87.1271 96.8914 87.3043C97.5695 87.486 98.1062 87.7936 98.5015 88.227C98.9021 88.6573 99.1556 89.1761 99.2621 89.7834C99.3738 90.3876 99.3361 91.0392 99.1488 91.7382C98.9581 92.4497 98.6628 93.0413 98.2628 93.5128C97.8639 93.9802 97.3834 94.3001 96.8213 94.4724C96.2592 94.6448 95.6433 94.6413 94.9736 94.4619ZM95.2108 93.5766C95.9642 93.7785 96.5918 93.6797 97.0936 93.2803C97.5965 92.8767 97.9551 92.2752 98.1693 91.4757C98.3891 90.6553 98.3778 89.9525 98.1354 89.3671C97.8972 88.7829 97.4034 88.3904 96.6542 88.1896C96.1477 88.0539 95.6983 88.0569 95.306 88.1985C94.9189 88.337 94.5894 88.5874 94.3174 88.9497C94.0506 89.3089 93.8466 89.7522 93.7053 90.2796C93.4866 91.0958 93.4994 91.8013 93.7438 92.3962C93.9893 92.9868 94.4783 93.3803 95.2108 93.5766Z" fill="#151011"/>
<rect x="140.153" y="8.9405" width="88" height="33" transform="rotate(15 140.153 8.9405)" stroke="#E0E0E0"/>
<path d="M157.94 37.1305L158.342 35.6292C158.588 34.7107 158.415 33.699 157.682 33.0942C156.787 32.356 155.637 31.7575 154.322 31.4052C153.007 31.0529 151.712 30.996 150.567 31.1879C149.63 31.3449 148.974 32.1346 148.728 33.0531L148.326 34.5544" stroke="#151011" stroke-width="1.14844" stroke-linecap="round" stroke-linejoin="round"/>
<path d="M154.916 29.1828C156.346 29.5659 157.815 28.7175 158.198 27.288C158.581 25.8585 157.733 24.3891 156.303 24.0061C154.874 23.623 153.404 24.4714 153.021 25.9009C152.638 27.3304 153.487 28.7998 154.916 29.1828Z" stroke="#151011" stroke-width="1.14844" stroke-linecap="round" stroke-linejoin="round"/>
<path d="M177.37 40.8582C176.47 40.617 175.764 40.2146 175.251 39.651C174.739 39.0832 174.419 38.403 174.29 37.6104C174.161 36.8177 174.221 35.9589 174.469 35.0339C174.717 34.1088 175.095 33.3353 175.602 32.7131C176.11 32.091 176.727 31.6641 177.453 31.4324C178.18 31.1966 178.993 31.1992 179.893 31.4404C180.944 31.7219 181.73 32.2218 182.251 32.9401C182.773 33.6541 183.036 34.4963 183.041 35.4666L182.033 35.4591C182.032 34.6918 181.839 34.0321 181.453 33.4801C181.067 32.928 180.468 32.5432 179.656 32.3256C178.949 32.1361 178.318 32.1397 177.762 32.3364C177.207 32.533 176.733 32.8882 176.34 33.4019C175.952 33.9126 175.652 34.5435 175.442 35.2946C175.236 36.0469 175.173 36.7412 175.254 37.3775C175.339 38.0148 175.574 38.5601 175.96 39.0133C176.351 39.4635 176.9 39.7833 177.607 39.9729C178.419 40.1905 179.13 40.1567 179.741 39.8716C180.352 39.5823 180.849 39.1077 181.232 38.4477L182.109 38.9449C181.619 39.7828 180.97 40.3826 180.159 40.7443C179.35 41.1017 178.42 41.1397 177.37 40.8582ZM182.623 42.0638L185.096 32.8344L186.019 33.0817L183.546 42.3111L182.623 42.0638ZM187.464 34.714L187.742 33.678L188.665 33.9253L188.387 34.9613L187.464 34.714ZM185.303 42.7818L187.12 36.001L188.042 36.2484L186.226 43.0292L185.303 42.7818ZM190.676 44.4234C190.014 44.2462 189.48 43.946 189.073 43.5229C188.67 43.101 188.406 42.5883 188.281 41.9849C188.155 41.3816 188.188 40.722 188.38 40.0063C188.579 39.2654 188.882 38.6603 189.29 38.191C189.699 37.7217 190.181 37.4045 190.736 37.2394C191.296 37.0754 191.903 37.0808 192.556 37.2558C193.225 37.4352 193.755 37.7432 194.145 38.1797C194.536 38.612 194.776 39.1474 194.866 39.7858C194.955 40.4243 194.882 41.1384 194.648 41.9281L193.706 41.6757L193.794 41.3492C194.013 40.4658 194 39.7513 193.756 39.2059C193.516 38.6615 193.049 38.2963 192.354 38.1101C191.625 37.915 191.003 38.0017 190.487 38.3704C189.975 38.7402 189.602 39.3625 189.368 40.2373C189.139 41.0912 189.154 41.8062 189.412 42.3824C189.676 42.9555 190.164 43.3374 190.875 43.528C191.361 43.6581 191.813 43.6605 192.232 43.5351C192.657 43.4066 193.031 43.1591 193.353 42.7924L194.124 43.3556C193.698 43.874 193.18 44.2264 192.569 44.4127C191.964 44.5959 191.333 44.5995 190.676 44.4234ZM188.972 40.4073L189.179 39.635L194.359 41.0229L194.152 41.7952L188.972 40.4073ZM199.664 46.63L200.591 43.1706C200.692 42.7939 200.749 42.439 200.762 42.106C200.776 41.7688 200.735 41.4617 200.639 41.1847C200.548 40.9046 200.394 40.6661 200.178 40.469C199.966 40.2731 199.682 40.1275 199.326 40.0321C198.999 39.9447 198.695 39.9238 198.414 39.9695C198.137 40.0163 197.884 40.1235 197.655 40.291C197.431 40.4554 197.235 40.6765 197.067 40.9543C196.898 41.2322 196.762 41.5636 196.659 41.9487L196.045 41.6293C196.231 40.9345 196.509 40.3831 196.878 39.9752C197.248 39.5673 197.678 39.2991 198.17 39.1707C198.662 39.0424 199.185 39.0522 199.737 39.2003C200.143 39.309 200.48 39.4666 200.748 39.6729C201.02 39.8804 201.232 40.1189 201.384 40.3884C201.54 40.6591 201.646 40.9499 201.702 41.2609C201.759 41.5678 201.775 41.8839 201.75 42.2094C201.727 42.5306 201.675 42.844 201.593 43.1496L200.593 46.879L199.664 46.63ZM194.761 45.3161L196.578 38.5353L197.413 38.7591L196.965 40.4292L197.059 40.4544L195.69 45.5651L194.761 45.3161ZM205.663 48.2375C205.261 48.215 204.876 48.1454 204.508 48.0289C204.144 47.9134 203.835 47.7453 203.58 47.5245C203.329 47.3048 203.169 47.024 203.099 46.6823C203.045 46.3986 203.046 46.1275 203.102 45.8688C203.163 45.607 203.238 45.3108 203.326 44.9801L204.99 38.7707L205.907 39.0163L204.253 45.1881C204.177 45.4727 204.115 45.7118 204.068 45.9055C204.025 46.0961 204.025 46.2753 204.065 46.4431C204.14 46.7639 204.334 46.9953 204.646 47.1372C204.962 47.2802 205.374 47.377 205.88 47.4276L205.663 48.2375ZM202.823 41.0567L203.035 40.2656L207.48 41.4567L207.268 42.2478L202.823 41.0567ZM209.23 49.3882C208.434 49.1751 207.825 48.828 207.402 48.3468C206.984 47.8668 206.798 47.3055 206.844 46.663L207.828 46.7584C207.825 47.1704 207.971 47.5391 208.265 47.8647C208.565 48.1871 208.978 48.419 209.505 48.5604C210.02 48.6983 210.455 48.7004 210.809 48.5665C211.165 48.4285 211.392 48.1732 211.492 47.8007C211.548 47.5914 211.545 47.409 211.484 47.2534C211.428 47.0948 211.27 46.9203 211.012 46.7299C210.753 46.5395 210.358 46.2901 209.826 45.9815C209.256 45.6492 208.819 45.3528 208.517 45.0923C208.214 44.8318 208.019 44.5731 207.931 44.3162C207.844 44.0551 207.843 43.7655 207.928 43.4474C208.031 43.0623 208.23 42.7545 208.525 42.524C208.821 42.2893 209.183 42.1441 209.611 42.0882C210.04 42.0281 210.51 42.0665 211.02 42.2033C211.531 42.3402 211.965 42.5461 212.322 42.8212C212.684 43.0933 212.949 43.411 213.116 43.7743C213.283 44.1377 213.337 44.5222 213.278 44.928L212.291 44.8452C212.335 44.4307 212.22 44.0635 211.947 43.7436C211.679 43.4206 211.291 43.1865 210.782 43.0413C210.304 42.8998 209.888 42.887 209.534 43.003C209.181 43.1148 208.962 43.3318 208.875 43.6541C208.827 43.8341 208.84 44.0035 208.914 44.1624C208.989 44.3172 209.154 44.4892 209.408 44.6785C209.667 44.8689 210.044 45.1022 210.54 45.3786C211.121 45.7048 211.565 46.0034 211.874 46.2746C212.183 46.5457 212.381 46.8207 212.467 47.0997C212.554 47.3787 212.55 47.6939 212.456 48.0455C212.285 48.6859 211.911 49.1264 211.335 49.3669C210.764 49.6043 210.063 49.6114 209.23 49.3882Z" fill="#151011"/>
<rect x="0.500977" y="0.5" width="125" height="33" stroke="#E0E0E0"/>
<path d="M17.376 16.125C18.3425 16.125 19.126 15.3415 19.126 14.375C19.126 13.4085 18.3425 12.625 17.376 12.625C16.4095 12.625 15.626 13.4085 15.626 14.375C15.626 15.3415 16.4095 16.125 17.376 16.125Z" stroke="#151011"/>
<path d="M20.876 19.625C20.876 20.5919 20.876 21.375 17.376 21.375C13.876 21.375 13.876 20.5919 13.876 19.625C13.876 18.6581 15.4422 17.875 17.376 17.875C19.3097 17.875 20.876 18.6581 20.876 19.625Z" stroke="#151011"/>
<path d="M11.251 17C11.251 13.7004 11.251 12.0501 12.2765 11.0255C13.302 10.0009 14.9514 10 18.251 10H21.751C25.0506 10 26.7008 10 27.7255 11.0255C28.7501 12.051 28.751 13.7004 28.751 17C28.751 20.2996 28.751 21.9499 27.7255 22.9745C26.7 23.9991 25.0506 24 21.751 24H18.251C14.9514 24 13.3011 24 12.2765 22.9745C11.2519 21.949 11.251 20.2996 11.251 17Z" stroke="#151011"/>
<path d="M26.126 17H22.626M26.126 14.375H21.751M26.126 19.625H23.501" stroke="#151011" stroke-linecap="round"/>
<path d="M41.3193 21.5V12.14H42.1968L45.8758 20.0115L49.5353 12.14H50.4258V21.4935H49.5158V14.272L46.1813 21.5H45.5638L42.2358 14.272V21.5H41.3193ZM53.9984 21.695C53.4698 21.695 53.0256 21.5997 52.6659 21.409C52.3106 21.2183 52.0441 20.9648 51.8664 20.6485C51.6888 20.3322 51.5999 19.9877 51.5999 19.615C51.5999 19.2337 51.6758 18.9087 51.8274 18.64C51.9834 18.367 52.1936 18.1438 52.4579 17.9705C52.7266 17.7972 53.0364 17.665 53.3874 17.574C53.7428 17.4873 54.1349 17.4115 54.5639 17.3465C54.9973 17.2772 55.4198 17.2187 55.8314 17.171C56.2474 17.119 56.6114 17.0692 56.9234 17.0215L56.5854 17.2295C56.5984 16.5362 56.4641 16.0227 56.1824 15.689C55.9008 15.3553 55.4111 15.1885 54.7134 15.1885C54.2324 15.1885 53.8251 15.2968 53.4914 15.5135C53.1621 15.7302 52.9303 16.0725 52.7959 16.5405L51.8664 16.2675C52.0268 15.6392 52.3496 15.1517 52.8349 14.805C53.3203 14.4583 53.9508 14.285 54.7264 14.285C55.3678 14.285 55.9116 14.4063 56.3579 14.649C56.8086 14.8873 57.1271 15.234 57.3134 15.689C57.4001 15.8927 57.4564 16.1202 57.4824 16.3715C57.5084 16.6228 57.5214 16.8785 57.5214 17.1385V21.5H56.6699V19.7385L56.9169 19.8425C56.6786 20.4448 56.3081 20.9042 55.8054 21.2205C55.3028 21.5368 54.7004 21.695 53.9984 21.695ZM54.1089 20.8695C54.5553 20.8695 54.9453 20.7893 55.2789 20.629C55.6126 20.4687 55.8813 20.2498 56.0849 19.9725C56.2886 19.6908 56.4208 19.3745 56.4814 19.0235C56.5334 18.7982 56.5616 18.5512 56.5659 18.2825C56.5703 18.0095 56.5724 17.8058 56.5724 17.6715L56.9364 17.86C56.6114 17.9033 56.2583 17.9467 55.8769 17.99C55.4999 18.0333 55.1273 18.0832 54.7589 18.1395C54.3949 18.1958 54.0656 18.263 53.7709 18.341C53.5716 18.3973 53.3788 18.4775 53.1924 18.5815C53.0061 18.6812 52.8523 18.8155 52.7309 18.9845C52.6139 19.1535 52.5554 19.3637 52.5554 19.615C52.5554 19.8187 52.6053 20.0158 52.7049 20.2065C52.8089 20.3972 52.9736 20.5553 53.1989 20.681C53.4286 20.8067 53.7319 20.8695 54.1089 20.8695ZM64.0236 21.5V17.9185C64.0236 17.5285 63.9867 17.171 63.9131 16.846C63.8394 16.5167 63.7202 16.2307 63.5556 15.988C63.3952 15.741 63.1851 15.5503 62.9251 15.416C62.6694 15.2817 62.3574 15.2145 61.9891 15.2145C61.6511 15.2145 61.3521 15.273 61.0921 15.39C60.8364 15.507 60.6197 15.676 60.4421 15.897C60.2687 16.1137 60.1366 16.378 60.0456 16.69C59.9546 17.002 59.9091 17.3573 59.9091 17.756L59.2331 17.6065C59.2331 16.8872 59.3587 16.2827 59.6101 15.793C59.8614 15.3033 60.2081 14.9328 60.6501 14.6815C61.0921 14.4302 61.5991 14.3045 62.1711 14.3045C62.5914 14.3045 62.9576 14.3695 63.2696 14.4995C63.5859 14.6295 63.8524 14.805 64.0691 15.026C64.2901 15.247 64.4677 15.5005 64.6021 15.7865C64.7364 16.0682 64.8339 16.3693 64.8946 16.69C64.9552 17.0063 64.9856 17.3227 64.9856 17.639V21.5H64.0236ZM58.9471 21.5V14.48H59.8116V16.209H59.9091V21.5H58.9471ZM68.4208 21.695C67.8921 21.695 67.448 21.5997 67.0883 21.409C66.733 21.2183 66.4665 20.9648 66.2888 20.6485C66.1111 20.3322 66.0223 19.9877 66.0223 19.615C66.0223 19.2337 66.0981 18.9087 66.2498 18.64C66.4058 18.367 66.616 18.1438 66.8803 17.9705C67.149 17.7972 67.4588 17.665 67.8098 17.574C68.1651 17.4873 68.5573 17.4115 68.9863 17.3465C69.4196 17.2772 69.8421 17.2187 70.2538 17.171C70.6698 17.119 71.0338 17.0692 71.3458 17.0215L71.0078 17.2295C71.0208 16.5362 70.8865 16.0227 70.6048 15.689C70.3231 15.3553 69.8335 15.1885 69.1358 15.1885C68.6548 15.1885 68.2475 15.2968 67.9138 15.5135C67.5845 15.7302 67.3526 16.0725 67.2183 16.5405L66.2888 16.2675C66.4491 15.6392 66.772 15.1517 67.2573 14.805C67.7426 14.4583 68.3731 14.285 69.1488 14.285C69.7901 14.285 70.334 14.4063 70.7803 14.649C71.231 14.8873 71.5495 15.234 71.7358 15.689C71.8225 15.8927 71.8788 16.1202 71.9048 16.3715C71.9308 16.6228 71.9438 16.8785 71.9438 17.1385V21.5H71.0923V19.7385L71.3393 19.8425C71.101 20.4448 70.7305 20.9042 70.2278 21.2205C69.7251 21.5368 69.1228 21.695 68.4208 21.695ZM68.5313 20.8695C68.9776 20.8695 69.3676 20.7893 69.7013 20.629C70.035 20.4687 70.3036 20.2498 70.5073 19.9725C70.711 19.6908 70.8431 19.3745 70.9038 19.0235C70.9558 18.7982 70.984 18.5512 70.9883 18.2825C70.9926 18.0095 70.9948 17.8058 70.9948 17.6715L71.3588 17.86C71.0338 17.9033 70.6806 17.9467 70.2993 17.99C69.9223 18.0333 69.5496 18.0832 69.1813 18.1395C68.8173 18.1958 68.488 18.263 68.1933 18.341C67.994 18.3973 67.8011 18.4775 67.6148 18.5815C67.4285 18.6812 67.2746 18.8155 67.1533 18.9845C67.0363 19.1535 66.9778 19.3637 66.9778 19.615C66.9778 19.8187 67.0276 20.0158 67.1273 20.2065C67.2313 20.3972 67.396 20.5553 67.6213 20.681C67.851 20.8067 68.1543 20.8695 68.5313 20.8695ZM76.1644 24.815C75.8048 24.815 75.4494 24.7608 75.0984 24.6525C74.7518 24.5485 74.4311 24.3817 74.1364 24.152C73.8418 23.9267 73.5948 23.632 73.3954 23.268L74.2599 22.787C74.4549 23.177 74.7279 23.4565 75.0789 23.6255C75.4343 23.7988 75.7961 23.8855 76.1644 23.8855C76.6714 23.8855 77.0809 23.7902 77.3929 23.5995C77.7093 23.4132 77.9389 23.1358 78.0819 22.7675C78.2249 22.3992 78.2943 21.9398 78.2899 21.3895V19.5175H78.4004V14.48H79.2519V21.4025C79.2519 21.6018 79.2454 21.7925 79.2324 21.9745C79.2238 22.1608 79.2043 22.3428 79.1739 22.5205C79.0916 23.0448 78.9204 23.476 78.6604 23.814C78.4048 24.152 78.0668 24.4033 77.6464 24.568C77.2304 24.7327 76.7364 24.815 76.1644 24.815ZM76.0994 21.695C75.4451 21.695 74.8861 21.5325 74.4224 21.2075C73.9588 20.8782 73.6034 20.434 73.3564 19.875C73.1094 19.316 72.9859 18.6855 72.9859 17.9835C72.9859 17.2858 73.1073 16.6575 73.3499 16.0985C73.5969 15.5395 73.9501 15.0975 74.4094 14.7725C74.8688 14.4475 75.4191 14.285 76.0604 14.285C76.7191 14.285 77.2738 14.4453 77.7244 14.766C78.1751 15.0867 78.5153 15.5265 78.7449 16.0855C78.9789 16.6402 79.0959 17.2728 79.0959 17.9835C79.0959 18.6812 78.9811 19.3117 78.7514 19.875C78.5218 20.434 78.1838 20.8782 77.7374 21.2075C77.2911 21.5325 76.7451 21.695 76.0994 21.695ZM76.1969 20.8045C76.6953 20.8045 77.1069 20.6832 77.4319 20.4405C77.7569 20.1978 77.9996 19.8642 78.1599 19.4395C78.3203 19.0105 78.4004 18.5252 78.4004 17.9835C78.4004 17.4332 78.3203 16.9478 78.1599 16.5275C77.9996 16.1028 77.7569 15.7713 77.4319 15.533C77.1113 15.2947 76.7061 15.1755 76.2164 15.1755C75.7138 15.1755 75.2978 15.299 74.9684 15.546C74.6391 15.793 74.3943 16.1288 74.2339 16.5535C74.0779 16.9782 73.9999 17.4548 73.9999 17.9835C73.9999 18.5165 74.0801 18.9975 74.2404 19.4265C74.4051 19.8512 74.6499 20.187 74.9749 20.434C75.2999 20.681 75.7073 20.8045 76.1969 20.8045ZM83.7798 21.695C83.0951 21.695 82.5015 21.5433 81.9988 21.24C81.5005 20.9367 81.1126 20.5098 80.8353 19.9595C80.558 19.4092 80.4193 18.7635 80.4193 18.0225C80.4193 17.2555 80.5558 16.5925 80.8288 16.0335C81.1018 15.4745 81.4853 15.0433 81.9793 14.74C82.4776 14.4367 83.0648 14.285 83.7408 14.285C84.4341 14.285 85.0256 14.4453 85.5153 14.766C86.005 15.0823 86.3755 15.5373 86.6268 16.131C86.8781 16.7247 86.993 17.4332 86.9713 18.2565H85.9963V17.9185C85.979 17.0085 85.7818 16.3217 85.4048 15.858C85.0321 15.3943 84.4861 15.1625 83.7668 15.1625C83.0128 15.1625 82.4343 15.4073 82.0313 15.897C81.6326 16.3867 81.4333 17.0843 81.4333 17.99C81.4333 18.874 81.6326 19.5608 82.0313 20.0505C82.4343 20.5358 83.0041 20.7785 83.7408 20.7785C84.2435 20.7785 84.6811 20.6637 85.0538 20.434C85.4308 20.2 85.7276 19.8642 85.9443 19.4265L86.8348 19.771C86.5575 20.382 86.148 20.8565 85.6063 21.1945C85.069 21.5282 84.4601 21.695 83.7798 21.695ZM81.0953 18.2565V17.457H86.4578V18.2565H81.0953ZM96.3354 21.5L96.3419 16.8915C96.3419 16.3498 96.1902 15.9252 95.8869 15.6175C95.5879 15.3055 95.2065 15.1495 94.7429 15.1495C94.4785 15.1495 94.2207 15.2102 93.9694 15.3315C93.718 15.4528 93.51 15.6478 93.3454 15.9165C93.185 16.1852 93.1049 16.5362 93.1049 16.9695L92.5394 16.807C92.5264 16.3043 92.6239 15.8645 92.8319 15.4875C93.0442 15.1105 93.3345 14.818 93.7029 14.61C94.0755 14.3977 94.4959 14.2915 94.9639 14.2915C95.6702 14.2915 96.2357 14.5103 96.6604 14.948C97.085 15.3813 97.2974 15.9685 97.2974 16.7095L97.2909 21.5H96.3354ZM87.9569 21.5V14.48H88.8149V16.209H88.9189V21.5H87.9569ZM92.1559 21.5L92.1624 16.9565C92.1624 16.3975 92.0129 15.9577 91.7139 15.637C91.4192 15.312 91.0292 15.1495 90.5439 15.1495C90.0585 15.1495 89.6664 15.3163 89.3674 15.65C89.0684 15.9793 88.9189 16.4192 88.9189 16.9695L88.3469 16.6575C88.3469 16.2068 88.453 15.8038 88.6654 15.4485C88.8777 15.0888 89.168 14.8072 89.5364 14.6035C89.9047 14.3955 90.3229 14.2915 90.7909 14.2915C91.2372 14.2915 91.6337 14.3868 91.9804 14.5775C92.3314 14.7682 92.6065 15.0455 92.8059 15.4095C93.0052 15.7735 93.1049 16.2155 93.1049 16.7355L93.0984 21.5H92.1559ZM101.655 21.695C100.971 21.695 100.377 21.5433 99.8743 21.24C99.376 20.9367 98.9881 20.5098 98.7108 19.9595C98.4335 19.4092 98.2948 18.7635 98.2948 18.0225C98.2948 17.2555 98.4313 16.5925 98.7043 16.0335C98.9773 15.4745 99.3608 15.0433 99.8548 14.74C100.353 14.4367 100.94 14.285 101.616 14.285C102.31 14.285 102.901 14.4453 103.391 14.766C103.88 15.0823 104.251 15.5373 104.502 16.131C104.754 16.7247 104.868 17.4332 104.847 18.2565H103.872V17.9185C103.854 17.0085 103.657 16.3217 103.28 15.858C102.908 15.3943 102.362 15.1625 101.642 15.1625C100.888 15.1625 100.31 15.4073 99.9068 15.897C99.5081 16.3867 99.3088 17.0843 99.3088 17.99C99.3088 18.874 99.5081 19.5608 99.9068 20.0505C100.31 20.5358 100.88 20.7785 101.616 20.7785C102.119 20.7785 102.557 20.6637 102.929 20.434C103.306 20.2 103.603 19.8642 103.82 19.4265L104.71 19.771C104.433 20.382 104.023 20.8565 103.482 21.1945C102.944 21.5282 102.336 21.695 101.655 21.695ZM98.9708 18.2565V17.457H104.333V18.2565H98.9708ZM110.909 21.5V17.9185C110.909 17.5285 110.872 17.171 110.798 16.846C110.725 16.5167 110.606 16.2307 110.441 15.988C110.281 15.741 110.07 15.5503 109.81 15.416C109.555 15.2817 109.243 15.2145 108.874 15.2145C108.536 15.2145 108.237 15.273 107.977 15.39C107.722 15.507 107.505 15.676 107.327 15.897C107.154 16.1137 107.022 16.378 106.931 16.69C106.84 17.002 106.794 17.3573 106.794 17.756L106.118 17.6065C106.118 16.8872 106.244 16.2827 106.495 15.793C106.747 15.3033 107.093 14.9328 107.535 14.6815C107.977 14.4302 108.484 14.3045 109.056 14.3045C109.477 14.3045 109.843 14.3695 110.155 14.4995C110.471 14.6295 110.738 14.805 110.954 15.026C111.175 15.247 111.353 15.5005 111.487 15.7865C111.622 16.0682 111.719 16.3693 111.78 16.69C111.841 17.0063 111.871 17.3227 111.871 17.639V21.5H110.909ZM105.832 21.5V14.48H106.697V16.209H106.794V21.5H105.832ZM117.12 21.5C116.725 21.5823 116.335 21.6148 115.95 21.5975C115.568 21.5802 115.226 21.4978 114.923 21.3505C114.624 21.2032 114.396 20.9735 114.24 20.6615C114.114 20.4015 114.045 20.1393 114.032 19.875C114.023 19.6063 114.019 19.3008 114.019 18.9585V12.53H114.968V18.9195C114.968 19.2142 114.97 19.4612 114.975 19.6605C114.983 19.8555 115.029 20.0288 115.111 20.1805C115.267 20.4708 115.514 20.6442 115.852 20.7005C116.194 20.7568 116.617 20.7438 117.12 20.6615V21.5ZM112.518 15.299V14.48H117.12V15.299H112.518Z" fill="#151011"/>
<rect x="231.5" y="91.5" width="124" height="33" transform="rotate(90 231.5 91.5)" stroke="#E0E0E0"/>
<path d="M218.176 104.47L218.937 104.435C219.402 104.435 219.847 104.62 220.175 104.948C220.503 105.276 220.687 105.721 220.687 106.185L220.687 109.398C220.687 109.862 220.503 110.308 220.175 110.636L219.45 111.36C219.122 111.688 218.938 112.133 218.937 112.597L218.937 116.082C218.938 116.325 218.887 116.565 218.789 116.788C218.691 117.01 218.547 117.21 218.368 117.374C218.188 117.538 217.976 117.663 217.746 117.74C217.515 117.818 217.271 117.847 217.029 117.825L210.904 117.267C210.469 117.228 210.065 117.027 209.771 116.705C209.476 116.382 209.313 115.962 209.312 115.525L209.312 106.471C209.313 106.034 209.476 105.613 209.771 105.291C210.065 104.969 210.469 104.768 210.904 104.729L217.029 104.171C217.434 104.135 217.84 104.24 218.175 104.47L218.176 104.47ZM218.062 105.914C218.063 105.793 218.037 105.672 217.988 105.561C217.939 105.45 217.867 105.35 217.778 105.268C217.688 105.186 217.582 105.124 217.467 105.085C217.352 105.046 217.23 105.032 217.109 105.043L210.984 105.6C210.766 105.62 210.564 105.72 210.417 105.881C210.269 106.042 210.188 106.252 210.187 106.471L210.187 115.525C210.188 115.743 210.269 115.954 210.417 116.115C210.564 116.276 210.766 116.376 210.984 116.396L217.109 116.953C217.23 116.964 217.352 116.95 217.467 116.911C217.582 116.872 217.688 116.81 217.778 116.728C217.867 116.646 217.939 116.546 217.988 116.435C218.037 116.323 218.063 116.203 218.062 116.082L218.062 105.914ZM219.556 110.018C219.637 109.937 219.702 109.84 219.746 109.734C219.79 109.627 219.813 109.513 219.812 109.398L219.812 106.185C219.813 105.956 219.723 105.736 219.562 105.572C219.402 105.409 219.183 105.315 218.954 105.31L218.833 105.316C218.902 105.504 218.937 105.704 218.937 105.914L218.937 110.636L219.556 110.018Z" fill="#151011"/>
<path d="M210.305 135.534C210.305 134.88 210.413 134.291 210.63 133.766C210.851 133.246 211.163 132.815 211.566 132.473C211.969 132.135 212.448 131.914 213.003 131.81L213.165 132.785C212.558 132.941 212.082 133.27 211.735 133.773C211.393 134.276 211.221 134.876 211.221 135.573C211.221 136.033 211.293 136.444 211.436 136.808C211.583 137.172 211.791 137.458 212.06 137.666C212.329 137.874 212.647 137.978 213.015 137.978C213.258 137.978 213.464 137.935 213.633 137.848C213.806 137.762 213.949 137.647 214.062 137.504C214.175 137.361 214.268 137.205 214.341 137.036C214.419 136.867 214.482 136.702 214.53 136.542L215.239 134.169C215.321 133.883 215.425 133.619 215.55 133.376C215.681 133.134 215.834 132.921 216.012 132.739C216.194 132.562 216.406 132.423 216.649 132.323C216.892 132.224 217.169 132.174 217.481 132.174C218.01 132.174 218.467 132.313 218.853 132.59C219.238 132.867 219.535 133.246 219.743 133.727C219.951 134.208 220.053 134.757 220.049 135.372C220.049 135.996 219.938 136.553 219.717 137.042C219.496 137.536 219.18 137.944 218.768 138.264C218.361 138.585 217.878 138.797 217.318 138.901L217.136 137.9C217.544 137.835 217.897 137.686 218.196 137.452C218.495 137.218 218.725 136.919 218.885 136.555C219.05 136.195 219.134 135.799 219.139 135.365C219.139 134.945 219.067 134.57 218.924 134.241C218.785 133.916 218.595 133.658 218.352 133.467C218.109 133.277 217.832 133.181 217.52 133.181C217.204 133.181 216.95 133.268 216.76 133.441C216.569 133.619 216.419 133.836 216.311 134.091C216.203 134.351 216.114 134.603 216.045 134.845L215.505 136.678C215.453 136.869 215.377 137.092 215.277 137.348C215.182 137.608 215.043 137.859 214.861 138.102C214.684 138.349 214.45 138.553 214.159 138.713C213.869 138.873 213.501 138.953 213.054 138.953C212.621 138.953 212.233 138.867 211.891 138.693C211.549 138.524 211.26 138.284 211.026 137.972C210.792 137.664 210.615 137.302 210.493 136.886C210.368 136.475 210.305 136.024 210.305 135.534ZM210.5 145.105L214.081 145.105C214.471 145.105 214.829 145.068 215.154 144.995C215.483 144.921 215.769 144.802 216.012 144.637C216.259 144.477 216.45 144.267 216.584 144.007C216.718 143.751 216.785 143.439 216.785 143.071C216.785 142.733 216.727 142.434 216.61 142.174C216.493 141.918 216.324 141.701 216.103 141.524C215.886 141.35 215.622 141.218 215.31 141.127C214.998 141.036 214.643 140.991 214.244 140.991L214.393 140.315C215.113 140.315 215.717 140.44 216.207 140.692C216.697 140.943 217.067 141.29 217.318 141.732C217.57 142.174 217.695 142.681 217.695 143.253C217.695 143.673 217.63 144.039 217.5 144.351C217.37 144.668 217.195 144.934 216.974 145.151C216.753 145.372 216.499 145.549 216.213 145.684C215.932 145.818 215.631 145.916 215.31 145.976C214.994 146.037 214.677 146.067 214.361 146.067L210.5 146.067L210.5 145.105ZM210.5 140.029L219.86 140.029L219.86 140.893L214.575 140.893L214.575 140.991L210.5 140.991L210.5 140.029ZM210.305 149.502C210.305 148.974 210.4 148.53 210.591 148.17C210.782 147.815 211.035 147.548 211.351 147.37C211.668 147.193 212.012 147.104 212.385 147.104C212.766 147.104 213.091 147.18 213.36 147.331C213.633 147.487 213.856 147.698 214.029 147.962C214.203 148.231 214.335 148.54 214.426 148.891C214.513 149.247 214.588 149.639 214.653 150.068C214.723 150.501 214.781 150.924 214.829 151.335C214.881 151.751 214.931 152.115 214.978 152.427L214.77 152.089C215.464 152.102 215.977 151.968 216.311 151.686C216.645 151.405 216.811 150.915 216.811 150.217C216.811 149.736 216.703 149.329 216.486 148.995C216.27 148.666 215.927 148.434 215.459 148.3L215.732 147.37C216.361 147.531 216.848 147.854 217.195 148.339C217.542 148.824 217.715 149.455 217.715 150.23C217.715 150.872 217.594 151.416 217.351 151.862C217.113 152.313 216.766 152.631 216.311 152.817C216.107 152.904 215.88 152.96 215.628 152.986C215.377 153.012 215.121 153.025 214.861 153.025L210.5 153.025L210.5 152.174L212.261 152.174L212.157 152.421C211.555 152.183 211.096 151.812 210.779 151.309C210.463 150.807 210.305 150.204 210.305 149.502ZM211.13 149.613C211.13 150.059 211.211 150.449 211.371 150.783C211.531 151.117 211.75 151.385 212.027 151.589C212.309 151.793 212.625 151.925 212.976 151.985C213.202 152.037 213.449 152.066 213.717 152.07C213.99 152.074 214.194 152.076 214.328 152.076L214.14 152.44C214.097 152.115 214.053 151.762 214.01 151.381C213.967 151.004 213.917 150.631 213.86 150.263C213.804 149.899 213.737 149.57 213.659 149.275C213.603 149.076 213.522 148.883 213.418 148.696C213.319 148.51 213.184 148.356 213.015 148.235C212.846 148.118 212.636 148.059 212.385 148.059C212.181 148.059 211.984 148.109 211.793 148.209C211.603 148.313 211.445 148.478 211.319 148.703C211.193 148.933 211.13 149.236 211.13 149.613ZM210.5 154.458L217.52 154.458L217.52 155.316L215.83 155.316L216.051 155.147C216.259 155.225 216.45 155.326 216.623 155.452C216.801 155.578 216.946 155.714 217.058 155.862C217.219 156.044 217.34 156.256 217.422 156.499C217.509 156.741 217.559 156.986 217.572 157.233C217.589 157.48 217.572 157.705 217.52 157.909L216.623 157.909C216.688 157.653 216.703 157.374 216.668 157.071C216.634 156.767 216.512 156.488 216.304 156.232C216.122 155.998 215.904 155.823 215.648 155.706C215.397 155.589 215.128 155.511 214.842 155.472C214.56 155.433 214.281 155.413 214.003 155.413L210.5 155.413L210.5 154.458ZM210.305 161.726C210.305 161.041 210.457 160.447 210.76 159.945C211.063 159.446 211.49 159.059 212.04 158.781C212.591 158.504 213.236 158.365 213.977 158.365C214.744 158.365 215.407 158.502 215.966 158.775C216.525 159.048 216.957 159.431 217.26 159.925C217.563 160.424 217.715 161.011 217.715 161.687C217.715 162.38 217.555 162.972 217.234 163.461C216.918 163.951 216.463 164.321 215.869 164.573C215.275 164.824 214.567 164.939 213.743 164.917L213.743 163.942L214.081 163.942C214.991 163.925 215.678 163.728 216.142 163.351C216.606 162.978 216.837 162.432 216.837 161.713C216.837 160.959 216.593 160.38 216.103 159.977C215.613 159.579 214.916 159.379 214.01 159.379C213.126 159.379 212.439 159.579 211.949 159.977C211.464 160.38 211.221 160.95 211.221 161.687C211.221 162.189 211.336 162.627 211.566 163C211.8 163.377 212.136 163.674 212.573 163.89L212.229 164.781C211.618 164.503 211.143 164.094 210.805 163.552C210.472 163.015 210.305 162.406 210.305 161.726ZM213.743 159.041L214.543 159.041L214.543 164.404L213.743 164.404L213.743 159.041ZM210.5 169.138L218.04 169.138C218.222 169.138 218.402 169.146 218.579 169.164C218.757 169.185 218.926 169.227 219.086 169.287C219.251 169.348 219.403 169.443 219.541 169.573C219.697 169.716 219.81 169.872 219.879 170.041C219.953 170.21 220.001 170.386 220.022 170.568C220.044 170.754 220.055 170.936 220.055 171.114L220.055 172.011L219.249 172.011L219.249 171.179C219.249 170.815 219.16 170.542 218.982 170.36C218.805 170.182 218.525 170.093 218.144 170.093L210.5 170.093L210.5 169.138ZM216.701 167.922L217.52 167.922L217.52 172.011L216.701 172.011L216.701 167.922ZM210.305 175.468C210.305 174.771 210.463 174.175 210.779 173.681C211.096 173.187 211.533 172.808 212.092 172.543C212.651 172.279 213.293 172.147 214.016 172.147C214.753 172.147 215.399 172.281 215.953 172.55C216.508 172.818 216.939 173.2 217.247 173.694C217.559 174.192 217.715 174.784 217.715 175.468C217.715 176.17 217.557 176.768 217.24 177.262C216.928 177.761 216.493 178.14 215.934 178.4C215.379 178.664 214.74 178.796 214.016 178.796C213.28 178.796 212.632 178.664 212.073 178.4C211.518 178.135 211.085 177.754 210.773 177.256C210.461 176.757 210.305 176.162 210.305 175.468ZM211.221 175.468C211.221 176.248 211.479 176.829 211.995 177.21C212.515 177.592 213.189 177.782 214.016 177.782C214.866 177.782 215.542 177.589 216.044 177.204C216.547 176.822 216.798 176.244 216.798 175.468C216.798 174.944 216.679 174.511 216.441 174.168C216.207 173.83 215.88 173.577 215.459 173.408C215.043 173.243 214.562 173.161 214.016 173.161C213.171 173.161 212.493 173.356 211.982 173.746C211.475 174.136 211.221 174.71 211.221 175.468ZM210.5 180.1L220.055 180.1L220.055 181.056L210.5 181.056L210.5 180.1ZM210.305 185.468C210.305 184.813 210.467 184.254 210.792 183.791C211.122 183.327 211.566 182.972 212.125 182.725C212.684 182.478 213.314 182.354 214.016 182.354C214.714 182.354 215.342 182.476 215.901 182.718C216.46 182.965 216.902 183.318 217.227 183.778C217.552 184.237 217.715 184.787 217.715 185.429C217.715 186.087 217.555 186.642 217.234 187.093C216.913 187.543 216.473 187.884 215.914 188.113C215.36 188.347 214.727 188.464 214.016 188.464C213.319 188.464 212.688 188.349 212.125 188.12C211.566 187.89 211.122 187.552 210.792 187.106C210.467 186.659 210.305 186.113 210.305 185.468ZM211.195 185.565C211.195 186.064 211.317 186.475 211.559 186.8C211.802 187.125 212.136 187.368 212.56 187.528C212.989 187.689 213.475 187.769 214.016 187.769C214.567 187.769 215.052 187.689 215.472 187.528C215.897 187.368 216.229 187.125 216.467 186.8C216.705 186.48 216.824 186.074 216.824 185.585C216.824 185.082 216.701 184.666 216.454 184.337C216.207 184.007 215.871 183.763 215.446 183.602C215.022 183.446 214.545 183.368 214.016 183.368C213.483 183.368 213.002 183.448 212.573 183.609C212.149 183.773 211.813 184.018 211.566 184.343C211.319 184.668 211.195 185.076 211.195 185.565ZM210.5 187.769L215.784 187.769L215.784 187.665L219.86 187.665L219.86 188.627L210.5 188.627L210.5 187.769ZM210.305 193.161C210.305 192.476 210.457 191.882 210.76 191.38C211.063 190.881 211.49 190.494 212.04 190.216C212.591 189.939 213.236 189.8 213.977 189.8C214.744 189.8 215.407 189.937 215.966 190.21C216.525 190.483 216.957 190.866 217.26 191.36C217.563 191.859 217.715 192.446 217.715 193.122C217.715 193.815 217.555 194.407 217.234 194.896C216.918 195.386 216.463 195.756 215.869 196.008C215.275 196.259 214.567 196.374 213.743 196.352L213.743 195.377L214.081 195.377C214.991 195.36 215.678 195.163 216.142 194.786C216.606 194.413 216.837 193.867 216.837 193.148C216.837 192.394 216.593 191.815 216.103 191.412C215.613 191.014 214.916 190.814 214.01 190.814C213.126 190.814 212.439 191.014 211.949 191.412C211.464 191.815 211.221 192.385 211.221 193.122C211.221 193.624 211.336 194.062 211.566 194.435C211.8 194.812 212.136 195.109 212.573 195.325L212.229 196.216C211.618 195.938 211.143 195.529 210.805 194.987C210.472 194.45 210.305 193.841 210.305 193.161ZM213.743 190.476L214.543 190.476L214.543 195.839L213.743 195.839L213.743 190.476ZM210.5 197.535L217.52 197.535L217.52 198.393L215.83 198.393L216.051 198.224C216.259 198.302 216.45 198.404 216.623 198.529C216.801 198.655 216.946 198.791 217.058 198.939C217.219 199.121 217.34 199.333 217.422 199.576C217.509 199.818 217.559 200.063 217.572 200.31C217.589 200.557 217.572 200.783 217.52 200.986L216.623 200.986C216.688 200.731 216.703 200.451 216.668 200.148C216.634 199.844 216.512 199.565 216.304 199.309C216.122 199.075 215.904 198.9 215.648 198.783C215.397 198.666 215.128 198.588 214.842 198.549C214.56 198.51 214.281 198.49 214.003 198.49L210.5 198.49L210.5 197.535ZM210.311 204.325C210.311 203.502 210.489 202.823 210.844 202.29C211.2 201.762 211.694 201.437 212.326 201.315L212.489 202.29C212.09 202.394 211.772 202.631 211.533 202.999C211.299 203.372 211.182 203.831 211.182 204.377C211.182 204.91 211.293 205.33 211.514 205.638C211.739 205.946 212.045 206.099 212.43 206.099C212.647 206.099 212.823 206.05 212.957 205.95C213.096 205.855 213.223 205.657 213.34 205.358C213.457 205.059 213.596 204.613 213.756 204.019C213.93 203.382 214.103 202.884 214.276 202.524C214.45 202.165 214.649 201.909 214.874 201.757C215.104 201.606 215.384 201.53 215.713 201.53C216.112 201.53 216.46 201.643 216.759 201.868C217.063 202.093 217.297 202.405 217.461 202.804C217.63 203.203 217.715 203.666 217.715 204.195C217.715 204.724 217.628 205.196 217.455 205.612C217.286 206.032 217.048 206.37 216.74 206.626C216.432 206.882 216.075 207.033 215.667 207.081L215.492 206.106C215.904 206.041 216.229 205.835 216.467 205.488C216.71 205.146 216.835 204.711 216.844 204.182C216.857 203.684 216.762 203.278 216.558 202.966C216.359 202.654 216.092 202.498 215.758 202.498C215.572 202.498 215.412 202.555 215.277 202.667C215.147 202.78 215.024 202.984 214.907 203.278C214.79 203.577 214.662 204.002 214.523 204.552C214.359 205.198 214.185 205.705 214.003 206.073C213.821 206.442 213.607 206.704 213.36 206.86C213.113 207.016 212.807 207.094 212.443 207.094C211.78 207.094 211.258 206.847 210.877 206.353C210.5 205.863 210.311 205.187 210.311 204.325Z" fill="#151011"/>
<rect x="0.5" y="182.5" width="135" height="33" stroke="#E0E0E0"/>
<path d="M14 197.267C14 198.223 15.5343 198.999 17.4286 198.999V197.267C17.4286 196.415 17.4286 195.988 17.0883 195.728C16.7471 195.468 16.4094 195.565 15.734 195.76C14.6986 196.059 14 196.62 14 197.267Z" stroke="#151011" stroke-width="1.02857" stroke-linejoin="round"/>
<path d="M23.4287 196C23.4287 197.657 20.7424 199 17.4287 199C14.115 199 11.4287 197.657 11.4287 196C11.4287 194.343 14.115 193 17.4287 193C20.7424 193 23.4287 194.343 23.4287 196Z" stroke="#151011" stroke-width="1.02857"/>
<path d="M11.4287 196.43V202.144C11.4287 203.721 14.115 205.001 17.4287 205.001H26.8573C27.6656 205.001 28.0693 205.001 28.3204 204.75C28.5716 204.499 28.5716 204.095 28.5716 203.287V200.715C28.5716 199.907 28.5716 199.503 28.3204 199.252C28.0693 199.001 27.6656 199.001 26.8573 199.001H17.4287" stroke="#151011" stroke-width="1.02857"/>
<path d="M25.1431 205.002V203.288M21.7146 205.002V203.288M18.286 205.002V203.288M14.8574 204.574V202.859" stroke="#151011" stroke-width="1.02857" stroke-linecap="round" stroke-linejoin="round"/>
<path d="M41.1891 203.5V194.14H42.0666L45.7456 202.011L49.4051 194.14H50.2956V203.493H49.3856V196.272L46.0511 203.5H45.4336L42.1056 196.272V203.5H41.1891ZM54.8303 203.695C54.1456 203.695 53.552 203.543 53.0493 203.24C52.551 202.937 52.1631 202.51 51.8858 201.959C51.6085 201.409 51.4698 200.763 51.4698 200.022C51.4698 199.255 51.6063 198.592 51.8793 198.033C52.1523 197.474 52.5358 197.043 53.0298 196.74C53.5281 196.437 54.1153 196.285 54.7913 196.285C55.4846 196.285 56.0761 196.445 56.5658 196.766C57.0555 197.082 57.426 197.537 57.6773 198.131C57.9286 198.725 58.0435 199.433 58.0218 200.256H57.0468V199.919C57.0295 199.008 56.8323 198.322 56.4553 197.858C56.0826 197.394 55.5366 197.162 54.8173 197.162C54.0633 197.162 53.4848 197.407 53.0818 197.897C52.6831 198.387 52.4838 199.084 52.4838 199.99C52.4838 200.874 52.6831 201.561 53.0818 202.05C53.4848 202.536 54.0546 202.778 54.7913 202.778C55.294 202.778 55.7316 202.664 56.1043 202.434C56.4813 202.2 56.7781 201.864 56.9948 201.426L57.8853 201.771C57.608 202.382 57.1985 202.856 56.6568 203.194C56.1195 203.528 55.5106 203.695 54.8303 203.695ZM52.1458 200.256V199.457H57.5083V200.256H52.1458ZM61.0858 203.695C60.5572 203.695 60.113 203.6 59.7533 203.409C59.398 203.218 59.1315 202.965 58.9538 202.648C58.7762 202.332 58.6873 201.988 58.6873 201.615C58.6873 201.234 58.7632 200.909 58.9148 200.64C59.0708 200.367 59.281 200.144 59.5453 199.97C59.814 199.797 60.1238 199.665 60.4748 199.574C60.8302 199.487 61.2223 199.411 61.6513 199.346C62.0847 199.277 62.5072 199.219 62.9188 199.171C63.3348 199.119 63.6988 199.069 64.0108 199.021L63.6728 199.229C63.6858 198.536 63.5515 198.023 63.2698 197.689C62.9882 197.355 62.4985 197.188 61.8008 197.188C61.3198 197.188 60.9125 197.297 60.5788 197.513C60.2495 197.73 60.0177 198.072 59.8833 198.54L58.9538 198.267C59.1142 197.639 59.437 197.152 59.9223 196.805C60.4077 196.458 61.0382 196.285 61.8138 196.285C62.4552 196.285 62.999 196.406 63.4453 196.649C63.896 196.887 64.2145 197.234 64.4008 197.689C64.4875 197.893 64.5438 198.12 64.5698 198.371C64.5958 198.623 64.6088 198.878 64.6088 199.138V203.5H63.7573V201.738L64.0043 201.842C63.766 202.445 63.3955 202.904 62.8928 203.22C62.3902 203.537 61.7878 203.695 61.0858 203.695ZM61.1963 202.869C61.6427 202.869 62.0327 202.789 62.3663 202.629C62.7 202.469 62.9687 202.25 63.1723 201.972C63.376 201.691 63.5082 201.374 63.5688 201.023C63.6208 200.798 63.649 200.551 63.6533 200.282C63.6577 200.009 63.6598 199.806 63.6598 199.671L64.0238 199.86C63.6988 199.903 63.3457 199.947 62.9643 199.99C62.5873 200.033 62.2147 200.083 61.8463 200.139C61.4823 200.196 61.153 200.263 60.8583 200.341C60.659 200.397 60.4662 200.477 60.2798 200.581C60.0935 200.681 59.9397 200.815 59.8183 200.984C59.7013 201.153 59.6428 201.364 59.6428 201.615C59.6428 201.819 59.6927 202.016 59.7923 202.206C59.8963 202.397 60.061 202.555 60.2863 202.681C60.516 202.807 60.8193 202.869 61.1963 202.869ZM68.6605 203.689C67.8371 203.689 67.159 203.511 66.626 203.155C66.0973 202.8 65.7723 202.306 65.651 201.673L66.626 201.511C66.73 201.91 66.9661 202.228 67.3345 202.466C67.7071 202.7 68.1665 202.817 68.7125 202.817C69.2455 202.817 69.6658 202.707 69.9735 202.486C70.2811 202.261 70.435 201.955 70.435 201.569C70.435 201.353 70.3851 201.177 70.2855 201.043C70.1901 200.904 69.993 200.776 69.694 200.659C69.395 200.542 68.9486 200.404 68.355 200.243C67.718 200.07 67.2196 199.897 66.86 199.723C66.5003 199.55 66.2446 199.351 66.093 199.125C65.9413 198.896 65.8655 198.616 65.8655 198.287C65.8655 197.888 65.9781 197.539 66.2035 197.24C66.4288 196.937 66.7408 196.703 67.1395 196.538C67.5381 196.369 68.0018 196.285 68.5305 196.285C69.0591 196.285 69.5315 196.372 69.9475 196.545C70.3678 196.714 70.7058 196.952 70.9615 197.26C71.2171 197.568 71.3688 197.925 71.4165 198.332L70.4415 198.508C70.3765 198.096 70.1706 197.771 69.824 197.533C69.4816 197.29 69.0461 197.165 68.5175 197.156C68.0191 197.143 67.614 197.238 67.302 197.442C66.99 197.641 66.834 197.908 66.834 198.241C66.834 198.428 66.8903 198.588 67.003 198.722C67.1156 198.852 67.3193 198.976 67.614 199.093C67.913 199.21 68.3376 199.338 68.888 199.476C69.5336 199.641 70.0406 199.814 70.409 199.996C70.7773 200.178 71.0395 200.393 71.1955 200.64C71.3515 200.887 71.4295 201.192 71.4295 201.556C71.4295 202.219 71.1825 202.742 70.6885 203.123C70.1988 203.5 69.5228 203.689 68.6605 203.689ZM75.2955 203.676C74.8752 203.676 74.5069 203.611 74.1905 203.48C73.8785 203.351 73.612 203.175 73.391 202.954C73.1744 202.733 72.9989 202.482 72.8645 202.2C72.7302 201.914 72.6327 201.613 72.572 201.296C72.5114 200.976 72.481 200.657 72.481 200.341V196.48H73.443V200.061C73.443 200.447 73.4799 200.805 73.5535 201.134C73.6272 201.463 73.7442 201.751 73.9045 201.998C74.0692 202.241 74.2794 202.43 74.535 202.564C74.795 202.698 75.1092 202.765 75.4775 202.765C75.8155 202.765 76.1124 202.707 76.368 202.59C76.628 202.473 76.8447 202.306 77.018 202.089C77.1957 201.868 77.33 201.602 77.421 201.29C77.512 200.974 77.5575 200.618 77.5575 200.224L78.2335 200.373C78.2335 201.093 78.1079 201.697 77.8565 202.187C77.6052 202.677 77.2585 203.047 76.8165 203.298C76.3745 203.55 75.8675 203.676 75.2955 203.676ZM77.655 203.5V201.771H77.5575V196.48H78.513V203.5H77.655ZM80.0698 203.5V196.48H80.9278V198.17L80.7588 197.949C80.8368 197.741 80.9386 197.55 81.0643 197.377C81.19 197.199 81.3265 197.054 81.4738 196.941C81.6558 196.781 81.8681 196.66 82.1108 196.577C82.3535 196.491 82.5983 196.441 82.8453 196.428C83.0923 196.411 83.3176 196.428 83.5213 196.48V197.377C83.2656 197.312 82.9861 197.297 82.6828 197.331C82.3795 197.366 82.1 197.487 81.8443 197.695C81.6103 197.877 81.4348 198.096 81.3178 198.352C81.2008 198.603 81.1228 198.872 81.0838 199.158C81.0448 199.44 81.0253 199.719 81.0253 199.996V203.5H80.0698ZM87.3379 203.695C86.6532 203.695 86.0596 203.543 85.5569 203.24C85.0586 202.937 84.6707 202.51 84.3934 201.959C84.1161 201.409 83.9774 200.763 83.9774 200.022C83.9774 199.255 84.1139 198.592 84.3869 198.033C84.6599 197.474 85.0434 197.043 85.5374 196.74C86.0357 196.437 86.6229 196.285 87.2989 196.285C87.9922 196.285 88.5837 196.445 89.0734 196.766C89.5631 197.082 89.9336 197.537 90.1849 198.131C90.4362 198.725 90.5511 199.433 90.5294 200.256H89.5544V199.919C89.5371 199.008 89.3399 198.322 88.9629 197.858C88.5902 197.394 88.0442 197.162 87.3249 197.162C86.5709 197.162 85.9924 197.407 85.5894 197.897C85.1907 198.387 84.9914 199.084 84.9914 199.99C84.9914 200.874 85.1907 201.561 85.5894 202.05C85.9924 202.536 86.5622 202.778 87.2989 202.778C87.8016 202.778 88.2392 202.664 88.6119 202.434C88.9889 202.2 89.2857 201.864 89.5024 201.426L90.3929 201.771C90.1156 202.382 89.7061 202.856 89.1644 203.194C88.6271 203.528 88.0182 203.695 87.3379 203.695ZM84.6534 200.256V199.457H90.0159V200.256H84.6534ZM99.8935 203.5L99.9 198.891C99.9 198.35 99.7483 197.925 99.445 197.617C99.146 197.305 98.7646 197.149 98.301 197.149C98.0366 197.149 97.7788 197.21 97.5275 197.331C97.2761 197.453 97.0681 197.648 96.9035 197.916C96.7431 198.185 96.663 198.536 96.663 198.969L96.0975 198.807C96.0845 198.304 96.182 197.864 96.39 197.487C96.6023 197.11 96.8926 196.818 97.261 196.61C97.6336 196.398 98.054 196.291 98.522 196.291C99.2283 196.291 99.7938 196.51 100.218 196.948C100.643 197.381 100.855 197.968 100.855 198.709L100.849 203.5H99.8935ZM91.515 203.5V196.48H92.373V198.209H92.477V203.5H91.515ZM95.714 203.5L95.7205 198.956C95.7205 198.397 95.571 197.958 95.272 197.637C94.9773 197.312 94.5873 197.149 94.102 197.149C93.6166 197.149 93.2245 197.316 92.9255 197.65C92.6265 197.979 92.477 198.419 92.477 198.969L91.905 198.657C91.905 198.207 92.0111 197.804 92.2235 197.448C92.4358 197.089 92.7261 196.807 93.0945 196.603C93.4628 196.395 93.881 196.291 94.349 196.291C94.7953 196.291 95.1918 196.387 95.5385 196.577C95.8895 196.768 96.1646 197.045 96.364 197.409C96.5633 197.773 96.663 198.215 96.663 198.735L96.6565 203.5H95.714ZM105.213 203.695C104.529 203.695 103.935 203.543 103.432 203.24C102.934 202.937 102.546 202.51 102.269 201.959C101.992 201.409 101.853 200.763 101.853 200.022C101.853 199.255 101.989 198.592 102.262 198.033C102.535 197.474 102.919 197.043 103.413 196.74C103.911 196.437 104.498 196.285 105.174 196.285C105.868 196.285 106.459 196.445 106.949 196.766C107.439 197.082 107.809 197.537 108.06 198.131C108.312 198.725 108.427 199.433 108.405 200.256H107.43V199.919C107.413 199.008 107.215 198.322 106.838 197.858C106.466 197.394 105.92 197.162 105.2 197.162C104.446 197.162 103.868 197.407 103.465 197.897C103.066 198.387 102.867 199.084 102.867 199.99C102.867 200.874 103.066 201.561 103.465 202.05C103.868 202.536 104.438 202.778 105.174 202.778C105.677 202.778 106.115 202.664 106.487 202.434C106.864 202.2 107.161 201.864 107.378 201.426L108.268 201.771C107.991 202.382 107.582 202.856 107.04 203.194C106.503 203.528 105.894 203.695 105.213 203.695ZM102.529 200.256V199.457H107.891V200.256H102.529ZM114.467 203.5V199.919C114.467 199.528 114.43 199.171 114.356 198.846C114.283 198.517 114.164 198.231 113.999 197.988C113.839 197.741 113.628 197.55 113.368 197.416C113.113 197.282 112.801 197.214 112.432 197.214C112.094 197.214 111.795 197.273 111.535 197.39C111.28 197.507 111.063 197.676 110.885 197.897C110.712 198.114 110.58 198.378 110.489 198.69C110.398 199.002 110.352 199.357 110.352 199.756L109.676 199.606C109.676 198.887 109.802 198.283 110.053 197.793C110.305 197.303 110.651 196.933 111.093 196.681C111.535 196.43 112.042 196.305 112.614 196.305C113.035 196.305 113.401 196.369 113.713 196.499C114.029 196.629 114.296 196.805 114.512 197.026C114.733 197.247 114.911 197.5 115.045 197.786C115.18 198.068 115.277 198.369 115.338 198.69C115.399 199.006 115.429 199.323 115.429 199.639V203.5H114.467ZM109.39 203.5V196.48H110.255V198.209H110.352V203.5H109.39ZM120.678 203.5C120.283 203.582 119.893 203.615 119.508 203.598C119.126 203.58 118.784 203.498 118.481 203.35C118.182 203.203 117.954 202.973 117.798 202.661C117.673 202.401 117.603 202.139 117.59 201.875C117.582 201.606 117.577 201.301 117.577 200.958V194.53H118.526V200.919C118.526 201.214 118.528 201.461 118.533 201.66C118.541 201.855 118.587 202.029 118.669 202.18C118.825 202.471 119.072 202.644 119.41 202.7C119.753 202.757 120.175 202.744 120.678 202.661V203.5ZM116.076 197.299V196.48H120.678V197.299H116.076ZM124.42 203.689C123.597 203.689 122.919 203.511 122.386 203.155C121.857 202.8 121.532 202.306 121.411 201.673L122.386 201.511C122.49 201.91 122.726 202.228 123.094 202.466C123.467 202.7 123.926 202.817 124.472 202.817C125.005 202.817 125.426 202.707 125.733 202.486C126.041 202.261 126.195 201.955 126.195 201.569C126.195 201.353 126.145 201.177 126.045 201.043C125.95 200.904 125.753 200.776 125.454 200.659C125.155 200.542 124.708 200.404 124.115 200.243C123.478 200.07 122.979 199.897 122.62 199.723C122.26 199.55 122.004 199.351 121.853 199.125C121.701 198.896 121.625 198.616 121.625 198.287C121.625 197.888 121.738 197.539 121.963 197.24C122.189 196.937 122.501 196.703 122.899 196.538C123.298 196.369 123.762 196.285 124.29 196.285C124.819 196.285 125.291 196.372 125.707 196.545C126.128 196.714 126.466 196.952 126.721 197.26C126.977 197.568 127.129 197.925 127.176 198.332L126.201 198.508C126.136 198.096 125.93 197.771 125.584 197.533C125.241 197.29 124.806 197.165 124.277 197.156C123.779 197.143 123.374 197.238 123.062 197.442C122.75 197.641 122.594 197.908 122.594 198.241C122.594 198.428 122.65 198.588 122.763 198.722C122.875 198.852 123.079 198.976 123.374 199.093C123.673 199.21 124.097 199.338 124.648 199.476C125.293 199.641 125.8 199.814 126.169 199.996C126.537 200.178 126.799 200.393 126.955 200.64C127.111 200.887 127.189 201.192 127.189 201.556C127.189 202.219 126.942 202.742 126.448 203.123C125.959 203.5 125.283 203.689 124.42 203.689Z" fill="#151011"/>
<rect x="156.904" y="61.4405" width="128" height="33" transform="rotate(75 156.904 61.4405)" stroke="#E0E0E0"/>
<path d="M138.053 79.9506L141.417 92.5076M150.361 83.5479L152.862 84.9922L150.334 89.3706L147.833 87.9264M150.361 83.5479L145.401 80.6845C145.235 80.5887 145.038 80.5627 144.853 80.6123L141.689 81.4602L142.537 84.6245C142.586 84.8095 142.707 84.9672 142.873 85.063L147.833 87.9264M150.361 83.5479L147.833 87.9264" stroke="#151011" stroke-linecap="round" stroke-linejoin="round"/>
<path d="M147.966 109.975C147.725 109.076 147.72 108.263 147.952 107.537C148.187 106.809 148.616 106.192 149.239 105.684C149.861 105.177 150.634 104.799 151.559 104.551C152.484 104.303 153.343 104.244 154.136 104.372C154.928 104.501 155.607 104.821 156.17 105.334C156.738 105.846 157.143 106.552 157.384 107.452C157.665 108.503 157.625 109.433 157.263 110.243C156.906 111.052 156.308 111.701 155.47 112.191L154.973 111.314C155.637 110.93 156.112 110.433 156.397 109.823C156.682 109.212 156.716 108.501 156.498 107.689C156.309 106.982 155.99 106.437 155.542 106.054C155.094 105.672 154.55 105.439 153.908 105.355C153.272 105.274 152.576 105.331 151.82 105.524C151.066 105.722 150.433 106.015 149.922 106.403C149.413 106.795 149.058 107.271 148.858 107.832C148.664 108.395 148.662 109.031 148.851 109.738C149.069 110.55 149.454 111.149 150.006 111.535C150.562 111.92 151.221 112.113 151.985 112.115L151.992 113.123C151.022 113.118 150.178 112.855 149.459 112.334C148.745 111.812 148.247 111.026 147.966 109.975ZM150.04 117.64C149.931 117.234 149.899 116.862 149.942 116.523C149.987 116.188 150.088 115.885 150.244 115.614C150.401 115.348 150.599 115.113 150.836 114.91C151.077 114.707 151.343 114.535 151.633 114.394C151.927 114.252 152.227 114.141 152.532 114.059L156.262 113.06L156.511 113.989L153.051 114.916C152.679 115.016 152.343 115.144 152.044 115.3C151.745 115.456 151.497 115.644 151.3 115.863C151.108 116.085 150.98 116.336 150.917 116.618C150.854 116.904 150.871 117.225 150.966 117.581C151.053 117.907 151.187 118.179 151.366 118.395C151.546 118.616 151.764 118.782 152.018 118.894C152.277 119.008 152.569 119.069 152.894 119.076C153.223 119.082 153.578 119.034 153.959 118.932L153.99 119.624C153.295 119.81 152.679 119.845 152.141 119.729C151.602 119.613 151.155 119.374 150.798 119.012C150.441 118.65 150.188 118.193 150.04 117.64ZM150.82 119.874L152.49 119.427L152.465 119.332L157.576 117.963L157.823 118.886L151.042 120.703L150.82 119.874ZM151.941 124.786C151.728 123.99 151.724 123.289 151.929 122.683C152.136 122.08 152.529 121.638 153.108 121.357L153.518 122.257C153.16 122.461 152.913 122.771 152.778 123.189C152.649 123.609 152.654 124.083 152.796 124.61C152.934 125.125 153.149 125.503 153.442 125.743C153.74 125.982 154.075 126.051 154.447 125.951C154.656 125.895 154.813 125.802 154.917 125.671C155.026 125.543 155.099 125.319 155.134 125C155.17 124.681 155.188 124.214 155.19 123.599C155.192 122.939 155.231 122.413 155.305 122.02C155.379 121.628 155.506 121.329 155.684 121.125C155.867 120.919 156.117 120.773 156.435 120.688C156.82 120.585 157.186 120.603 157.533 120.744C157.885 120.883 158.191 121.123 158.454 121.466C158.72 121.807 158.922 122.233 159.059 122.744C159.195 123.255 159.234 123.733 159.174 124.18C159.12 124.63 158.977 125.018 158.746 125.344C158.515 125.671 158.209 125.91 157.828 126.062L157.406 125.165C157.787 124.996 158.047 124.713 158.188 124.316C158.334 123.923 158.342 123.47 158.214 122.957C158.097 122.472 157.901 122.105 157.623 121.857C157.35 121.607 157.052 121.525 156.73 121.612C156.55 121.66 156.409 121.756 156.309 121.899C156.212 122.042 156.146 122.27 156.109 122.585C156.073 122.904 156.06 123.348 156.068 123.915C156.076 124.582 156.04 125.116 155.96 125.519C155.879 125.922 155.74 126.231 155.542 126.445C155.344 126.66 155.069 126.814 154.717 126.908C154.077 127.08 153.508 126.977 153.012 126.598C152.521 126.223 152.164 125.619 151.941 124.786ZM154.135 132.245C153.953 131.885 153.821 131.517 153.738 131.14C153.656 130.767 153.647 130.415 153.711 130.084C153.775 129.757 153.938 129.478 154.199 129.246C154.418 129.058 154.653 128.923 154.905 128.842C155.163 128.764 155.457 128.681 155.787 128.592L161.997 126.928L162.242 127.845L156.07 129.499C155.786 129.575 155.548 129.641 155.356 129.697C155.17 129.755 155.015 129.844 154.889 129.963C154.649 130.189 154.546 130.472 154.579 130.813C154.613 131.159 154.735 131.563 154.945 132.028L154.135 132.245ZM158.933 126.194L159.724 125.982L160.916 130.428L160.124 130.64L158.933 126.194ZM154.93 135.966C154.75 135.292 154.748 134.676 154.926 134.117C155.103 133.558 155.428 133.078 155.9 132.678C156.371 132.278 156.956 131.985 157.655 131.797C158.367 131.607 159.025 131.569 159.631 131.685C160.236 131.801 160.751 132.058 161.176 132.455C161.607 132.856 161.91 133.387 162.088 134.048C162.269 134.726 162.271 135.345 162.094 135.904C161.921 136.466 161.599 136.945 161.126 137.341C160.659 137.74 160.075 138.033 159.376 138.22C158.665 138.411 158.005 138.451 157.397 138.34C156.792 138.228 156.275 137.972 155.845 137.572C155.414 137.171 155.11 136.636 154.93 135.966ZM155.815 135.729C156.017 136.482 156.417 136.977 157.013 137.211C157.614 137.445 158.315 137.455 159.114 137.241C159.934 137.021 160.537 136.66 160.923 136.157C161.31 135.659 161.403 135.035 161.202 134.286C161.067 133.779 160.839 133.391 160.521 133.122C160.207 132.856 159.825 132.696 159.376 132.642C158.931 132.59 158.445 132.635 157.918 132.777C157.102 132.995 156.497 133.359 156.104 133.868C155.715 134.376 155.619 134.997 155.815 135.729ZM158.45 148.351L162.904 147.164C163.427 147.024 163.798 146.768 164.016 146.395C164.24 146.026 164.292 145.617 164.172 145.169C164.104 144.914 163.979 144.68 163.796 144.469C163.614 144.258 163.372 144.107 163.07 144.018C162.769 143.932 162.409 143.946 161.99 144.058L162.001 143.47C162.483 143.327 162.933 143.307 163.351 143.411C163.77 143.518 164.128 143.723 164.424 144.025C164.726 144.33 164.937 144.708 165.058 145.16C165.241 145.843 165.176 146.446 164.863 146.969C164.555 147.491 164.042 147.849 163.327 148.04L158.698 149.274L158.45 148.351ZM156.282 140.258L163.063 138.441L163.285 139.27L161.615 139.717L161.642 139.818L156.531 141.187L156.282 140.258ZM157.369 144.314L161.759 143.144C162.299 143 162.685 142.741 162.918 142.369C163.155 142.001 163.211 141.582 163.086 141.113C162.96 140.644 162.697 140.309 162.298 140.106C161.902 139.903 161.439 139.872 160.907 140.015L161.06 139.381C161.496 139.265 161.912 139.263 162.311 139.376C162.713 139.488 163.06 139.696 163.352 139.999C163.648 140.301 163.857 140.678 163.978 141.13C164.094 141.561 164.104 141.968 164.01 142.353C163.917 142.741 163.72 143.079 163.42 143.365C163.12 143.652 162.719 143.863 162.216 143.997L157.613 145.224L157.369 144.314ZM159.855 153.592L167.138 151.64C167.314 151.593 167.49 151.555 167.666 151.526C167.843 151.501 168.017 151.497 168.187 151.514C168.362 151.53 168.533 151.583 168.701 151.672C168.889 151.77 169.038 151.891 169.148 152.037C169.263 152.181 169.355 152.338 169.423 152.508C169.492 152.683 169.55 152.856 169.596 153.027L169.828 153.894L169.049 154.102L168.834 153.299C168.74 152.947 168.583 152.706 168.364 152.577C168.147 152.451 167.854 152.437 167.486 152.536L160.102 154.515L159.855 153.592ZM165.53 150.813L166.321 150.601L167.379 154.55L166.588 154.762L165.53 150.813ZM169.019 155.523L170.055 155.246L170.303 156.169L169.267 156.446L169.019 155.523ZM160.952 157.685L167.732 155.868L167.98 156.791L161.199 158.608L160.952 157.685ZM162.215 163.155C162.038 162.493 162.031 161.881 162.194 161.316C162.358 160.757 162.67 160.272 163.129 159.861C163.589 159.451 164.177 159.15 164.893 158.958C165.634 158.76 166.309 158.72 166.92 158.839C167.531 158.958 168.046 159.217 168.467 159.615C168.889 160.018 169.188 160.546 169.363 161.199C169.542 161.869 169.54 162.482 169.357 163.038C169.178 163.592 168.835 164.068 168.326 164.464C167.818 164.861 167.163 165.155 166.363 165.347L166.11 164.406L166.437 164.318C167.311 164.066 167.924 163.698 168.274 163.213C168.625 162.733 168.708 162.146 168.522 161.451C168.327 160.723 167.94 160.228 167.363 159.965C166.787 159.707 166.061 159.695 165.187 159.929C164.333 160.158 163.721 160.528 163.351 161.04C162.987 161.555 162.9 162.168 163.09 162.88C163.22 163.365 163.445 163.758 163.763 164.059C164.087 164.362 164.488 164.562 164.967 164.658L164.864 165.608C164.202 165.498 163.638 165.225 163.171 164.789C162.71 164.357 162.391 163.812 162.215 163.155ZM164.842 159.672L165.614 159.465L167.002 164.644L166.23 164.851L164.842 159.672ZM163.569 167.455L172.799 164.982L173.046 165.905L163.817 168.378L163.569 167.455ZM164.77 172.69C164.601 172.058 164.613 171.476 164.807 170.944C165.005 170.411 165.342 169.953 165.818 169.569C166.294 169.186 166.871 168.904 167.549 168.722C168.223 168.541 168.862 168.496 169.464 168.586C170.068 168.679 170.587 168.906 171.019 169.266C171.452 169.625 171.752 170.115 171.918 170.734C172.088 171.371 172.077 171.948 171.884 172.466C171.691 172.984 171.354 173.427 170.873 173.793C170.398 174.163 169.817 174.44 169.131 174.624C168.457 174.804 167.818 174.856 167.215 174.78C166.615 174.703 166.099 174.492 165.665 174.146C165.236 173.799 164.937 173.314 164.77 172.69ZM165.656 172.554C165.785 173.035 166.008 173.401 166.327 173.652C166.645 173.903 167.03 174.051 167.482 174.096C167.938 174.14 168.428 174.092 168.951 173.952C169.482 173.809 169.93 173.606 170.295 173.343C170.664 173.078 170.921 172.758 171.067 172.382C171.214 172.011 171.225 171.588 171.098 171.116C170.968 170.63 170.741 170.26 170.417 170.006C170.093 169.752 169.705 169.602 169.254 169.557C168.803 169.516 168.322 169.564 167.812 169.701C167.297 169.839 166.853 170.041 166.48 170.307C166.113 170.576 165.852 170.899 165.697 171.277C165.543 171.655 165.529 172.081 165.656 172.554ZM165.554 174.862L170.658 173.494L170.632 173.394L174.568 172.339L174.817 173.268L165.776 175.691L165.554 174.862ZM166.677 179.78C166.464 178.985 166.46 178.284 166.665 177.677C166.871 177.074 167.264 176.633 167.844 176.352L168.253 177.251C167.895 177.455 167.649 177.766 167.514 178.183C167.384 178.604 167.39 179.077 167.531 179.605C167.669 180.12 167.885 180.497 168.178 180.737C168.475 180.976 168.81 181.045 169.183 180.946C169.392 180.89 169.549 180.796 169.653 180.665C169.762 180.537 169.834 180.313 169.87 179.994C169.906 179.675 169.924 179.208 169.925 178.593C169.928 177.933 169.966 177.407 170.041 177.015C170.115 176.622 170.241 176.324 170.42 176.119C170.602 175.913 170.853 175.768 171.171 175.682C171.556 175.579 171.922 175.598 172.269 175.738C172.62 175.877 172.927 176.118 173.189 176.46C173.456 176.802 173.657 177.228 173.794 177.738C173.931 178.249 173.97 178.728 173.91 179.174C173.855 179.624 173.713 180.012 173.482 180.339C173.251 180.665 172.945 180.904 172.563 181.056L172.142 180.16C172.522 179.99 172.783 179.707 172.924 179.311C173.069 178.917 173.078 178.464 172.95 177.951C172.833 177.466 172.636 177.1 172.359 176.851C172.085 176.601 171.788 176.52 171.465 176.606C171.285 176.654 171.145 176.75 171.044 176.894C170.948 177.036 170.881 177.265 170.845 177.58C170.809 177.899 170.796 178.342 170.804 178.91C170.812 179.576 170.776 180.111 170.695 180.513C170.615 180.916 170.476 181.225 170.277 181.44C170.079 181.654 169.804 181.809 169.453 181.903C168.812 182.075 168.244 181.971 167.748 181.593C167.257 181.217 166.9 180.613 166.677 179.78Z" fill="#151011"/>
</g>
<defs>
<clipPath id="clip0_4084_38434">
<rect width="232" height="216" fill="white"/>
</clipPath>
</defs>
</svg>
