<svg width="93" height="137" viewBox="0 0 93 137" fill="none" xmlns="http://www.w3.org/2000/svg">
<g clip-path="url(#clip0_1134_18742)">
<path d="M39.2563 5.70015C39.8286 4.40784 40.9515 3.02214 42.3262 2.66747C46.4894 1.5935 51.6437 1.2804 53.3703 5.94471C53.41 6.05183 53.4481 6.15954 53.4844 6.26776L52.582 8.31031C59.9969 11.6259 62.7069 16.5089 62.3465 24.5769C62.3003 25.6142 61.9436 27.1739 62.042 28.1443C62.4283 28.1499 62.9998 28.082 63.2362 28.3798C63.761 29.0409 63.8339 30.4658 63.6967 31.255C63.0988 34.6912 62.3049 38.4827 58.9404 40.1231C57.8215 43.2484 57.167 44.8857 54.7835 47.3781C54.6626 51.2603 54.4544 55.5599 57.2834 58.6833C63.0892 65.0925 75.0407 61.5607 79.9045 68.6556C83.7637 74.285 83.127 85.3009 83.3396 91.9847C83.5584 98.1648 84.0362 104.333 84.7721 110.473C85.0634 112.826 85.5477 116.02 86.2918 118.263C89.3452 127.468 89.1328 137.09 90.2924 146.587C91.0741 152.99 92.2594 158.928 92.1513 165.434C92.1093 167.955 93.1743 171.264 92.9752 173.895C92.9619 175.75 89.8586 183.294 88.3343 184.561C87.7357 185.058 83.7683 188.56 82.7251 188.458C82.3269 188.42 82.4175 188.408 82.1382 188.166C81.887 187.5 82.0257 186.574 82.3367 185.977C82.808 185.072 82.6408 184.766 82.4815 183.734C83.4206 182.766 83.6581 182.668 85.0475 182.42C86.3558 179.283 87.5968 174.987 86.2487 171.716C85.4544 174.365 85.6521 180.179 83.8578 181.514C81.7914 181.919 82.1189 178.268 82.2317 177.007C82.5462 173.493 81.7362 169.998 82.2735 166.502C82.4584 165.298 83.3242 163.963 83.8332 162.876C84.7957 161.062 84.9227 160.297 84.6441 158.314C83.7789 152.155 81.4941 146.395 79.4626 140.552C77.7835 135.729 76.2475 130.857 74.8566 125.943C73.9288 122.575 73.6262 119.772 73.3961 116.295C72.9742 109.923 71.4325 103.724 70.7237 97.3651C69.8599 102.173 69.2547 106.757 68.7236 111.596C67.8523 119.536 70.8028 125.34 73.2844 132.579C76.4475 141.805 78.3726 151.936 78.5191 161.696C78.5507 172.174 75.9882 182.719 73.736 192.886C72.6748 197.678 71.6539 202.322 71.0301 207.205C70.3125 212.821 70.6925 218.618 71.417 224.219C72.0718 229.283 72.9962 234.098 72.8052 239.27C72.4867 247.9 71.3012 256.5 70.363 265.071C69.633 271.739 67.8714 280.179 68.9704 286.772H68.6453H58.2237H57.9016C59.2533 278.055 58.0534 273.019 56.8752 264.434C56.0922 258.796 55.3496 253.154 54.6472 247.504C54.1016 243.101 53.9294 238.657 54.1319 234.223C54.2509 231.64 54.7511 228.382 54.5206 225.887C54.1622 222.011 52.3106 217.936 51.8172 214.034C51.2059 209.199 52.1634 204.435 51.7431 199.56C51.2226 193.524 50.3923 187.537 49.6404 181.531C48.9876 176.316 48.2296 171.139 48.7202 165.878L44.1704 165.843C44.9914 175.878 41.9532 187.498 41.2265 197.574C40.7088 203.33 41.6553 209.11 40.9553 214.854C40.4999 218.588 38.6997 222.123 38.4137 225.877C38.1775 228.976 38.6294 232.206 38.7861 235.313C38.9603 239.183 38.8106 243.059 38.3382 246.902C37.4753 254.341 36.2482 261.761 35.3674 269.209C34.5908 275.774 33.7325 280.223 35.0256 286.772H34.6588H24.2811H23.8431C24.994 279.621 23.2996 270.83 22.3703 263.62C21.3491 255.699 20.2818 247.749 20.0631 239.755C19.7733 229.175 23.2661 218.798 21.9772 208.195C20.0195 192.091 14.3081 176.777 14.4231 160.371C14.4799 152.283 16.0286 144.014 18.4017 136.302C22.1852 124.005 25.3718 121.085 23.7517 107.527C23.3793 104.41 22.9718 101.04 22.0367 98.0444C21.0957 102.15 20.357 107.09 19.8982 111.266C19.3685 116.091 19.1603 120.915 18.0088 125.661C17.3154 128.519 16.367 131.285 15.4527 134.077C14.2867 137.752 13.0665 141.41 11.7924 145.049C10.2973 149.376 8.6242 154.011 8.06589 158.58C7.66598 161.853 9.66627 163.25 10.4858 165.94L10.5181 166.044C11.214 168.337 10.5499 172.621 10.6148 175.077C10.6516 176.464 10.993 180.905 9.59416 181.549C7.30052 181.351 7.32589 173.979 6.61768 171.832C5.54533 174.631 6.42539 179.229 7.62473 181.903C7.73355 182.144 7.85014 182.382 7.9741 182.616C8.54566 182.64 9.0561 182.599 9.54287 182.868C10.1619 183.611 11.2822 187.537 10.6693 188.353C10.0393 188.533 9.76582 188.327 9.2077 188.043C8.16734 187.515 4.59316 184.531 4.011 183.846C3.01606 182.674 0.402386 176.907 0.126066 175.504C-0.283492 173.426 0.416202 167.925 0.645774 165.488C0.85888 163.224 0.681164 159.86 0.929473 157.9C1.61857 152.46 2.39453 147.054 2.94471 141.587C3.44322 136.636 3.641 131.666 4.4427 126.757C4.9151 123.864 5.80897 121.146 6.53119 118.323C7.25113 115.477 7.79733 112.591 8.16695 109.68C8.82709 104.457 9.08638 99.4148 9.40926 94.0086C9.93843 85.7556 8.76861 76.2014 12.748 68.6622C14.2723 65.7745 18.682 64.4861 21.6852 63.9123C32.5343 61.8393 38.9989 60.7237 38.1438 47.5263C35.6257 44.7755 35.1049 43.3764 33.7501 39.9731C31.2625 38.7184 30.887 36.8961 29.9191 34.3165C29.4939 33.1829 28.3769 29.1564 30.0416 28.2029C30.0936 28.1732 30.5884 28.0903 30.6889 28.0729C30.8329 27.1222 30.4682 25.28 30.4578 24.2054C30.4071 19.0084 31.3199 13.975 35.7837 10.6586C36.9418 9.79819 38.7061 8.88232 40.0637 8.39101C39.7063 7.38365 39.4826 6.75885 39.2563 5.70015ZM84.3905 186.42C83.8088 186.653 83.2425 186.454 82.6526 186.301C82.2886 186.964 82.099 187.679 82.7413 188.242C83.6553 187.997 83.9469 187.026 84.4757 186.721L84.3905 186.42ZM84.8279 186.852C85.4161 186.502 86.8842 185.309 87.4793 184.846C87.4509 184.598 87.4531 184.6 87.3583 184.369L86.8346 184.473C86.3836 185.71 84.9731 185.828 84.8279 186.852Z" fill="#5E5E5E"/>
<path d="M29.157 62.7311L29.4907 62.6917C29.7696 63.0247 29.7066 63.8394 29.7486 64.3188C29.8433 65.4048 30.0478 66.4783 30.3594 67.5229C30.8492 69.2231 31.6569 70.8148 32.7399 72.2136C38.0954 79.0687 51.1221 79.6801 57.8955 74.5208C61.8077 71.5409 62.7998 67.2063 63.3613 62.5898C65.3098 63.2377 67.4751 63.6607 69.5085 63.9208C69.3622 68.8887 69.383 74.4155 70.0564 79.3097C70.5331 82.7756 71.6825 86.1351 71.7234 89.7256C71.758 92.7926 70.8117 95.2267 70.2761 98.1482C69.4899 102.145 69.0721 106.51 68.4999 110.487C67.2202 119.385 70.6512 126.151 73.5507 134.289C74.7817 137.744 75.625 142.25 76.5172 145.991C71.6676 146.742 68.5103 148.33 64.424 150.95C60.6829 153.542 57.2197 156.513 54.0895 159.816C52.3614 161.668 50.8045 163.675 48.9886 165.439C47.2869 165.522 45.7994 165.51 44.1028 165.484C42.0284 163.428 40.0093 160.975 37.8804 158.887C31.2606 152.396 25.4329 147.886 16.3252 145.976C17.1789 142.049 17.9646 138.246 19.2911 134.408C21.1017 129.17 23.5689 124.009 24.3231 118.457C25.1971 112.023 23.7589 104.84 22.6894 98.4262C22.0622 95.6546 21.1805 92.9134 21.15 90.0439C21.139 89.0022 21.1797 87.7604 21.3796 86.7276C21.8482 84.3066 22.422 81.9704 22.7453 79.5142C23.4243 74.3572 23.3566 69.238 23.3125 64.0496C25.2815 63.5992 27.1732 63.2099 29.157 62.7311Z" fill="#91364A"/>
<path d="M22.3957 64.1528L22.75 64.1367L22.8848 64.3204C23.1583 71.78 22.9052 78.6128 21.0419 85.8841C20.8989 85.2764 20.797 84.8871 20.593 84.2962C20.6343 84.8507 20.8232 86.6439 20.8033 87.139C20.7397 88.7148 20.7282 89.5543 20.8621 91.1335C21.034 93.1611 21.7356 95.4524 21.7309 97.3968C21.7291 98.1523 21.2687 100.475 21.1152 101.349C20.7172 103.604 20.343 105.864 19.9929 108.128C19.3127 112.627 19.1253 116.986 18.5312 121.426C17.9254 125.955 16.0249 130.97 14.7173 135.368C12.4494 142.997 9.00787 150.342 7.79282 158.268C7.19817 162.013 9.848 163.88 10.4054 167.211C10.672 169.43 10.3796 171.772 10.299 174.004C10.2417 175.589 10.7386 180.257 9.62732 181.184C6.8416 181.03 8.75729 171.5 6.3217 171.776C4.63029 173.193 6.57399 179.909 7.23602 181.8C8.1791 184.169 10.0825 185.021 10.6291 187.382C10.704 187.706 10.5632 187.808 10.3861 188.022C9.1008 188.086 8.80101 186.524 7.74986 185.945L8.2092 186.738C8.01918 186.704 7.9959 186.706 7.82992 186.6C4.09412 184.191 3.39991 182.611 1.77966 178.639C1.46341 177.863 0.484558 175.804 0.400148 175.028C-0.109339 172.051 1.04742 168.552 1.00408 165.706C0.887872 158.085 2.32322 150.882 3.15634 143.345C3.69176 138.5 3.70292 133.411 4.56651 128.604C5.7492 122.022 7.83522 115.74 8.58204 109.049C9.23726 103.163 9.65987 97.2535 9.84875 91.3342C10.0232 86.3476 9.92237 81.3619 10.6629 76.4136C11.9312 67.94 14.348 65.797 22.3957 64.1528Z" fill="white"/>
<path d="M69.9023 64.0117C73.9258 64.7662 78.5661 65.9719 80.38 70.0404C83.265 76.5118 82.7658 84.5735 82.9997 91.5585C83.2115 98.0505 83.7007 104.531 84.4661 110.981C85.1165 116.409 87.1199 121.14 87.8832 126.364C89.4497 137.084 89.7404 148.033 91.6121 158.764C91.9352 160.616 91.5436 163.251 91.7829 165.243C91.8849 167.772 92.9042 171.76 92.5898 174.194C92.2422 176.885 89.4462 183.051 87.4793 184.847C87.4509 184.599 87.4532 184.601 87.3583 184.371L86.8347 184.475C86.3836 185.712 84.9731 185.829 84.8279 186.853C84.6909 186.867 84.643 186.804 84.4757 186.723L84.3906 186.422C83.8088 186.655 83.2425 186.456 82.6526 186.302C82.9206 185.615 83.956 184.366 84.5062 183.831C86.3642 182.024 88.4125 173.826 86.5093 171.623L86.2438 171.662C85.0991 172.937 85.1824 176.289 84.8794 178.001C84.704 178.994 84.577 179.568 84.2829 180.557C83.9324 180.942 83.6871 181.263 83.1749 181.05C82.8271 180.491 82.6634 179.662 82.6143 179.028C82.49 177.415 82.6378 175.592 82.6217 173.971C82.6066 172.436 82.1862 168.37 82.5527 166.952C83.4549 163.46 85.6024 162.148 84.9985 158.03C84.3111 153.344 82.7777 148.947 81.2265 144.496C80.0523 141.132 78.9024 137.76 77.7773 134.379C76.3489 130.035 74.7056 124.7 74.0452 120.191C73.6124 117.236 73.7229 114.011 73.217 110.907C72.4761 106.362 71.4988 101.64 71.1397 97.0637C71.0105 95.4164 71.9458 92.8914 72.0535 91.0795C72.2062 88.5105 71.8551 87.0757 72.3765 84.4329L72.4063 84.2863L72.3567 84.2886C72.1515 84.8255 72.0082 85.4655 71.8633 86.0282C69.7822 79.9385 69.855 70.4197 69.9023 64.0117Z" fill="white"/>
<path d="M32.4999 30.8685C30.2431 26.7658 30.4807 21.9407 31.5954 17.5268C34.6716 5.34526 54.6385 4.62961 60.2171 14.9936C62.6408 19.4965 62.6096 26.2136 60.4795 30.8266C60.2573 28.9112 59.9491 27.097 60.149 25.1707L59.9666 24.8169C59.3918 24.7716 58.6609 24.6597 58.0755 24.5874C58.0935 23.2982 58.2098 20.8852 57.6453 19.7604C57.7473 21.3262 57.8822 22.8792 57.7138 24.4403C57.0374 24.3428 56.3615 24.2405 55.6866 24.1336L55.3772 24.0399C55.0291 24.2279 53.1244 24.0558 52.5939 24.0285C52.4635 22.7753 51.8978 17.6889 51.5297 16.7049C51.4796 18.1558 51.7287 18.2635 51.8509 19.5786C51.9853 21.0242 52.0674 22.61 52.1602 24.0688C51.2563 24.0694 50.182 24.1027 49.2987 23.9906L49.0092 23.9571C48.6257 24.0561 47.5831 24.0446 47.1311 24.0518C46.9996 22.3075 47.0115 20.8668 46.6582 19.1115C46.5787 20.6932 46.7401 22.7437 46.8234 24.3602C51.7989 24.2975 54.7002 24.2379 59.6437 25.1421C59.5905 26.9656 60.0519 28.8127 60.001 30.6089C59.8324 36.5662 58.6656 43.1957 54.1491 47.4818C51.9567 49.5621 49.3852 51.2355 46.2471 51.1772C43.1012 51.1186 40.2631 49.182 38.1354 46.9717C34.0168 42.6934 33.0364 35.8896 32.9465 30.1943C32.9234 28.7258 33.223 26.777 33.2662 25.1508C37.3356 24.1716 41.7806 24.3301 45.9432 24.3524C46.0639 22.5136 46.1678 20.6739 46.2551 18.8332C45.9152 19.9732 45.7187 22.7723 45.7516 24.0012H43.7338C43.5803 22.4657 43.6187 20.6942 43.6164 19.1324L43.3348 19.8825C43.331 21.2383 43.2937 22.7314 43.4141 24.069L40.6872 24.0709C40.7681 22.6937 41.227 18.5755 41.2115 17.6183C40.6925 20.0304 40.5478 21.5867 40.3428 24.065L37.6502 24.0921C37.6354 22.7861 37.6381 21.4799 37.6581 20.1739L37.5612 19.0464C37.333 20.6542 37.1594 22.5494 37.3317 24.1661L35.1052 24.4927L35.0857 21.6408L34.8177 22.1176L34.8501 24.6008C34.3289 24.6675 33.3854 24.8678 32.9796 24.6226L32.7474 24.8668C32.9509 26.2815 32.4976 29.2126 32.4999 30.8685Z" fill="white"/>
<path d="M58.0313 14.8125C60.1558 18.3606 60.6406 20.732 60.191 25.0499C60.177 25.0913 60.163 25.1326 60.149 25.1741L59.9665 24.8202C60.2862 21.2081 59.8376 18.0953 57.8392 14.9859L58.0313 14.8125Z" fill="#515053"/>
<path d="M32.5581 22.8267C32.4209 20.6229 33.0469 18.4219 33.9156 16.4104C34.1702 15.8209 35.0926 14.0056 35.6513 13.7461C35.623 14.1144 34.973 14.8596 34.7177 15.3068C33.8032 16.9093 33.0032 19.5348 32.8344 21.367L32.8221 21.5088C32.7286 21.9478 32.6304 22.3837 32.5581 22.8267Z" fill="#515053"/>
<path d="M49.0093 23.958C49.1266 22.3314 49.1278 21.1748 49.0551 19.5475C49.0246 18.8665 48.8862 16.7304 48.9701 16.2227C49.4149 19.3813 49.4527 20.7496 49.2988 23.9915L49.0093 23.958Z" fill="#515053"/>
<path d="M55.3772 24.038C55.3737 22.3126 55.3862 20.7506 55.1782 19.0336C55.0866 18.277 54.6241 17.2111 54.738 16.832C55.6506 19.2237 55.7015 21.599 55.6866 24.1317L55.3772 24.038Z" fill="#515053"/>
<path d="M37.5613 19.0449C37.671 17.7074 38.2697 15.7838 38.9489 14.6172L39.0411 14.6332C38.877 15.5481 38.2931 16.2568 38.0836 17.1069C37.8741 17.957 37.8807 19.3544 37.6582 20.1723L37.5613 19.0449Z" fill="#757374"/>
<path d="M43.3348 19.8833C43.3403 18.9658 43.6428 15.6906 43.9467 14.7891C44.0589 15.3358 43.6884 18.4364 43.6165 19.1332L43.3348 19.8833Z" fill="#757374"/>
<path d="M55.7572 12.2344C56.8394 13.1 57.2554 13.7065 58.0314 14.813L57.8393 14.9864C57.1329 14.0784 56.4389 13.161 55.7572 12.2344Z" fill="#5E5E5E"/>
<path d="M35.0959 19.4697C35.2523 18.7171 35.387 18.0211 35.6155 17.2838L35.8944 17.2592L35.8999 17.1761L35.6978 17.079L35.8683 16.9141C35.8969 17.4711 35.475 19.0149 35.2739 19.5422L35.0959 19.4697Z" fill="#C4C4C3"/>
<path d="M32.8222 21.5078C32.823 22.5079 32.7753 23.6596 32.9797 24.6246L32.7475 24.8688C32.6536 24.4033 32.594 23.3286 32.5582 22.8258C32.6305 22.3827 32.7287 21.9469 32.8222 21.5078Z" fill="#C4C4C3"/>
<path d="M35.096 19.4688L35.2739 19.5413C35.2001 20.1823 35.0806 21.0114 35.0857 21.6402L34.8177 22.1169C34.8276 21.4342 34.9254 20.0983 35.096 19.4688Z" fill="#888787"/>
<path d="M38.6455 30.2057C39.836 30.113 41.2654 30.1258 42.1432 31.0244L42.077 31.2067L41.8158 31.1689L42.0266 31.2245C41.583 30.979 41.4632 30.8146 41.0156 30.8411C40.656 31.2889 40.7584 31.2446 40.6678 31.8883C40.1111 32.3747 39.8221 32.5512 39.1346 32.3547C38.7023 31.9732 38.5327 31.4271 38.3115 30.8915C37.8995 30.6122 37.9657 30.702 37.3915 30.6586C37.6971 30.4303 38.2587 30.314 38.6455 30.2057Z" fill="#5E5E5E"/>
<path d="M52.3044 30.1917C53.7203 30.0414 54.4469 30.2241 55.7546 30.7213C55.2546 30.6297 54.8931 30.489 54.4652 30.7107C54.4491 31.3279 54.4166 31.5352 54.3025 32.1294C53.8318 32.3437 53.3191 32.4453 52.8135 32.3168C52.3374 31.9076 52.4013 31.6272 52.1301 30.9451C51.7289 30.7289 51.5307 30.8182 51.0247 30.8357L51.5746 30.6938L51.4187 30.5499L52.3044 30.1917Z" fill="#5E5E5E"/>
<path d="M53.5178 26.6881C55.3742 26.565 56.1636 26.8416 57.8469 27.659C56.5287 27.5817 55.2145 27.3553 53.8202 27.2803C52.5052 27.5086 51.4067 27.7559 50.0679 27.5654L50.0664 27.4227C51.5271 26.8545 51.9768 26.8384 53.5178 26.6881Z" fill="#5E5E5E"/>
<path d="M38.5358 26.6836C39.7405 26.7008 41.4867 26.7406 42.491 27.4884L42.4096 27.6392L42.2531 27.407L41.8306 27.6503L42.1272 27.6791C41.5553 27.727 40.6504 27.5011 40.0571 27.3794C38.4444 27.1791 36.9292 27.7281 35.2028 27.7859C36.6073 27.0225 36.9612 26.8438 38.5358 26.6836Z" fill="#5E5E5E"/>
<path d="M44.4297 43.4373C45.0838 43.3048 49.003 43.4156 49.3783 43.7507C49.0405 43.7463 48.9042 43.8107 48.4791 43.7861C47.0027 43.6873 44.9473 43.7802 43.3965 43.7764L43.4936 43.6007L43.1938 43.7376L43.2677 43.7325C43.5408 43.4701 44.0279 43.4809 44.4297 43.4373Z" fill="#5E5E5E"/>
<path d="M44.2646 39.2869L44.4041 39.2958C44.4586 39.6273 44.4418 39.662 44.6278 39.9515C45.246 40.3203 46.4729 40.3377 47.1842 40.2837C48.1333 40.2114 48.2752 39.6078 48.6505 39.1758L49.0204 39.3704C48.2296 41.0981 43.9993 41.2332 44.2646 39.2869Z" fill="#5E5E5E"/>
<path d="M47.3752 30.1445C47.5249 31.495 47.454 34.0251 47.0997 35.3299C46.9581 34.0972 47.1211 31.3602 47.3752 30.1445Z" fill="#515053"/>
<path d="M52.6687 29.4862C53.6574 29.394 54.4559 29.5325 55.4153 29.7351L55.4068 29.83L54.7262 29.7609C53.6639 29.7122 52.7408 29.8406 51.6746 29.8909C51.8803 29.6723 52.3362 29.5912 52.6687 29.4862Z" fill="#888787"/>
<path d="M44.6226 45.252C45.2305 45.2331 47.3418 45.0818 47.6789 45.4296C46.3893 45.7384 45.8732 45.6591 44.6226 45.252Z" fill="#515053"/>
<path d="M38.5371 48.0073C38.9239 48.2362 39.5753 48.7701 39.9637 49.0514C45.5692 53.1103 49.2221 52.0669 54.2753 47.9102C54.5802 50.9037 54.239 53.9389 55.514 56.7292C57.0033 59.9886 59.8275 61.2338 62.9446 62.4162C62.3575 68.1537 61.0319 72.2052 55.817 75.4292C53.9174 76.4962 51.6374 77.0724 49.4886 77.3285C42.1608 78.2023 33.5841 75.9362 30.992 68.1615C30.3472 66.2272 30.1847 64.4348 29.9716 62.4143C38.1307 59.4249 38.4521 55.8019 38.5371 48.0073Z" fill="white"/>
<path d="M34.9811 64.0464C37.1042 63.8828 43.2256 63.5178 44.3188 65.6087L44.1786 65.6324L43.0648 64.7321C40.9549 63.88 34.8872 64.802 32.7955 64.274C33.4691 64.0708 34.2691 64.0755 34.9811 64.0464Z" fill="#757374"/>
<path d="M50.6049 64.1384C51.9612 64.063 58.3438 64.0479 59.5585 64.1895L59.6012 64.2863C58.848 64.4411 57.458 64.3963 56.6429 64.3972C54.6388 64.3105 52.5021 64.3853 50.4872 64.4199C50.1019 64.6735 49.2652 65.2943 48.8658 65.2871L49.0625 65.2494L49.1442 64.9832C49.5848 64.5788 50.0644 64.3927 50.6049 64.1384Z" fill="#888787"/>
<path d="M45.2725 2.55264C47.4395 2.42579 47.9644 2.98877 49.7625 4.2518L49.7578 4.09511C49.1084 3.40905 48.5535 3.08999 47.7704 2.58148C51.0652 2.65746 51.7999 3.34094 53.1054 6.26447L52.2941 8.06339L50.8313 7.89116C46.5951 7.16787 44.4392 7.39899 40.3429 8.27779C38.775 3.96746 41.4023 2.74635 45.2725 2.55264Z" fill="white"/>
<path d="M33.1006 36.5098C33.2771 37.1638 33.8345 38.7716 33.3135 39.2953C31.4396 38.81 28.2945 30.5495 30.188 28.7524C31.6213 28.3962 32.4429 31.828 32.6492 32.8811C32.7118 33.4444 32.9588 35.1826 32.8538 35.6321L32.7378 35.5047L32.2835 35.5975C32.4754 35.8718 32.8598 36.2542 33.1006 36.5098Z" fill="white"/>
<path d="M32.6492 32.8828C32.7118 33.4461 32.9588 35.1843 32.8538 35.6338L32.7377 35.5064C32.511 34.9497 32.364 33.7956 32.3414 33.1772L32.4862 33.1441L32.6492 32.8828Z" fill="#C4C4C3"/>
<path d="M32.2836 35.6002C32.2654 34.7382 31.9584 33.7978 32.064 33.0234L32.3415 33.1783C32.364 33.7967 32.5111 34.9508 32.7378 35.5075L32.2836 35.6002Z" fill="#515053"/>
<path d="M62.7255 28.418C64.8098 30 61.5375 39.2877 59.4698 39.2402C59.2253 38.8149 59.3364 38.7335 59.4049 38.1648C59.6969 36.8268 59.7113 36.7168 60.6216 35.7006C60.685 35.0523 60.8136 34.1805 60.6983 33.5619C60.4042 33.8412 60.288 34.6917 60.1898 35.1432C59.966 32.8495 60.806 29.8476 62.7255 28.418Z" fill="white"/>
<path d="M34 48L34 56" stroke="#75041D"/>
<path d="M36 49.5536C45.5 56.1589 48 56.0028 58 49.5536" stroke="#75041D" stroke-dasharray="3 3"/>
<path d="M60 48L60 56" stroke="#75041D"/>
</g>
<defs>
<clipPath id="clip0_1134_18742">
<rect width="93" height="137" fill="white"/>
</clipPath>
</defs>
</svg>
