<svg width="93" height="137" viewBox="0 0 93 137" fill="none" xmlns="http://www.w3.org/2000/svg">
<g clip-path="url(#clip0_1134_18395)">
<path d="M39.2563 -50.2999C39.8286 -51.5922 40.9515 -52.9779 42.3262 -53.3325C46.4894 -54.4065 51.6437 -54.7196 53.3703 -50.0553C53.41 -49.9482 53.4481 -49.8405 53.4844 -49.7322L52.582 -47.6897C59.9969 -44.3741 62.7069 -39.4911 62.3465 -31.4231C62.3003 -30.3858 61.9436 -28.8261 62.042 -27.8557C62.4283 -27.8501 62.9998 -27.918 63.2362 -27.6202C63.761 -26.9591 63.8339 -25.5342 63.6967 -24.745C63.0988 -21.3088 62.3049 -17.5173 58.9404 -15.8769C57.8215 -12.7516 57.167 -11.1143 54.7835 -8.62191C54.6626 -4.73966 54.4544 -0.440125 57.2834 2.68328C63.0892 9.09254 75.0407 5.56075 79.9045 12.6556C83.7637 18.285 83.127 29.3009 83.3396 35.9847C83.5584 42.1648 84.0362 48.3333 84.7721 54.4733C85.0634 56.8257 85.5477 60.02 86.2918 62.2632C89.3452 71.4675 89.1328 81.0896 90.2924 90.5874C91.0741 96.9896 92.2594 102.928 92.1513 109.434C92.1093 111.955 93.1743 115.264 92.9752 117.895C92.9619 119.75 89.8586 127.294 88.3343 128.561C87.7357 129.058 83.7683 132.56 82.7251 132.458C82.3269 132.42 82.4175 132.408 82.1382 132.166C81.887 131.5 82.0257 130.574 82.3367 129.977C82.808 129.072 82.6408 128.766 82.4815 127.734C83.4206 126.766 83.6581 126.668 85.0475 126.42C86.3558 123.283 87.5968 118.987 86.2487 115.716C85.4544 118.365 85.6521 124.179 83.8578 125.514C81.7914 125.919 82.1189 122.268 82.2317 121.007C82.5462 117.493 81.7362 113.998 82.2735 110.502C82.4584 109.298 83.3242 107.963 83.8332 106.876C84.7957 105.062 84.9227 104.297 84.6441 102.314C83.7789 96.1554 81.4941 90.3946 79.4626 84.5519C77.7835 79.7288 76.2475 74.8571 74.8566 69.943C73.9288 66.575 73.6262 63.7718 73.3961 60.2949C72.9742 53.9227 71.4325 47.7244 70.7237 41.3651C69.8599 46.1728 69.2547 50.7571 68.7236 55.596C67.8523 63.5364 70.8028 69.3402 73.2844 76.5789C76.4475 85.8052 78.3726 95.9364 78.5191 105.696C78.5507 116.174 75.9882 126.719 73.736 136.886C72.6748 141.678 71.6539 146.322 71.0301 151.205C70.3125 156.821 70.6925 162.618 71.417 168.219C72.0718 173.283 72.9962 178.098 72.8052 183.27C72.4867 191.9 71.3012 200.5 70.363 209.071C69.633 215.739 67.8714 224.179 68.9704 230.772H68.6453H58.2237H57.9016C59.2533 222.055 58.0534 217.019 56.8752 208.434C56.0922 202.796 55.3496 197.154 54.6472 191.504C54.1016 187.101 53.9294 182.657 54.1319 178.223C54.2509 175.64 54.7511 172.382 54.5206 169.887C54.1622 166.011 52.3106 161.936 51.8172 158.034C51.2059 153.199 52.1634 148.435 51.7431 143.56C51.2226 137.524 50.3923 131.537 49.6404 125.531C48.9876 120.316 48.2296 115.139 48.7202 109.878L44.1704 109.843C44.9914 119.878 41.9532 131.498 41.2265 141.574C40.7088 147.33 41.6553 153.11 40.9553 158.854C40.4999 162.588 38.6997 166.123 38.4137 169.877C38.1775 172.976 38.6294 176.206 38.7861 179.313C38.9603 183.183 38.8106 187.059 38.3382 190.902C37.4753 198.341 36.2482 205.761 35.3674 213.209C34.5908 219.774 33.7325 224.223 35.0256 230.772H34.6588H24.2811H23.8431C24.994 223.621 23.2996 214.83 22.3703 207.62C21.3491 199.699 20.2818 191.749 20.0631 183.755C19.7733 173.175 23.2661 162.798 21.9772 152.195C20.0195 136.091 14.3081 120.777 14.4231 104.371C14.4799 96.2832 16.0286 88.0138 18.4017 80.3017C22.1852 68.0052 25.3718 65.085 23.7517 51.5271C23.3793 48.4099 22.9718 45.0402 22.0367 42.0444C21.0957 46.1497 20.357 51.0895 19.8982 55.2664C19.3685 60.0911 19.1603 64.9151 18.0088 69.6609C17.3154 72.5193 16.367 75.2846 15.4527 78.0771C14.2867 81.7524 13.0665 85.4101 11.7924 89.0492C10.2973 93.3761 8.6242 98.0105 8.06589 102.58C7.66598 105.853 9.66627 107.25 10.4858 109.94L10.5181 110.044C11.214 112.337 10.5499 116.621 10.6148 119.077C10.6516 120.464 10.993 124.905 9.59416 125.549C7.30052 125.351 7.32589 117.979 6.61768 115.832C5.54533 118.631 6.42539 123.229 7.62473 125.903C7.73355 126.144 7.85014 126.382 7.9741 126.616C8.54566 126.64 9.0561 126.599 9.54287 126.868C10.1619 127.611 11.2822 131.537 10.6693 132.353C10.0393 132.533 9.76582 132.327 9.2077 132.043C8.16734 131.515 4.59316 128.531 4.011 127.846C3.01606 126.674 0.402386 120.907 0.126066 119.504C-0.283492 117.426 0.416202 111.925 0.645774 109.488C0.85888 107.224 0.681164 103.86 0.929473 101.9C1.61857 96.4603 2.39453 91.0535 2.94471 85.5869C3.44322 80.6361 3.641 75.6658 4.4427 70.7568C4.9151 67.8642 5.80897 65.1459 6.53119 62.3226C7.25113 59.4773 7.79733 56.5912 8.16695 53.6796C8.82709 48.4571 9.08638 43.4148 9.40926 38.0086C9.93843 29.7556 8.76861 20.2014 12.748 12.6622C14.2723 9.77451 18.682 8.48611 21.6852 7.91225C32.5343 5.83926 38.9989 4.72371 38.1438 -8.47366C35.6257 -11.2245 35.1049 -12.6236 33.7501 -16.0269C31.2625 -17.2816 30.887 -19.1039 29.9191 -21.6835C29.4939 -22.8171 28.3769 -26.8436 30.0416 -27.7971C30.0936 -27.8268 30.5884 -27.9097 30.6889 -27.9271C30.8329 -28.8778 30.4682 -30.72 30.4578 -31.7946C30.4071 -36.9916 31.3199 -42.025 35.7837 -45.3414C36.9418 -46.2018 38.7061 -47.1177 40.0637 -47.609C39.7063 -48.6164 39.4826 -49.2411 39.2563 -50.2999ZM84.3905 130.42C83.8088 130.653 83.2425 130.454 82.6526 130.301C82.2886 130.964 82.099 131.679 82.7413 132.242C83.6553 131.997 83.9469 131.026 84.4757 130.721L84.3905 130.42ZM84.8279 130.852C85.4161 130.502 86.8842 129.309 87.4793 128.846C87.4509 128.598 87.4531 128.6 87.3583 128.369L86.8346 128.473C86.3836 129.71 84.9731 129.828 84.8279 130.852Z" fill="#5E5E5E"/>
<path d="M16.2873 90.3828C25.7789 92.2422 32.4467 97.8588 39.077 104.664C40.5249 106.15 42.7167 108.417 43.8806 110.036C44.0962 121.403 41.9331 131.765 40.8375 142.996C40.3515 147.979 41.3915 153.237 40.7101 158.237C40.2294 162.066 38.458 165.729 38.1018 169.626C37.787 173.07 38.3383 176.4 38.4797 179.817C38.6192 183.186 38.4188 186.84 38.0713 190.196C37.4636 195.634 36.7648 201.062 35.9749 206.477C34.8416 214.384 33.0764 222.875 34.6588 230.77H24.2811C24.7001 225.208 24.4183 221.499 23.7557 215.944C22.3387 204.067 20.3804 192.094 20.398 180.12C20.4166 176.875 21.1485 173.45 21.5081 170.228C22.3845 164.419 22.9549 158.519 22.4025 152.65C20.4194 136.038 14.1606 119.963 14.7649 103.051C14.9169 98.7897 15.5397 94.5801 16.2873 90.3828Z" fill="white"/>
<path d="M49.0283 110.024C56.6844 101.649 64.6119 92.39 76.509 90.3359C79.7771 106.765 77.4106 119.997 73.583 135.965C71.1416 146.151 69.3275 156.239 70.8677 166.673C71.6923 172.256 72.6481 178.01 72.4937 183.663C72.0709 192.308 70.9563 201.031 69.9727 209.627C69.1733 216.615 67.7096 223.728 68.6453 230.773H58.2237C59.7101 222.842 58.173 215.149 57.077 207.249C56.3031 201.703 55.5854 196.152 54.9243 190.591C54.4669 186.68 54.306 182.738 54.4428 178.801C54.566 175.882 55.0685 172.341 54.7958 169.479C54.4402 165.749 52.6704 161.924 52.1935 158.155C51.5935 153.414 52.4919 148.47 52.0886 143.737C51.5996 137.997 50.8675 132.144 50.1118 126.432C49.3222 120.461 48.681 116.055 49.0283 110.024Z" fill="white"/>
<path d="M29.157 6.73109L29.4907 6.6917C29.7696 7.02474 29.7066 7.83943 29.7486 8.31882C29.8433 9.40483 30.0478 10.4783 30.3594 11.5229C30.8492 13.2231 31.6569 14.8148 32.7399 16.2136C38.0954 23.0687 51.1221 23.6801 57.8955 18.5208C61.8077 15.5409 62.7998 11.2063 63.3613 6.58984C65.3098 7.23774 67.4751 7.6607 69.5085 7.92085C69.3622 12.8887 69.383 18.4155 70.0564 23.3097C70.5331 26.7756 71.6825 30.1351 71.7234 33.7256C71.758 36.7926 70.8117 39.2267 70.2761 42.1482C69.4899 46.145 69.0721 50.5101 68.4999 54.4868C67.2202 63.3852 70.6512 70.1514 73.5507 78.2894C74.7817 81.744 75.625 86.2504 76.5172 89.9909C71.6676 90.742 68.5103 92.3301 64.424 94.9504C60.6829 97.5416 57.2197 100.513 54.0895 103.816C52.3614 105.668 50.8045 107.675 48.9886 109.439C47.2869 109.522 45.7994 109.51 44.1028 109.484C42.0284 107.428 40.0093 104.975 37.8804 102.887C31.2606 96.396 25.4329 91.8859 16.3252 89.9757C17.1789 86.0494 17.9646 82.2461 19.2911 78.4081C21.1017 73.1699 23.5689 68.0089 24.3231 62.4573C25.1971 56.0227 23.7589 48.8404 22.6894 42.4262C22.0622 39.6546 21.1805 36.9134 21.15 34.0439C21.139 33.0022 21.1797 31.7604 21.3796 30.7276C21.8482 28.3066 22.422 25.9704 22.7453 23.5142C23.4243 18.3572 23.3566 13.238 23.3125 8.04959C25.2815 7.59917 27.1732 7.20991 29.157 6.73109Z" fill="#91364A"/>
<path d="M22.3957 8.15281L22.75 8.13672L22.8848 8.32037C23.1583 15.78 22.9052 22.6128 21.0419 29.8841C20.8989 29.2764 20.797 28.8871 20.593 28.2962C20.6343 28.8507 20.8232 30.6439 20.8033 31.139C20.7397 32.7148 20.7282 33.5543 20.8621 35.1335C21.034 37.1611 21.7356 39.4524 21.7309 41.3968C21.7291 42.1523 21.2687 44.4754 21.1152 45.3487C20.7172 47.6044 20.343 49.8643 19.9929 52.1282C19.3127 56.6267 19.1253 60.9862 18.5312 65.4264C17.9254 69.9552 16.0249 74.9703 14.7173 79.3681C12.4494 86.9968 9.00787 94.3423 7.79282 102.268C7.19817 106.013 9.848 107.88 10.4054 111.211C10.672 113.43 10.3796 115.772 10.299 118.004C10.2417 119.589 10.7386 124.257 9.62732 125.184C6.8416 125.03 8.75729 115.5 6.3217 115.776C4.63029 117.193 6.57399 123.909 7.23602 125.8C8.1791 128.169 10.0825 129.021 10.6291 131.382C10.704 131.706 10.5632 131.808 10.3861 132.022C9.1008 132.086 8.80101 130.524 7.74986 129.945L8.2092 130.738C8.01918 130.704 7.9959 130.706 7.82992 130.6C4.09412 128.191 3.39991 126.611 1.77966 122.639C1.46341 121.863 0.484558 119.804 0.400148 119.028C-0.109339 116.051 1.04742 112.552 1.00408 109.706C0.887872 102.085 2.32322 94.8819 3.15634 87.3446C3.69176 82.5002 3.70292 77.4113 4.56651 72.604C5.7492 66.0215 7.83522 59.74 8.58204 53.0492C9.23726 47.1633 9.65987 41.2535 9.84875 35.3342C10.0232 30.3476 9.92237 25.3619 10.6629 20.4136C11.9312 11.94 14.348 9.79697 22.3957 8.15281Z" fill="white"/>
<path d="M69.9023 8.01172C73.9258 8.76621 78.5661 9.97187 80.38 14.0404C83.265 20.5118 82.7658 28.5735 82.9997 35.5585C83.2115 42.0505 83.7007 48.5306 84.4661 54.9808C85.1165 60.4085 87.1199 65.1399 87.8832 70.364C89.4497 81.0836 89.7404 92.0334 91.6121 102.764C91.9352 104.616 91.5436 107.251 91.7829 109.243C91.8849 111.772 92.9042 115.76 92.5898 118.194C92.2422 120.885 89.4462 127.051 87.4793 128.847C87.4509 128.599 87.4532 128.601 87.3583 128.371L86.8347 128.475C86.3836 129.712 84.9731 129.829 84.8279 130.853C84.6909 130.867 84.643 130.804 84.4757 130.723L84.3906 130.422C83.8088 130.655 83.2425 130.456 82.6526 130.302C82.9206 129.615 83.956 128.366 84.5062 127.831C86.3642 126.024 88.4125 117.826 86.5093 115.623L86.2438 115.662C85.0991 116.937 85.1824 120.289 84.8794 122.001C84.704 122.994 84.577 123.568 84.2829 124.557C83.9324 124.942 83.6871 125.263 83.1749 125.05C82.8271 124.491 82.6634 123.662 82.6143 123.028C82.49 121.415 82.6378 119.592 82.6217 117.971C82.6066 116.436 82.1862 112.37 82.5527 110.952C83.4549 107.46 85.6024 106.148 84.9985 102.03C84.3111 97.3436 82.7777 92.9465 81.2265 88.4957C80.0523 85.132 78.9024 81.7597 77.7773 78.3791C76.3489 74.0355 74.7056 68.6998 74.0452 64.1912C73.6124 61.2363 73.7229 58.0114 73.217 54.9071C72.4761 50.3618 71.4988 45.6405 71.1397 41.0637C71.0105 39.4164 71.9458 36.8914 72.0535 35.0795C72.2062 32.5105 71.8551 31.0757 72.3765 28.4329L72.4063 28.2863L72.3567 28.2886C72.1515 28.8255 72.0082 29.4655 71.8633 30.0282C69.7822 23.9385 69.855 14.4197 69.9023 8.01172Z" fill="white"/>
<path d="M84.3906 130.423C88.6658 127.664 89.5171 123.099 90.9875 118.914C91.4822 120.246 88.3234 127.481 86.8347 128.476C86.3837 129.713 84.9732 129.831 84.828 130.855C84.691 130.868 84.6431 130.806 84.4758 130.724L84.3906 130.423Z" fill="#515053"/>
<path d="M38.5371 -7.99272C38.9239 -7.76382 39.5753 -7.2299 39.9637 -6.94855C45.5692 -2.88966 49.2221 -3.93306 54.2753 -8.08984C54.5802 -5.09632 54.239 -2.06114 55.514 0.729229C57.0033 3.98858 59.8275 5.23381 62.9446 6.41619C62.3575 12.1537 61.0319 16.2052 55.817 19.4292C53.9174 20.4962 51.6374 21.0724 49.4886 21.3285C42.1608 22.2023 33.5841 19.9362 30.992 12.1615C30.3472 10.2272 30.1847 8.43484 29.9716 6.4143C38.1307 3.42494 38.4521 -0.198122 38.5371 -7.99272Z" fill="white"/>
<path d="M34.9811 8.04638C37.1042 7.88279 43.2256 7.51777 44.3188 9.60875L44.1786 9.63241L43.0648 8.73214C40.9549 7.87996 34.8872 8.802 32.7955 8.27395C33.4691 8.0708 34.2691 8.07553 34.9811 8.04638Z" fill="#757374"/>
<path d="M50.6049 8.1384C51.9612 8.06305 58.3438 8.0479 59.5585 8.18952L59.6012 8.28627C58.848 8.44114 57.458 8.39627 56.6429 8.39722C54.6388 8.3105 52.5021 8.38529 50.4872 8.41994C50.1019 8.67345 49.2652 9.29428 48.8658 9.28708L49.0625 9.2494L49.1442 8.9832C49.5848 8.57879 50.0644 8.39267 50.6049 8.1384Z" fill="#888787"/>
<path d="M84.2429 126.781L84.4205 126.873L84.4731 127.164C84.2106 127.767 83.6523 128.3 83.1973 128.792L83.0139 128.744C82.613 127.9 83.6121 127.186 84.2429 126.781Z" fill="white"/>
<path d="M8.14648 126.773C9.54076 126.939 9.92344 127.553 10.0362 128.854C9.27504 128.39 8.65086 127.486 8.14648 126.773Z" fill="white"/>
<path d="M86.8346 128.475L87.3583 128.371C87.4531 128.602 87.4508 128.6 87.4792 128.848C86.8842 129.311 85.4161 130.504 84.8279 130.854C84.973 129.83 86.3836 129.712 86.8346 128.475Z" fill="white" fill-opacity="0.956863"/>
<path d="M21 42L21 50" stroke="#75041D"/>
<path d="M71 46H23" stroke="#75041D" stroke-dasharray="3 3"/>
<path d="M73 42L73 50" stroke="#75041D"/>
</g>
<defs>
<clipPath id="clip0_1134_18395">
<rect width="93" height="137" fill="white"/>
</clipPath>
</defs>
</svg>
