<svg width="93" height="137" viewBox="0 0 93 137" fill="none" xmlns="http://www.w3.org/2000/svg">
<g clip-path="url(#clip0_1134_22850)">
<path d="M39.2563 -42.2999C39.8286 -43.5922 40.9515 -44.9779 42.3262 -45.3325C46.4894 -46.4065 51.6437 -46.7196 53.3703 -42.0553C53.41 -41.9482 53.4481 -41.8405 53.4844 -41.7322L52.582 -39.6897C59.9969 -36.3741 62.7069 -31.4911 62.3465 -23.4231C62.3003 -22.3858 61.9436 -20.8261 62.042 -19.8557C62.4283 -19.8501 62.9998 -19.918 63.2362 -19.6202C63.761 -18.9591 63.8339 -17.5342 63.6967 -16.745C63.0988 -13.3088 62.3049 -9.51728 58.9404 -7.87691C57.8215 -4.75161 57.167 -3.11427 54.7835 -0.621906C54.6626 3.26034 54.4544 7.55988 57.2834 10.6833C63.0892 17.0925 75.0407 13.5607 79.9045 20.6556C83.7637 26.285 83.127 37.3009 83.3396 43.9847C83.5584 50.1648 84.0362 56.3333 84.7721 62.4733C85.0634 64.8257 85.5477 68.02 86.2918 70.2632C89.3452 79.4675 89.1328 89.0896 90.2924 98.5874C91.0741 104.99 92.2594 110.928 92.1513 117.434C92.1093 119.955 93.1743 123.264 92.9752 125.895C92.9619 127.75 89.8586 135.294 88.3343 136.561C87.7357 137.058 83.7683 140.56 82.7251 140.458C82.3269 140.42 82.4175 140.408 82.1382 140.166C81.887 139.5 82.0257 138.574 82.3367 137.977C82.808 137.072 82.6408 136.766 82.4815 135.734C83.4206 134.766 83.6581 134.668 85.0475 134.42C86.3558 131.283 87.5968 126.987 86.2487 123.716C85.4544 126.365 85.6521 132.179 83.8578 133.514C81.7914 133.919 82.1189 130.268 82.2317 129.007C82.5462 125.493 81.7362 121.998 82.2735 118.502C82.4584 117.298 83.3242 115.963 83.8332 114.876C84.7957 113.062 84.9227 112.297 84.6441 110.314C83.7789 104.155 81.4941 98.3946 79.4626 92.5519C77.7835 87.7288 76.2475 82.8571 74.8566 77.943C73.9288 74.575 73.6262 71.7718 73.3961 68.2949C72.9742 61.9227 71.4325 55.7244 70.7237 49.3651C69.8599 54.1728 69.2547 58.7571 68.7236 63.596C67.8523 71.5364 70.8028 77.3402 73.2844 84.5789C76.4475 93.8052 78.3726 103.936 78.5191 113.696C78.5507 124.174 75.9882 134.719 73.736 144.886C72.6748 149.678 71.6539 154.322 71.0301 159.205C70.3125 164.821 70.6925 170.618 71.417 176.219C72.0718 181.283 72.9962 186.098 72.8052 191.27C72.4867 199.9 71.3012 208.5 70.363 217.071C69.633 223.739 67.8714 232.179 68.9704 238.772H68.6453H58.2237H57.9016C59.2533 230.055 58.0534 225.019 56.8752 216.434C56.0922 210.796 55.3496 205.154 54.6472 199.504C54.1016 195.101 53.9294 190.657 54.1319 186.223C54.2509 183.64 54.7511 180.382 54.5206 177.887C54.1622 174.011 52.3106 169.936 51.8172 166.034C51.2059 161.199 52.1634 156.435 51.7431 151.56C51.2226 145.524 50.3923 139.537 49.6404 133.531C48.9876 128.316 48.2296 123.139 48.7202 117.878L44.1704 117.843C44.9914 127.878 41.9532 139.498 41.2265 149.574C40.7088 155.33 41.6553 161.11 40.9553 166.854C40.4999 170.588 38.6997 174.123 38.4137 177.877C38.1775 180.976 38.6294 184.206 38.7861 187.313C38.9603 191.183 38.8106 195.059 38.3382 198.902C37.4753 206.341 36.2482 213.761 35.3674 221.209C34.5908 227.774 33.7325 232.223 35.0256 238.772H34.6588H24.2811H23.8431C24.994 231.621 23.2996 222.83 22.3703 215.62C21.3491 207.699 20.2818 199.749 20.0631 191.755C19.7733 181.175 23.2661 170.798 21.9772 160.195C20.0195 144.091 14.3081 128.777 14.4231 112.371C14.4799 104.283 16.0286 96.0138 18.4017 88.3017C22.1852 76.0052 25.3718 73.085 23.7517 59.5271C23.3793 56.4099 22.9718 53.0402 22.0367 50.0444C21.0957 54.1497 20.357 59.0895 19.8982 63.2664C19.3685 68.0911 19.1603 72.9151 18.0088 77.6609C17.3154 80.5193 16.367 83.2846 15.4527 86.0771C14.2867 89.7524 13.0665 93.4101 11.7924 97.0492C10.2973 101.376 8.6242 106.011 8.06589 110.58C7.66598 113.853 9.66627 115.25 10.4858 117.94L10.5181 118.044C11.214 120.337 10.5499 124.621 10.6148 127.077C10.6516 128.464 10.993 132.905 9.59416 133.549C7.30052 133.351 7.32589 125.979 6.61768 123.832C5.54533 126.631 6.42539 131.229 7.62473 133.903C7.73355 134.144 7.85014 134.382 7.9741 134.616C8.54566 134.64 9.0561 134.599 9.54287 134.868C10.1619 135.611 11.2822 139.537 10.6693 140.353C10.0393 140.533 9.76582 140.327 9.2077 140.043C8.16734 139.515 4.59316 136.531 4.011 135.846C3.01606 134.674 0.402386 128.907 0.126066 127.504C-0.283492 125.426 0.416202 119.925 0.645774 117.488C0.85888 115.224 0.681164 111.86 0.929473 109.9C1.61857 104.46 2.39453 99.0535 2.94471 93.5869C3.44322 88.6361 3.641 83.6658 4.4427 78.7568C4.9151 75.8642 5.80897 73.1459 6.53119 70.3226C7.25113 67.4773 7.79733 64.5912 8.16695 61.6796C8.82709 56.4571 9.08638 51.4148 9.40926 46.0086C9.93843 37.7556 8.76861 28.2014 12.748 20.6622C14.2723 17.7745 18.682 16.4861 21.6852 15.9123C32.5343 13.8393 38.9989 12.7237 38.1438 -0.473663C35.6257 -3.22446 35.1049 -4.62362 33.7501 -8.02686C31.2625 -9.28156 30.887 -11.1039 29.9191 -13.6835C29.4939 -14.8171 28.3769 -18.8436 30.0416 -19.7971C30.0936 -19.8268 30.5884 -19.9097 30.6889 -19.9271C30.8329 -20.8778 30.4682 -22.72 30.4578 -23.7946C30.4071 -28.9916 31.3199 -34.025 35.7837 -37.3414C36.9418 -38.2018 38.7061 -39.1177 40.0637 -39.609C39.7063 -40.6164 39.4826 -41.2411 39.2563 -42.2999ZM84.3905 138.42C83.8088 138.653 83.2425 138.454 82.6526 138.301C82.2886 138.964 82.099 139.679 82.7413 140.242C83.6553 139.997 83.9469 139.026 84.4757 138.721L84.3905 138.42ZM84.8279 138.852C85.4161 138.502 86.8842 137.309 87.4793 136.846C87.4509 136.598 87.4531 136.6 87.3583 136.369L86.8346 136.473C86.3836 137.71 84.9731 137.828 84.8279 138.852Z" fill="#5E5E5E"/>
<path d="M16.2874 98.3828C25.779 100.242 32.4468 105.859 39.0771 112.664C40.525 114.15 42.7168 116.417 43.8808 118.036C44.0963 129.403 41.9333 139.765 40.8376 150.996C40.3516 155.979 41.3916 161.237 40.7103 166.237C40.2296 170.066 38.4581 173.729 38.1019 177.626C37.7872 181.07 38.3385 184.4 38.4798 187.817C38.6193 191.186 38.4189 194.84 38.0714 198.196C37.4637 203.634 36.765 209.062 35.975 214.477C34.8417 222.384 33.0765 230.875 34.6589 238.77H24.2812C24.7002 233.208 24.4184 229.499 23.7558 223.944C22.3388 212.067 20.3806 200.094 20.3982 188.12C20.4167 184.875 21.1486 181.45 21.5082 178.228C22.3846 172.419 22.9551 166.519 22.4026 160.65C20.4195 144.038 14.1607 127.963 14.765 111.051C14.917 106.79 15.5399 102.58 16.2874 98.3828Z" fill="white"/>
<path d="M49.0283 118.024C56.6844 109.649 64.6119 100.39 76.509 98.3359C79.7771 114.765 77.4106 127.997 73.583 143.965C71.1416 154.151 69.3275 164.239 70.8677 174.673C71.6923 180.256 72.6481 186.01 72.4937 191.663C72.0709 200.308 70.9563 209.031 69.9727 217.627C69.1733 224.615 67.7096 231.728 68.6453 238.773H58.2237C59.7101 230.842 58.173 223.149 57.077 215.249C56.3031 209.703 55.5854 204.152 54.9243 198.591C54.4669 194.68 54.306 190.738 54.4428 186.801C54.566 183.882 55.0685 180.341 54.7958 177.479C54.4402 173.749 52.6704 169.924 52.1935 166.155C51.5935 161.414 52.4919 156.47 52.0886 151.737C51.5996 145.997 50.8675 140.144 50.1118 134.432C49.3222 128.461 48.681 124.055 49.0283 118.024Z" fill="white"/>
<path d="M29.157 14.7311L29.4907 14.6917C29.7696 15.0247 29.7066 15.8394 29.7486 16.3188C29.8433 17.4048 30.0478 18.4783 30.3594 19.5229C30.8492 21.2231 31.6569 22.8148 32.7399 24.2136C38.0954 31.0687 51.1221 31.6801 57.8955 26.5208C61.8077 23.5409 62.7998 19.2063 63.3613 14.5898C65.3098 15.2377 67.4751 15.6607 69.5085 15.9208C69.3622 20.8887 69.383 26.4155 70.0564 31.3097C70.5331 34.7756 71.6825 38.1351 71.7234 41.7256C71.758 44.7926 70.8117 47.2267 70.2761 50.1482C69.4899 54.145 69.0721 58.5101 68.4999 62.4868C67.2202 71.3852 70.6512 78.1514 73.5507 86.2894C74.7817 89.744 75.625 94.2504 76.5172 97.9909C71.6676 98.742 68.5103 100.33 64.424 102.95C60.6829 105.542 57.2197 108.513 54.0895 111.816C52.3614 113.668 50.8045 115.675 48.9886 117.439C47.2869 117.522 45.7994 117.51 44.1028 117.484C42.0284 115.428 40.0093 112.975 37.8804 110.887C31.2606 104.396 25.4329 99.8859 16.3252 97.9757C17.1789 94.0494 17.9646 90.2461 19.2911 86.4081C21.1017 81.1699 23.5689 76.0089 24.3231 70.4573C25.1971 64.0227 23.7589 56.8404 22.6894 50.4262C22.0622 47.6546 21.1805 44.9134 21.15 42.0439C21.139 41.0022 21.1797 39.7604 21.3796 38.7276C21.8482 36.3066 22.422 33.9704 22.7453 31.5142C23.4243 26.3572 23.3566 21.238 23.3125 16.0496C25.2815 15.5992 27.1732 15.2099 29.157 14.7311Z" fill="#91364A"/>
<path d="M22.396 16.1528L22.7503 16.1367L22.885 16.3204C23.1585 23.78 22.9055 30.6128 21.0422 37.8841C20.8991 37.2764 20.7973 36.8871 20.5933 36.2962C20.6345 36.8507 20.8234 38.6439 20.8035 39.139C20.7399 40.7148 20.7284 41.5543 20.8624 43.1335C21.0342 45.1611 21.7358 47.4524 21.7311 49.3968C21.7294 50.1523 21.2689 52.4754 21.1154 53.3487C20.7174 55.6044 20.3433 57.8643 19.9931 60.1282C19.3129 64.6267 19.1256 68.9862 18.5315 73.4264C17.9257 77.9552 16.0251 82.9703 14.7175 87.3681C12.4496 94.9968 9.00811 102.342 7.79307 110.268C7.19841 114.013 9.84824 115.88 10.4056 119.211C10.6723 121.43 10.3799 123.772 10.2992 126.004C10.2419 127.589 10.7389 132.257 9.62756 133.184C6.84185 133.03 8.75753 123.5 6.32195 123.776C4.63053 125.193 6.57424 131.909 7.23627 133.8C8.17935 136.169 10.0827 137.021 10.6293 139.382C10.7043 139.706 10.5634 139.808 10.3863 140.022C9.10104 140.086 8.80126 138.524 7.75011 137.945L8.20944 138.738C8.01942 138.704 7.99614 138.706 7.83016 138.6C4.09437 136.191 3.40016 134.611 1.77991 130.639C1.46365 129.863 0.484802 127.804 0.400393 127.028C-0.109095 124.051 1.04766 120.552 1.00432 117.706C0.888117 110.085 2.32346 102.882 3.15658 95.3446C3.692 90.5002 3.70316 85.4113 4.56676 80.604C5.74944 74.0215 7.83546 67.74 8.58228 61.0492C9.2375 55.1633 9.66011 49.2535 9.849 43.3342C10.0235 38.3476 9.92262 33.3619 10.6632 28.4136C11.9314 19.94 14.3483 17.797 22.396 16.1528Z" fill="white"/>
<path d="M69.9025 16.0117C73.9259 16.7662 78.5662 17.9719 80.3801 22.0404C83.2652 28.5118 82.7659 36.5735 82.9998 43.5585C83.2116 50.0505 83.7008 56.5306 84.4662 62.9808C85.1167 68.4085 87.12 73.1399 87.8833 78.364C89.4498 89.0836 89.7405 100.033 91.6123 110.764C91.9353 112.616 91.5437 115.251 91.783 117.243C91.885 119.772 92.9043 123.76 92.59 126.194C92.2423 128.885 89.4464 135.051 87.4794 136.847C87.451 136.599 87.4533 136.601 87.3585 136.371L86.8348 136.475C86.3838 137.712 84.9732 137.829 84.8281 138.853C84.691 138.867 84.6431 138.804 84.4758 138.723L84.3907 138.422C83.8089 138.655 83.2426 138.456 82.6527 138.302C82.9207 137.615 83.9561 136.366 84.5063 135.831C86.3643 134.024 88.4126 125.826 86.5094 123.623L86.2439 123.662C85.0993 124.937 85.1825 128.289 84.8795 130.001C84.7041 130.994 84.5771 131.568 84.283 132.557C83.9325 132.942 83.6872 133.263 83.1751 133.05C82.8272 132.491 82.6635 131.662 82.6145 131.028C82.4901 129.415 82.6379 127.592 82.6219 125.971C82.6067 124.436 82.1864 120.37 82.5528 118.952C83.455 115.46 85.6025 114.148 84.9986 110.03C84.3112 105.344 82.7778 100.947 81.2266 96.4957C80.0525 93.132 78.9025 89.7597 77.7774 86.3791C76.349 82.0355 74.7057 76.6998 74.0454 72.1912C73.6125 69.2363 73.7231 66.0114 73.2172 62.9071C72.4762 58.3618 71.4989 53.6405 71.1398 49.0637C71.0106 47.4164 71.9459 44.8914 72.0536 43.0795C72.2063 40.5105 71.8552 39.0757 72.3767 36.4329L72.4064 36.2863L72.3568 36.2886C72.1516 36.8255 72.0084 37.4655 71.8634 38.0282C69.7823 31.9385 69.8551 22.4197 69.9025 16.0117Z" fill="white"/>
<path d="M84.3906 138.423C88.6658 135.664 89.5171 131.099 90.9875 126.914C91.4822 128.246 88.3234 135.481 86.8347 136.476C86.3837 137.713 84.9732 137.831 84.828 138.855C84.691 138.868 84.6431 138.806 84.4758 138.724L84.3906 138.423Z" fill="#515053"/>
<path d="M32.4996 -17.1315C30.2429 -21.2342 30.4804 -26.0593 31.5951 -30.4732C34.6714 -42.6547 54.6383 -43.3704 60.2169 -33.0064C62.6405 -28.5035 62.6093 -21.7864 60.4792 -17.1734C60.257 -19.0888 59.9489 -20.903 60.1488 -22.8293L59.9663 -23.1831C59.3915 -23.2284 58.6606 -23.3403 58.0752 -23.4126C58.0932 -24.7018 58.2096 -27.1148 57.645 -28.2396C57.747 -26.6738 57.882 -25.1208 57.7135 -23.5597C57.0371 -23.6572 56.3613 -23.7595 55.6864 -23.8664L55.3769 -23.9601C55.0289 -23.7721 53.1242 -23.9442 52.5937 -23.9715C52.4633 -25.2247 51.8976 -30.3111 51.5295 -31.2951C51.4793 -29.8442 51.7284 -29.7365 51.8507 -28.4214C51.985 -26.9758 52.0672 -25.39 52.1599 -23.9312C51.256 -23.9306 50.1818 -23.8973 49.2985 -24.0094L49.0089 -24.0429C48.6255 -23.9439 47.5829 -23.9554 47.1309 -23.9482C46.9994 -25.6925 47.0113 -27.1332 46.6579 -28.8885C46.5785 -27.3068 46.7399 -25.2563 46.8232 -23.6398C51.7986 -23.7025 54.7 -23.7621 59.6434 -22.8579C59.5903 -21.0344 60.0517 -19.1873 60.0008 -17.3911C59.8321 -11.4338 58.6653 -4.80432 54.1489 -0.51823C51.9565 1.56215 49.385 3.23547 46.2469 3.17715C43.101 3.11864 40.2629 1.18197 38.1352 -1.02829C34.0165 -5.30662 33.0362 -12.1104 32.9463 -17.8057C32.9232 -19.2742 33.2228 -21.223 33.2659 -22.8492C37.3354 -23.8284 41.7803 -23.6699 45.9429 -23.6476C46.0637 -25.4864 46.1676 -27.3261 46.2548 -29.1668C45.9149 -28.0268 45.7185 -25.2277 45.7514 -23.9988H43.7335C43.58 -25.5343 43.6184 -27.3058 43.6162 -28.8676L43.3345 -28.1175C43.3308 -26.7617 43.2935 -25.2686 43.4138 -23.931L40.687 -23.9291C40.7678 -25.3063 41.2268 -29.4245 41.2112 -30.3817C40.6923 -27.9696 40.5475 -26.4133 40.3425 -23.935L37.6499 -23.9079C37.6352 -25.2139 37.6378 -26.5201 37.6579 -27.8261L37.561 -28.9536C37.3327 -27.3458 37.1592 -25.4506 37.3314 -23.8339L35.105 -23.5073L35.0855 -26.3592L34.8175 -25.8824L34.8498 -23.3992C34.3286 -23.3325 33.3852 -23.1322 32.9794 -23.3774L32.7472 -23.1332C32.9506 -21.7185 32.4973 -18.7874 32.4996 -17.1315Z" fill="white"/>
<path d="M38.5372 0.00727778C38.924 0.23618 39.5755 0.770098 39.9638 1.05145C45.5693 5.11034 49.2222 4.06694 54.2755 -0.0898438C54.5804 2.90368 54.2391 5.93886 55.5142 8.72923C57.0034 11.9886 59.8276 13.2338 62.9447 14.4162C62.3576 20.1537 61.032 24.2052 55.8172 27.4292C53.9176 28.4962 51.6376 29.0724 49.4887 29.3285C42.161 30.2023 33.5843 27.9362 30.9922 20.1615C30.3474 18.2272 30.1848 16.4348 29.9717 14.4143C38.1309 11.4249 38.4522 7.80188 38.5372 0.00727778Z" fill="white"/>
<path d="M34.981 16.0464C37.1041 15.8828 43.2255 15.5178 44.3187 17.6087L44.1784 17.6324L43.0646 16.7321C40.9548 15.88 34.8871 16.802 32.7954 16.274C33.469 16.0708 34.269 16.0755 34.981 16.0464Z" fill="#757374"/>
<path d="M50.6048 16.1384C51.9611 16.063 58.3437 16.0479 59.5583 16.1895L59.6011 16.2863C58.8478 16.4411 57.4579 16.3963 56.6428 16.3972C54.6387 16.3105 52.502 16.3853 50.4871 16.4199C50.1018 16.6735 49.2651 17.2943 48.8657 17.2871L49.0624 17.2494L49.1441 16.9832C49.5847 16.5788 50.0643 16.3927 50.6048 16.1384Z" fill="#888787"/>
<path d="M84.2431 134.781L84.4206 134.873L84.4732 135.164C84.2107 135.767 83.6524 136.3 83.1974 136.792L83.014 136.744C82.6132 135.9 83.6123 135.186 84.2431 134.781Z" fill="white"/>
<path d="M8.14648 134.773C9.54076 134.939 9.92344 135.553 10.0362 136.854C9.27504 136.39 8.65086 135.486 8.14648 134.773Z" fill="white"/>
<path d="M86.8348 136.475L87.3585 136.371C87.4533 136.602 87.4511 136.6 87.4795 136.848C86.8844 137.311 85.4163 138.504 84.8281 138.854C84.9733 137.83 86.3838 137.712 86.8348 136.475Z" fill="white" fill-opacity="0.956863"/>
<path d="M78 15L70 15" stroke="#75041D"/>
<path d="M74 97L74 17" stroke="#75041D" stroke-dasharray="3 3"/>
<path d="M78 99L70 99" stroke="#75041D"/>
</g>
<defs>
<clipPath id="clip0_1134_22850">
<rect width="93" height="137" fill="white"/>
</clipPath>
</defs>
</svg>
