<svg width="99" height="137" viewBox="0 0 99 137" fill="none" xmlns="http://www.w3.org/2000/svg">
<g clip-path="url(#clip0_1160_41246)">
<path d="M34.6087 -115.28C34.9189 -115.904 34.7734 -117.11 34.742 -117.866C34.6272 -120.659 33.9533 -127.19 35.1371 -129.359C35.6135 -130.232 36.5356 -130.849 37.2209 -131.276C39.028 -132.404 41.017 -133.024 42.9511 -133.448C47.8568 -134.524 59.0097 -134.364 62.8893 -129.861C63.6088 -129.027 63.8713 -128.158 63.9611 -126.818C64.0845 -124.975 63.5539 -116.868 63.7907 -116.121C64.8069 -114.83 66.8337 -117.514 65.2248 -109.868C64.5181 -106.509 64.8775 -103.988 62.0228 -103.408C61.6256 -101.703 61.3218 -100.113 60.486 -98.7481C60.282 -98.3017 59.9982 -97.7205 59.8377 -97.2534C59.899 -94.4726 59.8748 -91.2732 60.1422 -88.5405C60.3212 -86.7105 63.7629 -85.0696 64.762 -84.4663C69.2348 -81.7647 74.0101 -80.4963 78.7083 -79.171C83.3423 -77.8636 87.9108 -75.9522 90.0759 -69.0406C91.8958 -63.6086 91.1691 -60.5353 91.5949 -55.0156C91.9108 -50.9109 92.6225 -46.8112 92.8907 -42.5133C93.0518 -39.8772 93.1766 -37.2361 93.2651 -34.5921C93.4462 -28.4975 93.3022 -29.2828 94.8618 -23.6218C95.5258 -21.1947 95.9793 -18.6499 96.2111 -16.0494C97.1054 -5.87727 96.0656 5.42892 96.7987 15.7687C97.1189 20.2828 97.4555 25.1078 97.4677 29.5998C97.4684 30.007 96.6112 31.7373 96.4122 31.9684C95.632 32.8756 94.0517 37.5858 93.4819 38.2656C92.0684 39.9524 86.6784 44.2161 85.0653 43.2083C84.7743 42.6191 85.6059 39.1271 86.0173 38.7063C86.493 38.2206 87.3788 37.7763 87.935 37.4632C89.2665 34.1723 90.5145 32.0768 89.8741 28.1497C89.7578 27.4044 89.6073 26.6726 89.4248 25.958L89.3699 26.1363C89.086 27.0885 88.6553 29.0377 88.6175 30.0284C88.5112 32.8 88.5547 36.9232 85.8405 35.9597C84.5989 35.5196 85.1994 31.2523 85.1623 29.833C85.0931 27.1448 84.6652 24.555 84.9298 21.8811C85.322 18.6751 87.4907 16.7601 88.1703 13.7289C87.9635 11.8652 87.1805 9.21835 86.7148 7.39604C84.2915 -2.0743 81.1822 -11.1203 79.9556 -21.1918C79.7267 -23.0705 79.6661 -25.0248 79.3922 -26.8927C78.6106 -31.8255 77.5409 -36.0357 76.9632 -41.0654C75.9948 -36.5778 74.1042 -27.8207 74.0757 -23.308C74.0436 -18.0115 76.1403 -9.16314 77.1957 -4.00288C77.543 -2.30824 78.1043 -0.404617 78.4273 1.37347C80.0433 10.2911 80.9462 19.4654 81.1173 28.7032C81.2271 37.0096 80.4819 45.4742 78.7368 53.3676C77.5965 58.5286 75.8907 63.5633 75.5341 69.0145C75.1768 74.7582 76.1017 80.4199 77.1273 85.9075C77.7427 89.2019 78.3368 92.8138 78.299 96.2516C78.1499 109.667 74.2526 122.424 73.4952 135.716C73.4374 136.716 74.0757 138.541 74.3331 139.534C74.04 140.998 73.7469 141.882 74.2982 143.321C75.3451 146.057 77.8283 148.813 79.4742 150.77H78.98H60.9524H60.538C59.9276 147.821 61.1114 146.085 61.2326 143.345C61.2925 142.008 60.466 140.568 60.6179 139.27C60.8532 137.26 61.7882 135.879 61.7974 133.708C61.8096 130.957 61.4687 127.797 61.1913 125.066C60.7955 121.16 60.1115 117.112 59.4376 113.294C58.6532 108.844 57.7589 104.279 57.3595 99.7029C57.1163 96.922 57.2832 94.0362 57.4458 91.276C57.5699 89.1627 57.9486 85.7813 57.6654 83.7856C57.204 80.2943 55.5774 77.0313 55.1823 73.5257C54.5989 68.3412 55.0011 62.9856 54.3158 57.7682C53.9692 55.1328 53.587 52.7357 53.0528 50.1694C52.5493 47.7551 52.1507 45.2617 51.7599 42.8024C50.9141 37.6037 50.723 32.35 50.278 27.0621L48.2548 27.0699C47.9559 32.7422 47.3961 39.9402 46.459 45.4015C45.6824 49.9219 44.7732 53.5217 44.2169 58.2846C43.5537 63.9727 43.9894 69.2285 43.2313 74.7561C42.8099 77.8337 41.3572 81.2929 40.9407 84.3633C40.7203 85.9859 41.0869 89.7932 41.1889 91.5813C41.3608 94.4913 41.5348 97.6573 41.2452 100.562C40.3488 109.569 38.0339 118.186 37.3015 127.247C37.0904 129.869 36.6226 133.143 37.1197 135.718C37.3521 136.919 38.0681 138.174 38.0653 139.524C38.0903 140.815 37.2901 142.428 37.437 143.621C37.8242 146.776 38.6779 147.321 38.1865 150.77H37.8371H19.613H19.1879C20.9465 148.102 24.4356 145.529 24.5989 141.254C24.6146 140.843 24.4057 139.745 24.3265 139.297C24.616 137.488 25.2065 136.705 25.0432 134.596C24.0912 122.315 20.9392 110.809 20.4246 98.4176C19.9951 88.0772 23.6968 79.171 23.0704 68.8919C22.7326 63.35 20.9813 58.3474 19.7589 53.1864C16.01 36.3683 17.1188 17.7265 20.1346 0.856384C20.4705 -1.02299 21.0849 -2.84459 21.4546 -4.71898C22.6379 -10.7208 24.2794 -16.9788 24.5034 -23.2538C24.5462 -27.3406 22.7467 -35.8353 21.8714 -40.0462L21.576 -41.4591C20.9413 -36.2589 20.1494 -31.6272 19.2081 -26.5383C18.8691 -24.7059 18.712 -22.1019 18.4616 -20.1598C18.0323 -16.9716 17.4594 -13.8305 16.747 -10.7586C14.8472 -2.70265 12.2383 5.10226 10.442 13.2018C10.2818 15.4178 12.0763 17.3449 12.7913 19.0995C14.3141 22.8376 13.5858 25.7932 13.4345 29.8194C13.3487 32.1068 14.6696 36.7135 11.5391 36.0945C10.0764 35.8056 10.0395 31.5055 9.90381 29.9585C9.78956 28.7596 9.57619 27.6098 9.12569 26.4658L9.05915 26.3003C7.99785 30.5348 8.62392 32.4712 10.0444 36.2114C10.8059 38.2171 10.8573 37.8733 12.3157 38.5416C12.9024 38.8105 12.6993 40.0394 12.9281 40.4388C13.3645 41.1998 14.0972 41.9466 13.5232 43.0728C13.0372 43.4279 12.3421 43.358 11.8273 43.1127C9.91308 42.2005 7.72008 40.7619 6.00453 39.2434C4.8058 38.1828 4.01691 35.6629 3.19915 34.0289C2.46746 32.5668 1.63664 30.9977 1.00622 29.4628C0.987105 28.8359 1.01485 28.0142 1.0515 27.3759C1.38804 21.2007 1.77685 15.049 1.94829 8.85175C2.24118 -1.73622 1.09964 -12.9982 3.56186 -23.154C4.04822 -25.1603 4.86841 -27.2215 5.11787 -29.3327C5.28746 -30.767 5.26449 -32.6243 5.31071 -34.105C5.38937 -36.8973 5.50511 -39.6875 5.65794 -42.4726C5.90512 -46.7856 6.44247 -50.6335 6.94396 -54.8765C7.19499 -57.0005 6.99252 -59.499 7.098 -61.6829C7.23 -64.396 7.74247 -67.0364 8.60174 -69.4322C11.9567 -78.832 18.8274 -78.3968 24.8279 -80.4679C27.8345 -81.5055 36.1676 -84.9239 38.2671 -87.7905C38.5923 -89.7565 38.6087 -94.8942 38.6708 -97.1311C37.4413 -99.4882 37.196 -100.847 36.5092 -103.655C36.2354 -103.672 35.9622 -103.706 35.6905 -103.757C35.3125 -103.826 34.4618 -104.069 34.3213 -104.673C33.8805 -106.566 30.6643 -118.284 34.6087 -115.28Z" fill="#5E5E5E"/>
<path d="M19.2238 9.19922C24.5627 10.8732 27.2798 12.0999 32.306 15.6076C34.1388 16.8986 35.9267 18.3286 37.6625 19.8913C40.8388 22.7114 44.2834 26.5201 48.0245 26.8603C47.5111 32.3444 47.3863 37.3278 46.5775 42.7876C45.746 48.4036 44.4944 53.26 43.8583 58.9495C43.2757 64.1604 43.6601 68.8813 43.0739 73.9809C42.6467 77.5778 41.0564 80.89 40.667 84.4605C40.5215 85.7999 40.6392 88.5166 40.7747 89.8468C41.5834 97.7865 40.6556 104.517 39.2122 112.131C38.2416 117.248 37.3195 122.945 36.9037 128.272C36.7689 130.167 36.5029 132.564 36.6356 134.462C36.7753 136.468 37.5676 137.728 37.7666 139.934C37.6083 140.561 37.2902 141.747 37.241 142.38C36.9807 145.739 38.4812 147.1 37.8372 150.77H19.6131C21.3746 148.582 24.634 145.121 24.8529 141.661C24.9064 140.822 24.7274 140.101 24.5677 139.298C24.8465 138.285 25.4227 136.348 25.3607 135.343C24.5641 122.384 20.8898 110.037 20.7307 96.9506C20.6141 87.3683 23.9872 78.7974 23.3981 69.1766C23.0462 63.042 21.324 58.5979 20.0494 53.1159C16.9813 39.9211 17.1862 22.7065 19.2238 9.19922Z" fill="white"/>
<path d="M36.8279 71.1172C38.0231 73.0843 35.7197 77.057 34.8981 78.4671L34.7598 78.39C34.8111 78.0705 34.7655 78.2017 34.8931 77.9607C36.3323 75.2418 36.8764 74.5899 36.8279 71.1172Z" fill="#5E5E5E"/>
<path d="M27.359 71.5625C27.5423 71.8385 27.4182 72.6345 27.4054 73.1494C27.3633 74.8255 28.0279 76.4111 28.2333 77.9089C27.2777 77.068 26.9718 73.1174 27.359 71.5625Z" fill="#5E5E5E"/>
<path d="M50.6089 26.872C55.7856 25.927 58.9384 21.042 63.5846 17.5571C69.5822 13.0573 72.8584 11.1466 79.3331 9.30859C81.3555 24.1118 81.6429 38.5419 78.5236 53.0513C77.317 58.4119 75.7245 63.2726 75.2553 68.9571C74.4309 78.961 78.2041 87.7951 77.9602 97.6242C77.7064 107.843 75.1932 117.8 74.0108 127.813C73.7099 130.365 73.1486 132.945 73.1886 135.551C73.2121 136.994 73.7926 138.316 74.0443 139.631C73.9409 140.086 73.7127 141.012 73.7334 141.461C73.9288 145.617 77.2321 148.215 78.98 150.77H60.9524C60.1822 147.409 61.5978 145.991 61.4494 142.845C61.401 141.817 61.0651 140.721 60.8333 139.725L60.8668 139.531C61.1827 137.749 61.9223 135.964 62.0713 134.27C62.2289 132.474 61.9544 129.825 61.7896 127.994C61.4466 124.176 61.0123 120.512 60.3562 116.787C59.4476 111.626 58.3829 106.537 57.8103 101.257C57.408 97.5486 57.6006 94.2541 57.816 90.5739C57.9272 88.6752 58.2032 85.7831 57.9878 84.0185C57.5578 80.4866 55.9903 77.3405 55.5153 73.7287C55.0996 70.5705 55.1488 67.4608 55.0532 64.2548C54.9805 62.0195 54.8215 59.7913 54.5768 57.5832C54.0883 53.1511 52.9822 48.5779 52.2242 44.148C51.1837 38.0698 51.0532 32.9523 50.6089 26.872Z" fill="white"/>
<path d="M61.5941 71.2852C61.7931 71.6197 61.8302 73.8557 62.0769 74.5646C62.5704 75.9839 63.4825 77.4361 64.1722 78.6357C63.745 78.6044 63.044 77.4275 62.7901 76.9126C61.8437 74.9904 61.4059 73.7102 61.5941 71.2852Z" fill="#5E5E5E"/>
<path d="M71.392 71.7266C72.0445 73.0831 71.1873 76.4303 70.7544 77.8154L70.6317 77.6535C70.5904 77.1293 71.2515 74.5659 71.3249 73.7151C71.4005 72.8421 71.4055 72.6309 71.392 71.7266Z" fill="#5E5E5E"/>
<path d="M66.5733 -83.1797C68.4731 -82.2136 70.2503 -81.4641 72.1779 -80.6735C72.3812 -78.4293 72.5823 -75.7981 72.8675 -73.5843C73.5115 -68.5833 75.4491 -58.2393 77.5158 -54.4C75.7158 -48.724 77.2848 -46.712 76.6864 -41.8149C76.0025 -36.2217 74.3416 -30.973 73.8217 -25.2993C73.1699 -18.1847 76.6265 -5.88573 78.0764 1.19241C78.5948 3.72511 78.8815 6.43896 79.288 9.02515C73.3147 9.95164 66.0491 14.9536 60.8988 19.3414C58.7857 21.1423 56.4166 23.8605 54.1424 25.1771C46.8091 29.423 42.5973 23.7135 36.6403 18.5312C34.3119 16.5049 31.3067 14.5014 28.8663 12.9594C25.7712 11.095 22.5516 9.73626 19.2627 8.90605C19.623 6.40902 20.0114 3.33498 20.5026 0.922821C22.0127 -6.49197 25.3904 -18.1434 24.6958 -25.8427C24.3442 -31.2598 22.2968 -37.5526 21.7669 -42.7478C21.2518 -47.7982 22.7716 -48.5243 20.9545 -54.4042C22.9513 -57.6922 24.9019 -68.2809 25.4803 -72.7879C25.7655 -75.0051 26.0251 -78.1651 26.2134 -80.4722L26.1292 -80.4417C28.2323 -81.2975 29.9039 -82.0166 31.9435 -83.1147C31.9079 -82.4365 31.8922 -81.7561 31.8986 -81.0758C31.9243 -77.4369 33.1816 -74.1296 34.8731 -71.6154C38.6043 -66.2161 44.6369 -65.0464 49.6175 -65.0642C55.7769 -65.0863 63.5788 -67.4557 66.1233 -77.0081C66.6731 -79.072 66.6018 -81.0099 66.5733 -83.1797Z" fill="#91364A"/>
<path d="M72.5586 -80.5547C80.983 -77.9375 90.0899 -77.9215 91.1104 -61.6397C91.2374 -59.6098 91.012 -56.9017 91.2573 -55.0145C92.0632 -48.8036 92.7371 -42.7361 92.8605 -36.3855C92.914 -30.3002 92.8926 -29.3337 94.4843 -23.7805C97.1158 -14.5955 95.9013 -2.83492 96.1624 6.93782C96.2665 10.8435 96.4448 14.8062 96.6544 18.7119C96.7935 22.2845 97.461 26.5268 97.0324 30.0345C97.0973 29.675 93.262 37.9371 93.3825 37.7332C92.4041 39.3986 88.8911 41.698 87.4413 42.5104C90.1576 39.6496 92.2151 38.584 93.5943 33.7754C93.8767 32.7912 95.2638 29.8904 95.2802 29.0124C94.597 29.6686 92.5282 36.4443 91.4727 37.7909C90.8815 38.5441 90.751 38.6846 90.0478 39.3715C89.319 40.0768 88.6344 40.8471 87.9162 41.5682C87.3136 42.173 85.8203 43.9661 85.2726 42.6495C85.2227 41.3528 86.5969 40.288 87.2031 39.4599C88.4268 37.7895 89.2876 35.6113 89.9765 33.386C90.8865 30.4496 90.234 27.7172 89.4923 24.9434C88.6515 27.6366 88.091 29.5887 88.1922 32.6086C88.3249 36.5585 84.7513 37.2717 85.3731 32.6849C85.8039 29.5096 84.9773 26.0718 85.1792 22.8508C85.4395 18.7091 87.81 17.2876 88.5295 13.4589C88.2571 11.9661 87.5375 9.42201 87.1482 7.86145C85.7397 2.22334 84.0075 -3.28782 82.5961 -8.92451C81.6256 -12.8616 80.8625 -16.9078 80.3155 -21.0245C80.0638 -22.9795 79.9368 -24.9167 79.6516 -26.8774C79.1566 -30.2859 78.4278 -33.6067 77.873 -36.9768C77.485 -39.3319 77.3089 -42.0635 77.127 -44.475C76.9773 -46.4635 76.8717 -48.136 76.9844 -50.1431C77.1891 -53.8098 79.0539 -56.2277 79.4155 -59.6961L79.4355 -59.8994C78.8771 -58.1591 78.2887 -56.4409 77.6704 -54.747C74.8977 -60.9579 73.0029 -73.0938 72.5586 -80.5547Z" fill="white"/>
<path d="M25.6536 -80.2773C25.7342 -80.2597 25.6764 -80.2809 25.797 -80.1159C25.429 -72.6633 23.5506 -61.0156 20.8245 -54.7248C20.3333 -56.239 19.618 -58.4001 18.9891 -59.7774C19.0398 -59.5349 19.0923 -59.296 19.1459 -59.0556C19.6748 -56.3703 21.3513 -53.3212 21.4794 -50.4782C21.6881 -45.8451 21.1012 -40.2234 20.4953 -35.6729C20.109 -32.7715 19.3677 -29.9799 18.9617 -27.0956C18.5822 -24.3995 18.3792 -21.8112 17.9758 -19.1352C16.6615 -9.57566 13.717 -0.848511 11.3057 8.14323C10.9023 9.64745 10.3957 11.4983 10.1396 13.1095C9.81411 15.1565 11.7549 17.3903 12.371 19.0479C14.0216 22.9664 13.248 25.3272 13.171 29.5816C13.1725 31.2791 13.3555 33.0908 13.2074 34.7683C13.1329 35.6135 12.0348 36.0956 11.5858 35.7968C10.0602 34.7833 10.5687 31.262 10.2724 29.312C10.0345 27.7465 9.52358 26.3093 8.989 24.9706C8.22957 28.1366 7.692 30.7271 8.80657 33.9302C9.50204 35.9287 10.0832 37.5228 11.1633 39.1183C11.7708 40.0156 13.4124 41.3129 13.3975 42.5689C12.6419 44.2636 10.2851 41.196 9.4763 40.3572C6.55667 37.48 6.57535 37.0471 4.69777 32.4467C4.38256 31.6743 3.95211 30.496 3.58426 29.7856L3.54048 29.9532C3.76783 31.0894 6.39714 37.5913 7.10829 38.4215C7.90245 39.3487 9.93228 41.2637 10.8693 42.3307C9.44784 41.539 7.71211 40.3016 6.36932 39.1968C5.08644 38.1412 4.01037 34.6235 3.03022 32.931C1.88562 30.9539 1.15742 29.9347 1.35504 27.1759C1.73557 21.863 1.96828 16.4831 2.25382 11.1538C2.72428 -0.201614 1.28515 -12.1198 3.89548 -23.0765C4.39383 -25.1677 5.1815 -27.1904 5.44187 -29.405C5.61966 -31.0932 5.62023 -33.1124 5.67236 -34.8306C5.75395 -37.8961 5.88303 -40.958 6.05946 -44.0135C6.29109 -47.7409 7.07463 -51.6651 7.2619 -55.0786C7.61098 -61.4428 6.97593 -65.469 9.70407 -71.2163C12.2651 -76.6114 16.2993 -77.7768 20.4015 -78.8927L25.6536 -80.2773Z" fill="white"/>
<path d="M87.3432 38.3828L87.396 38.5119C87.1307 39.0212 86.4732 39.7807 86.1116 40.2279C85.9612 39.9919 86.0261 40.096 85.9604 39.7144C86.1822 38.9662 86.8177 38.7145 87.3432 38.3828Z" fill="#EDEDED"/>
<path d="M11.1523 38.4648C11.946 38.7016 12.5474 38.8685 12.5732 40.2059C12.2365 40.0126 11.4611 38.8828 11.1523 38.4648Z" fill="#EDEDED"/>
<path d="M61.5 20L53.5 20" stroke="#75041D"/>
<path d="M57.5 52L57.5 22" stroke="#75041D" stroke-dasharray="3 3"/>
<path d="M61.5 54L53.5 54" stroke="#75041D"/>
</g>
<defs>
<clipPath id="clip0_1160_41246">
<rect width="99" height="137" fill="white"/>
</clipPath>
</defs>
</svg>
