<svg width="99" height="137" viewBox="0 0 99 137" fill="none" xmlns="http://www.w3.org/2000/svg">
<g clip-path="url(#clip0_1160_39192)">
<path d="M34.6087 -91.2796C34.9189 -91.9037 34.7734 -93.11 34.742 -93.866C34.6272 -96.6592 33.9533 -103.19 35.1371 -105.359C35.6135 -106.232 36.5356 -106.849 37.2209 -107.276C39.028 -108.404 41.017 -109.024 42.9511 -109.448C47.8568 -110.524 59.0097 -110.364 62.8893 -105.861C63.6088 -105.027 63.8713 -104.158 63.9611 -102.818C64.0845 -100.975 63.5539 -92.8679 63.7907 -92.1211C64.8069 -90.8296 66.8337 -93.5137 65.2248 -85.8681C64.5181 -82.5087 64.8775 -79.9876 62.0228 -79.4081C61.6256 -77.7026 61.3218 -76.1131 60.486 -74.7481C60.282 -74.3017 59.9982 -73.7205 59.8377 -73.2534C59.899 -70.4726 59.8748 -67.2732 60.1422 -64.5405C60.3212 -62.7105 63.7629 -61.0696 64.762 -60.4663C69.2348 -57.7647 74.0101 -56.4963 78.7083 -55.171C83.3423 -53.8636 87.9108 -51.9522 90.0759 -45.0406C91.8958 -39.6086 91.1691 -36.5353 91.5949 -31.0156C91.9108 -26.9109 92.6225 -22.8112 92.8907 -18.5133C93.0518 -15.8772 93.1766 -13.2361 93.2651 -10.5921C93.4462 -4.49751 93.3022 -5.28278 94.8618 0.378166C95.5258 2.80531 95.9793 5.35012 96.2111 7.95058C97.1054 18.1227 96.0656 29.4289 96.7987 39.7687C97.1189 44.2828 97.4555 49.1078 97.4677 53.5998C97.4684 54.007 96.6112 55.7373 96.4122 55.9684C95.632 56.8756 94.0517 61.5858 93.4819 62.2656C92.0684 63.9524 86.6784 68.2161 85.0653 67.2083C84.7743 66.6191 85.6059 63.1271 86.0173 62.7063C86.493 62.2206 87.3788 61.7763 87.935 61.4632C89.2665 58.1723 90.5145 56.0768 89.8741 52.1497C89.7578 51.4044 89.6073 50.6726 89.4248 49.958L89.3699 50.1363C89.086 51.0885 88.6553 53.0377 88.6175 54.0284C88.5112 56.8 88.5547 60.9232 85.8405 59.9597C84.5989 59.5196 85.1994 55.2523 85.1623 53.833C85.0931 51.1448 84.6652 48.555 84.9298 45.8811C85.322 42.6751 87.4907 40.7601 88.1703 37.7289C87.9635 35.8652 87.1805 33.2184 86.7148 31.396C84.2915 21.9257 81.1822 12.8797 79.9556 2.80815C79.7267 0.929497 79.6661 -1.02477 79.3922 -2.89272C78.6106 -7.82546 77.5409 -12.0357 76.9632 -17.0654C75.9948 -12.5778 74.1042 -3.82066 74.0757 0.691986C74.0436 5.98846 76.1403 14.8369 77.1957 19.9971C77.543 21.6918 78.1043 23.5954 78.4273 25.3735C80.0433 34.2911 80.9462 43.4654 81.1173 52.7032C81.2271 61.0096 80.4819 69.4742 78.7368 77.3676C77.5965 82.5286 75.8907 87.5633 75.5341 93.0145C75.1768 98.7582 76.1017 104.42 77.1273 109.908C77.7427 113.202 78.3368 116.814 78.299 120.252C78.1499 133.667 74.2526 146.424 73.4952 159.716C73.4374 160.716 74.0757 162.541 74.3331 163.534C74.04 164.998 73.7469 165.882 74.2982 167.321C75.3451 170.057 77.8283 172.813 79.4742 174.77H78.98H60.9524H60.538C59.9276 171.821 61.1114 170.085 61.2326 167.345C61.2925 166.008 60.466 164.568 60.6179 163.27C60.8532 161.26 61.7882 159.879 61.7974 157.708C61.8096 154.957 61.4687 151.797 61.1913 149.066C60.7955 145.16 60.1115 141.112 59.4376 137.294C58.6532 132.844 57.7589 128.279 57.3595 123.703C57.1163 120.922 57.2832 118.036 57.4458 115.276C57.5699 113.163 57.9486 109.781 57.6654 107.786C57.204 104.294 55.5774 101.031 55.1823 97.5257C54.5989 92.3412 55.0011 86.9856 54.3158 81.7682C53.9692 79.1328 53.587 76.7357 53.0528 74.1694C52.5493 71.7551 52.1507 69.2617 51.7599 66.8024C50.9141 61.6037 50.723 56.35 50.278 51.0621L48.2548 51.0699C47.9559 56.7422 47.3961 63.9402 46.459 69.4015C45.6824 73.9219 44.7732 77.5217 44.2169 82.2846C43.5537 87.9727 43.9894 93.2285 43.2313 98.7561C42.8099 101.834 41.3572 105.293 40.9407 108.363C40.7203 109.986 41.0869 113.793 41.1889 115.581C41.3608 118.491 41.5348 121.657 41.2452 124.562C40.3488 133.569 38.0339 142.186 37.3015 151.247C37.0904 153.869 36.6226 157.143 37.1197 159.718C37.3521 160.919 38.0681 162.174 38.0653 163.524C38.0903 164.815 37.2901 166.428 37.437 167.621C37.8242 170.776 38.6779 171.321 38.1865 174.77H37.8371H19.613H19.1879C20.9465 172.102 24.4356 169.529 24.5989 165.254C24.6146 164.843 24.4057 163.745 24.3265 163.297C24.616 161.488 25.2065 160.705 25.0432 158.596C24.0912 146.315 20.9392 134.809 20.4246 122.418C19.9951 112.077 23.6968 103.171 23.0704 92.8919C22.7326 87.35 20.9813 82.3474 19.7589 77.1864C16.01 60.3683 17.1188 41.7265 20.1346 24.8564C20.4705 22.977 21.0849 21.1554 21.4546 19.281C22.6379 13.2792 24.2794 7.02123 24.5034 0.746193C24.5462 -3.34064 22.7467 -11.8353 21.8714 -16.0462L21.576 -17.4591C20.9413 -12.2589 20.1494 -7.62718 19.2081 -2.53825C18.8691 -0.705948 18.712 1.89806 18.4616 3.8402C18.0323 7.02837 17.4594 10.1695 16.747 13.2414C14.8472 21.2973 12.2383 29.1023 10.442 37.2018C10.2818 39.4178 12.0763 41.3449 12.7913 43.0995C14.3141 46.8376 13.5858 49.7932 13.4345 53.8194C13.3487 56.1068 14.6696 60.7135 11.5391 60.0945C10.0764 59.8056 10.0395 55.5055 9.90381 53.9585C9.78956 52.7596 9.57619 51.6098 9.12569 50.4658L9.05915 50.3003C7.99785 54.5348 8.62392 56.4712 10.0444 60.2114C10.8059 62.2171 10.8573 61.8733 12.3157 62.5416C12.9024 62.8105 12.6993 64.0394 12.9281 64.4388C13.3645 65.1998 14.0972 65.9466 13.5232 67.0728C13.0372 67.4279 12.3421 67.358 11.8273 67.1127C9.91308 66.2005 7.72008 64.7619 6.00453 63.2434C4.8058 62.1828 4.01691 59.6629 3.19915 58.0289C2.46746 56.5668 1.63664 54.9977 1.00622 53.4628C0.987105 52.8359 1.01485 52.0142 1.0515 51.3759C1.38804 45.2007 1.77685 39.049 1.94829 32.8517C2.24118 22.2638 1.09964 11.0018 3.56186 0.846046C4.04822 -1.16029 4.86841 -3.22153 5.11787 -5.33271C5.28746 -6.76702 5.26449 -8.62429 5.31071 -10.105C5.38937 -12.8973 5.50511 -15.6875 5.65794 -18.4726C5.90512 -22.7856 6.44247 -26.6335 6.94396 -30.8765C7.19499 -33.0005 6.99252 -35.499 7.098 -37.6829C7.23 -40.396 7.74247 -43.0364 8.60174 -45.4322C11.9567 -54.832 18.8274 -54.3968 24.8279 -56.4679C27.8345 -57.5055 36.1676 -60.9239 38.2671 -63.7905C38.5923 -65.7565 38.6087 -70.8942 38.6708 -73.1311C37.4413 -75.4882 37.196 -76.8471 36.5092 -79.6551C36.2354 -79.6719 35.9622 -79.7061 35.6905 -79.7573C35.3125 -79.8263 34.4618 -80.0685 34.3213 -80.6733C33.8805 -82.5658 30.6643 -94.2839 34.6087 -91.2796Z" fill="#5E5E5E"/>
<path d="M19.2236 33.1992C24.5626 34.8732 27.2796 36.0999 32.3059 39.6076C34.1387 40.8986 35.9266 42.3286 37.6624 43.8913C40.8387 46.7114 44.2832 50.5201 48.0244 50.8603C47.5109 56.3444 47.3861 61.3278 46.5774 66.7876C45.7459 72.4036 44.4943 77.26 43.8582 82.9495C43.2756 88.1604 43.6599 92.8813 43.0737 97.9809C42.6466 101.578 41.0562 104.89 40.6669 108.46C40.5214 109.8 40.639 112.517 40.7745 113.847C41.5833 121.787 40.6554 128.517 39.212 136.131C38.2414 141.248 37.3193 146.945 36.9036 152.272C36.7688 154.167 36.5028 156.564 36.6354 158.462C36.7752 160.468 37.5675 161.728 37.7665 163.934C37.6082 164.561 37.2901 165.747 37.2409 166.38C36.9806 169.739 38.4811 171.1 37.8371 174.77H19.613C21.3744 172.582 24.6339 169.121 24.8528 165.661C24.9063 164.822 24.7273 164.101 24.5675 163.298C24.8464 162.285 25.4226 160.348 25.3606 159.343C24.564 146.384 20.8896 134.037 20.7305 120.951C20.614 111.368 23.987 102.797 23.398 93.1766C23.0461 87.042 21.3239 82.5979 20.0493 77.1159C16.9812 63.9211 17.186 46.7065 19.2236 33.1992Z" fill="white"/>
<path d="M36.828 95.1172C38.0233 97.0843 35.7198 101.057 34.8982 102.467L34.7599 102.39C34.8112 102.071 34.7656 102.202 34.8932 101.961C36.3324 99.2418 36.8765 98.5899 36.828 95.1172Z" fill="#5E5E5E"/>
<path d="M27.3589 95.5625C27.5422 95.8385 27.4181 96.6345 27.4052 97.1494C27.3632 98.8255 28.0278 100.411 28.2332 101.909C27.2776 101.068 26.9716 97.1174 27.3589 95.5625Z" fill="#5E5E5E"/>
<path d="M50.6089 50.872C55.7856 49.927 58.9384 45.042 63.5846 41.5571C69.5822 37.0573 72.8584 35.1466 79.3331 33.3086C81.3555 48.1118 81.6429 62.5419 78.5236 77.0513C77.317 82.4119 75.7245 87.2726 75.2553 92.9571C74.4309 102.961 78.2041 111.795 77.9602 121.624C77.7064 131.843 75.1932 141.8 74.0108 151.813C73.7099 154.365 73.1486 156.945 73.1886 159.551C73.2121 160.994 73.7926 162.316 74.0443 163.631C73.9409 164.086 73.7127 165.012 73.7334 165.461C73.9288 169.617 77.2321 172.215 78.98 174.77H60.9524C60.1822 171.409 61.5978 169.991 61.4494 166.845C61.401 165.817 61.0651 164.721 60.8333 163.725L60.8668 163.531C61.1827 161.749 61.9223 159.964 62.0713 158.27C62.2289 156.474 61.9544 153.825 61.7896 151.994C61.4466 148.176 61.0123 144.512 60.3562 140.787C59.4476 135.626 58.3829 130.537 57.8103 125.257C57.408 121.549 57.6006 118.254 57.816 114.574C57.9272 112.675 58.2032 109.783 57.9878 108.019C57.5578 104.487 55.9903 101.34 55.5153 97.7287C55.0996 94.5705 55.1488 91.4608 55.0532 88.2548C54.9805 86.0195 54.8215 83.7913 54.5768 81.5832C54.0883 77.1511 52.9822 72.5779 52.2242 68.148C51.1837 62.0698 51.0532 56.9523 50.6089 50.872Z" fill="white"/>
<path d="M61.5943 95.2852C61.7932 95.6197 61.8303 97.8557 62.0771 98.5646C62.5706 99.9839 63.4827 101.436 64.1723 102.636C63.7451 102.604 63.0441 101.428 62.7902 100.913C61.8439 98.9904 61.406 97.7102 61.5943 95.2852Z" fill="#5E5E5E"/>
<path d="M71.3921 95.7266C72.0446 97.0831 71.1874 100.43 70.7545 101.815L70.6319 101.654C70.5905 101.129 71.2516 98.5659 71.325 97.7151C71.4006 96.8421 71.4056 96.6309 71.3921 95.7266Z" fill="#5E5E5E"/>
<path d="M66.5734 -59.1797C68.4732 -58.2136 70.2504 -57.4641 72.178 -56.6735C72.3813 -54.4293 72.5824 -51.7981 72.8676 -49.5843C73.5116 -44.5833 75.4492 -34.2393 77.5159 -30.4C75.716 -24.724 77.2849 -22.712 76.6866 -17.8149C76.0026 -12.2217 74.3417 -6.97304 73.8218 -1.29926C73.17 5.81526 76.6267 18.1143 78.0765 25.1924C78.5949 27.7251 78.8816 30.439 79.2881 33.0252C73.3148 33.9516 66.0492 38.9536 60.8989 43.3414C58.7858 45.1423 56.4167 47.8605 54.1425 49.1771C46.8092 53.423 42.5974 47.7135 36.6404 42.5312C34.312 40.5049 31.3068 38.5014 28.8664 36.9594C25.7714 35.095 22.5517 33.7363 19.2628 32.9061C19.6232 30.409 20.0116 27.335 20.5028 24.9228C22.0129 17.508 25.3905 5.85663 24.6959 -1.84274C24.3444 -7.25976 22.2969 -13.5526 21.767 -18.7478C21.2519 -23.7982 22.7717 -24.5243 20.9546 -30.4042C22.9514 -33.6922 24.902 -44.2809 25.4804 -48.7879C25.7657 -51.0051 26.0252 -54.1651 26.2135 -56.4722L26.1294 -56.4417C28.2324 -57.2975 29.9041 -58.0166 31.9437 -59.1147C31.908 -58.4365 31.8923 -57.7561 31.8987 -57.0758C31.9244 -53.4369 33.1817 -50.1296 34.8733 -47.6154C38.6045 -42.2161 44.637 -41.0464 49.6176 -41.0642C55.7771 -41.0863 63.5789 -43.4557 66.1234 -53.0081C66.6732 -55.072 66.6019 -57.0099 66.5734 -59.1797Z" fill="#91364A"/>
<path d="M72.5588 -56.5547C80.9833 -53.9375 90.0901 -53.9215 91.1107 -37.6397C91.2376 -35.6098 91.0122 -32.9017 91.2576 -31.0145C92.0634 -24.8036 92.7373 -18.7361 92.8607 -12.3855C92.9142 -6.30016 92.8928 -5.33373 94.4846 0.219513C97.1161 9.40455 95.9016 21.1651 96.1626 30.9378C96.2667 34.8435 96.445 38.8062 96.6547 42.7119C96.7937 46.2845 97.4612 50.5268 97.0326 54.0345C97.0975 53.675 93.2622 61.9371 93.3828 61.7332C92.4043 63.3986 88.8913 65.698 87.4415 66.5104C90.1579 63.6496 92.2153 62.584 93.5946 57.7754C93.877 56.7912 95.264 53.8904 95.2804 53.0124C94.5972 53.6686 92.5284 60.4443 91.4729 61.7909C90.8817 62.5441 90.7512 62.6846 90.0481 63.3715C89.3192 64.0768 88.6346 64.8471 87.9165 65.5682C87.3139 66.173 85.8205 67.9661 85.2728 66.6495C85.2229 65.3528 86.5971 64.288 87.2033 63.4599C88.4271 61.7895 89.2879 59.6113 89.9768 57.386C90.8867 54.4496 90.2342 51.7172 89.4925 48.9434C88.6517 51.6366 88.0912 53.5887 88.1925 56.6086C88.3251 60.5585 84.7515 61.2717 85.3734 56.6849C85.8041 53.5096 84.9776 50.0718 85.1794 46.8508C85.4397 42.7091 87.8102 41.2876 88.5298 37.4589C88.2574 35.9661 87.5378 33.422 87.1484 31.8615C85.7399 26.2233 84.0077 20.7122 82.5964 15.0755C81.6258 11.1384 80.8627 7.09225 80.3157 2.97545C80.064 1.02048 79.9371 -0.916672 79.6518 -2.87735C79.1569 -6.2859 78.428 -9.60672 77.8732 -12.9768C77.4853 -15.3319 77.3091 -18.0635 77.1273 -20.475C76.9775 -22.4635 76.872 -24.136 76.9846 -26.1431C77.1893 -29.8098 79.0542 -32.2277 79.4157 -35.6961L79.4357 -35.8994C78.8773 -34.1591 78.289 -32.4409 77.6707 -30.747C74.898 -36.9579 73.0031 -49.0938 72.5588 -56.5547Z" fill="white"/>
<path d="M88.2667 -0.644531L88.3244 -0.558947L88.2403 -0.359237C87.4508 0.130755 86.2349 0.303358 85.3634 0.460983L85.2971 0.294088C85.5275 0.129331 87.8031 -0.48334 88.2667 -0.644531Z" fill="#5E5E5E"/>
<path d="M25.6536 -56.2773C25.7342 -56.2597 25.6764 -56.2809 25.797 -56.1159C25.429 -48.6633 23.5506 -37.0156 20.8245 -30.7248C20.3333 -32.239 19.618 -34.4001 18.9891 -35.7774C19.0398 -35.5349 19.0923 -35.296 19.1459 -35.0556C19.6748 -32.3703 21.3513 -29.3212 21.4794 -26.4782C21.6881 -21.8451 21.1012 -16.2234 20.4953 -11.6729C20.109 -8.77148 19.3677 -5.97988 18.9617 -3.09556C18.5822 -0.399536 18.3792 2.18879 17.9758 4.86485C16.6615 14.4243 13.717 23.1515 11.3057 32.1432C10.9023 33.6475 10.3957 35.4983 10.1396 37.1095C9.81411 39.1565 11.7549 41.3903 12.371 43.0479C14.0216 46.9664 13.248 49.3272 13.171 53.5816C13.1725 55.2791 13.3555 57.0908 13.2074 58.7683C13.1329 59.6135 12.0348 60.0956 11.5858 59.7968C10.0602 58.7833 10.5687 55.262 10.2724 53.312C10.0345 51.7465 9.52358 50.3093 8.989 48.9706C8.22957 52.1366 7.692 54.7271 8.80657 57.9302C9.50204 59.9287 10.0832 61.5228 11.1633 63.1183C11.7708 64.0156 13.4124 65.3129 13.3975 66.5689C12.6419 68.2636 10.2851 65.196 9.4763 64.3572C6.55667 61.48 6.57535 61.0471 4.69777 56.4467C4.38256 55.6743 3.95211 54.496 3.58426 53.7856L3.54048 53.9532C3.76783 55.0894 6.39714 61.5913 7.10829 62.4215C7.90245 63.3487 9.93228 65.2637 10.8693 66.3307C9.44784 65.539 7.71211 64.3016 6.36932 63.1968C5.08644 62.1412 4.01037 58.6235 3.03022 56.931C1.88562 54.9539 1.15742 53.9347 1.35504 51.1759C1.73557 45.863 1.96828 40.4831 2.25382 35.1538C2.72428 23.7984 1.28515 11.8802 3.89548 0.923515C4.39383 -1.16769 5.1815 -3.19042 5.44187 -5.40502C5.61966 -7.09324 5.62023 -9.11241 5.67236 -10.8306C5.75395 -13.8961 5.88303 -16.958 6.05946 -20.0135C6.29109 -23.7409 7.07463 -27.6651 7.2619 -31.0786C7.61098 -37.4428 6.97593 -41.469 9.70407 -47.2163C12.2651 -52.6114 16.2993 -53.7768 20.4015 -54.8927L25.6536 -56.2773Z" fill="white"/>
<path d="M10.0181 -0.510741C10.3866 -0.605601 13.1291 0.0919481 13.5327 0.395786C12.7504 0.53344 10.7221 0.0812437 10.0181 -0.510741Z" fill="#5E5E5E"/>
<path d="M87.3431 62.3828L87.3959 62.5119C87.1306 63.0212 86.4731 63.7807 86.1115 64.2279C85.961 63.9919 86.0259 64.096 85.9603 63.7144C86.1821 62.9662 86.8175 62.7145 87.3431 62.3828Z" fill="#EDEDED"/>
<path d="M11.1523 62.4648C11.946 62.7016 12.5474 62.8685 12.5732 64.2059C12.2365 64.0126 11.4611 62.8828 11.1523 62.4648Z" fill="#EDEDED"/>
<path d="M17 20L17 28" stroke="#75041D"/>
<path d="M79 24H19" stroke="#75041D" stroke-dasharray="3 3"/>
<path d="M81 20L81 28" stroke="#75041D"/>
</g>
<defs>
<clipPath id="clip0_1160_39192">
<rect width="99" height="137" fill="white"/>
</clipPath>
</defs>
</svg>
