<svg width="99" height="137" viewBox="0 0 99 137" fill="none" xmlns="http://www.w3.org/2000/svg">
<g clip-path="url(#clip0_1160_39449)">
<path d="M34.6087 -96.2796C34.9189 -96.9037 34.7734 -98.11 34.742 -98.866C34.6272 -101.659 33.9533 -108.19 35.1371 -110.359C35.6135 -111.232 36.5356 -111.849 37.2209 -112.276C39.028 -113.404 41.017 -114.024 42.9511 -114.448C47.8568 -115.524 59.0097 -115.364 62.8893 -110.861C63.6088 -110.027 63.8713 -109.158 63.9611 -107.818C64.0845 -105.975 63.5539 -97.8679 63.7907 -97.1211C64.8069 -95.8296 66.8337 -98.5137 65.2248 -90.8681C64.5181 -87.5087 64.8775 -84.9876 62.0228 -84.4081C61.6256 -82.7026 61.3218 -81.1131 60.486 -79.7481C60.282 -79.3017 59.9982 -78.7205 59.8377 -78.2534C59.899 -75.4726 59.8748 -72.2732 60.1422 -69.5405C60.3212 -67.7105 63.7629 -66.0696 64.762 -65.4663C69.2348 -62.7647 74.0101 -61.4963 78.7083 -60.171C83.3423 -58.8636 87.9108 -56.9522 90.0759 -50.0406C91.8958 -44.6086 91.1691 -41.5353 91.5949 -36.0156C91.9108 -31.9109 92.6225 -27.8112 92.8907 -23.5133C93.0518 -20.8772 93.1766 -18.2361 93.2651 -15.5921C93.4462 -9.49751 93.3022 -10.2828 94.8618 -4.62183C95.5258 -2.19469 95.9793 0.350121 96.2111 2.95058C97.1054 13.1227 96.0656 24.4289 96.7987 34.7687C97.1189 39.2828 97.4555 44.1078 97.4677 48.5998C97.4684 49.007 96.6112 50.7373 96.4122 50.9684C95.632 51.8756 94.0517 56.5858 93.4819 57.2656C92.0684 58.9524 86.6784 63.2161 85.0653 62.2083C84.7743 61.6191 85.6059 58.1271 86.0173 57.7063C86.493 57.2206 87.3788 56.7763 87.935 56.4632C89.2665 53.1723 90.5145 51.0768 89.8741 47.1497C89.7578 46.4044 89.6073 45.6726 89.4248 44.958L89.3699 45.1363C89.086 46.0885 88.6553 48.0377 88.6175 49.0284C88.5112 51.8 88.5547 55.9232 85.8405 54.9597C84.5989 54.5196 85.1994 50.2523 85.1623 48.833C85.0931 46.1448 84.6652 43.555 84.9298 40.8811C85.322 37.6751 87.4907 35.7601 88.1703 32.7289C87.9635 30.8652 87.1805 28.2184 86.7148 26.396C84.2915 16.9257 81.1822 7.87975 79.9556 -2.19185C79.7267 -4.0705 79.6661 -6.02477 79.3922 -7.89272C78.6106 -12.8255 77.5409 -17.0357 76.9632 -22.0654C75.9948 -17.5778 74.1042 -8.82066 74.0757 -4.30801C74.0436 0.988464 76.1403 9.83686 77.1957 14.9971C77.543 16.6918 78.1043 18.5954 78.4273 20.3735C80.0433 29.2911 80.9462 38.4654 81.1173 47.7032C81.2271 56.0096 80.4819 64.4742 78.7368 72.3676C77.5965 77.5286 75.8907 82.5633 75.5341 88.0145C75.1768 93.7582 76.1017 99.4199 77.1273 104.908C77.7427 108.202 78.3368 111.814 78.299 115.252C78.1499 128.667 74.2526 141.424 73.4952 154.716C73.4374 155.716 74.0757 157.541 74.3331 158.534C74.04 159.998 73.7469 160.882 74.2982 162.321C75.3451 165.057 77.8283 167.813 79.4742 169.77H78.98H60.9524H60.538C59.9276 166.821 61.1114 165.085 61.2326 162.345C61.2925 161.008 60.466 159.568 60.6179 158.27C60.8532 156.26 61.7882 154.879 61.7974 152.708C61.8096 149.957 61.4687 146.797 61.1913 144.066C60.7955 140.16 60.1115 136.112 59.4376 132.294C58.6532 127.844 57.7589 123.279 57.3595 118.703C57.1163 115.922 57.2832 113.036 57.4458 110.276C57.5699 108.163 57.9486 104.781 57.6654 102.786C57.204 99.2943 55.5774 96.0313 55.1823 92.5257C54.5989 87.3412 55.0011 81.9856 54.3158 76.7682C53.9692 74.1328 53.587 71.7357 53.0528 69.1694C52.5493 66.7551 52.1507 64.2617 51.7599 61.8024C50.9141 56.6037 50.723 51.35 50.278 46.0621L48.2548 46.0699C47.9559 51.7422 47.3961 58.9402 46.459 64.4015C45.6824 68.9219 44.7732 72.5217 44.2169 77.2846C43.5537 82.9727 43.9894 88.2285 43.2313 93.7561C42.8099 96.8337 41.3572 100.293 40.9407 103.363C40.7203 104.986 41.0869 108.793 41.1889 110.581C41.3608 113.491 41.5348 116.657 41.2452 119.562C40.3488 128.569 38.0339 137.186 37.3015 146.247C37.0904 148.869 36.6226 152.143 37.1197 154.718C37.3521 155.919 38.0681 157.174 38.0653 158.524C38.0903 159.815 37.2901 161.428 37.437 162.621C37.8242 165.776 38.6779 166.321 38.1865 169.77H37.8371H19.613H19.1879C20.9465 167.102 24.4356 164.529 24.5989 160.254C24.6146 159.843 24.4057 158.745 24.3265 158.297C24.616 156.488 25.2065 155.705 25.0432 153.596C24.0912 141.315 20.9392 129.809 20.4246 117.418C19.9951 107.077 23.6968 98.171 23.0704 87.8919C22.7326 82.35 20.9813 77.3474 19.7589 72.1864C16.01 55.3683 17.1188 36.7265 20.1346 19.8564C20.4705 17.977 21.0849 16.1554 21.4546 14.281C22.6379 8.27915 24.2794 2.02123 24.5034 -4.25381C24.5462 -8.34064 22.7467 -16.8353 21.8714 -21.0462L21.576 -22.4591C20.9413 -17.2589 20.1494 -12.6272 19.2081 -7.53825C18.8691 -5.70595 18.712 -3.10194 18.4616 -1.1598C18.0323 2.02837 17.4594 5.16946 16.747 8.24136C14.8472 16.2973 12.2383 24.1023 10.442 32.2018C10.2818 34.4178 12.0763 36.3449 12.7913 38.0995C14.3141 41.8376 13.5858 44.7932 13.4345 48.8194C13.3487 51.1068 14.6696 55.7135 11.5391 55.0945C10.0764 54.8056 10.0395 50.5055 9.90381 48.9585C9.78956 47.7596 9.57619 46.6098 9.12569 45.4658L9.05915 45.3003C7.99785 49.5348 8.62392 51.4712 10.0444 55.2114C10.8059 57.2171 10.8573 56.8733 12.3157 57.5416C12.9024 57.8105 12.6993 59.0394 12.9281 59.4388C13.3645 60.1998 14.0972 60.9466 13.5232 62.0728C13.0372 62.4279 12.3421 62.358 11.8273 62.1127C9.91308 61.2005 7.72008 59.7619 6.00453 58.2434C4.8058 57.1828 4.01691 54.6629 3.19915 53.0289C2.46746 51.5668 1.63664 49.9977 1.00622 48.4628C0.987105 47.8359 1.01485 47.0142 1.0515 46.3759C1.38804 40.2007 1.77685 34.049 1.94829 27.8517C2.24118 17.2638 1.09964 6.00179 3.56186 -4.15395C4.04822 -6.16029 4.86841 -8.22153 5.11787 -10.3327C5.28746 -11.767 5.26449 -13.6243 5.31071 -15.105C5.38937 -17.8973 5.50511 -20.6875 5.65794 -23.4726C5.90512 -27.7856 6.44247 -31.6335 6.94396 -35.8765C7.19499 -38.0005 6.99252 -40.499 7.098 -42.6829C7.23 -45.396 7.74247 -48.0364 8.60174 -50.4322C11.9567 -59.832 18.8274 -59.3968 24.8279 -61.4679C27.8345 -62.5055 36.1676 -65.9239 38.2671 -68.7905C38.5923 -70.7565 38.6087 -75.8942 38.6708 -78.1311C37.4413 -80.4882 37.196 -81.8471 36.5092 -84.6551C36.2354 -84.6719 35.9622 -84.7061 35.6905 -84.7573C35.3125 -84.8263 34.4618 -85.0685 34.3213 -85.6733C33.8805 -87.5658 30.6643 -99.2839 34.6087 -96.2796Z" fill="#5E5E5E"/>
<path d="M19.2236 28.1992C24.5626 29.8732 27.2796 31.0999 32.3059 34.6076C34.1387 35.8986 35.9266 37.3286 37.6624 38.8913C40.8387 41.7114 44.2832 45.5201 48.0244 45.8603C47.5109 51.3444 47.3861 56.3278 46.5774 61.7876C45.7459 67.4036 44.4943 72.26 43.8582 77.9495C43.2756 83.1604 43.6599 87.8813 43.0737 92.9809C42.6466 96.5778 41.0562 99.89 40.6669 103.46C40.5214 104.8 40.639 107.517 40.7745 108.847C41.5833 116.787 40.6554 123.517 39.212 131.131C38.2414 136.248 37.3193 141.945 36.9036 147.272C36.7688 149.167 36.5028 151.564 36.6354 153.462C36.7752 155.468 37.5675 156.728 37.7665 158.934C37.6082 159.561 37.2901 160.747 37.2409 161.38C36.9806 164.739 38.4811 166.1 37.8371 169.77H19.613C21.3744 167.582 24.6339 164.121 24.8528 160.661C24.9063 159.822 24.7273 159.101 24.5675 158.298C24.8464 157.285 25.4226 155.348 25.3606 154.343C24.564 141.384 20.8896 129.037 20.7305 115.951C20.614 106.368 23.987 97.7974 23.398 88.1766C23.0461 82.042 21.3239 77.5979 20.0493 72.1159C16.9812 58.9211 17.186 41.7065 19.2236 28.1992Z" fill="white"/>
<path d="M36.828 90.1172C38.0233 92.0843 35.7198 96.057 34.8982 97.4671L34.7599 97.39C34.8112 97.0705 34.7656 97.2017 34.8932 96.9607C36.3324 94.2418 36.8765 93.5899 36.828 90.1172Z" fill="#5E5E5E"/>
<path d="M27.3589 90.5625C27.5422 90.8385 27.4181 91.6345 27.4052 92.1494C27.3632 93.8255 28.0278 95.4111 28.2332 96.9089C27.2776 96.068 26.9716 92.1174 27.3589 90.5625Z" fill="#5E5E5E"/>
<path d="M50.6089 45.872C55.7856 44.927 58.9384 40.042 63.5846 36.5571C69.5822 32.0573 72.8584 30.1466 79.3331 28.3086C81.3555 43.1118 81.6429 57.5419 78.5236 72.0513C77.317 77.4119 75.7245 82.2726 75.2553 87.9571C74.4309 97.961 78.2041 106.795 77.9602 116.624C77.7064 126.843 75.1932 136.8 74.0108 146.813C73.7099 149.365 73.1486 151.945 73.1886 154.551C73.2121 155.994 73.7926 157.316 74.0443 158.631C73.9409 159.086 73.7127 160.012 73.7334 160.461C73.9288 164.617 77.2321 167.215 78.98 169.77H60.9524C60.1822 166.409 61.5978 164.991 61.4494 161.845C61.401 160.817 61.0651 159.721 60.8333 158.725L60.8668 158.531C61.1827 156.749 61.9223 154.964 62.0713 153.27C62.2289 151.474 61.9544 148.825 61.7896 146.994C61.4466 143.176 61.0123 139.512 60.3562 135.787C59.4476 130.626 58.3829 125.537 57.8103 120.257C57.408 116.549 57.6006 113.254 57.816 109.574C57.9272 107.675 58.2032 104.783 57.9878 103.019C57.5578 99.4866 55.9903 96.3405 55.5153 92.7287C55.0996 89.5705 55.1488 86.4608 55.0532 83.2548C54.9805 81.0195 54.8215 78.7913 54.5768 76.5832C54.0883 72.1511 52.9822 67.5779 52.2242 63.148C51.1837 57.0698 51.0532 51.9523 50.6089 45.872Z" fill="white"/>
<path d="M61.5943 90.2852C61.7932 90.6197 61.8303 92.8557 62.0771 93.5646C62.5706 94.9839 63.4827 96.4361 64.1723 97.6357C63.7451 97.6044 63.0441 96.4275 62.7902 95.9126C61.8439 93.9904 61.406 92.7102 61.5943 90.2852Z" fill="#5E5E5E"/>
<path d="M71.3921 90.7266C72.0446 92.0831 71.1874 95.4303 70.7545 96.8154L70.6319 96.6535C70.5905 96.1293 71.2516 93.5659 71.325 92.7151C71.4006 91.8421 71.4056 91.6309 71.3921 90.7266Z" fill="#5E5E5E"/>
<path d="M66.5734 -64.1797C68.4732 -63.2136 70.2504 -62.4641 72.178 -61.6735C72.3813 -59.4293 72.5824 -56.7981 72.8676 -54.5843C73.5116 -49.5833 75.4492 -39.2393 77.5159 -35.4C75.716 -29.724 77.2849 -27.712 76.6866 -22.8149C76.0026 -17.2217 74.3417 -11.973 73.8218 -6.29926C73.17 0.815262 76.6267 13.1143 78.0765 20.1924C78.5949 22.7251 78.8816 25.439 79.2881 28.0252C73.3148 28.9516 66.0492 33.9536 60.8989 38.3414C58.7858 40.1423 56.4167 42.8605 54.1425 44.1771C46.8092 48.423 42.5974 42.7135 36.6404 37.5312C34.312 35.5049 31.3068 33.5014 28.8664 31.9594C25.7714 30.095 22.5517 28.7363 19.2628 27.9061C19.6232 25.409 20.0116 22.335 20.5028 19.9228C22.0129 12.508 25.3905 0.856628 24.6959 -6.84274C24.3444 -12.2598 22.2969 -18.5526 21.767 -23.7478C21.2519 -28.7982 22.7717 -29.5243 20.9546 -35.4042C22.9514 -38.6922 24.902 -49.2809 25.4804 -53.7879C25.7657 -56.0051 26.0252 -59.1651 26.2135 -61.4722L26.1294 -61.4417C28.2324 -62.2975 29.9041 -63.0166 31.9437 -64.1147C31.908 -63.4365 31.8923 -62.7561 31.8987 -62.0758C31.9244 -58.4369 33.1817 -55.1296 34.8733 -52.6154C38.6045 -47.2161 44.637 -46.0464 49.6176 -46.0642C55.7771 -46.0863 63.5789 -48.4557 66.1234 -58.0081C66.6732 -60.072 66.6019 -62.0099 66.5734 -64.1797Z" fill="#91364A"/>
<path d="M72.5588 -61.5547C80.9833 -58.9375 90.0901 -58.9215 91.1107 -42.6397C91.2376 -40.6098 91.0122 -37.9017 91.2576 -36.0145C92.0634 -29.8036 92.7373 -23.7361 92.8607 -17.3855C92.9142 -11.3002 92.8928 -10.3337 94.4846 -4.78049C97.1161 4.40455 95.9016 16.1651 96.1626 25.9378C96.2667 29.8435 96.445 33.8062 96.6547 37.7119C96.7937 41.2845 97.4612 45.5268 97.0326 49.0345C97.0975 48.675 93.2622 56.9371 93.3828 56.7332C92.4043 58.3986 88.8913 60.698 87.4415 61.5104C90.1579 58.6496 92.2153 57.584 93.5946 52.7754C93.877 51.7912 95.264 48.8904 95.2804 48.0124C94.5972 48.6686 92.5284 55.4443 91.4729 56.7909C90.8817 57.5441 90.7512 57.6846 90.0481 58.3715C89.3192 59.0768 88.6346 59.8471 87.9165 60.5682C87.3139 61.173 85.8205 62.9661 85.2728 61.6495C85.2229 60.3528 86.5971 59.288 87.2033 58.4599C88.4271 56.7895 89.2879 54.6113 89.9768 52.386C90.8867 49.4496 90.2342 46.7172 89.4925 43.9434C88.6517 46.6366 88.0912 48.5887 88.1925 51.6086C88.3251 55.5585 84.7515 56.2717 85.3734 51.6849C85.8041 48.5096 84.9776 45.0718 85.1794 41.8508C85.4397 37.7091 87.8102 36.2876 88.5298 32.4589C88.2574 30.9661 87.5378 28.422 87.1484 26.8615C85.7399 21.2233 84.0077 15.7122 82.5964 10.0755C81.6258 6.13843 80.8627 2.09225 80.3157 -2.02455C80.064 -3.97952 79.9371 -5.91667 79.6518 -7.87735C79.1569 -11.2859 78.428 -14.6067 77.8732 -17.9768C77.4853 -20.3319 77.3091 -23.0635 77.1273 -25.475C76.9775 -27.4635 76.872 -29.136 76.9846 -31.1431C77.1893 -34.8098 79.0542 -37.2277 79.4157 -40.6961L79.4357 -40.8994C78.8773 -39.1591 78.289 -37.4409 77.6707 -35.747C74.898 -41.9579 73.0031 -54.0938 72.5588 -61.5547Z" fill="white"/>
<path d="M25.6536 -61.2773C25.7342 -61.2597 25.6764 -61.2809 25.797 -61.1159C25.429 -53.6633 23.5506 -42.0156 20.8245 -35.7248C20.3333 -37.239 19.618 -39.4001 18.9891 -40.7774C19.0398 -40.5349 19.0923 -40.296 19.1459 -40.0556C19.6748 -37.3703 21.3513 -34.3212 21.4794 -31.4782C21.6881 -26.8451 21.1012 -21.2234 20.4953 -16.6729C20.109 -13.7715 19.3677 -10.9799 18.9617 -8.09556C18.5822 -5.39954 18.3792 -2.81121 17.9758 -0.135151C16.6615 9.42434 13.717 18.1515 11.3057 27.1432C10.9023 28.6475 10.3957 30.4983 10.1396 32.1095C9.81411 34.1565 11.7549 36.3903 12.371 38.0479C14.0216 41.9664 13.248 44.3272 13.171 48.5816C13.1725 50.2791 13.3555 52.0908 13.2074 53.7683C13.1329 54.6135 12.0348 55.0956 11.5858 54.7968C10.0602 53.7833 10.5687 50.262 10.2724 48.312C10.0345 46.7465 9.52358 45.3093 8.989 43.9706C8.22957 47.1366 7.692 49.7271 8.80657 52.9302C9.50204 54.9287 10.0832 56.5228 11.1633 58.1183C11.7708 59.0156 13.4124 60.3129 13.3975 61.5689C12.6419 63.2636 10.2851 60.196 9.4763 59.3572C6.55667 56.48 6.57535 56.0471 4.69777 51.4467C4.38256 50.6743 3.95211 49.496 3.58426 48.7856L3.54048 48.9532C3.76783 50.0894 6.39714 56.5913 7.10829 57.4215C7.90245 58.3487 9.93228 60.2637 10.8693 61.3307C9.44784 60.539 7.71211 59.3016 6.36932 58.1968C5.08644 57.1412 4.01037 53.6235 3.03022 51.931C1.88562 49.9539 1.15742 48.9347 1.35504 46.1759C1.73557 40.863 1.96828 35.4831 2.25382 30.1538C2.72428 18.7984 1.28515 6.88023 3.89548 -4.07648C4.39383 -6.16769 5.1815 -8.19042 5.44187 -10.405C5.61966 -12.0932 5.62023 -14.1124 5.67236 -15.8306C5.75395 -18.8961 5.88303 -21.958 6.05946 -25.0135C6.29109 -28.7409 7.07463 -32.6651 7.2619 -36.0786C7.61098 -42.4428 6.97593 -46.469 9.70407 -52.2163C12.2651 -57.6114 16.2993 -58.7768 20.4015 -59.8927L25.6536 -61.2773Z" fill="white"/>
<path d="M87.3431 57.3828L87.3959 57.5119C87.1306 58.0212 86.4731 58.7807 86.1115 59.2279C85.961 58.9919 86.0259 59.096 85.9603 58.7144C86.1821 57.9662 86.8175 57.7145 87.3431 57.3828Z" fill="#EDEDED"/>
<path d="M11.1523 57.4648C11.946 57.7016 12.5474 57.8685 12.5732 59.2059C12.2365 59.0126 11.4611 57.8828 11.1523 57.4648Z" fill="#EDEDED"/>
<path d="M14 25L14 33" stroke="#75041D"/>
<path d="M84 26.4883L50 31.5156L16 26.4883" stroke="#75041D" stroke-dasharray="3 3"/>
<path d="M86 25L86 33" stroke="#75041D"/>
</g>
<defs>
<clipPath id="clip0_1160_39449">
<rect width="99" height="137" fill="white"/>
</clipPath>
</defs>
</svg>
