<svg width="99" height="137" viewBox="0 0 99 137" fill="none" xmlns="http://www.w3.org/2000/svg">
<g clip-path="url(#clip0_1160_39706)">
<path d="M34.6087 -123.28C34.9189 -123.904 34.7734 -125.11 34.742 -125.866C34.6272 -128.659 33.9533 -135.19 35.1371 -137.359C35.6135 -138.232 36.5356 -138.849 37.2209 -139.276C39.028 -140.404 41.017 -141.024 42.9511 -141.448C47.8568 -142.524 59.0097 -142.364 62.8893 -137.861C63.6088 -137.027 63.8713 -136.158 63.9611 -134.818C64.0845 -132.975 63.5539 -124.868 63.7907 -124.121C64.8069 -122.83 66.8337 -125.514 65.2248 -117.868C64.5181 -114.509 64.8775 -111.988 62.0228 -111.408C61.6256 -109.703 61.3218 -108.113 60.486 -106.748C60.282 -106.302 59.9982 -105.721 59.8377 -105.253C59.899 -102.473 59.8748 -99.2732 60.1422 -96.5405C60.3212 -94.7105 63.7629 -93.0696 64.762 -92.4663C69.2348 -89.7647 74.0101 -88.4963 78.7083 -87.171C83.3423 -85.8636 87.9108 -83.9522 90.0759 -77.0406C91.8958 -71.6086 91.1691 -68.5353 91.5949 -63.0156C91.9108 -58.9109 92.6225 -54.8112 92.8907 -50.5133C93.0518 -47.8772 93.1766 -45.2361 93.2651 -42.5921C93.4462 -36.4975 93.3022 -37.2828 94.8618 -31.6218C95.5258 -29.1947 95.9793 -26.6499 96.2111 -24.0494C97.1054 -13.8773 96.0656 -2.57108 96.7987 7.76869C97.1189 12.2828 97.4555 17.1078 97.4677 21.5998C97.4684 22.007 96.6112 23.7373 96.4122 23.9684C95.632 24.8756 94.0517 29.5858 93.4819 30.2656C92.0684 31.9524 86.6784 36.2161 85.0653 35.2083C84.7743 34.6191 85.6059 31.1271 86.0173 30.7063C86.493 30.2206 87.3788 29.7763 87.935 29.4632C89.2665 26.1723 90.5145 24.0768 89.8741 20.1497C89.7578 19.4044 89.6073 18.6726 89.4248 17.958L89.3699 18.1363C89.086 19.0885 88.6553 21.0377 88.6175 22.0284C88.5112 24.8 88.5547 28.9232 85.8405 27.9597C84.5989 27.5196 85.1994 23.2523 85.1623 21.833C85.0931 19.1448 84.6652 16.555 84.9298 13.8811C85.322 10.6751 87.4907 8.7601 88.1703 5.72885C87.9635 3.86517 87.1805 1.21835 86.7148 -0.603958C84.2915 -10.0743 81.1822 -19.1203 79.9556 -29.1918C79.7267 -31.0705 79.6661 -33.0248 79.3922 -34.8927C78.6106 -39.8255 77.5409 -44.0357 76.9632 -49.0654C75.9948 -44.5778 74.1042 -35.8207 74.0757 -31.308C74.0436 -26.0115 76.1403 -17.1631 77.1957 -12.0029C77.543 -10.3082 78.1043 -8.40462 78.4273 -6.62653C80.0433 2.29106 80.9462 11.4654 81.1173 20.7032C81.2271 29.0096 80.4819 37.4742 78.7368 45.3676C77.5965 50.5286 75.8907 55.5633 75.5341 61.0145C75.1768 66.7582 76.1017 72.4199 77.1273 77.9075C77.7427 81.2019 78.3368 84.8138 78.299 88.2516C78.1499 101.667 74.2526 114.424 73.4952 127.716C73.4374 128.716 74.0757 130.541 74.3331 131.534C74.04 132.998 73.7469 133.882 74.2982 135.321C75.3451 138.057 77.8283 140.813 79.4742 142.77H78.98H60.9524H60.538C59.9276 139.821 61.1114 138.085 61.2326 135.345C61.2925 134.008 60.466 132.568 60.6179 131.27C60.8532 129.26 61.7882 127.879 61.7974 125.708C61.8096 122.957 61.4687 119.797 61.1913 117.066C60.7955 113.16 60.1115 109.112 59.4376 105.294C58.6532 100.844 57.7589 96.279 57.3595 91.7029C57.1163 88.922 57.2832 86.0362 57.4458 83.276C57.5699 81.1627 57.9486 77.7813 57.6654 75.7856C57.204 72.2943 55.5774 69.0313 55.1823 65.5257C54.5989 60.3412 55.0011 54.9856 54.3158 49.7682C53.9692 47.1328 53.587 44.7357 53.0528 42.1694C52.5493 39.7551 52.1507 37.2617 51.7599 34.8024C50.9141 29.6037 50.723 24.35 50.278 19.0621L48.2548 19.0699C47.9559 24.7422 47.3961 31.9402 46.459 37.4015C45.6824 41.9219 44.7732 45.5217 44.2169 50.2846C43.5537 55.9727 43.9894 61.2285 43.2313 66.7561C42.8099 69.8337 41.3572 73.2929 40.9407 76.3633C40.7203 77.9859 41.0869 81.7932 41.1889 83.5813C41.3608 86.4913 41.5348 89.6573 41.2452 92.5623C40.3488 101.569 38.0339 110.186 37.3015 119.247C37.0904 121.869 36.6226 125.143 37.1197 127.718C37.3521 128.919 38.0681 130.174 38.0653 131.524C38.0903 132.815 37.2901 134.428 37.437 135.621C37.8242 138.776 38.6779 139.321 38.1865 142.77H37.8371H19.613H19.1879C20.9465 140.102 24.4356 137.529 24.5989 133.254C24.6146 132.843 24.4057 131.745 24.3265 131.297C24.616 129.488 25.2065 128.705 25.0432 126.596C24.0912 114.315 20.9392 102.809 20.4246 90.4176C19.9951 80.0772 23.6968 71.171 23.0704 60.8919C22.7326 55.35 20.9813 50.3474 19.7589 45.1864C16.01 28.3683 17.1188 9.72653 20.1346 -7.14362C20.4705 -9.02299 21.0849 -10.8446 21.4546 -12.719C22.6379 -18.7208 24.2794 -24.9788 24.5034 -31.2538C24.5462 -35.3406 22.7467 -43.8353 21.8714 -48.0462L21.576 -49.4591C20.9413 -44.2589 20.1494 -39.6272 19.2081 -34.5383C18.8691 -32.7059 18.712 -30.1019 18.4616 -28.1598C18.0323 -24.9716 17.4594 -21.8305 16.747 -18.7586C14.8472 -10.7027 12.2383 -2.89774 10.442 5.20177C10.2818 7.41779 12.0763 9.34494 12.7913 11.0995C14.3141 14.8376 13.5858 17.7932 13.4345 21.8194C13.3487 24.1068 14.6696 28.7135 11.5391 28.0945C10.0764 27.8056 10.0395 23.5055 9.90381 21.9585C9.78956 20.7596 9.57619 19.6098 9.12569 18.4658L9.05915 18.3003C7.99785 22.5348 8.62392 24.4712 10.0444 28.2114C10.8059 30.2171 10.8573 29.8733 12.3157 30.5416C12.9024 30.8105 12.6993 32.0394 12.9281 32.4388C13.3645 33.1998 14.0972 33.9466 13.5232 35.0728C13.0372 35.4279 12.3421 35.358 11.8273 35.1127C9.91308 34.2005 7.72008 32.7619 6.00453 31.2434C4.8058 30.1828 4.01691 27.6629 3.19915 26.0289C2.46746 24.5668 1.63664 22.9977 1.00622 21.4628C0.987105 20.8359 1.01485 20.0142 1.0515 19.3759C1.38804 13.2007 1.77685 7.04904 1.94829 0.851746C2.24118 -9.73622 1.09964 -20.9982 3.56186 -31.154C4.04822 -33.1603 4.86841 -35.2215 5.11787 -37.3327C5.28746 -38.767 5.26449 -40.6243 5.31071 -42.105C5.38937 -44.8973 5.50511 -47.6875 5.65794 -50.4726C5.90512 -54.7856 6.44247 -58.6335 6.94396 -62.8765C7.19499 -65.0005 6.99252 -67.499 7.098 -69.6829C7.23 -72.396 7.74247 -75.0364 8.60174 -77.4322C11.9567 -86.832 18.8274 -86.3968 24.8279 -88.4679C27.8345 -89.5055 36.1676 -92.9239 38.2671 -95.7905C38.5923 -97.7565 38.6087 -102.894 38.6708 -105.131C37.4413 -107.488 37.196 -108.847 36.5092 -111.655C36.2354 -111.672 35.9622 -111.706 35.6905 -111.757C35.3125 -111.826 34.4618 -112.069 34.3213 -112.673C33.8805 -114.566 30.6643 -126.284 34.6087 -123.28Z" fill="#5E5E5E"/>
<path d="M19.2236 1.19922C24.5626 2.87318 27.2796 4.09993 32.3059 7.60762C34.1387 8.89858 35.9266 10.3286 37.6624 11.8913C40.8387 14.7114 44.2832 18.5201 48.0244 18.8603C47.5109 24.3444 47.3861 29.3278 46.5774 34.7876C45.7459 40.4036 44.4943 45.26 43.8582 50.9495C43.2756 56.1604 43.6599 60.8813 43.0737 65.9809C42.6466 69.5778 41.0562 72.89 40.6669 76.4605C40.5214 77.7999 40.639 80.5166 40.7745 81.8468C41.5833 89.7865 40.6554 96.5166 39.212 104.131C38.2414 109.248 37.3193 114.945 36.9036 120.272C36.7688 122.167 36.5028 124.564 36.6354 126.462C36.7752 128.468 37.5675 129.728 37.7665 131.934C37.6082 132.561 37.2901 133.747 37.2409 134.38C36.9806 137.739 38.4811 139.1 37.8371 142.77H19.613C21.3744 140.582 24.6339 137.121 24.8528 133.661C24.9063 132.822 24.7273 132.101 24.5675 131.298C24.8464 130.285 25.4226 128.348 25.3606 127.343C24.564 114.384 20.8896 102.037 20.7305 88.9506C20.614 79.3683 23.987 70.7974 23.398 61.1766C23.0461 55.042 21.3239 50.5979 20.0493 45.1159C16.9812 31.9211 17.186 14.7065 19.2236 1.19922Z" fill="white"/>
<path d="M36.828 63.1172C38.0233 65.0843 35.7198 69.057 34.8982 70.4671L34.7599 70.39C34.8112 70.0705 34.7656 70.2017 34.8932 69.9607C36.3324 67.2418 36.8765 66.5899 36.828 63.1172Z" fill="#5E5E5E"/>
<path d="M27.3589 63.5625C27.5422 63.8385 27.4181 64.6345 27.4052 65.1494C27.3632 66.8255 28.0278 68.4111 28.2332 69.9089C27.2776 69.068 26.9716 65.1174 27.3589 63.5625Z" fill="#5E5E5E"/>
<path d="M50.6089 18.872C55.7856 17.927 58.9384 13.042 63.5846 9.55715C69.5822 5.05735 72.8584 3.1466 79.3331 1.30859C81.3555 16.1118 81.6429 30.5419 78.5236 45.0513C77.317 50.4119 75.7245 55.2726 75.2553 60.9571C74.4309 70.961 78.2041 79.7951 77.9602 89.6242C77.7064 99.8434 75.1932 109.8 74.0108 119.813C73.7099 122.365 73.1486 124.945 73.1886 127.551C73.2121 128.994 73.7926 130.316 74.0443 131.631C73.9409 132.086 73.7127 133.012 73.7334 133.461C73.9288 137.617 77.2321 140.215 78.98 142.77H60.9524C60.1822 139.409 61.5978 137.991 61.4494 134.845C61.401 133.817 61.0651 132.721 60.8333 131.725L60.8668 131.531C61.1827 129.749 61.9223 127.964 62.0713 126.27C62.2289 124.474 61.9544 121.825 61.7896 119.994C61.4466 116.176 61.0123 112.512 60.3562 108.787C59.4476 103.626 58.3829 98.5368 57.8103 93.2574C57.408 89.5486 57.6006 86.2541 57.816 82.5739C57.9272 80.6752 58.2032 77.7831 57.9878 76.0185C57.5578 72.4866 55.9903 69.3405 55.5153 65.7287C55.0996 62.5705 55.1488 59.4608 55.0532 56.2548C54.9805 54.0195 54.8215 51.7913 54.5768 49.5832C54.0883 45.1511 52.9822 40.5779 52.2242 36.148C51.1837 30.0698 51.0532 24.9523 50.6089 18.872Z" fill="white"/>
<path d="M61.5943 63.2852C61.7932 63.6197 61.8303 65.8557 62.0771 66.5646C62.5706 67.9839 63.4827 69.4361 64.1723 70.6357C63.7451 70.6044 63.0441 69.4275 62.7902 68.9126C61.8439 66.9904 61.406 65.7102 61.5943 63.2852Z" fill="#5E5E5E"/>
<path d="M71.3921 63.7266C72.0446 65.0831 71.1874 68.4303 70.7545 69.8154L70.6319 69.6535C70.5905 69.1293 71.2516 66.5659 71.325 65.7151C71.4006 64.8421 71.4056 64.6309 71.3921 63.7266Z" fill="#5E5E5E"/>
<path d="M66.5734 -91.1797C68.4732 -90.2136 70.2504 -89.4641 72.178 -88.6735C72.3813 -86.4293 72.5824 -83.7981 72.8676 -81.5843C73.5116 -76.5833 75.4492 -66.2393 77.5159 -62.4C75.716 -56.724 77.2849 -54.712 76.6866 -49.8149C76.0026 -44.2217 74.3417 -38.973 73.8218 -33.2993C73.17 -26.1847 76.6267 -13.8857 78.0765 -6.80759C78.5949 -4.27489 78.8816 -1.56104 79.2881 1.02515C73.3148 1.95164 66.0492 6.95358 60.8989 11.3414C58.7858 13.1423 56.4167 15.8605 54.1425 17.1771C46.8092 21.423 42.5974 15.7135 36.6404 10.5312C34.312 8.50485 31.3068 6.50138 28.8664 4.95937C25.7714 3.09498 22.5517 1.73626 19.2628 0.906052C19.6232 -1.59098 20.0116 -4.66502 20.5028 -7.07718C22.0129 -14.492 25.3905 -26.1434 24.6959 -33.8427C24.3444 -39.2598 22.2969 -45.5526 21.767 -50.7478C21.2519 -55.7982 22.7717 -56.5243 20.9546 -62.4042C22.9514 -65.6922 24.902 -76.2809 25.4804 -80.7879C25.7657 -83.0051 26.0252 -86.1651 26.2135 -88.4722L26.1294 -88.4417C28.2324 -89.2975 29.9041 -90.0166 31.9437 -91.1147C31.908 -90.4365 31.8923 -89.7561 31.8987 -89.0758C31.9244 -85.4369 33.1817 -82.1296 34.8733 -79.6154C38.6045 -74.2161 44.637 -73.0464 49.6176 -73.0642C55.7771 -73.0863 63.5789 -75.4557 66.1234 -85.0081C66.6732 -87.072 66.6019 -89.0099 66.5734 -91.1797Z" fill="#91364A"/>
<path d="M72.5588 -88.5547C80.9833 -85.9375 90.0901 -85.9215 91.1107 -69.6397C91.2376 -67.6098 91.0122 -64.9017 91.2576 -63.0145C92.0634 -56.8036 92.7373 -50.7361 92.8607 -44.3855C92.9142 -38.3002 92.8928 -37.3337 94.4846 -31.7805C97.1161 -22.5955 95.9016 -10.8349 96.1626 -1.06218C96.2667 2.84349 96.445 6.80623 96.6547 10.7119C96.7937 14.2845 97.4612 18.5268 97.0326 22.0345C97.0975 21.675 93.2622 29.9371 93.3828 29.7332C92.4043 31.3986 88.8913 33.698 87.4415 34.5104C90.1579 31.6496 92.2153 30.584 93.5946 25.7754C93.877 24.7912 95.264 21.8904 95.2804 21.0124C94.5972 21.6686 92.5284 28.4443 91.4729 29.7909C90.8817 30.5441 90.7512 30.6846 90.0481 31.3715C89.3192 32.0768 88.6346 32.8471 87.9165 33.5682C87.3139 34.173 85.8205 35.9661 85.2728 34.6495C85.2229 33.3528 86.5971 32.288 87.2033 31.4599C88.4271 29.7895 89.2879 27.6113 89.9768 25.386C90.8867 22.4496 90.2342 19.7172 89.4925 16.9434C88.6517 19.6366 88.0912 21.5887 88.1925 24.6086C88.3251 28.5585 84.7515 29.2717 85.3734 24.6849C85.8041 21.5096 84.9776 18.0718 85.1794 14.8508C85.4397 10.7091 87.8102 9.28758 88.5298 5.45894C88.2574 3.96613 87.5378 1.42201 87.1484 -0.13855C85.7399 -5.77666 84.0077 -11.2878 82.5964 -16.9245C81.6258 -20.8616 80.8627 -24.9078 80.3157 -29.0245C80.064 -30.9795 79.9371 -32.9167 79.6518 -34.8774C79.1569 -38.2859 78.428 -41.6067 77.8732 -44.9768C77.4853 -47.3319 77.3091 -50.0635 77.1273 -52.475C76.9775 -54.4635 76.872 -56.136 76.9846 -58.1431C77.1893 -61.8098 79.0542 -64.2277 79.4157 -67.6961L79.4357 -67.8994C78.8773 -66.1591 78.289 -64.4409 77.6707 -62.747C74.898 -68.9579 73.0031 -81.0938 72.5588 -88.5547Z" fill="white"/>
<path d="M25.6536 -88.2773C25.7342 -88.2597 25.6764 -88.2809 25.797 -88.1159C25.429 -80.6633 23.5506 -69.0156 20.8245 -62.7248C20.3333 -64.239 19.618 -66.4001 18.9891 -67.7774C19.0398 -67.5349 19.0923 -67.296 19.1459 -67.0556C19.6748 -64.3703 21.3513 -61.3212 21.4794 -58.4782C21.6881 -53.8451 21.1012 -48.2234 20.4953 -43.6729C20.109 -40.7715 19.3677 -37.9799 18.9617 -35.0956C18.5822 -32.3995 18.3792 -29.8112 17.9758 -27.1352C16.6615 -17.5757 13.717 -8.84851 11.3057 0.143234C10.9023 1.64745 10.3957 3.49828 10.1396 5.10948C9.81411 7.15646 11.7549 9.39032 12.371 11.0479C14.0216 14.9664 13.248 17.3272 13.171 21.5816C13.1725 23.2791 13.3555 25.0908 13.2074 26.7683C13.1329 27.6135 12.0348 28.0956 11.5858 27.7968C10.0602 26.7833 10.5687 23.262 10.2724 21.312C10.0345 19.7465 9.52358 18.3093 8.989 16.9706C8.22957 20.1366 7.692 22.7271 8.80657 25.9302C9.50204 27.9287 10.0832 29.5228 11.1633 31.1183C11.7708 32.0156 13.4124 33.3129 13.3975 34.5689C12.6419 36.2636 10.2851 33.196 9.4763 32.3572C6.55667 29.48 6.57535 29.0471 4.69777 24.4467C4.38256 23.6743 3.95211 22.496 3.58426 21.7856L3.54048 21.9532C3.76783 23.0894 6.39714 29.5913 7.10829 30.4215C7.90245 31.3487 9.93228 33.2637 10.8693 34.3307C9.44784 33.539 7.71211 32.3016 6.36932 31.1968C5.08644 30.1412 4.01037 26.6235 3.03022 24.931C1.88562 22.9539 1.15742 21.9347 1.35504 19.1759C1.73557 13.863 1.96828 8.48309 2.25382 3.1538C2.72428 -8.20161 1.28515 -20.1198 3.89548 -31.0765C4.39383 -33.1677 5.1815 -35.1904 5.44187 -37.405C5.61966 -39.0932 5.62023 -41.1124 5.67236 -42.8306C5.75395 -45.8961 5.88303 -48.958 6.05946 -52.0135C6.29109 -55.7409 7.07463 -59.6651 7.2619 -63.0786C7.61098 -69.4428 6.97593 -73.469 9.70407 -79.2163C12.2651 -84.6114 16.2993 -85.7768 20.4015 -86.8927L25.6536 -88.2773Z" fill="white"/>
<path d="M87.3431 30.3828L87.3959 30.5119C87.1306 31.0212 86.4731 31.7807 86.1115 32.2279C85.961 31.9919 86.0259 32.096 85.9603 31.7144C86.1821 30.9662 86.8175 30.7145 87.3431 30.3828Z" fill="#EDEDED"/>
<path d="M11.1523 30.4648C11.946 30.7016 12.5474 30.8685 12.5732 32.2059C12.2365 32.0126 11.4611 30.8828 11.1523 30.4648Z" fill="#EDEDED"/>
<path d="M53 36L53 44" stroke="#75041D"/>
<path d="M55 37.5536C64.5 44.1589 67 44.0028 77 37.5536" stroke="#75041D" stroke-dasharray="3 3"/>
<path d="M79 36L79 44" stroke="#75041D"/>
</g>
<defs>
<clipPath id="clip0_1160_39706">
<rect width="99" height="137" fill="white"/>
</clipPath>
</defs>
</svg>
