<svg width="99" height="137" viewBox="0 0 99 137" fill="none" xmlns="http://www.w3.org/2000/svg">
<g clip-path="url(#clip0_1160_40732)">
<path d="M36.6087 -123.28C36.9189 -123.904 36.7734 -125.11 36.742 -125.866C36.6272 -128.659 35.9533 -135.19 37.1371 -137.359C37.6135 -138.232 38.5356 -138.849 39.2209 -139.276C41.028 -140.404 43.017 -141.024 44.9511 -141.448C49.8568 -142.524 61.0097 -142.364 64.8893 -137.861C65.6088 -137.027 65.8713 -136.158 65.9611 -134.818C66.0845 -132.975 65.5539 -124.868 65.7907 -124.121C66.8069 -122.83 68.8337 -125.514 67.2248 -117.868C66.5181 -114.509 66.8775 -111.988 64.0228 -111.408C63.6256 -109.703 63.3218 -108.113 62.486 -106.748C62.282 -106.302 61.9982 -105.721 61.8377 -105.253C61.899 -102.473 61.8748 -99.2732 62.1422 -96.5405C62.3212 -94.7105 65.7629 -93.0696 66.762 -92.4663C71.2348 -89.7647 76.0101 -88.4963 80.7083 -87.171C85.3423 -85.8636 89.9108 -83.9522 92.0759 -77.0406C93.8958 -71.6086 93.1691 -68.5353 93.5949 -63.0156C93.9108 -58.9109 94.6225 -54.8112 94.8907 -50.5133C95.0518 -47.8772 95.1766 -45.2361 95.2651 -42.5921C95.4462 -36.4975 95.3022 -37.2828 96.8618 -31.6218C97.5258 -29.1947 97.9793 -26.6499 98.2111 -24.0494C99.1054 -13.8773 98.0656 -2.57108 98.7987 7.76869C99.1189 12.2828 99.4555 17.1078 99.4677 21.5998C99.4684 22.007 98.6112 23.7373 98.4122 23.9684C97.632 24.8756 96.0517 29.5858 95.4819 30.2656C94.0684 31.9524 88.6784 36.2161 87.0653 35.2083C86.7743 34.6191 87.6059 31.1271 88.0173 30.7063C88.493 30.2206 89.3788 29.7763 89.935 29.4632C91.2665 26.1723 92.5145 24.0768 91.8741 20.1497C91.7578 19.4044 91.6073 18.6726 91.4248 17.958L91.3699 18.1363C91.086 19.0885 90.6553 21.0377 90.6175 22.0284C90.5112 24.8 90.5547 28.9232 87.8405 27.9597C86.5989 27.5196 87.1994 23.2523 87.1623 21.833C87.0931 19.1448 86.6652 16.555 86.9298 13.8811C87.322 10.6751 89.4907 8.7601 90.1703 5.72885C89.9635 3.86517 89.1805 1.21835 88.7148 -0.603958C86.2915 -10.0743 83.1822 -19.1203 81.9556 -29.1918C81.7267 -31.0705 81.6661 -33.0248 81.3922 -34.8927C80.6106 -39.8255 79.5409 -44.0357 78.9632 -49.0654C77.9948 -44.5778 76.1042 -35.8207 76.0757 -31.308C76.0436 -26.0115 78.1403 -17.1631 79.1957 -12.0029C79.543 -10.3082 80.1043 -8.40462 80.4273 -6.62653C82.0433 2.29106 82.9462 11.4654 83.1173 20.7032C83.2271 29.0096 82.4819 37.4742 80.7368 45.3676C79.5965 50.5286 77.8907 55.5633 77.5341 61.0145C77.1768 66.7582 78.1017 72.4199 79.1273 77.9075C79.7427 81.2019 80.3368 84.8138 80.299 88.2516C80.1499 101.667 76.2526 114.424 75.4952 127.716C75.4374 128.716 76.0757 130.541 76.3331 131.534C76.04 132.998 75.7469 133.882 76.2982 135.321C77.3451 138.057 79.8283 140.813 81.4742 142.77H80.98H62.9524H62.538C61.9276 139.821 63.1114 138.085 63.2326 135.345C63.2925 134.008 62.466 132.568 62.6179 131.27C62.8532 129.26 63.7882 127.879 63.7974 125.708C63.8096 122.957 63.4687 119.797 63.1913 117.066C62.7955 113.16 62.1115 109.112 61.4376 105.294C60.6532 100.844 59.7589 96.279 59.3595 91.7029C59.1163 88.922 59.2832 86.0362 59.4458 83.276C59.5699 81.1627 59.9486 77.7813 59.6654 75.7856C59.204 72.2943 57.5774 69.0313 57.1823 65.5257C56.5989 60.3412 57.0011 54.9856 56.3158 49.7682C55.9692 47.1328 55.587 44.7357 55.0528 42.1694C54.5493 39.7551 54.1507 37.2617 53.7599 34.8024C52.9141 29.6037 52.723 24.35 52.278 19.0621L50.2548 19.0699C49.9559 24.7422 49.3961 31.9402 48.459 37.4015C47.6824 41.9219 46.7732 45.5217 46.2169 50.2846C45.5537 55.9727 45.9894 61.2285 45.2313 66.7561C44.8099 69.8337 43.3572 73.2929 42.9407 76.3633C42.7203 77.9859 43.0869 81.7932 43.1889 83.5813C43.3608 86.4913 43.5348 89.6573 43.2452 92.5623C42.3488 101.569 40.0339 110.186 39.3015 119.247C39.0904 121.869 38.6226 125.143 39.1197 127.718C39.3521 128.919 40.0681 130.174 40.0653 131.524C40.0903 132.815 39.2901 134.428 39.437 135.621C39.8242 138.776 40.6779 139.321 40.1865 142.77H39.8371H21.613H21.1879C22.9465 140.102 26.4356 137.529 26.5989 133.254C26.6146 132.843 26.4057 131.745 26.3265 131.297C26.616 129.488 27.2065 128.705 27.0432 126.596C26.0912 114.315 22.9392 102.809 22.4246 90.4176C21.9951 80.0772 25.6968 71.171 25.0704 60.8919C24.7326 55.35 22.9813 50.3474 21.7589 45.1864C18.01 28.3683 19.1188 9.72653 22.1346 -7.14362C22.4705 -9.02299 23.0849 -10.8446 23.4546 -12.719C24.6379 -18.7208 26.2794 -24.9788 26.5034 -31.2538C26.5462 -35.3406 24.7467 -43.8353 23.8714 -48.0462L23.576 -49.4591C22.9413 -44.2589 22.1494 -39.6272 21.2081 -34.5383C20.8691 -32.7059 20.712 -30.1019 20.4616 -28.1598C20.0323 -24.9716 19.4594 -21.8305 18.747 -18.7586C16.8472 -10.7027 14.2383 -2.89774 12.442 5.20177C12.2818 7.41779 14.0763 9.34494 14.7913 11.0995C16.3141 14.8376 15.5858 17.7932 15.4345 21.8194C15.3487 24.1068 16.6696 28.7135 13.5391 28.0945C12.0764 27.8056 12.0395 23.5055 11.9038 21.9585C11.7896 20.7596 11.5762 19.6098 11.1257 18.4658L11.0592 18.3003C9.99785 22.5348 10.6239 24.4712 12.0444 28.2114C12.8059 30.2171 12.8573 29.8733 14.3157 30.5416C14.9024 30.8105 14.6993 32.0394 14.9281 32.4388C15.3645 33.1998 16.0972 33.9466 15.5232 35.0728C15.0372 35.4279 14.3421 35.358 13.8273 35.1127C11.9131 34.2005 9.72008 32.7619 8.00453 31.2434C6.8058 30.1828 6.01691 27.6629 5.19915 26.0289C4.46746 24.5668 3.63664 22.9977 3.00622 21.4628C2.9871 20.8359 3.01485 20.0142 3.0515 19.3759C3.38804 13.2007 3.77685 7.04904 3.94829 0.851746C4.24118 -9.73622 3.09964 -20.9982 5.56186 -31.154C6.04822 -33.1603 6.86841 -35.2215 7.11787 -37.3327C7.28746 -38.767 7.26449 -40.6243 7.31071 -42.105C7.38937 -44.8973 7.50511 -47.6875 7.65794 -50.4726C7.90512 -54.7856 8.44247 -58.6335 8.94396 -62.8765C9.19499 -65.0005 8.99252 -67.499 9.098 -69.6829C9.23 -72.396 9.74247 -75.0364 10.6017 -77.4322C13.9567 -86.832 20.8274 -86.3968 26.8279 -88.4679C29.8345 -89.5055 38.1676 -92.9239 40.2671 -95.7905C40.5923 -97.7565 40.6087 -102.894 40.6708 -105.131C39.4413 -107.488 39.196 -108.847 38.5092 -111.655C38.2354 -111.672 37.9622 -111.706 37.6905 -111.757C37.3125 -111.826 36.4618 -112.069 36.3213 -112.673C35.8805 -114.566 32.6643 -126.284 36.6087 -123.28Z" fill="#5E5E5E"/>
<path d="M21.2238 1.19922C26.5627 2.87318 29.2798 4.09993 34.306 7.60762C36.1388 8.89858 37.9267 10.3286 39.6625 11.8913C42.8388 14.7114 46.2834 18.5201 50.0245 18.8603C49.5111 24.3444 49.3863 29.3278 48.5775 34.7876C47.746 40.4036 46.4944 45.26 45.8583 50.9495C45.2757 56.1604 45.6601 60.8813 45.0739 65.9809C44.6467 69.5778 43.0564 72.89 42.667 76.4605C42.5215 77.7999 42.6392 80.5166 42.7747 81.8468C43.5834 89.7865 42.6556 96.5166 41.2122 104.131C40.2416 109.248 39.3195 114.945 38.9037 120.272C38.7689 122.167 38.5029 124.564 38.6356 126.462C38.7753 128.468 39.5676 129.728 39.7666 131.934C39.6083 132.561 39.2902 133.747 39.241 134.38C38.9807 137.739 40.4812 139.1 39.8372 142.77H21.6131C23.3746 140.582 26.634 137.121 26.8529 133.661C26.9064 132.822 26.7274 132.101 26.5677 131.298C26.8465 130.285 27.4227 128.348 27.3607 127.343C26.5641 114.384 22.8898 102.037 22.7307 88.9506C22.6141 79.3683 25.9872 70.7974 25.3981 61.1766C25.0462 55.042 23.324 50.5979 22.0494 45.1159C18.9813 31.9211 19.1862 14.7065 21.2238 1.19922Z" fill="white"/>
<path d="M38.8281 63.1172C40.0234 65.0843 37.7199 69.057 36.8984 70.4671L36.76 70.39C36.8114 70.0705 36.7657 70.2017 36.8934 69.9607C38.3325 67.2418 38.8766 66.5899 38.8281 63.1172Z" fill="#5E5E5E"/>
<path d="M29.3588 63.5625C29.542 63.8385 29.418 64.6345 29.4051 65.1494C29.363 66.8255 30.0277 68.4111 30.2331 69.9089C29.2775 69.068 28.9715 65.1174 29.3588 63.5625Z" fill="#5E5E5E"/>
<path d="M52.6089 18.872C57.7856 17.927 60.9384 13.042 65.5846 9.55715C71.5822 5.05735 74.8584 3.1466 81.3331 1.30859C83.3555 16.1118 83.6429 30.5419 80.5236 45.0513C79.317 50.4119 77.7245 55.2726 77.2553 60.9571C76.4309 70.961 80.2041 79.7951 79.9602 89.6242C79.7064 99.8434 77.1932 109.8 76.0108 119.813C75.7099 122.365 75.1486 124.945 75.1886 127.551C75.2121 128.994 75.7926 130.316 76.0443 131.631C75.9409 132.086 75.7127 133.012 75.7334 133.461C75.9288 137.617 79.2321 140.215 80.98 142.77H62.9524C62.1822 139.409 63.5978 137.991 63.4494 134.845C63.401 133.817 63.0651 132.721 62.8333 131.725L62.8668 131.531C63.1827 129.749 63.9223 127.964 64.0713 126.27C64.2289 124.474 63.9544 121.825 63.7896 119.994C63.4466 116.176 63.0123 112.512 62.3562 108.787C61.4476 103.626 60.3829 98.5368 59.8103 93.2574C59.408 89.5486 59.6006 86.2541 59.816 82.5739C59.9272 80.6752 60.2032 77.7831 59.9878 76.0185C59.5578 72.4866 57.9903 69.3405 57.5153 65.7287C57.0996 62.5705 57.1488 59.4608 57.0532 56.2548C56.9805 54.0195 56.8215 51.7913 56.5768 49.5832C56.0883 45.1511 54.9822 40.5779 54.2242 36.148C53.1837 30.0698 53.0532 24.9523 52.6089 18.872Z" fill="white"/>
<path d="M63.5941 63.2852C63.7931 63.6197 63.8302 65.8557 64.0769 66.5646C64.5704 67.9839 65.4825 69.4361 66.1722 70.6357C65.745 70.6044 65.044 69.4275 64.7901 68.9126C63.8437 66.9904 63.4059 65.7102 63.5941 63.2852Z" fill="#5E5E5E"/>
<path d="M73.392 63.7266C74.0445 65.0831 73.1873 68.4303 72.7544 69.8154L72.6317 69.6535C72.5904 69.1293 73.2515 66.5659 73.3249 65.7151C73.4005 64.8421 73.4055 64.6309 73.392 63.7266Z" fill="#5E5E5E"/>
<path d="M68.5733 -91.1797C70.4731 -90.2136 72.2503 -89.4641 74.1779 -88.6735C74.3812 -86.4293 74.5823 -83.7981 74.8675 -81.5843C75.5115 -76.5833 77.4491 -66.2393 79.5158 -62.4C77.7158 -56.724 79.2848 -54.712 78.6864 -49.8149C78.0025 -44.2217 76.3416 -38.973 75.8217 -33.2993C75.1699 -26.1847 78.6265 -13.8857 80.0764 -6.80759C80.5948 -4.27489 80.8815 -1.56104 81.288 1.02515C75.3147 1.95164 68.0491 6.95358 62.8988 11.3414C60.7857 13.1423 58.4166 15.8605 56.1424 17.1771C48.8091 21.423 44.5973 15.7135 38.6403 10.5312C36.3119 8.50485 33.3067 6.50138 30.8663 4.95937C27.7712 3.09498 24.5516 1.73626 21.2627 0.906052C21.623 -1.59098 22.0114 -4.66502 22.5026 -7.07718C24.0127 -14.492 27.3904 -26.1434 26.6958 -33.8427C26.3442 -39.2598 24.2968 -45.5526 23.7669 -50.7478C23.2518 -55.7982 24.7716 -56.5243 22.9545 -62.4042C24.9513 -65.6922 26.9019 -76.2809 27.4803 -80.7879C27.7655 -83.0051 28.0251 -86.1651 28.2134 -88.4722L28.1292 -88.4417C30.2323 -89.2975 31.9039 -90.0166 33.9435 -91.1147C33.9079 -90.4365 33.8922 -89.7561 33.8986 -89.0758C33.9243 -85.4369 35.1816 -82.1296 36.8731 -79.6154C40.6043 -74.2161 46.6369 -73.0464 51.6175 -73.0642C57.7769 -73.0863 65.5788 -75.4557 68.1233 -85.0081C68.6731 -87.072 68.6018 -89.0099 68.5733 -91.1797Z" fill="#91364A"/>
<path d="M74.5588 -88.5547C82.9833 -85.9375 92.0901 -85.9215 93.1107 -69.6397C93.2376 -67.6098 93.0122 -64.9017 93.2576 -63.0145C94.0634 -56.8036 94.7373 -50.7361 94.8607 -44.3855C94.9142 -38.3002 94.8928 -37.3337 96.4846 -31.7805C99.1161 -22.5955 97.9016 -10.8349 98.1626 -1.06218C98.2667 2.84349 98.445 6.80623 98.6547 10.7119C98.7937 14.2845 99.4612 18.5268 99.0326 22.0345C99.0975 21.675 95.2622 29.9371 95.3828 29.7332C94.4043 31.3986 90.8913 33.698 89.4415 34.5104C92.1579 31.6496 94.2153 30.584 95.5946 25.7754C95.877 24.7912 97.264 21.8904 97.2804 21.0124C96.5972 21.6686 94.5284 28.4443 93.4729 29.7909C92.8817 30.5441 92.7512 30.6846 92.0481 31.3715C91.3192 32.0768 90.6346 32.8471 89.9165 33.5682C89.3139 34.173 87.8205 35.9661 87.2728 34.6495C87.2229 33.3528 88.5971 32.288 89.2033 31.4599C90.4271 29.7895 91.2879 27.6113 91.9768 25.386C92.8867 22.4496 92.2342 19.7172 91.4925 16.9434C90.6517 19.6366 90.0912 21.5887 90.1925 24.6086C90.3251 28.5585 86.7515 29.2717 87.3734 24.6849C87.8041 21.5096 86.9776 18.0718 87.1794 14.8508C87.4397 10.7091 89.8102 9.28758 90.5298 5.45894C90.2574 3.96613 89.5378 1.42201 89.1484 -0.13855C87.7399 -5.77666 86.0077 -11.2878 84.5964 -16.9245C83.6258 -20.8616 82.8627 -24.9078 82.3157 -29.0245C82.064 -30.9795 81.9371 -32.9167 81.6518 -34.8774C81.1569 -38.2859 80.428 -41.6067 79.8732 -44.9768C79.4853 -47.3319 79.3091 -50.0635 79.1273 -52.475C78.9775 -54.4635 78.872 -56.136 78.9846 -58.1431C79.1893 -61.8098 81.0542 -64.2277 81.4157 -67.6961L81.4357 -67.8994C80.8773 -66.1591 80.289 -64.4409 79.6707 -62.747C76.898 -68.9579 75.0031 -81.0938 74.5588 -88.5547Z" fill="white"/>
<path d="M27.6536 -88.2773C27.7342 -88.2597 27.6764 -88.2809 27.797 -88.1159C27.429 -80.6633 25.5506 -69.0156 22.8245 -62.7248C22.3333 -64.239 21.618 -66.4001 20.9891 -67.7774C21.0398 -67.5349 21.0923 -67.296 21.1459 -67.0556C21.6748 -64.3703 23.3513 -61.3212 23.4794 -58.4782C23.6881 -53.8451 23.1012 -48.2234 22.4953 -43.6729C22.109 -40.7715 21.3677 -37.9799 20.9617 -35.0956C20.5822 -32.3995 20.3792 -29.8112 19.9758 -27.1352C18.6615 -17.5757 15.717 -8.84851 13.3057 0.143234C12.9023 1.64745 12.3957 3.49828 12.1396 5.10948C11.8141 7.15646 13.7549 9.39032 14.371 11.0479C16.0216 14.9664 15.248 17.3272 15.171 21.5816C15.1725 23.2791 15.3555 25.0908 15.2074 26.7683C15.1329 27.6135 14.0348 28.0956 13.5858 27.7968C12.0602 26.7833 12.5687 23.262 12.2724 21.312C12.0345 19.7465 11.5236 18.3093 10.989 16.9706C10.2296 20.1366 9.692 22.7271 10.8066 25.9302C11.502 27.9287 12.0832 29.5228 13.1633 31.1183C13.7708 32.0156 15.4124 33.3129 15.3975 34.5689C14.6419 36.2636 12.2851 33.196 11.4763 32.3572C8.55667 29.48 8.57535 29.0471 6.69777 24.4467C6.38256 23.6743 5.95211 22.496 5.58426 21.7856L5.54048 21.9532C5.76783 23.0894 8.39714 29.5913 9.10829 30.4215C9.90245 31.3487 11.9323 33.2637 12.8693 34.3307C11.4478 33.539 9.71211 32.3016 8.36932 31.1968C7.08644 30.1412 6.01037 26.6235 5.03022 24.931C3.88562 22.9539 3.15742 21.9347 3.35504 19.1759C3.73557 13.863 3.96828 8.48309 4.25382 3.1538C4.72428 -8.20161 3.28515 -20.1198 5.89548 -31.0765C6.39383 -33.1677 7.1815 -35.1904 7.44187 -37.405C7.61966 -39.0932 7.62023 -41.1124 7.67236 -42.8306C7.75395 -45.8961 7.88303 -48.958 8.05946 -52.0135C8.29109 -55.7409 9.07463 -59.6651 9.2619 -63.0786C9.61098 -69.4428 8.97593 -73.469 11.7041 -79.2163C14.2651 -84.6114 18.2993 -85.7768 22.4015 -86.8927L27.6536 -88.2773Z" fill="white"/>
<path d="M89.343 30.3828L89.3958 30.5119C89.1305 31.0212 88.473 31.7807 88.1114 32.2279C87.9609 31.9919 88.0258 32.096 87.9602 31.7144C88.182 30.9662 88.8174 30.7145 89.343 30.3828Z" fill="#EDEDED"/>
<path d="M13.1523 30.4648C13.946 30.7016 14.5474 30.8685 14.5732 32.2059C14.2365 32.0126 13.4611 30.8828 13.1523 30.4648Z" fill="#EDEDED"/>
<path d="M79.5 4L71.5 4" stroke="#75041D"/>
<path d="M75.5 132L75.5 6" stroke="#75041D" stroke-dasharray="3 3"/>
<path d="M79.5 134L71.5 134" stroke="#75041D"/>
</g>
<defs>
<clipPath id="clip0_1160_40732">
<rect width="99" height="137" fill="white"/>
</clipPath>
</defs>
</svg>
