<svg width="99" height="137" viewBox="0 0 99 137" fill="none" xmlns="http://www.w3.org/2000/svg">
<g clip-path="url(#clip0_1160_41503)">
<path d="M34.6087 -59.2796C34.9189 -59.9037 34.7734 -61.11 34.742 -61.866C34.6272 -64.6592 33.9533 -71.1902 35.1371 -73.3592C35.6135 -74.2318 36.5356 -74.8488 37.2209 -75.2764C39.028 -76.4045 41.017 -77.0243 42.9511 -77.4484C47.8568 -78.5241 59.0097 -78.3638 62.8893 -73.8614C63.6088 -73.0269 63.8713 -72.158 63.9611 -70.8184C64.0845 -68.9746 63.5539 -60.8679 63.7907 -60.1211C64.8069 -58.8296 66.8337 -61.5137 65.2248 -53.8681C64.5181 -50.5087 64.8775 -47.9876 62.0228 -47.4081C61.6256 -45.7026 61.3218 -44.1131 60.486 -42.7481C60.282 -42.3017 59.9982 -41.7205 59.8377 -41.2534C59.899 -38.4726 59.8748 -35.2732 60.1422 -32.5405C60.3212 -30.7105 63.7629 -29.0696 64.762 -28.4663C69.2348 -25.7647 74.0101 -24.4963 78.7083 -23.171C83.3423 -21.8636 87.9108 -19.9522 90.0759 -13.0406C91.8958 -7.60863 91.1691 -4.5353 91.5949 0.984421C91.9108 5.08909 92.6225 9.18877 92.8907 13.4867C93.0518 16.1228 93.1766 18.7639 93.2651 21.4079C93.4462 27.5025 93.3022 26.7172 94.8618 32.3782C95.5258 34.8053 95.9793 37.3501 96.2111 39.9506C97.1054 50.1227 96.0656 61.4289 96.7987 71.7687C97.1189 76.2828 97.4555 81.1078 97.4677 85.5998C97.4684 86.007 96.6112 87.7373 96.4122 87.9684C95.632 88.8756 94.0517 93.5858 93.4819 94.2656C92.0684 95.9524 86.6784 100.216 85.0653 99.2083C84.7743 98.6191 85.6059 95.1271 86.0173 94.7063C86.493 94.2206 87.3788 93.7763 87.935 93.4632C89.2665 90.1723 90.5145 88.0768 89.8741 84.1497C89.7578 83.4044 89.6073 82.6726 89.4248 81.958L89.3699 82.1363C89.086 83.0885 88.6553 85.0377 88.6175 86.0284C88.5112 88.8 88.5547 92.9232 85.8405 91.9597C84.5989 91.5196 85.1994 87.2523 85.1623 85.833C85.0931 83.1448 84.6652 80.555 84.9298 77.8811C85.322 74.6751 87.4907 72.7601 88.1703 69.7289C87.9635 67.8652 87.1805 65.2184 86.7148 63.396C84.2915 53.9257 81.1822 44.8797 79.9556 34.8082C79.7267 32.9295 79.6661 30.9752 79.3922 29.1073C78.6106 24.1745 77.5409 19.9643 76.9632 14.9346C75.9948 19.4222 74.1042 28.1793 74.0757 32.692C74.0436 37.9885 76.1403 46.8369 77.1957 51.9971C77.543 53.6918 78.1043 55.5954 78.4273 57.3735C80.0433 66.2911 80.9462 75.4654 81.1173 84.7032C81.2271 93.0096 80.4819 101.474 78.7368 109.368C77.5965 114.529 75.8907 119.563 75.5341 125.015C75.1768 130.758 76.1017 136.42 77.1273 141.908C77.7427 145.202 78.3368 148.814 78.299 152.252C78.1499 165.667 74.2526 178.424 73.4952 191.716C73.4374 192.716 74.0757 194.541 74.3331 195.534C74.04 196.998 73.7469 197.882 74.2982 199.321C75.3451 202.057 77.8283 204.813 79.4742 206.77H78.98H60.9524H60.538C59.9276 203.821 61.1114 202.085 61.2326 199.345C61.2925 198.008 60.466 196.568 60.6179 195.27C60.8532 193.26 61.7882 191.879 61.7974 189.708C61.8096 186.957 61.4687 183.797 61.1913 181.066C60.7955 177.16 60.1115 173.112 59.4376 169.294C58.6532 164.844 57.7589 160.279 57.3595 155.703C57.1163 152.922 57.2832 150.036 57.4458 147.276C57.5699 145.163 57.9486 141.781 57.6654 139.786C57.204 136.294 55.5774 133.031 55.1823 129.526C54.5989 124.341 55.0011 118.986 54.3158 113.768C53.9692 111.133 53.587 108.736 53.0528 106.169C52.5493 103.755 52.1507 101.262 51.7599 98.8024C50.9141 93.6037 50.723 88.35 50.278 83.0621L48.2548 83.0699C47.9559 88.7422 47.3961 95.9402 46.459 101.401C45.6824 105.922 44.7732 109.522 44.2169 114.285C43.5537 119.973 43.9894 125.229 43.2313 130.756C42.8099 133.834 41.3572 137.293 40.9407 140.363C40.7203 141.986 41.0869 145.793 41.1889 147.581C41.3608 150.491 41.5348 153.657 41.2452 156.562C40.3488 165.569 38.0339 174.186 37.3015 183.247C37.0904 185.869 36.6226 189.143 37.1197 191.718C37.3521 192.919 38.0681 194.174 38.0653 195.524C38.0903 196.815 37.2901 198.428 37.437 199.621C37.8242 202.776 38.6779 203.321 38.1865 206.77H37.8371H19.613H19.1879C20.9465 204.102 24.4356 201.529 24.5989 197.254C24.6146 196.843 24.4057 195.745 24.3265 195.297C24.616 193.488 25.2065 192.705 25.0432 190.596C24.0912 178.315 20.9392 166.809 20.4246 154.418C19.9951 144.077 23.6968 135.171 23.0704 124.892C22.7326 119.35 20.9813 114.347 19.7589 109.186C16.01 92.3683 17.1188 73.7265 20.1346 56.8564C20.4705 54.977 21.0849 53.1554 21.4546 51.281C22.6379 45.2792 24.2794 39.0212 24.5034 32.7462C24.5462 28.6594 22.7467 20.1647 21.8714 15.9538L21.576 14.5409C20.9413 19.7411 20.1494 24.3728 19.2081 29.4617C18.8691 31.2941 18.712 33.8981 18.4616 35.8402C18.0323 39.0284 17.4594 42.1695 16.747 45.2414C14.8472 53.2973 12.2383 61.1023 10.442 69.2018C10.2818 71.4178 12.0763 73.3449 12.7913 75.0995C14.3141 78.8376 13.5858 81.7932 13.4345 85.8194C13.3487 88.1068 14.6696 92.7135 11.5391 92.0945C10.0764 91.8056 10.0395 87.5055 9.90381 85.9585C9.78956 84.7596 9.57619 83.6098 9.12569 82.4658L9.05915 82.3003C7.99785 86.5348 8.62392 88.4712 10.0444 92.2114C10.8059 94.2171 10.8573 93.8733 12.3157 94.5416C12.9024 94.8105 12.6993 96.0394 12.9281 96.4388C13.3645 97.1998 14.0972 97.9466 13.5232 99.0728C13.0372 99.4279 12.3421 99.358 11.8273 99.1127C9.91308 98.2005 7.72008 96.7619 6.00453 95.2434C4.8058 94.1828 4.01691 91.6629 3.19915 90.0289C2.46746 88.5668 1.63664 86.9977 1.00622 85.4628C0.987105 84.8359 1.01485 84.0142 1.0515 83.3759C1.38804 77.2007 1.77685 71.049 1.94829 64.8517C2.24118 54.2638 1.09964 43.0018 3.56186 32.846C4.04822 30.8397 4.86841 28.7785 5.11787 26.6673C5.28746 25.233 5.26449 23.3757 5.31071 21.895C5.38937 19.1027 5.50511 16.3125 5.65794 13.5274C5.90512 9.21444 6.44247 5.36653 6.94396 1.1235C7.19499 -1.00052 6.99252 -3.49897 7.098 -5.6829C7.23 -8.39604 7.74247 -11.0364 8.60174 -13.4322C11.9567 -22.832 18.8274 -22.3968 24.8279 -24.4679C27.8345 -25.5055 36.1676 -28.9239 38.2671 -31.7905C38.5923 -33.7565 38.6087 -38.8942 38.6708 -41.1311C37.4413 -43.4882 37.196 -44.8471 36.5092 -47.6551C36.2354 -47.6719 35.9622 -47.7061 35.6905 -47.7573C35.3125 -47.8263 34.4618 -48.0685 34.3213 -48.6733C33.8805 -50.5658 30.6643 -62.2839 34.6087 -59.2796Z" fill="#5E5E5E"/>
<path d="M19.2238 65.1992C24.5627 66.8732 27.2798 68.0999 32.306 71.6076C34.1388 72.8986 35.9267 74.3286 37.6625 75.8913C40.8388 78.7114 44.2834 82.5201 48.0245 82.8603C47.5111 88.3444 47.3863 93.3278 46.5775 98.7876C45.746 104.404 44.4944 109.26 43.8583 114.949C43.2757 120.16 43.6601 124.881 43.0739 129.981C42.6467 133.578 41.0564 136.89 40.667 140.46C40.5215 141.8 40.6392 144.517 40.7747 145.847C41.5834 153.787 40.6556 160.517 39.2122 168.131C38.2416 173.248 37.3195 178.945 36.9037 184.272C36.7689 186.167 36.5029 188.564 36.6356 190.462C36.7753 192.468 37.5676 193.728 37.7666 195.934C37.6083 196.561 37.2902 197.747 37.241 198.38C36.9807 201.739 38.4812 203.1 37.8372 206.77H19.6131C21.3746 204.582 24.634 201.121 24.8529 197.661C24.9064 196.822 24.7274 196.101 24.5677 195.298C24.8465 194.285 25.4227 192.348 25.3607 191.343C24.5641 178.384 20.8898 166.037 20.7307 152.951C20.6141 143.368 23.9872 134.797 23.3981 125.177C23.0462 119.042 21.324 114.598 20.0494 109.116C16.9813 95.9211 17.1862 78.7065 19.2238 65.1992Z" fill="white"/>
<path d="M36.8279 127.117C38.0231 129.084 35.7197 133.057 34.8981 134.467L34.7598 134.39C34.8111 134.071 34.7655 134.202 34.8931 133.961C36.3323 131.242 36.8764 130.59 36.8279 127.117Z" fill="#5E5E5E"/>
<path d="M27.359 127.562C27.5423 127.839 27.4182 128.634 27.4054 129.149C27.3633 130.826 28.0279 132.411 28.2333 133.909C27.2777 133.068 26.9718 129.117 27.359 127.562Z" fill="#5E5E5E"/>
<path d="M50.6089 82.872C55.7856 81.927 58.9384 77.042 63.5846 73.5571C69.5822 69.0573 72.8584 67.1466 79.3331 65.3086C81.3555 80.1118 81.6429 94.5419 78.5236 109.051C77.317 114.412 75.7245 119.273 75.2553 124.957C74.4309 134.961 78.2041 143.795 77.9602 153.624C77.7064 163.843 75.1932 173.8 74.0108 183.813C73.7099 186.365 73.1486 188.945 73.1886 191.551C73.2121 192.994 73.7926 194.316 74.0443 195.631C73.9409 196.086 73.7127 197.012 73.7334 197.461C73.9288 201.617 77.2321 204.215 78.98 206.77H60.9524C60.1822 203.409 61.5978 201.991 61.4494 198.845C61.401 197.817 61.0651 196.721 60.8333 195.725L60.8668 195.531C61.1827 193.749 61.9223 191.964 62.0713 190.27C62.2289 188.474 61.9544 185.825 61.7896 183.994C61.4466 180.176 61.0123 176.512 60.3562 172.787C59.4476 167.626 58.3829 162.537 57.8103 157.257C57.408 153.549 57.6006 150.254 57.816 146.574C57.9272 144.675 58.2032 141.783 57.9878 140.019C57.5578 136.487 55.9903 133.34 55.5153 129.729C55.0996 126.57 55.1488 123.461 55.0532 120.255C54.9805 118.019 54.8215 115.791 54.5768 113.583C54.0883 109.151 52.9822 104.578 52.2242 100.148C51.1837 94.0698 51.0532 88.9523 50.6089 82.872Z" fill="white"/>
<path d="M61.5941 127.285C61.7931 127.62 61.8302 129.856 62.0769 130.565C62.5704 131.984 63.4825 133.436 64.1722 134.636C63.745 134.604 63.044 133.428 62.7901 132.913C61.8437 130.99 61.4059 129.71 61.5941 127.285Z" fill="#5E5E5E"/>
<path d="M71.392 127.727C72.0445 129.083 71.1873 132.43 70.7544 133.815L70.6317 133.654C70.5904 133.129 71.2515 130.566 71.3249 129.715C71.4005 128.842 71.4055 128.631 71.392 127.727Z" fill="#5E5E5E"/>
<path d="M66.5733 -27.1797C68.4731 -26.2136 70.2503 -25.4641 72.1779 -24.6735C72.3812 -22.4293 72.5823 -19.7981 72.8675 -17.5843C73.5115 -12.5833 75.4491 -2.23929 77.5158 1.60005C75.7158 7.27597 77.2848 9.288 76.6864 14.1851C76.0025 19.7783 74.3416 25.027 73.8217 30.7007C73.1699 37.8153 76.6265 50.1143 78.0764 57.1924C78.5948 59.7251 78.8815 62.439 79.288 65.0252C73.3147 65.9516 66.0491 70.9536 60.8988 75.3414C58.7857 77.1423 56.4166 79.8605 54.1424 81.1771C46.8091 85.423 42.5973 79.7135 36.6403 74.5312C34.3119 72.5049 31.3067 70.5014 28.8663 68.9594C25.7712 67.095 22.5516 65.7363 19.2627 64.9061C19.623 62.409 20.0114 59.335 20.5026 56.9228C22.0127 49.508 25.3904 37.8566 24.6958 30.1573C24.3442 24.7402 22.2968 18.4474 21.7669 13.2522C21.2518 8.20175 22.7716 7.47567 20.9545 1.59577C22.9513 -1.69225 24.9019 -12.2809 25.4803 -16.7879C25.7655 -19.0051 26.0251 -22.1651 26.2134 -24.4722L26.1292 -24.4417C28.2323 -25.2975 29.9039 -26.0166 31.9435 -27.1147C31.9079 -26.4365 31.8922 -25.7561 31.8986 -25.0758C31.9243 -21.4369 33.1816 -18.1296 34.8731 -15.6154C38.6043 -10.2161 44.6369 -9.04641 49.6175 -9.06424C55.7769 -9.08635 63.5788 -11.4557 66.1233 -21.0081C66.6731 -23.072 66.6018 -25.0099 66.5733 -27.1797Z" fill="#91364A"/>
<path d="M72.5586 -24.5547C80.983 -21.9375 90.0899 -21.9215 91.1104 -5.6397C91.2374 -3.60983 91.012 -0.901686 91.2573 0.985535C92.0632 7.19638 92.7371 13.2639 92.8605 19.6145C92.914 25.6998 92.8926 26.6663 94.4843 32.2195C97.1158 41.4045 95.9013 53.1651 96.1624 62.9378C96.2665 66.8435 96.4448 70.8062 96.6544 74.7119C96.7935 78.2845 97.461 82.5268 97.0324 86.0345C97.0973 85.675 93.262 93.9371 93.3825 93.7332C92.4041 95.3986 88.8911 97.698 87.4413 98.5104C90.1576 95.6496 92.2151 94.584 93.5943 89.7754C93.8767 88.7912 95.2638 85.8904 95.2802 85.0124C94.597 85.6686 92.5282 92.4443 91.4727 93.7909C90.8815 94.5441 90.751 94.6846 90.0478 95.3715C89.319 96.0768 88.6344 96.8471 87.9162 97.5682C87.3136 98.173 85.8203 99.9661 85.2726 98.6495C85.2227 97.3528 86.5969 96.288 87.2031 95.4599C88.4268 93.7895 89.2876 91.6113 89.9765 89.386C90.8865 86.4496 90.234 83.7172 89.4923 80.9434C88.6515 83.6366 88.091 85.5887 88.1922 88.6086C88.3249 92.5585 84.7513 93.2717 85.3731 88.6849C85.8039 85.5096 84.9773 82.0718 85.1792 78.8508C85.4395 74.7091 87.81 73.2876 88.5295 69.4589C88.2571 67.9661 87.5375 65.422 87.1482 63.8615C85.7397 58.2233 84.0075 52.7122 82.5961 47.0755C81.6256 43.1384 80.8625 39.0922 80.3155 34.9755C80.0638 33.0205 79.9368 31.0833 79.6516 29.1226C79.1566 25.7141 78.4278 22.3933 77.873 19.0232C77.485 16.6681 77.3089 13.9365 77.127 11.525C76.9773 9.53651 76.8717 7.86397 76.9844 5.85693C77.1891 2.19019 79.0539 -0.227671 79.4155 -3.69613L79.4355 -3.89941C78.8771 -2.15912 78.2887 -0.440935 77.6704 1.253C74.8977 -4.95785 73.0029 -17.0938 72.5586 -24.5547Z" fill="white"/>
<path d="M88.2664 31.3555L88.3242 31.4411L88.24 31.6408C87.4506 32.1308 86.2347 32.3034 85.3632 32.461L85.2969 32.2941C85.5272 32.1293 87.8029 31.5167 88.2664 31.3555Z" fill="#5E5E5E"/>
<path d="M25.6536 -24.2773C25.7342 -24.2597 25.6764 -24.2809 25.797 -24.1159C25.429 -16.6633 23.5506 -5.01558 20.8245 1.27515C20.3333 -0.239048 19.618 -2.40015 18.9891 -3.7774C19.0398 -3.5349 19.0923 -3.29597 19.1459 -3.05561C19.6748 -0.370281 21.3513 2.6788 21.4794 5.52175C21.6881 10.1549 21.1012 15.7766 20.4953 20.3271C20.109 23.2285 19.3677 26.0201 18.9617 28.9044C18.5822 31.6005 18.3792 34.1888 17.9758 36.8648C16.6615 46.4243 13.717 55.1515 11.3057 64.1432C10.9023 65.6475 10.3957 67.4983 10.1396 69.1095C9.81411 71.1565 11.7549 73.3903 12.371 75.0479C14.0216 78.9664 13.248 81.3272 13.171 85.5816C13.1725 87.2791 13.3555 89.0908 13.2074 90.7683C13.1329 91.6135 12.0348 92.0956 11.5858 91.7968C10.0602 90.7833 10.5687 87.262 10.2724 85.312C10.0345 83.7465 9.52358 82.3093 8.989 80.9706C8.22957 84.1366 7.692 86.7271 8.80657 89.9302C9.50204 91.9287 10.0832 93.5228 11.1633 95.1183C11.7708 96.0156 13.4124 97.3129 13.3975 98.5689C12.6419 100.264 10.2851 97.196 9.4763 96.3572C6.55667 93.48 6.57535 93.0471 4.69777 88.4467C4.38256 87.6743 3.95211 86.496 3.58426 85.7856L3.54048 85.9532C3.76783 87.0894 6.39714 93.5913 7.10829 94.4215C7.90245 95.3487 9.93228 97.2637 10.8693 98.3307C9.44784 97.539 7.71211 96.3016 6.36932 95.1968C5.08644 94.1412 4.01037 90.6235 3.03022 88.931C1.88562 86.9539 1.15742 85.9347 1.35504 83.1759C1.73557 77.863 1.96828 72.4831 2.25382 67.1538C2.72428 55.7984 1.28515 43.8802 3.89548 32.9235C4.39383 30.8323 5.1815 28.8096 5.44187 26.595C5.61966 24.9068 5.62023 22.8876 5.67236 21.1694C5.75395 18.1039 5.88303 15.042 6.05946 11.9865C6.29109 8.25915 7.07463 4.33493 7.2619 0.921389C7.61098 -5.44281 6.97593 -9.46902 9.70407 -15.2163C12.2651 -20.6114 16.2993 -21.7768 20.4015 -22.8927L25.6536 -24.2773Z" fill="white"/>
<path d="M10.0181 31.4893C10.3866 31.3944 13.1291 32.0919 13.5327 32.3958C12.7504 32.5334 10.7221 32.0812 10.0181 31.4893Z" fill="#5E5E5E"/>
<path d="M87.3432 94.3828L87.396 94.5119C87.1307 95.0212 86.4732 95.7807 86.1116 96.2279C85.9612 95.9919 86.0261 96.096 85.9604 95.7144C86.1822 94.9662 86.8177 94.7145 87.3432 94.3828Z" fill="#EDEDED"/>
<path d="M11.1523 94.4648C11.946 94.7016 12.5474 94.8685 12.5732 96.2059C12.2365 96.0126 11.4611 94.8828 11.1523 94.4648Z" fill="#EDEDED"/>
<path d="M80.5 55L72.5 55" stroke="#75041D"/>
<path d="M76.5 73L76.5 57" stroke="#75041D" stroke-dasharray="3 3"/>
<path d="M80.5 75L72.5 75" stroke="#75041D"/>
</g>
<defs>
<clipPath id="clip0_1160_41503">
<rect width="99" height="137" fill="white"/>
</clipPath>
</defs>
</svg>
