<svg width="99" height="137" viewBox="0 0 99 137" fill="none" xmlns="http://www.w3.org/2000/svg">
<g clip-path="url(#clip0_1160_41760)">
<path d="M33.6087 -123.28C33.9189 -123.904 33.7734 -125.11 33.742 -125.866C33.6272 -128.659 32.9533 -135.19 34.1371 -137.359C34.6135 -138.232 35.5356 -138.849 36.2209 -139.276C38.028 -140.404 40.017 -141.024 41.9511 -141.448C46.8568 -142.524 58.0097 -142.364 61.8893 -137.861C62.6088 -137.027 62.8713 -136.158 62.9611 -134.818C63.0845 -132.975 62.5539 -124.868 62.7907 -124.121C63.8069 -122.83 65.8337 -125.514 64.2248 -117.868C63.5181 -114.509 63.8775 -111.988 61.0228 -111.408C60.6256 -109.703 60.3218 -108.113 59.486 -106.748C59.282 -106.302 58.9982 -105.721 58.8377 -105.253C58.899 -102.473 58.8748 -99.2732 59.1422 -96.5405C59.3212 -94.7105 62.7629 -93.0696 63.762 -92.4663C68.2348 -89.7647 73.0101 -88.4963 77.7083 -87.171C82.3423 -85.8636 86.9108 -83.9522 89.0759 -77.0406C90.8958 -71.6086 90.1691 -68.5353 90.5949 -63.0156C90.9108 -58.9109 91.6225 -54.8112 91.8907 -50.5133C92.0518 -47.8772 92.1766 -45.2361 92.2651 -42.5921C92.4462 -36.4975 92.3022 -37.2828 93.8618 -31.6218C94.5258 -29.1947 94.9793 -26.6499 95.2111 -24.0494C96.1054 -13.8773 95.0656 -2.57108 95.7987 7.76869C96.1189 12.2828 96.4555 17.1078 96.4677 21.5998C96.4684 22.007 95.6112 23.7373 95.4122 23.9684C94.632 24.8756 93.0517 29.5858 92.4819 30.2656C91.0684 31.9524 85.6784 36.2161 84.0653 35.2083C83.7743 34.6191 84.6059 31.1271 85.0173 30.7063C85.493 30.2206 86.3788 29.7763 86.935 29.4632C88.2665 26.1723 89.5145 24.0768 88.8741 20.1497C88.7578 19.4044 88.6073 18.6726 88.4248 17.958L88.3699 18.1363C88.086 19.0885 87.6553 21.0377 87.6175 22.0284C87.5112 24.8 87.5547 28.9232 84.8405 27.9597C83.5989 27.5196 84.1994 23.2523 84.1623 21.833C84.0931 19.1448 83.6652 16.555 83.9298 13.8811C84.322 10.6751 86.4907 8.7601 87.1703 5.72885C86.9635 3.86517 86.1805 1.21835 85.7148 -0.603958C83.2915 -10.0743 80.1822 -19.1203 78.9556 -29.1918C78.7267 -31.0705 78.6661 -33.0248 78.3922 -34.8927C77.6106 -39.8255 76.5409 -44.0357 75.9632 -49.0654C74.9948 -44.5778 73.1042 -35.8207 73.0757 -31.308C73.0436 -26.0115 75.1403 -17.1631 76.1957 -12.0029C76.543 -10.3082 77.1043 -8.40462 77.4273 -6.62653C79.0433 2.29106 79.9462 11.4654 80.1173 20.7032C80.2271 29.0096 79.4819 37.4742 77.7368 45.3676C76.5965 50.5286 74.8907 55.5633 74.5341 61.0145C74.1768 66.7582 75.1017 72.4199 76.1273 77.9075C76.7427 81.2019 77.3368 84.8138 77.299 88.2516C77.1499 101.667 73.2526 114.424 72.4952 127.716C72.4374 128.716 73.0757 130.541 73.3331 131.534C73.04 132.998 72.7469 133.882 73.2982 135.321C74.3451 138.057 76.8283 140.813 78.4742 142.77H77.98H59.9524H59.538C58.9276 139.821 60.1114 138.085 60.2326 135.345C60.2925 134.008 59.466 132.568 59.6179 131.27C59.8532 129.26 60.7882 127.879 60.7974 125.708C60.8096 122.957 60.4687 119.797 60.1913 117.066C59.7955 113.16 59.1115 109.112 58.4376 105.294C57.6532 100.844 56.7589 96.279 56.3595 91.7029C56.1163 88.922 56.2832 86.0362 56.4458 83.276C56.5699 81.1627 56.9486 77.7813 56.6654 75.7856C56.204 72.2943 54.5774 69.0313 54.1823 65.5257C53.5989 60.3412 54.0011 54.9856 53.3158 49.7682C52.9692 47.1328 52.587 44.7357 52.0528 42.1694C51.5493 39.7551 51.1507 37.2617 50.7599 34.8024C49.9141 29.6037 49.723 24.35 49.278 19.0621L47.2548 19.0699C46.9559 24.7422 46.3961 31.9402 45.459 37.4015C44.6824 41.9219 43.7732 45.5217 43.2169 50.2846C42.5537 55.9727 42.9894 61.2285 42.2313 66.7561C41.8099 69.8337 40.3572 73.2929 39.9407 76.3633C39.7203 77.9859 40.0869 81.7932 40.1889 83.5813C40.3608 86.4913 40.5348 89.6573 40.2452 92.5623C39.3488 101.569 37.0339 110.186 36.3015 119.247C36.0904 121.869 35.6226 125.143 36.1197 127.718C36.3521 128.919 37.0681 130.174 37.0653 131.524C37.0903 132.815 36.2901 134.428 36.437 135.621C36.8242 138.776 37.6779 139.321 37.1865 142.77H36.8371H18.613H18.1879C19.9465 140.102 23.4356 137.529 23.5989 133.254C23.6146 132.843 23.4057 131.745 23.3265 131.297C23.616 129.488 24.2065 128.705 24.0432 126.596C23.0912 114.315 19.9392 102.809 19.4246 90.4176C18.9951 80.0772 22.6968 71.171 22.0704 60.8919C21.7326 55.35 19.9813 50.3474 18.7589 45.1864C15.01 28.3683 16.1188 9.72653 19.1346 -7.14362C19.4705 -9.02299 20.0849 -10.8446 20.4546 -12.719C21.6379 -18.7208 23.2794 -24.9788 23.5034 -31.2538C23.5462 -35.3406 21.7467 -43.8353 20.8714 -48.0462L20.576 -49.4591C19.9413 -44.2589 19.1494 -39.6272 18.2081 -34.5383C17.8691 -32.7059 17.712 -30.1019 17.4616 -28.1598C17.0323 -24.9716 16.4594 -21.8305 15.747 -18.7586C13.8472 -10.7027 11.2383 -2.89774 9.44202 5.20177C9.28185 7.41779 11.0763 9.34494 11.7913 11.0995C13.3141 14.8376 12.5858 17.7932 12.4345 21.8194C12.3487 24.1068 13.6696 28.7135 10.5391 28.0945C9.07639 27.8056 9.03952 23.5055 8.90381 21.9585C8.78956 20.7596 8.57619 19.6098 8.12569 18.4658L8.05915 18.3003C6.99785 22.5348 7.62392 24.4712 9.04437 28.2114C9.80594 30.2171 9.85728 29.8733 11.3157 30.5416C11.9024 30.8105 11.6993 32.0394 11.9281 32.4388C12.3645 33.1998 13.0972 33.9466 12.5232 35.0728C12.0372 35.4279 11.3421 35.358 10.8273 35.1127C8.91308 34.2005 6.72008 32.7619 5.00453 31.2434C3.8058 30.1828 3.01691 27.6629 2.19915 26.0289C1.46746 24.5668 0.63664 22.9977 0.00621704 21.4628C-0.0128953 20.8359 0.0148468 20.0142 0.0515026 19.3759C0.388037 13.2007 0.776846 7.04904 0.948287 0.851746C1.24118 -9.73622 0.0996436 -20.9982 2.56186 -31.154C3.04822 -33.1603 3.86841 -35.2215 4.11787 -37.3327C4.28746 -38.767 4.26449 -40.6243 4.31071 -42.105C4.38937 -44.8973 4.50511 -47.6875 4.65794 -50.4726C4.90512 -54.7856 5.44247 -58.6335 5.94396 -62.8765C6.19499 -65.0005 5.99252 -67.499 6.098 -69.6829C6.23 -72.396 6.74247 -75.0364 7.60174 -77.4322C10.9567 -86.832 17.8274 -86.3968 23.8279 -88.4679C26.8345 -89.5055 35.1676 -92.9239 37.2671 -95.7905C37.5923 -97.7565 37.6087 -102.894 37.6708 -105.131C36.4413 -107.488 36.196 -108.847 35.5092 -111.655C35.2354 -111.672 34.9622 -111.706 34.6905 -111.757C34.3125 -111.826 33.4618 -112.069 33.3213 -112.673C32.8805 -114.566 29.6643 -126.284 33.6087 -123.28Z" fill="#5E5E5E"/>
<path d="M18.2238 1.19922C23.5627 2.87318 26.2798 4.09993 31.306 7.60762C33.1388 8.89858 34.9267 10.3286 36.6625 11.8913C39.8388 14.7114 43.2834 18.5201 47.0245 18.8603C46.5111 24.3444 46.3863 29.3278 45.5775 34.7876C44.746 40.4036 43.4944 45.26 42.8583 50.9495C42.2757 56.1604 42.6601 60.8813 42.0739 65.9809C41.6467 69.5778 40.0564 72.89 39.667 76.4605C39.5215 77.7999 39.6392 80.5166 39.7747 81.8468C40.5834 89.7865 39.6556 96.5166 38.2122 104.131C37.2416 109.248 36.3195 114.945 35.9037 120.272C35.7689 122.167 35.5029 124.564 35.6356 126.462C35.7753 128.468 36.5676 129.728 36.7666 131.934C36.6083 132.561 36.2902 133.747 36.241 134.38C35.9807 137.739 37.4812 139.1 36.8372 142.77H18.6131C20.3746 140.582 23.634 137.121 23.8529 133.661C23.9064 132.822 23.7274 132.101 23.5677 131.298C23.8465 130.285 24.4227 128.348 24.3607 127.343C23.5641 114.384 19.8898 102.037 19.7307 88.9506C19.6141 79.3683 22.9872 70.7974 22.3981 61.1766C22.0462 55.042 20.324 50.5979 19.0494 45.1159C15.9813 31.9211 16.1862 14.7065 18.2238 1.19922Z" fill="white"/>
<path d="M35.8279 63.1172C37.0231 65.0843 34.7197 69.057 33.8981 70.4671L33.7598 70.39C33.8111 70.0705 33.7655 70.2017 33.8931 69.9607C35.3323 67.2418 35.8764 66.5899 35.8279 63.1172Z" fill="#5E5E5E"/>
<path d="M26.359 63.5625C26.5423 63.8385 26.4182 64.6345 26.4054 65.1494C26.3633 66.8255 27.0279 68.4111 27.2333 69.9089C26.2777 69.068 25.9718 65.1174 26.359 63.5625Z" fill="#5E5E5E"/>
<path d="M49.6089 18.872C54.7856 17.927 57.9384 13.042 62.5846 9.55715C68.5822 5.05735 71.8584 3.1466 78.3331 1.30859C80.3555 16.1118 80.6429 30.5419 77.5236 45.0513C76.317 50.4119 74.7245 55.2726 74.2553 60.9571C73.4309 70.961 77.2041 79.7951 76.9602 89.6242C76.7064 99.8434 74.1932 109.8 73.0108 119.813C72.7099 122.365 72.1486 124.945 72.1886 127.551C72.2121 128.994 72.7926 130.316 73.0443 131.631C72.9409 132.086 72.7127 133.012 72.7334 133.461C72.9288 137.617 76.2321 140.215 77.98 142.77H59.9524C59.1822 139.409 60.5978 137.991 60.4494 134.845C60.401 133.817 60.0651 132.721 59.8333 131.725L59.8668 131.531C60.1827 129.749 60.9223 127.964 61.0713 126.27C61.2289 124.474 60.9544 121.825 60.7896 119.994C60.4466 116.176 60.0123 112.512 59.3562 108.787C58.4476 103.626 57.3829 98.5368 56.8103 93.2574C56.408 89.5486 56.6006 86.2541 56.816 82.5739C56.9272 80.6752 57.2032 77.7831 56.9878 76.0185C56.5578 72.4866 54.9903 69.3405 54.5153 65.7287C54.0996 62.5705 54.1488 59.4608 54.0532 56.2548C53.9805 54.0195 53.8215 51.7913 53.5768 49.5832C53.0883 45.1511 51.9822 40.5779 51.2242 36.148C50.1837 30.0698 50.0532 24.9523 49.6089 18.872Z" fill="white"/>
<path d="M60.5941 63.2852C60.7931 63.6197 60.8302 65.8557 61.0769 66.5646C61.5704 67.9839 62.4825 69.4361 63.1722 70.6357C62.745 70.6044 62.044 69.4275 61.7901 68.9126C60.8437 66.9904 60.4059 65.7102 60.5941 63.2852Z" fill="#5E5E5E"/>
<path d="M70.392 63.7266C71.0445 65.0831 70.1873 68.4303 69.7544 69.8154L69.6317 69.6535C69.5904 69.1293 70.2515 66.5659 70.3249 65.7151C70.4005 64.8421 70.4055 64.6309 70.392 63.7266Z" fill="#5E5E5E"/>
<path d="M65.5733 -91.1797C67.4731 -90.2136 69.2503 -89.4641 71.1779 -88.6735C71.3812 -86.4293 71.5823 -83.7981 71.8675 -81.5843C72.5115 -76.5833 74.4491 -66.2393 76.5158 -62.4C74.7158 -56.724 76.2848 -54.712 75.6864 -49.8149C75.0025 -44.2217 73.3416 -38.973 72.8217 -33.2993C72.1699 -26.1847 75.6265 -13.8857 77.0764 -6.80759C77.5948 -4.27489 77.8815 -1.56104 78.288 1.02515C72.3147 1.95164 65.0491 6.95358 59.8988 11.3414C57.7857 13.1423 55.4166 15.8605 53.1424 17.1771C45.8091 21.423 41.5973 15.7135 35.6403 10.5312C33.3119 8.50485 30.3067 6.50138 27.8663 4.95937C24.7712 3.09498 21.5516 1.73626 18.2627 0.906052C18.623 -1.59098 19.0114 -4.66502 19.5026 -7.07718C21.0127 -14.492 24.3904 -26.1434 23.6958 -33.8427C23.3442 -39.2598 21.2968 -45.5526 20.7669 -50.7478C20.2518 -55.7982 21.7716 -56.5243 19.9545 -62.4042C21.9513 -65.6922 23.9019 -76.2809 24.4803 -80.7879C24.7655 -83.0051 25.0251 -86.1651 25.2134 -88.4722L25.1292 -88.4417C27.2323 -89.2975 28.9039 -90.0166 30.9435 -91.1147C30.9079 -90.4365 30.8922 -89.7561 30.8986 -89.0758C30.9243 -85.4369 32.1816 -82.1296 33.8731 -79.6154C37.6043 -74.2161 43.6369 -73.0464 48.6175 -73.0642C54.7769 -73.0863 62.5788 -75.4557 65.1233 -85.0081C65.6731 -87.072 65.6018 -89.0099 65.5733 -91.1797Z" fill="#91364A"/>
<path d="M71.5586 -88.5547C79.983 -85.9375 89.0899 -85.9215 90.1104 -69.6397C90.2374 -67.6098 90.012 -64.9017 90.2573 -63.0145C91.0632 -56.8036 91.7371 -50.7361 91.8605 -44.3855C91.914 -38.3002 91.8926 -37.3337 93.4843 -31.7805C96.1158 -22.5955 94.9013 -10.8349 95.1624 -1.06218C95.2665 2.84349 95.4448 6.80623 95.6544 10.7119C95.7935 14.2845 96.461 18.5268 96.0324 22.0345C96.0973 21.675 92.262 29.9371 92.3825 29.7332C91.4041 31.3986 87.8911 33.698 86.4413 34.5104C89.1576 31.6496 91.2151 30.584 92.5943 25.7754C92.8767 24.7912 94.2638 21.8904 94.2802 21.0124C93.597 21.6686 91.5282 28.4443 90.4727 29.7909C89.8815 30.5441 89.751 30.6846 89.0478 31.3715C88.319 32.0768 87.6344 32.8471 86.9162 33.5682C86.3136 34.173 84.8203 35.9661 84.2726 34.6495C84.2227 33.3528 85.5969 32.288 86.2031 31.4599C87.4268 29.7895 88.2876 27.6113 88.9765 25.386C89.8865 22.4496 89.234 19.7172 88.4923 16.9434C87.6515 19.6366 87.091 21.5887 87.1922 24.6086C87.3249 28.5585 83.7513 29.2717 84.3731 24.6849C84.8039 21.5096 83.9773 18.0718 84.1792 14.8508C84.4395 10.7091 86.81 9.28758 87.5295 5.45894C87.2571 3.96613 86.5375 1.42201 86.1482 -0.13855C84.7397 -5.77666 83.0075 -11.2878 81.5961 -16.9245C80.6256 -20.8616 79.8625 -24.9078 79.3155 -29.0245C79.0638 -30.9795 78.9368 -32.9167 78.6516 -34.8774C78.1566 -38.2859 77.4278 -41.6067 76.873 -44.9768C76.485 -47.3319 76.3089 -50.0635 76.127 -52.475C75.9773 -54.4635 75.8717 -56.136 75.9844 -58.1431C76.1891 -61.8098 78.0539 -64.2277 78.4155 -67.6961L78.4355 -67.8994C77.8771 -66.1591 77.2887 -64.4409 76.6704 -62.747C73.8977 -68.9579 72.0029 -81.0938 71.5586 -88.5547Z" fill="white"/>
<path d="M24.6536 -88.2773C24.7342 -88.2597 24.6764 -88.2809 24.797 -88.1159C24.429 -80.6633 22.5506 -69.0156 19.8245 -62.7248C19.3333 -64.239 18.618 -66.4001 17.9891 -67.7774C18.0398 -67.5349 18.0923 -67.296 18.1459 -67.0556C18.6748 -64.3703 20.3513 -61.3212 20.4794 -58.4782C20.6881 -53.8451 20.1012 -48.2234 19.4953 -43.6729C19.109 -40.7715 18.3677 -37.9799 17.9617 -35.0956C17.5822 -32.3995 17.3792 -29.8112 16.9758 -27.1352C15.6615 -17.5757 12.717 -8.84851 10.3057 0.143234C9.9023 1.64745 9.39568 3.49828 9.13959 5.10948C8.81411 7.15646 10.7549 9.39032 11.371 11.0479C13.0216 14.9664 12.248 17.3272 12.171 21.5816C12.1725 23.2791 12.3555 25.0908 12.2074 26.7683C12.1329 27.6135 11.0348 28.0956 10.5858 27.7968C9.06022 26.7833 9.56869 23.262 9.27238 21.312C9.03447 19.7465 8.52358 18.3093 7.989 16.9706C7.22957 20.1366 6.692 22.7271 7.80657 25.9302C8.50204 27.9287 9.08318 29.5228 10.1633 31.1183C10.7708 32.0156 12.4124 33.3129 12.3975 34.5689C11.6419 36.2636 9.28508 33.196 8.4763 32.3572C5.55667 29.48 5.57535 29.0471 3.69777 24.4467C3.38256 23.6743 2.95211 22.496 2.58426 21.7856L2.54048 21.9532C2.76783 23.0894 5.39714 29.5913 6.10829 30.4215C6.90245 31.3487 8.93228 33.2637 9.86928 34.3307C8.44784 33.539 6.71211 32.3016 5.36932 31.1968C4.08644 30.1412 3.01037 26.6235 2.03022 24.931C0.885619 22.9539 0.157424 21.9347 0.355037 19.1759C0.735573 13.863 0.968275 8.48309 1.25382 3.1538C1.72428 -8.20161 0.285148 -20.1198 2.89548 -31.0765C3.39383 -33.1677 4.1815 -35.1904 4.44187 -37.405C4.61966 -39.0932 4.62023 -41.1124 4.67236 -42.8306C4.75395 -45.8961 4.88303 -48.958 5.05946 -52.0135C5.29109 -55.7409 6.07463 -59.6651 6.2619 -63.0786C6.61098 -69.4428 5.97593 -73.469 8.70407 -79.2163C11.2651 -84.6114 15.2993 -85.7768 19.4015 -86.8927L24.6536 -88.2773Z" fill="white"/>
<path d="M86.3432 30.3828L86.396 30.5119C86.1307 31.0212 85.4732 31.7807 85.1116 32.2279C84.9612 31.9919 85.0261 32.096 84.9604 31.7144C85.1822 30.9662 85.8177 30.7145 86.3432 30.3828Z" fill="#EDEDED"/>
<path d="M10.1523 30.4648C10.946 30.7016 11.5474 30.8685 11.5732 32.2059C11.2365 32.0126 10.4611 30.8828 10.1523 30.4648Z" fill="#EDEDED"/>
<path d="M79.5 1L71.5 1" stroke="#75041D"/>
<path d="M75.5 135L75.5 2.99999" stroke="#75041D" stroke-dasharray="3 3"/>
<path d="M79.5 137L71.5 137" stroke="#75041D"/>
</g>
<defs>
<clipPath id="clip0_1160_41760">
<rect width="99" height="137" fill="white"/>
</clipPath>
</defs>
</svg>
