<svg width="99" height="137" viewBox="0 0 99 137" fill="none" xmlns="http://www.w3.org/2000/svg">
<g clip-path="url(#clip0_1160_38935)">
<path d="M34.6087 -97.2796C34.9189 -97.9037 34.7734 -99.11 34.742 -99.866C34.6272 -102.659 33.9533 -109.19 35.1371 -111.359C35.6135 -112.232 36.5356 -112.849 37.2209 -113.276C39.028 -114.404 41.017 -115.024 42.9511 -115.448C47.8568 -116.524 59.0097 -116.364 62.8893 -111.861C63.6088 -111.027 63.8713 -110.158 63.9611 -108.818C64.0845 -106.975 63.5539 -98.8679 63.7907 -98.1211C64.8069 -96.8296 66.8337 -99.5137 65.2248 -91.8681C64.5181 -88.5087 64.8775 -85.9876 62.0228 -85.4081C61.6256 -83.7026 61.3218 -82.1131 60.486 -80.7481C60.282 -80.3017 59.9982 -79.7205 59.8377 -79.2534C59.899 -76.4726 59.8748 -73.2732 60.1422 -70.5405C60.3212 -68.7105 63.7629 -67.0696 64.762 -66.4663C69.2348 -63.7647 74.0101 -62.4963 78.7083 -61.171C83.3423 -59.8636 87.9108 -57.9522 90.0759 -51.0406C91.8958 -45.6086 91.1691 -42.5353 91.5949 -37.0156C91.9108 -32.9109 92.6225 -28.8112 92.8907 -24.5133C93.0518 -21.8772 93.1766 -19.2361 93.2651 -16.5921C93.4462 -10.4975 93.3022 -11.2828 94.8618 -5.62183C95.5258 -3.19469 95.9793 -0.649879 96.2111 1.95058C97.1054 12.1227 96.0656 23.4289 96.7987 33.7687C97.1189 38.2828 97.4555 43.1078 97.4677 47.5998C97.4684 48.007 96.6112 49.7373 96.4122 49.9684C95.632 50.8756 94.0517 55.5858 93.4819 56.2656C92.0684 57.9524 86.6784 62.2161 85.0653 61.2083C84.7743 60.6191 85.6059 57.1271 86.0173 56.7063C86.493 56.2206 87.3788 55.7763 87.935 55.4632C89.2665 52.1723 90.5145 50.0768 89.8741 46.1497C89.7578 45.4044 89.6073 44.6726 89.4248 43.958L89.3699 44.1363C89.086 45.0885 88.6553 47.0377 88.6175 48.0284C88.5112 50.8 88.5547 54.9232 85.8405 53.9597C84.5989 53.5196 85.1994 49.2523 85.1623 47.833C85.0931 45.1448 84.6652 42.555 84.9298 39.8811C85.322 36.6751 87.4907 34.7601 88.1703 31.7289C87.9635 29.8652 87.1805 27.2184 86.7148 25.396C84.2915 15.9257 81.1822 6.87975 79.9556 -3.19185C79.7267 -5.0705 79.6661 -7.02477 79.3922 -8.89272C78.6106 -13.8255 77.5409 -18.0357 76.9632 -23.0654C75.9948 -18.5778 74.1042 -9.82066 74.0757 -5.30801C74.0436 -0.0115356 76.1403 8.83686 77.1957 13.9971C77.543 15.6918 78.1043 17.5954 78.4273 19.3735C80.0433 28.2911 80.9462 37.4654 81.1173 46.7032C81.2271 55.0096 80.4819 63.4742 78.7368 71.3676C77.5965 76.5286 75.8907 81.5633 75.5341 87.0145C75.1768 92.7582 76.1017 98.4199 77.1273 103.908C77.7427 107.202 78.3368 110.814 78.299 114.252C78.1499 127.667 74.2526 140.424 73.4952 153.716C73.4374 154.716 74.0757 156.541 74.3331 157.534C74.04 158.998 73.7469 159.882 74.2982 161.321C75.3451 164.057 77.8283 166.813 79.4742 168.77H78.98H60.9524H60.538C59.9276 165.821 61.1114 164.085 61.2326 161.345C61.2925 160.008 60.466 158.568 60.6179 157.27C60.8532 155.26 61.7882 153.879 61.7974 151.708C61.8096 148.957 61.4687 145.797 61.1913 143.066C60.7955 139.16 60.1115 135.112 59.4376 131.294C58.6532 126.844 57.7589 122.279 57.3595 117.703C57.1163 114.922 57.2832 112.036 57.4458 109.276C57.5699 107.163 57.9486 103.781 57.6654 101.786C57.204 98.2943 55.5774 95.0313 55.1823 91.5257C54.5989 86.3412 55.0011 80.9856 54.3158 75.7682C53.9692 73.1328 53.587 70.7357 53.0528 68.1694C52.5493 65.7551 52.1507 63.2617 51.7599 60.8024C50.9141 55.6037 50.723 50.35 50.278 45.0621L48.2548 45.0699C47.9559 50.7422 47.3961 57.9402 46.459 63.4015C45.6824 67.9219 44.7732 71.5217 44.2169 76.2846C43.5537 81.9727 43.9894 87.2285 43.2313 92.7561C42.8099 95.8337 41.3572 99.2929 40.9407 102.363C40.7203 103.986 41.0869 107.793 41.1889 109.581C41.3608 112.491 41.5348 115.657 41.2452 118.562C40.3488 127.569 38.0339 136.186 37.3015 145.247C37.0904 147.869 36.6226 151.143 37.1197 153.718C37.3521 154.919 38.0681 156.174 38.0653 157.524C38.0903 158.815 37.2901 160.428 37.437 161.621C37.8242 164.776 38.6779 165.321 38.1865 168.77H37.8371H19.613H19.1879C20.9465 166.102 24.4356 163.529 24.5989 159.254C24.6146 158.843 24.4057 157.745 24.3265 157.297C24.616 155.488 25.2065 154.705 25.0432 152.596C24.0912 140.315 20.9392 128.809 20.4246 116.418C19.9951 106.077 23.6968 97.171 23.0704 86.8919C22.7326 81.35 20.9813 76.3474 19.7589 71.1864C16.01 54.3683 17.1188 35.7265 20.1346 18.8564C20.4705 16.977 21.0849 15.1554 21.4546 13.281C22.6379 7.27915 24.2794 1.02123 24.5034 -5.25381C24.5462 -9.34064 22.7467 -17.8353 21.8714 -22.0462L21.576 -23.4591C20.9413 -18.2589 20.1494 -13.6272 19.2081 -8.53825C18.8691 -6.70595 18.712 -4.10194 18.4616 -2.1598C18.0323 1.02837 17.4594 4.16946 16.747 7.24136C14.8472 15.2973 12.2383 23.1023 10.442 31.2018C10.2818 33.4178 12.0763 35.3449 12.7913 37.0995C14.3141 40.8376 13.5858 43.7932 13.4345 47.8194C13.3487 50.1068 14.6696 54.7135 11.5391 54.0945C10.0764 53.8056 10.0395 49.5055 9.90381 47.9585C9.78956 46.7596 9.57619 45.6098 9.12569 44.4658L9.05915 44.3003C7.99785 48.5348 8.62392 50.4712 10.0444 54.2114C10.8059 56.2171 10.8573 55.8733 12.3157 56.5416C12.9024 56.8105 12.6993 58.0394 12.9281 58.4388C13.3645 59.1998 14.0972 59.9466 13.5232 61.0728C13.0372 61.4279 12.3421 61.358 11.8273 61.1127C9.91308 60.2005 7.72008 58.7619 6.00453 57.2434C4.8058 56.1828 4.01691 53.6629 3.19915 52.0289C2.46746 50.5668 1.63664 48.9977 1.00622 47.4628C0.987105 46.8359 1.01485 46.0142 1.0515 45.3759C1.38804 39.2007 1.77685 33.049 1.94829 26.8517C2.24118 16.2638 1.09964 5.00179 3.56186 -5.15395C4.04822 -7.16029 4.86841 -9.22153 5.11787 -11.3327C5.28746 -12.767 5.26449 -14.6243 5.31071 -16.105C5.38937 -18.8973 5.50511 -21.6875 5.65794 -24.4726C5.90512 -28.7856 6.44247 -32.6335 6.94396 -36.8765C7.19499 -39.0005 6.99252 -41.499 7.098 -43.6829C7.23 -46.396 7.74247 -49.0364 8.60174 -51.4322C11.9567 -60.832 18.8274 -60.3968 24.8279 -62.4679C27.8345 -63.5055 36.1676 -66.9239 38.2671 -69.7905C38.5923 -71.7565 38.6087 -76.8942 38.6708 -79.1311C37.4413 -81.4882 37.196 -82.8471 36.5092 -85.6551C36.2354 -85.6719 35.9622 -85.7061 35.6905 -85.7573C35.3125 -85.8263 34.4618 -86.0685 34.3213 -86.6733C33.8805 -88.5658 30.6643 -100.284 34.6087 -97.2796Z" fill="#5E5E5E"/>
<path d="M19.2237 27.1992C24.5626 28.8732 27.2797 30.0999 32.306 33.6076C34.1388 34.8986 35.9266 36.3286 37.6624 37.8913C40.8388 40.7114 44.2833 44.5201 48.0245 44.8603C47.511 50.3444 47.3862 55.3278 46.5775 60.7876C45.746 66.4036 44.4944 71.26 43.8583 76.9495C43.2756 82.1604 43.66 86.8813 43.0738 91.9809C42.6466 95.5778 41.0563 98.89 40.6669 102.46C40.5214 103.8 40.6391 106.517 40.7746 107.847C41.5833 115.787 40.6555 122.517 39.2121 130.131C38.2415 135.248 37.3194 140.945 36.9036 146.272C36.7689 148.167 36.5028 150.564 36.6355 152.462C36.7753 154.468 37.5676 155.728 37.7666 157.934C37.6082 158.561 37.2902 159.747 37.241 160.38C36.9807 163.739 38.4811 165.1 37.8372 168.77H19.613C21.3745 166.582 24.6339 163.121 24.8529 159.661C24.9064 158.822 24.7274 158.101 24.5676 157.298C24.8464 156.285 25.4227 154.348 25.3606 153.343C24.564 140.384 20.8897 128.037 20.7306 114.951C20.6141 105.368 23.9871 96.7974 23.398 87.1766C23.0462 81.042 21.3239 76.5979 20.0493 71.1159C16.9813 57.9211 17.1861 40.7065 19.2237 27.1992Z" fill="white"/>
<path d="M36.828 89.1172C38.0233 91.0843 35.7198 95.057 34.8982 96.4671L34.7599 96.39C34.8112 96.0705 34.7656 96.2017 34.8932 95.9607C36.3324 93.2418 36.8765 92.5899 36.828 89.1172Z" fill="#5E5E5E"/>
<path d="M27.3589 89.5625C27.5422 89.8385 27.4181 90.6345 27.4052 91.1494C27.3632 92.8255 28.0278 94.4111 28.2332 95.9089C27.2776 95.068 26.9716 91.1174 27.3589 89.5625Z" fill="#5E5E5E"/>
<path d="M50.6089 44.872C55.7856 43.927 58.9384 39.042 63.5846 35.5571C69.5822 31.0573 72.8584 29.1466 79.3331 27.3086C81.3555 42.1118 81.6429 56.5419 78.5236 71.0513C77.317 76.4119 75.7245 81.2726 75.2553 86.9571C74.4309 96.961 78.2041 105.795 77.9602 115.624C77.7064 125.843 75.1932 135.8 74.0108 145.813C73.7099 148.365 73.1486 150.945 73.1886 153.551C73.2121 154.994 73.7926 156.316 74.0443 157.631C73.9409 158.086 73.7127 159.012 73.7334 159.461C73.9288 163.617 77.2321 166.215 78.98 168.77H60.9524C60.1822 165.409 61.5978 163.991 61.4494 160.845C61.401 159.817 61.0651 158.721 60.8333 157.725L60.8668 157.531C61.1827 155.749 61.9223 153.964 62.0713 152.27C62.2289 150.474 61.9544 147.825 61.7896 145.994C61.4466 142.176 61.0123 138.512 60.3562 134.787C59.4476 129.626 58.3829 124.537 57.8103 119.257C57.408 115.549 57.6006 112.254 57.816 108.574C57.9272 106.675 58.2032 103.783 57.9878 102.019C57.5578 98.4866 55.9903 95.3405 55.5153 91.7287C55.0996 88.5705 55.1488 85.4608 55.0532 82.2548C54.9805 80.0195 54.8215 77.7913 54.5768 75.5832C54.0883 71.1511 52.9822 66.5779 52.2242 62.148C51.1837 56.0698 51.0532 50.9523 50.6089 44.872Z" fill="white"/>
<path d="M61.5942 89.2852C61.7932 89.6197 61.8302 91.8557 62.077 92.5646C62.5705 93.9839 63.4826 95.4361 64.1722 96.6357C63.745 96.6044 63.044 95.4275 62.7901 94.9126C61.8438 92.9904 61.4059 91.7102 61.5942 89.2852Z" fill="#5E5E5E"/>
<path d="M71.3921 89.7266C72.0446 91.0831 71.1874 94.4303 70.7545 95.8154L70.6319 95.6535C70.5905 95.1293 71.2516 92.5659 71.325 91.7151C71.4006 90.8421 71.4056 90.6309 71.3921 89.7266Z" fill="#5E5E5E"/>
<path d="M66.5734 -65.1797C68.4732 -64.2136 70.2504 -63.4641 72.178 -62.6735C72.3813 -60.4293 72.5824 -57.7981 72.8676 -55.5843C73.5116 -50.5833 75.4492 -40.2393 77.5159 -36.4C75.716 -30.724 77.2849 -28.712 76.6866 -23.8149C76.0026 -18.2217 74.3417 -12.973 73.8218 -7.29926C73.17 -0.184738 76.6267 12.1143 78.0765 19.1924C78.5949 21.7251 78.8816 24.439 79.2881 27.0252C73.3148 27.9516 66.0492 32.9536 60.8989 37.3414C58.7858 39.1423 56.4167 41.8605 54.1425 43.1771C46.8092 47.423 42.5974 41.7135 36.6404 36.5312C34.312 34.5049 31.3068 32.5014 28.8664 30.9594C25.7714 29.095 22.5517 27.7363 19.2628 26.9061C19.6232 24.409 20.0116 21.335 20.5028 18.9228C22.0129 11.508 25.3905 -0.143372 24.6959 -7.84274C24.3444 -13.2598 22.2969 -19.5526 21.767 -24.7478C21.2519 -29.7982 22.7717 -30.5243 20.9546 -36.4042C22.9514 -39.6922 24.902 -50.2809 25.4804 -54.7879C25.7657 -57.0051 26.0252 -60.1651 26.2135 -62.4722L26.1294 -62.4417C28.2324 -63.2975 29.9041 -64.0166 31.9437 -65.1147C31.908 -64.4365 31.8923 -63.7561 31.8987 -63.0758C31.9244 -59.4369 33.1817 -56.1296 34.8733 -53.6154C38.6045 -48.2161 44.637 -47.0464 49.6176 -47.0642C55.7771 -47.0863 63.5789 -49.4557 66.1234 -59.0081C66.6732 -61.072 66.6019 -63.0099 66.5734 -65.1797Z" fill="#91364A"/>
<path d="M72.5588 -62.5547C80.9832 -59.9375 90.0901 -59.9215 91.1106 -43.6397C91.2375 -41.6098 91.0122 -38.9017 91.2575 -37.0145C92.0634 -30.8036 92.7373 -24.7361 92.8607 -18.3855C92.9141 -12.3002 92.8928 -11.3337 94.4845 -5.78049C97.116 3.40455 95.9015 15.1651 96.1625 24.9378C96.2667 28.8435 96.4449 32.8062 96.6546 36.7119C96.7937 40.2845 97.4612 44.5268 97.0326 48.0345C97.0975 47.675 93.2622 55.9371 93.3827 55.7332C92.4043 57.3986 88.8913 59.698 87.4415 60.5104C90.1578 57.6496 92.2153 56.584 93.5945 51.7754C93.8769 50.7912 95.264 47.8904 95.2804 47.0124C94.5972 47.6686 92.5283 54.4443 91.4729 55.7909C90.8817 56.5441 90.7512 56.6846 90.048 57.3715C89.3192 58.0768 88.6346 58.8471 87.9164 59.5682C87.3138 60.173 85.8205 61.9661 85.2728 60.6495C85.2228 59.3528 86.5971 58.288 87.2033 57.4599C88.427 55.7895 89.2878 53.6113 89.9767 51.386C90.8867 48.4496 90.2341 45.7172 89.4925 42.9434C88.6517 45.6366 88.0911 47.5887 88.1924 50.6086C88.325 54.5585 84.7515 55.2717 85.3733 50.6849C85.8041 47.5096 84.9775 44.0718 85.1794 40.8508C85.4396 36.7091 87.8102 35.2876 88.5297 31.4589C88.2573 29.9661 87.5377 27.422 87.1484 25.8615C85.7399 20.2233 84.0077 14.7122 82.5963 9.07549C81.6257 5.13843 80.8627 1.09225 80.3157 -3.02455C80.0639 -4.97952 79.937 -6.91667 79.6517 -8.87735C79.1568 -12.2859 78.428 -15.6067 77.8731 -18.9768C77.4852 -21.3319 77.309 -24.0635 77.1272 -26.475C76.9774 -28.4635 76.8719 -30.136 76.9846 -32.1431C77.1892 -35.8098 79.0541 -38.2277 79.4157 -41.6961L79.4357 -41.8994C78.8773 -40.1591 78.2889 -38.4409 77.6706 -36.747C74.8979 -42.9579 73.0031 -55.0938 72.5588 -62.5547Z" fill="white"/>
<path d="M25.6537 -62.2773C25.7343 -62.2597 25.6765 -62.2809 25.797 -62.1159C25.429 -54.6633 23.5506 -43.0156 20.8246 -36.7248C20.3334 -38.239 19.6181 -40.4001 18.9892 -41.7774C19.0399 -41.5349 19.0924 -41.296 19.1459 -41.0556C19.6749 -38.3703 21.3513 -35.3212 21.4794 -32.4782C21.6882 -27.8451 21.1013 -22.2234 20.4953 -17.6729C20.109 -14.7715 19.3678 -11.9799 18.9617 -9.09556C18.5823 -6.39954 18.3793 -3.81121 17.9759 -1.13515C16.6615 8.42434 13.7171 17.1515 11.3057 26.1432C10.9024 27.6475 10.3957 29.4983 10.1397 31.1095C9.81417 33.1565 11.755 35.3903 12.3711 37.0479C14.0217 40.9664 13.2481 43.3272 13.1711 47.5816C13.1726 49.2791 13.3556 51.0908 13.2075 52.7683C13.1329 53.6135 12.0348 54.0956 11.5858 53.7968C10.0603 52.7833 10.5688 49.262 10.2724 47.312C10.0345 45.7465 9.52364 44.3093 8.98906 42.9706C8.22963 46.1366 7.69206 48.7271 8.80664 51.9302C9.5021 53.9287 10.0832 55.5228 11.1634 57.1183C11.7709 58.0156 13.4125 59.3129 13.3975 60.5689C12.6419 62.2636 10.2851 59.196 9.47636 58.3572C6.55673 55.48 6.57541 55.0471 4.69784 50.4467C4.38262 49.6743 3.95217 48.496 3.58433 47.7856L3.54054 47.9532C3.76789 49.0894 6.3972 55.5913 7.10835 56.4215C7.90251 57.3487 9.93234 59.2637 10.8693 60.3307C9.4479 59.539 7.71217 58.3016 6.36938 57.1968C5.0865 56.1412 4.01043 52.6235 3.03028 50.931C1.88568 48.9539 1.15749 47.9347 1.3551 45.1759C1.73563 39.863 1.96834 34.4831 2.25388 29.1538C2.72434 17.7984 1.28521 5.88023 3.89554 -5.07648C4.39389 -7.16769 5.18156 -9.19042 5.44194 -11.405C5.61972 -13.0932 5.62029 -15.1124 5.67242 -16.8306C5.75401 -19.8961 5.88309 -22.958 6.05952 -26.0135C6.29115 -29.7409 7.07469 -33.6651 7.26196 -37.0786C7.61105 -43.4428 6.97599 -47.469 9.70413 -53.2163C12.2652 -58.6114 16.2993 -59.7768 20.4016 -60.8927L25.6537 -62.2773Z" fill="white"/>
<path d="M87.3431 56.3828L87.3959 56.5119C87.1306 57.0212 86.4731 57.7807 86.1115 58.2279C85.961 57.9919 86.0259 58.096 85.9603 57.7144C86.1821 56.9662 86.8175 56.7145 87.3431 56.3828Z" fill="#EDEDED"/>
<path d="M11.1523 56.4648C11.946 56.7016 12.5474 56.8685 12.5732 58.2059C12.2365 58.0126 11.4611 56.8828 11.1523 56.4648Z" fill="#EDEDED"/>
<path d="M17 20L17 28" stroke="#75041D"/>
<path d="M81 24H19" stroke="#75041D" stroke-dasharray="3 3"/>
<path d="M83 20L83 28" stroke="#75041D"/>
</g>
<defs>
<clipPath id="clip0_1160_38935">
<rect width="99" height="137" fill="white"/>
</clipPath>
</defs>
</svg>
